%TF.GenerationSoftware,KiCad,Pcbnew,7.0.1*%
%TF.CreationDate,2023-08-08T22:15:58+07:00*%
%TF.ProjectId,BL706 Robot,424c3730-3620-4526-9f62-6f742e6b6963,rev?*%
%TF.SameCoordinates,Original*%
%TF.FileFunction,Legend,Top*%
%TF.FilePolarity,Positive*%
%FSLAX46Y46*%
G04 Gerber Fmt 4.6, Leading zero omitted, Abs format (unit mm)*
G04 Created by KiCad (PCBNEW 7.0.1) date 2023-08-08 22:15:58*
%MOMM*%
%LPD*%
G01*
G04 APERTURE LIST*
%ADD10C,0.100000*%
%ADD11C,0.200000*%
%ADD12C,0.150000*%
%ADD13C,0.125000*%
%ADD14C,0.120000*%
%ADD15C,0.300000*%
G04 APERTURE END LIST*
D10*
X195547666Y-106800000D02*
X195581000Y-106700000D01*
X195581000Y-106700000D02*
X195614333Y-106666666D01*
X195614333Y-106666666D02*
X195681000Y-106633333D01*
X195681000Y-106633333D02*
X195781000Y-106633333D01*
X195781000Y-106633333D02*
X195847666Y-106666666D01*
X195847666Y-106666666D02*
X195881000Y-106700000D01*
X195881000Y-106700000D02*
X195914333Y-106766666D01*
X195914333Y-106766666D02*
X195914333Y-107033333D01*
X195914333Y-107033333D02*
X195214333Y-107033333D01*
X195214333Y-107033333D02*
X195214333Y-106800000D01*
X195214333Y-106800000D02*
X195247666Y-106733333D01*
X195247666Y-106733333D02*
X195281000Y-106700000D01*
X195281000Y-106700000D02*
X195347666Y-106666666D01*
X195347666Y-106666666D02*
X195414333Y-106666666D01*
X195414333Y-106666666D02*
X195481000Y-106700000D01*
X195481000Y-106700000D02*
X195514333Y-106733333D01*
X195514333Y-106733333D02*
X195547666Y-106800000D01*
X195547666Y-106800000D02*
X195547666Y-107033333D01*
X191314333Y-107833333D02*
X191314333Y-107433333D01*
X192014333Y-107633333D02*
X191314333Y-107633333D01*
X191314333Y-107266667D02*
X192014333Y-106800000D01*
X191314333Y-106800000D02*
X192014333Y-107266667D01*
X193214333Y-107233333D02*
X192881000Y-107466666D01*
X193214333Y-107633333D02*
X192514333Y-107633333D01*
X192514333Y-107633333D02*
X192514333Y-107366666D01*
X192514333Y-107366666D02*
X192547666Y-107300000D01*
X192547666Y-107300000D02*
X192581000Y-107266666D01*
X192581000Y-107266666D02*
X192647666Y-107233333D01*
X192647666Y-107233333D02*
X192747666Y-107233333D01*
X192747666Y-107233333D02*
X192814333Y-107266666D01*
X192814333Y-107266666D02*
X192847666Y-107300000D01*
X192847666Y-107300000D02*
X192881000Y-107366666D01*
X192881000Y-107366666D02*
X192881000Y-107633333D01*
X192514333Y-107000000D02*
X193214333Y-106533333D01*
X192514333Y-106533333D02*
X193214333Y-107000000D01*
D11*
X219728571Y-145222500D02*
X220871429Y-145222500D01*
X220300000Y-145793928D02*
X220300000Y-144651071D01*
X183828571Y-142422500D02*
X184971429Y-142422500D01*
X184400000Y-142993928D02*
X184400000Y-141851071D01*
D10*
X190247666Y-108266666D02*
X190214333Y-108333333D01*
X190214333Y-108333333D02*
X190214333Y-108433333D01*
X190214333Y-108433333D02*
X190247666Y-108533333D01*
X190247666Y-108533333D02*
X190314333Y-108600000D01*
X190314333Y-108600000D02*
X190381000Y-108633333D01*
X190381000Y-108633333D02*
X190514333Y-108666666D01*
X190514333Y-108666666D02*
X190614333Y-108666666D01*
X190614333Y-108666666D02*
X190747666Y-108633333D01*
X190747666Y-108633333D02*
X190814333Y-108600000D01*
X190814333Y-108600000D02*
X190881000Y-108533333D01*
X190881000Y-108533333D02*
X190914333Y-108433333D01*
X190914333Y-108433333D02*
X190914333Y-108366666D01*
X190914333Y-108366666D02*
X190881000Y-108266666D01*
X190881000Y-108266666D02*
X190847666Y-108233333D01*
X190847666Y-108233333D02*
X190614333Y-108233333D01*
X190614333Y-108233333D02*
X190614333Y-108366666D01*
X190914333Y-107933333D02*
X190214333Y-107933333D01*
X190214333Y-107933333D02*
X190914333Y-107533333D01*
X190914333Y-107533333D02*
X190214333Y-107533333D01*
X190914333Y-107200000D02*
X190214333Y-107200000D01*
X190214333Y-107200000D02*
X190214333Y-107033333D01*
X190214333Y-107033333D02*
X190247666Y-106933333D01*
X190247666Y-106933333D02*
X190314333Y-106866667D01*
X190314333Y-106866667D02*
X190381000Y-106833333D01*
X190381000Y-106833333D02*
X190514333Y-106800000D01*
X190514333Y-106800000D02*
X190614333Y-106800000D01*
X190614333Y-106800000D02*
X190747666Y-106833333D01*
X190747666Y-106833333D02*
X190814333Y-106866667D01*
X190814333Y-106866667D02*
X190881000Y-106933333D01*
X190881000Y-106933333D02*
X190914333Y-107033333D01*
X190914333Y-107033333D02*
X190914333Y-107200000D01*
X197114333Y-106433333D02*
X196781000Y-106666666D01*
X197114333Y-106833333D02*
X196414333Y-106833333D01*
X196414333Y-106833333D02*
X196414333Y-106566666D01*
X196414333Y-106566666D02*
X196447666Y-106500000D01*
X196447666Y-106500000D02*
X196481000Y-106466666D01*
X196481000Y-106466666D02*
X196547666Y-106433333D01*
X196547666Y-106433333D02*
X196647666Y-106433333D01*
X196647666Y-106433333D02*
X196714333Y-106466666D01*
X196714333Y-106466666D02*
X196747666Y-106500000D01*
X196747666Y-106500000D02*
X196781000Y-106566666D01*
X196781000Y-106566666D02*
X196781000Y-106833333D01*
X193914333Y-107333333D02*
X194614333Y-107100000D01*
X194614333Y-107100000D02*
X193914333Y-106866666D01*
D12*
%TO.C,R43*%
X197323833Y-125950000D02*
X196990500Y-126183333D01*
X197323833Y-126350000D02*
X196623833Y-126350000D01*
X196623833Y-126350000D02*
X196623833Y-126083333D01*
X196623833Y-126083333D02*
X196657166Y-126016667D01*
X196657166Y-126016667D02*
X196690500Y-125983333D01*
X196690500Y-125983333D02*
X196757166Y-125950000D01*
X196757166Y-125950000D02*
X196857166Y-125950000D01*
X196857166Y-125950000D02*
X196923833Y-125983333D01*
X196923833Y-125983333D02*
X196957166Y-126016667D01*
X196957166Y-126016667D02*
X196990500Y-126083333D01*
X196990500Y-126083333D02*
X196990500Y-126350000D01*
X196857166Y-125350000D02*
X197323833Y-125350000D01*
X196590500Y-125516667D02*
X197090500Y-125683333D01*
X197090500Y-125683333D02*
X197090500Y-125250000D01*
X196623833Y-125050000D02*
X196623833Y-124616666D01*
X196623833Y-124616666D02*
X196890500Y-124850000D01*
X196890500Y-124850000D02*
X196890500Y-124750000D01*
X196890500Y-124750000D02*
X196923833Y-124683333D01*
X196923833Y-124683333D02*
X196957166Y-124650000D01*
X196957166Y-124650000D02*
X197023833Y-124616666D01*
X197023833Y-124616666D02*
X197190500Y-124616666D01*
X197190500Y-124616666D02*
X197257166Y-124650000D01*
X197257166Y-124650000D02*
X197290500Y-124683333D01*
X197290500Y-124683333D02*
X197323833Y-124750000D01*
X197323833Y-124750000D02*
X197323833Y-124950000D01*
X197323833Y-124950000D02*
X197290500Y-125016666D01*
X197290500Y-125016666D02*
X197257166Y-125050000D01*
%TO.C,R7*%
X195168333Y-120903833D02*
X194935000Y-120570500D01*
X194768333Y-120903833D02*
X194768333Y-120203833D01*
X194768333Y-120203833D02*
X195035000Y-120203833D01*
X195035000Y-120203833D02*
X195101667Y-120237166D01*
X195101667Y-120237166D02*
X195135000Y-120270500D01*
X195135000Y-120270500D02*
X195168333Y-120337166D01*
X195168333Y-120337166D02*
X195168333Y-120437166D01*
X195168333Y-120437166D02*
X195135000Y-120503833D01*
X195135000Y-120503833D02*
X195101667Y-120537166D01*
X195101667Y-120537166D02*
X195035000Y-120570500D01*
X195035000Y-120570500D02*
X194768333Y-120570500D01*
X195401667Y-120203833D02*
X195868333Y-120203833D01*
X195868333Y-120203833D02*
X195568333Y-120903833D01*
%TO.C,C16*%
X204400428Y-109455714D02*
X204429000Y-109484286D01*
X204429000Y-109484286D02*
X204457571Y-109570000D01*
X204457571Y-109570000D02*
X204457571Y-109627143D01*
X204457571Y-109627143D02*
X204429000Y-109712857D01*
X204429000Y-109712857D02*
X204371857Y-109770000D01*
X204371857Y-109770000D02*
X204314714Y-109798571D01*
X204314714Y-109798571D02*
X204200428Y-109827143D01*
X204200428Y-109827143D02*
X204114714Y-109827143D01*
X204114714Y-109827143D02*
X204000428Y-109798571D01*
X204000428Y-109798571D02*
X203943285Y-109770000D01*
X203943285Y-109770000D02*
X203886142Y-109712857D01*
X203886142Y-109712857D02*
X203857571Y-109627143D01*
X203857571Y-109627143D02*
X203857571Y-109570000D01*
X203857571Y-109570000D02*
X203886142Y-109484286D01*
X203886142Y-109484286D02*
X203914714Y-109455714D01*
X204457571Y-108884286D02*
X204457571Y-109227143D01*
X204457571Y-109055714D02*
X203857571Y-109055714D01*
X203857571Y-109055714D02*
X203943285Y-109112857D01*
X203943285Y-109112857D02*
X204000428Y-109170000D01*
X204000428Y-109170000D02*
X204029000Y-109227143D01*
X203857571Y-108370000D02*
X203857571Y-108484285D01*
X203857571Y-108484285D02*
X203886142Y-108541428D01*
X203886142Y-108541428D02*
X203914714Y-108570000D01*
X203914714Y-108570000D02*
X204000428Y-108627142D01*
X204000428Y-108627142D02*
X204114714Y-108655714D01*
X204114714Y-108655714D02*
X204343285Y-108655714D01*
X204343285Y-108655714D02*
X204400428Y-108627142D01*
X204400428Y-108627142D02*
X204429000Y-108598571D01*
X204429000Y-108598571D02*
X204457571Y-108541428D01*
X204457571Y-108541428D02*
X204457571Y-108427142D01*
X204457571Y-108427142D02*
X204429000Y-108370000D01*
X204429000Y-108370000D02*
X204400428Y-108341428D01*
X204400428Y-108341428D02*
X204343285Y-108312857D01*
X204343285Y-108312857D02*
X204200428Y-108312857D01*
X204200428Y-108312857D02*
X204143285Y-108341428D01*
X204143285Y-108341428D02*
X204114714Y-108370000D01*
X204114714Y-108370000D02*
X204086142Y-108427142D01*
X204086142Y-108427142D02*
X204086142Y-108541428D01*
X204086142Y-108541428D02*
X204114714Y-108598571D01*
X204114714Y-108598571D02*
X204143285Y-108627142D01*
X204143285Y-108627142D02*
X204200428Y-108655714D01*
%TO.C,D7*%
X229816333Y-132358833D02*
X229816333Y-131658833D01*
X229816333Y-131658833D02*
X229983000Y-131658833D01*
X229983000Y-131658833D02*
X230083000Y-131692166D01*
X230083000Y-131692166D02*
X230149667Y-131758833D01*
X230149667Y-131758833D02*
X230183000Y-131825500D01*
X230183000Y-131825500D02*
X230216333Y-131958833D01*
X230216333Y-131958833D02*
X230216333Y-132058833D01*
X230216333Y-132058833D02*
X230183000Y-132192166D01*
X230183000Y-132192166D02*
X230149667Y-132258833D01*
X230149667Y-132258833D02*
X230083000Y-132325500D01*
X230083000Y-132325500D02*
X229983000Y-132358833D01*
X229983000Y-132358833D02*
X229816333Y-132358833D01*
X230449667Y-131658833D02*
X230916333Y-131658833D01*
X230916333Y-131658833D02*
X230616333Y-132358833D01*
D13*
%TO.C,C21*%
X218710999Y-122361166D02*
X218677666Y-122394500D01*
X218677666Y-122394500D02*
X218577666Y-122427833D01*
X218577666Y-122427833D02*
X218510999Y-122427833D01*
X218510999Y-122427833D02*
X218410999Y-122394500D01*
X218410999Y-122394500D02*
X218344333Y-122327833D01*
X218344333Y-122327833D02*
X218310999Y-122261166D01*
X218310999Y-122261166D02*
X218277666Y-122127833D01*
X218277666Y-122127833D02*
X218277666Y-122027833D01*
X218277666Y-122027833D02*
X218310999Y-121894500D01*
X218310999Y-121894500D02*
X218344333Y-121827833D01*
X218344333Y-121827833D02*
X218410999Y-121761166D01*
X218410999Y-121761166D02*
X218510999Y-121727833D01*
X218510999Y-121727833D02*
X218577666Y-121727833D01*
X218577666Y-121727833D02*
X218677666Y-121761166D01*
X218677666Y-121761166D02*
X218710999Y-121794500D01*
X218977666Y-121794500D02*
X219010999Y-121761166D01*
X219010999Y-121761166D02*
X219077666Y-121727833D01*
X219077666Y-121727833D02*
X219244333Y-121727833D01*
X219244333Y-121727833D02*
X219310999Y-121761166D01*
X219310999Y-121761166D02*
X219344333Y-121794500D01*
X219344333Y-121794500D02*
X219377666Y-121861166D01*
X219377666Y-121861166D02*
X219377666Y-121927833D01*
X219377666Y-121927833D02*
X219344333Y-122027833D01*
X219344333Y-122027833D02*
X218944333Y-122427833D01*
X218944333Y-122427833D02*
X219377666Y-122427833D01*
X220044333Y-122427833D02*
X219644333Y-122427833D01*
X219844333Y-122427833D02*
X219844333Y-121727833D01*
X219844333Y-121727833D02*
X219777666Y-121827833D01*
X219777666Y-121827833D02*
X219711000Y-121894500D01*
X219711000Y-121894500D02*
X219644333Y-121927833D01*
D12*
%TO.C,R8*%
X187283333Y-114223833D02*
X187050000Y-113890500D01*
X186883333Y-114223833D02*
X186883333Y-113523833D01*
X186883333Y-113523833D02*
X187150000Y-113523833D01*
X187150000Y-113523833D02*
X187216667Y-113557166D01*
X187216667Y-113557166D02*
X187250000Y-113590500D01*
X187250000Y-113590500D02*
X187283333Y-113657166D01*
X187283333Y-113657166D02*
X187283333Y-113757166D01*
X187283333Y-113757166D02*
X187250000Y-113823833D01*
X187250000Y-113823833D02*
X187216667Y-113857166D01*
X187216667Y-113857166D02*
X187150000Y-113890500D01*
X187150000Y-113890500D02*
X186883333Y-113890500D01*
X187683333Y-113823833D02*
X187616667Y-113790500D01*
X187616667Y-113790500D02*
X187583333Y-113757166D01*
X187583333Y-113757166D02*
X187550000Y-113690500D01*
X187550000Y-113690500D02*
X187550000Y-113657166D01*
X187550000Y-113657166D02*
X187583333Y-113590500D01*
X187583333Y-113590500D02*
X187616667Y-113557166D01*
X187616667Y-113557166D02*
X187683333Y-113523833D01*
X187683333Y-113523833D02*
X187816667Y-113523833D01*
X187816667Y-113523833D02*
X187883333Y-113557166D01*
X187883333Y-113557166D02*
X187916667Y-113590500D01*
X187916667Y-113590500D02*
X187950000Y-113657166D01*
X187950000Y-113657166D02*
X187950000Y-113690500D01*
X187950000Y-113690500D02*
X187916667Y-113757166D01*
X187916667Y-113757166D02*
X187883333Y-113790500D01*
X187883333Y-113790500D02*
X187816667Y-113823833D01*
X187816667Y-113823833D02*
X187683333Y-113823833D01*
X187683333Y-113823833D02*
X187616667Y-113857166D01*
X187616667Y-113857166D02*
X187583333Y-113890500D01*
X187583333Y-113890500D02*
X187550000Y-113957166D01*
X187550000Y-113957166D02*
X187550000Y-114090500D01*
X187550000Y-114090500D02*
X187583333Y-114157166D01*
X187583333Y-114157166D02*
X187616667Y-114190500D01*
X187616667Y-114190500D02*
X187683333Y-114223833D01*
X187683333Y-114223833D02*
X187816667Y-114223833D01*
X187816667Y-114223833D02*
X187883333Y-114190500D01*
X187883333Y-114190500D02*
X187916667Y-114157166D01*
X187916667Y-114157166D02*
X187950000Y-114090500D01*
X187950000Y-114090500D02*
X187950000Y-113957166D01*
X187950000Y-113957166D02*
X187916667Y-113890500D01*
X187916667Y-113890500D02*
X187883333Y-113857166D01*
X187883333Y-113857166D02*
X187816667Y-113823833D01*
%TO.C,D3*%
X213726424Y-142208058D02*
X214060436Y-141592886D01*
X214060436Y-141592886D02*
X214206905Y-141672412D01*
X214206905Y-141672412D02*
X214278881Y-141749422D01*
X214278881Y-141749422D02*
X214305659Y-141839821D01*
X214305659Y-141839821D02*
X214303142Y-141914314D01*
X214303142Y-141914314D02*
X214268815Y-142047395D01*
X214268815Y-142047395D02*
X214221099Y-142135276D01*
X214221099Y-142135276D02*
X214128184Y-142236547D01*
X214128184Y-142236547D02*
X214067079Y-142279229D01*
X214067079Y-142279229D02*
X213976681Y-142306006D01*
X213976681Y-142306006D02*
X213872894Y-142287584D01*
X213872894Y-142287584D02*
X213726424Y-142208058D01*
X214617020Y-141895086D02*
X214997840Y-142101855D01*
X214997840Y-142101855D02*
X214665541Y-142224869D01*
X214665541Y-142224869D02*
X214753422Y-142272585D01*
X214753422Y-142272585D02*
X214796105Y-142333690D01*
X214796105Y-142333690D02*
X214809494Y-142378889D01*
X214809494Y-142378889D02*
X214806977Y-142453382D01*
X214806977Y-142453382D02*
X214727450Y-142599852D01*
X214727450Y-142599852D02*
X214666346Y-142642534D01*
X214666346Y-142642534D02*
X214621147Y-142655923D01*
X214621147Y-142655923D02*
X214546654Y-142653406D01*
X214546654Y-142653406D02*
X214370890Y-142557974D01*
X214370890Y-142557974D02*
X214328208Y-142496870D01*
X214328208Y-142496870D02*
X214314819Y-142451671D01*
%TO.C,R41*%
X166386999Y-129539833D02*
X166153666Y-129206500D01*
X165986999Y-129539833D02*
X165986999Y-128839833D01*
X165986999Y-128839833D02*
X166253666Y-128839833D01*
X166253666Y-128839833D02*
X166320333Y-128873166D01*
X166320333Y-128873166D02*
X166353666Y-128906500D01*
X166353666Y-128906500D02*
X166386999Y-128973166D01*
X166386999Y-128973166D02*
X166386999Y-129073166D01*
X166386999Y-129073166D02*
X166353666Y-129139833D01*
X166353666Y-129139833D02*
X166320333Y-129173166D01*
X166320333Y-129173166D02*
X166253666Y-129206500D01*
X166253666Y-129206500D02*
X165986999Y-129206500D01*
X166986999Y-129073166D02*
X166986999Y-129539833D01*
X166820333Y-128806500D02*
X166653666Y-129306500D01*
X166653666Y-129306500D02*
X167086999Y-129306500D01*
X167720333Y-129539833D02*
X167320333Y-129539833D01*
X167520333Y-129539833D02*
X167520333Y-128839833D01*
X167520333Y-128839833D02*
X167453666Y-128939833D01*
X167453666Y-128939833D02*
X167387000Y-129006500D01*
X167387000Y-129006500D02*
X167320333Y-129039833D01*
%TO.C,C6*%
X208997166Y-111736666D02*
X209030500Y-111769999D01*
X209030500Y-111769999D02*
X209063833Y-111869999D01*
X209063833Y-111869999D02*
X209063833Y-111936666D01*
X209063833Y-111936666D02*
X209030500Y-112036666D01*
X209030500Y-112036666D02*
X208963833Y-112103333D01*
X208963833Y-112103333D02*
X208897166Y-112136666D01*
X208897166Y-112136666D02*
X208763833Y-112169999D01*
X208763833Y-112169999D02*
X208663833Y-112169999D01*
X208663833Y-112169999D02*
X208530500Y-112136666D01*
X208530500Y-112136666D02*
X208463833Y-112103333D01*
X208463833Y-112103333D02*
X208397166Y-112036666D01*
X208397166Y-112036666D02*
X208363833Y-111936666D01*
X208363833Y-111936666D02*
X208363833Y-111869999D01*
X208363833Y-111869999D02*
X208397166Y-111769999D01*
X208397166Y-111769999D02*
X208430500Y-111736666D01*
X208363833Y-111136666D02*
X208363833Y-111269999D01*
X208363833Y-111269999D02*
X208397166Y-111336666D01*
X208397166Y-111336666D02*
X208430500Y-111369999D01*
X208430500Y-111369999D02*
X208530500Y-111436666D01*
X208530500Y-111436666D02*
X208663833Y-111469999D01*
X208663833Y-111469999D02*
X208930500Y-111469999D01*
X208930500Y-111469999D02*
X208997166Y-111436666D01*
X208997166Y-111436666D02*
X209030500Y-111403333D01*
X209030500Y-111403333D02*
X209063833Y-111336666D01*
X209063833Y-111336666D02*
X209063833Y-111203333D01*
X209063833Y-111203333D02*
X209030500Y-111136666D01*
X209030500Y-111136666D02*
X208997166Y-111103333D01*
X208997166Y-111103333D02*
X208930500Y-111069999D01*
X208930500Y-111069999D02*
X208763833Y-111069999D01*
X208763833Y-111069999D02*
X208697166Y-111103333D01*
X208697166Y-111103333D02*
X208663833Y-111136666D01*
X208663833Y-111136666D02*
X208630500Y-111203333D01*
X208630500Y-111203333D02*
X208630500Y-111336666D01*
X208630500Y-111336666D02*
X208663833Y-111403333D01*
X208663833Y-111403333D02*
X208697166Y-111436666D01*
X208697166Y-111436666D02*
X208763833Y-111469999D01*
%TO.C,C14*%
X205457166Y-109390000D02*
X205490500Y-109423333D01*
X205490500Y-109423333D02*
X205523833Y-109523333D01*
X205523833Y-109523333D02*
X205523833Y-109590000D01*
X205523833Y-109590000D02*
X205490500Y-109690000D01*
X205490500Y-109690000D02*
X205423833Y-109756667D01*
X205423833Y-109756667D02*
X205357166Y-109790000D01*
X205357166Y-109790000D02*
X205223833Y-109823333D01*
X205223833Y-109823333D02*
X205123833Y-109823333D01*
X205123833Y-109823333D02*
X204990500Y-109790000D01*
X204990500Y-109790000D02*
X204923833Y-109756667D01*
X204923833Y-109756667D02*
X204857166Y-109690000D01*
X204857166Y-109690000D02*
X204823833Y-109590000D01*
X204823833Y-109590000D02*
X204823833Y-109523333D01*
X204823833Y-109523333D02*
X204857166Y-109423333D01*
X204857166Y-109423333D02*
X204890500Y-109390000D01*
X205523833Y-108723333D02*
X205523833Y-109123333D01*
X205523833Y-108923333D02*
X204823833Y-108923333D01*
X204823833Y-108923333D02*
X204923833Y-108990000D01*
X204923833Y-108990000D02*
X204990500Y-109056667D01*
X204990500Y-109056667D02*
X205023833Y-109123333D01*
X205057166Y-108123333D02*
X205523833Y-108123333D01*
X204790500Y-108290000D02*
X205290500Y-108456666D01*
X205290500Y-108456666D02*
X205290500Y-108023333D01*
%TO.C,ANT1*%
X213442833Y-112033332D02*
X213442833Y-111699999D01*
X213642833Y-112099999D02*
X212942833Y-111866666D01*
X212942833Y-111866666D02*
X213642833Y-111633332D01*
X213642833Y-111399999D02*
X212942833Y-111399999D01*
X212942833Y-111399999D02*
X213642833Y-110999999D01*
X213642833Y-110999999D02*
X212942833Y-110999999D01*
X212942833Y-110766666D02*
X212942833Y-110366666D01*
X213642833Y-110566666D02*
X212942833Y-110566666D01*
X213642833Y-109766666D02*
X213642833Y-110166666D01*
X213642833Y-109966666D02*
X212942833Y-109966666D01*
X212942833Y-109966666D02*
X213042833Y-110033333D01*
X213042833Y-110033333D02*
X213109500Y-110100000D01*
X213109500Y-110100000D02*
X213142833Y-110166666D01*
%TO.C,U2*%
X224215666Y-119314833D02*
X224215666Y-119881500D01*
X224215666Y-119881500D02*
X224249000Y-119948166D01*
X224249000Y-119948166D02*
X224282333Y-119981500D01*
X224282333Y-119981500D02*
X224349000Y-120014833D01*
X224349000Y-120014833D02*
X224482333Y-120014833D01*
X224482333Y-120014833D02*
X224549000Y-119981500D01*
X224549000Y-119981500D02*
X224582333Y-119948166D01*
X224582333Y-119948166D02*
X224615666Y-119881500D01*
X224615666Y-119881500D02*
X224615666Y-119314833D01*
X224915666Y-119381500D02*
X224948999Y-119348166D01*
X224948999Y-119348166D02*
X225015666Y-119314833D01*
X225015666Y-119314833D02*
X225182333Y-119314833D01*
X225182333Y-119314833D02*
X225248999Y-119348166D01*
X225248999Y-119348166D02*
X225282333Y-119381500D01*
X225282333Y-119381500D02*
X225315666Y-119448166D01*
X225315666Y-119448166D02*
X225315666Y-119514833D01*
X225315666Y-119514833D02*
X225282333Y-119614833D01*
X225282333Y-119614833D02*
X224882333Y-120014833D01*
X224882333Y-120014833D02*
X225315666Y-120014833D01*
%TO.C,C17*%
X230009999Y-126917166D02*
X229976666Y-126950500D01*
X229976666Y-126950500D02*
X229876666Y-126983833D01*
X229876666Y-126983833D02*
X229809999Y-126983833D01*
X229809999Y-126983833D02*
X229709999Y-126950500D01*
X229709999Y-126950500D02*
X229643333Y-126883833D01*
X229643333Y-126883833D02*
X229609999Y-126817166D01*
X229609999Y-126817166D02*
X229576666Y-126683833D01*
X229576666Y-126683833D02*
X229576666Y-126583833D01*
X229576666Y-126583833D02*
X229609999Y-126450500D01*
X229609999Y-126450500D02*
X229643333Y-126383833D01*
X229643333Y-126383833D02*
X229709999Y-126317166D01*
X229709999Y-126317166D02*
X229809999Y-126283833D01*
X229809999Y-126283833D02*
X229876666Y-126283833D01*
X229876666Y-126283833D02*
X229976666Y-126317166D01*
X229976666Y-126317166D02*
X230009999Y-126350500D01*
X230676666Y-126983833D02*
X230276666Y-126983833D01*
X230476666Y-126983833D02*
X230476666Y-126283833D01*
X230476666Y-126283833D02*
X230409999Y-126383833D01*
X230409999Y-126383833D02*
X230343333Y-126450500D01*
X230343333Y-126450500D02*
X230276666Y-126483833D01*
X230910000Y-126283833D02*
X231376666Y-126283833D01*
X231376666Y-126283833D02*
X231076666Y-126983833D01*
%TO.C,C3*%
X202257166Y-121616666D02*
X202290500Y-121649999D01*
X202290500Y-121649999D02*
X202323833Y-121749999D01*
X202323833Y-121749999D02*
X202323833Y-121816666D01*
X202323833Y-121816666D02*
X202290500Y-121916666D01*
X202290500Y-121916666D02*
X202223833Y-121983333D01*
X202223833Y-121983333D02*
X202157166Y-122016666D01*
X202157166Y-122016666D02*
X202023833Y-122049999D01*
X202023833Y-122049999D02*
X201923833Y-122049999D01*
X201923833Y-122049999D02*
X201790500Y-122016666D01*
X201790500Y-122016666D02*
X201723833Y-121983333D01*
X201723833Y-121983333D02*
X201657166Y-121916666D01*
X201657166Y-121916666D02*
X201623833Y-121816666D01*
X201623833Y-121816666D02*
X201623833Y-121749999D01*
X201623833Y-121749999D02*
X201657166Y-121649999D01*
X201657166Y-121649999D02*
X201690500Y-121616666D01*
X201623833Y-121383333D02*
X201623833Y-120949999D01*
X201623833Y-120949999D02*
X201890500Y-121183333D01*
X201890500Y-121183333D02*
X201890500Y-121083333D01*
X201890500Y-121083333D02*
X201923833Y-121016666D01*
X201923833Y-121016666D02*
X201957166Y-120983333D01*
X201957166Y-120983333D02*
X202023833Y-120949999D01*
X202023833Y-120949999D02*
X202190500Y-120949999D01*
X202190500Y-120949999D02*
X202257166Y-120983333D01*
X202257166Y-120983333D02*
X202290500Y-121016666D01*
X202290500Y-121016666D02*
X202323833Y-121083333D01*
X202323833Y-121083333D02*
X202323833Y-121283333D01*
X202323833Y-121283333D02*
X202290500Y-121349999D01*
X202290500Y-121349999D02*
X202257166Y-121383333D01*
%TO.C,R34*%
X195323833Y-125950000D02*
X194990500Y-126183333D01*
X195323833Y-126350000D02*
X194623833Y-126350000D01*
X194623833Y-126350000D02*
X194623833Y-126083333D01*
X194623833Y-126083333D02*
X194657166Y-126016667D01*
X194657166Y-126016667D02*
X194690500Y-125983333D01*
X194690500Y-125983333D02*
X194757166Y-125950000D01*
X194757166Y-125950000D02*
X194857166Y-125950000D01*
X194857166Y-125950000D02*
X194923833Y-125983333D01*
X194923833Y-125983333D02*
X194957166Y-126016667D01*
X194957166Y-126016667D02*
X194990500Y-126083333D01*
X194990500Y-126083333D02*
X194990500Y-126350000D01*
X194623833Y-125716667D02*
X194623833Y-125283333D01*
X194623833Y-125283333D02*
X194890500Y-125516667D01*
X194890500Y-125516667D02*
X194890500Y-125416667D01*
X194890500Y-125416667D02*
X194923833Y-125350000D01*
X194923833Y-125350000D02*
X194957166Y-125316667D01*
X194957166Y-125316667D02*
X195023833Y-125283333D01*
X195023833Y-125283333D02*
X195190500Y-125283333D01*
X195190500Y-125283333D02*
X195257166Y-125316667D01*
X195257166Y-125316667D02*
X195290500Y-125350000D01*
X195290500Y-125350000D02*
X195323833Y-125416667D01*
X195323833Y-125416667D02*
X195323833Y-125616667D01*
X195323833Y-125616667D02*
X195290500Y-125683333D01*
X195290500Y-125683333D02*
X195257166Y-125716667D01*
X194857166Y-124683333D02*
X195323833Y-124683333D01*
X194590500Y-124850000D02*
X195090500Y-125016666D01*
X195090500Y-125016666D02*
X195090500Y-124583333D01*
%TO.C,R40*%
X186649999Y-112723833D02*
X186416666Y-112390500D01*
X186249999Y-112723833D02*
X186249999Y-112023833D01*
X186249999Y-112023833D02*
X186516666Y-112023833D01*
X186516666Y-112023833D02*
X186583333Y-112057166D01*
X186583333Y-112057166D02*
X186616666Y-112090500D01*
X186616666Y-112090500D02*
X186649999Y-112157166D01*
X186649999Y-112157166D02*
X186649999Y-112257166D01*
X186649999Y-112257166D02*
X186616666Y-112323833D01*
X186616666Y-112323833D02*
X186583333Y-112357166D01*
X186583333Y-112357166D02*
X186516666Y-112390500D01*
X186516666Y-112390500D02*
X186249999Y-112390500D01*
X187249999Y-112257166D02*
X187249999Y-112723833D01*
X187083333Y-111990500D02*
X186916666Y-112490500D01*
X186916666Y-112490500D02*
X187349999Y-112490500D01*
X187750000Y-112023833D02*
X187816666Y-112023833D01*
X187816666Y-112023833D02*
X187883333Y-112057166D01*
X187883333Y-112057166D02*
X187916666Y-112090500D01*
X187916666Y-112090500D02*
X187950000Y-112157166D01*
X187950000Y-112157166D02*
X187983333Y-112290500D01*
X187983333Y-112290500D02*
X187983333Y-112457166D01*
X187983333Y-112457166D02*
X187950000Y-112590500D01*
X187950000Y-112590500D02*
X187916666Y-112657166D01*
X187916666Y-112657166D02*
X187883333Y-112690500D01*
X187883333Y-112690500D02*
X187816666Y-112723833D01*
X187816666Y-112723833D02*
X187750000Y-112723833D01*
X187750000Y-112723833D02*
X187683333Y-112690500D01*
X187683333Y-112690500D02*
X187650000Y-112657166D01*
X187650000Y-112657166D02*
X187616666Y-112590500D01*
X187616666Y-112590500D02*
X187583333Y-112457166D01*
X187583333Y-112457166D02*
X187583333Y-112290500D01*
X187583333Y-112290500D02*
X187616666Y-112157166D01*
X187616666Y-112157166D02*
X187650000Y-112090500D01*
X187650000Y-112090500D02*
X187683333Y-112057166D01*
X187683333Y-112057166D02*
X187750000Y-112023833D01*
%TO.C,C2*%
X201257166Y-121816666D02*
X201290500Y-121849999D01*
X201290500Y-121849999D02*
X201323833Y-121949999D01*
X201323833Y-121949999D02*
X201323833Y-122016666D01*
X201323833Y-122016666D02*
X201290500Y-122116666D01*
X201290500Y-122116666D02*
X201223833Y-122183333D01*
X201223833Y-122183333D02*
X201157166Y-122216666D01*
X201157166Y-122216666D02*
X201023833Y-122249999D01*
X201023833Y-122249999D02*
X200923833Y-122249999D01*
X200923833Y-122249999D02*
X200790500Y-122216666D01*
X200790500Y-122216666D02*
X200723833Y-122183333D01*
X200723833Y-122183333D02*
X200657166Y-122116666D01*
X200657166Y-122116666D02*
X200623833Y-122016666D01*
X200623833Y-122016666D02*
X200623833Y-121949999D01*
X200623833Y-121949999D02*
X200657166Y-121849999D01*
X200657166Y-121849999D02*
X200690500Y-121816666D01*
X200690500Y-121549999D02*
X200657166Y-121516666D01*
X200657166Y-121516666D02*
X200623833Y-121449999D01*
X200623833Y-121449999D02*
X200623833Y-121283333D01*
X200623833Y-121283333D02*
X200657166Y-121216666D01*
X200657166Y-121216666D02*
X200690500Y-121183333D01*
X200690500Y-121183333D02*
X200757166Y-121149999D01*
X200757166Y-121149999D02*
X200823833Y-121149999D01*
X200823833Y-121149999D02*
X200923833Y-121183333D01*
X200923833Y-121183333D02*
X201323833Y-121583333D01*
X201323833Y-121583333D02*
X201323833Y-121149999D01*
%TO.C,R23*%
X212349999Y-118423833D02*
X212116666Y-118090500D01*
X211949999Y-118423833D02*
X211949999Y-117723833D01*
X211949999Y-117723833D02*
X212216666Y-117723833D01*
X212216666Y-117723833D02*
X212283333Y-117757166D01*
X212283333Y-117757166D02*
X212316666Y-117790500D01*
X212316666Y-117790500D02*
X212349999Y-117857166D01*
X212349999Y-117857166D02*
X212349999Y-117957166D01*
X212349999Y-117957166D02*
X212316666Y-118023833D01*
X212316666Y-118023833D02*
X212283333Y-118057166D01*
X212283333Y-118057166D02*
X212216666Y-118090500D01*
X212216666Y-118090500D02*
X211949999Y-118090500D01*
X212616666Y-117790500D02*
X212649999Y-117757166D01*
X212649999Y-117757166D02*
X212716666Y-117723833D01*
X212716666Y-117723833D02*
X212883333Y-117723833D01*
X212883333Y-117723833D02*
X212949999Y-117757166D01*
X212949999Y-117757166D02*
X212983333Y-117790500D01*
X212983333Y-117790500D02*
X213016666Y-117857166D01*
X213016666Y-117857166D02*
X213016666Y-117923833D01*
X213016666Y-117923833D02*
X212983333Y-118023833D01*
X212983333Y-118023833D02*
X212583333Y-118423833D01*
X212583333Y-118423833D02*
X213016666Y-118423833D01*
X213250000Y-117723833D02*
X213683333Y-117723833D01*
X213683333Y-117723833D02*
X213450000Y-117990500D01*
X213450000Y-117990500D02*
X213550000Y-117990500D01*
X213550000Y-117990500D02*
X213616666Y-118023833D01*
X213616666Y-118023833D02*
X213650000Y-118057166D01*
X213650000Y-118057166D02*
X213683333Y-118123833D01*
X213683333Y-118123833D02*
X213683333Y-118290500D01*
X213683333Y-118290500D02*
X213650000Y-118357166D01*
X213650000Y-118357166D02*
X213616666Y-118390500D01*
X213616666Y-118390500D02*
X213550000Y-118423833D01*
X213550000Y-118423833D02*
X213350000Y-118423833D01*
X213350000Y-118423833D02*
X213283333Y-118390500D01*
X213283333Y-118390500D02*
X213250000Y-118357166D01*
%TO.C,C30*%
X173371999Y-137093166D02*
X173338666Y-137126500D01*
X173338666Y-137126500D02*
X173238666Y-137159833D01*
X173238666Y-137159833D02*
X173171999Y-137159833D01*
X173171999Y-137159833D02*
X173071999Y-137126500D01*
X173071999Y-137126500D02*
X173005333Y-137059833D01*
X173005333Y-137059833D02*
X172971999Y-136993166D01*
X172971999Y-136993166D02*
X172938666Y-136859833D01*
X172938666Y-136859833D02*
X172938666Y-136759833D01*
X172938666Y-136759833D02*
X172971999Y-136626500D01*
X172971999Y-136626500D02*
X173005333Y-136559833D01*
X173005333Y-136559833D02*
X173071999Y-136493166D01*
X173071999Y-136493166D02*
X173171999Y-136459833D01*
X173171999Y-136459833D02*
X173238666Y-136459833D01*
X173238666Y-136459833D02*
X173338666Y-136493166D01*
X173338666Y-136493166D02*
X173371999Y-136526500D01*
X173605333Y-136459833D02*
X174038666Y-136459833D01*
X174038666Y-136459833D02*
X173805333Y-136726500D01*
X173805333Y-136726500D02*
X173905333Y-136726500D01*
X173905333Y-136726500D02*
X173971999Y-136759833D01*
X173971999Y-136759833D02*
X174005333Y-136793166D01*
X174005333Y-136793166D02*
X174038666Y-136859833D01*
X174038666Y-136859833D02*
X174038666Y-137026500D01*
X174038666Y-137026500D02*
X174005333Y-137093166D01*
X174005333Y-137093166D02*
X173971999Y-137126500D01*
X173971999Y-137126500D02*
X173905333Y-137159833D01*
X173905333Y-137159833D02*
X173705333Y-137159833D01*
X173705333Y-137159833D02*
X173638666Y-137126500D01*
X173638666Y-137126500D02*
X173605333Y-137093166D01*
X174472000Y-136459833D02*
X174538666Y-136459833D01*
X174538666Y-136459833D02*
X174605333Y-136493166D01*
X174605333Y-136493166D02*
X174638666Y-136526500D01*
X174638666Y-136526500D02*
X174672000Y-136593166D01*
X174672000Y-136593166D02*
X174705333Y-136726500D01*
X174705333Y-136726500D02*
X174705333Y-136893166D01*
X174705333Y-136893166D02*
X174672000Y-137026500D01*
X174672000Y-137026500D02*
X174638666Y-137093166D01*
X174638666Y-137093166D02*
X174605333Y-137126500D01*
X174605333Y-137126500D02*
X174538666Y-137159833D01*
X174538666Y-137159833D02*
X174472000Y-137159833D01*
X174472000Y-137159833D02*
X174405333Y-137126500D01*
X174405333Y-137126500D02*
X174372000Y-137093166D01*
X174372000Y-137093166D02*
X174338666Y-137026500D01*
X174338666Y-137026500D02*
X174305333Y-136893166D01*
X174305333Y-136893166D02*
X174305333Y-136726500D01*
X174305333Y-136726500D02*
X174338666Y-136593166D01*
X174338666Y-136593166D02*
X174372000Y-136526500D01*
X174372000Y-136526500D02*
X174405333Y-136493166D01*
X174405333Y-136493166D02*
X174472000Y-136459833D01*
D13*
%TO.C,R30*%
X191024999Y-124967833D02*
X190791666Y-124634500D01*
X190624999Y-124967833D02*
X190624999Y-124267833D01*
X190624999Y-124267833D02*
X190891666Y-124267833D01*
X190891666Y-124267833D02*
X190958333Y-124301166D01*
X190958333Y-124301166D02*
X190991666Y-124334500D01*
X190991666Y-124334500D02*
X191024999Y-124401166D01*
X191024999Y-124401166D02*
X191024999Y-124501166D01*
X191024999Y-124501166D02*
X190991666Y-124567833D01*
X190991666Y-124567833D02*
X190958333Y-124601166D01*
X190958333Y-124601166D02*
X190891666Y-124634500D01*
X190891666Y-124634500D02*
X190624999Y-124634500D01*
X191258333Y-124267833D02*
X191691666Y-124267833D01*
X191691666Y-124267833D02*
X191458333Y-124534500D01*
X191458333Y-124534500D02*
X191558333Y-124534500D01*
X191558333Y-124534500D02*
X191624999Y-124567833D01*
X191624999Y-124567833D02*
X191658333Y-124601166D01*
X191658333Y-124601166D02*
X191691666Y-124667833D01*
X191691666Y-124667833D02*
X191691666Y-124834500D01*
X191691666Y-124834500D02*
X191658333Y-124901166D01*
X191658333Y-124901166D02*
X191624999Y-124934500D01*
X191624999Y-124934500D02*
X191558333Y-124967833D01*
X191558333Y-124967833D02*
X191358333Y-124967833D01*
X191358333Y-124967833D02*
X191291666Y-124934500D01*
X191291666Y-124934500D02*
X191258333Y-124901166D01*
X192125000Y-124267833D02*
X192191666Y-124267833D01*
X192191666Y-124267833D02*
X192258333Y-124301166D01*
X192258333Y-124301166D02*
X192291666Y-124334500D01*
X192291666Y-124334500D02*
X192325000Y-124401166D01*
X192325000Y-124401166D02*
X192358333Y-124534500D01*
X192358333Y-124534500D02*
X192358333Y-124701166D01*
X192358333Y-124701166D02*
X192325000Y-124834500D01*
X192325000Y-124834500D02*
X192291666Y-124901166D01*
X192291666Y-124901166D02*
X192258333Y-124934500D01*
X192258333Y-124934500D02*
X192191666Y-124967833D01*
X192191666Y-124967833D02*
X192125000Y-124967833D01*
X192125000Y-124967833D02*
X192058333Y-124934500D01*
X192058333Y-124934500D02*
X192025000Y-124901166D01*
X192025000Y-124901166D02*
X191991666Y-124834500D01*
X191991666Y-124834500D02*
X191958333Y-124701166D01*
X191958333Y-124701166D02*
X191958333Y-124534500D01*
X191958333Y-124534500D02*
X191991666Y-124401166D01*
X191991666Y-124401166D02*
X192025000Y-124334500D01*
X192025000Y-124334500D02*
X192058333Y-124301166D01*
X192058333Y-124301166D02*
X192125000Y-124267833D01*
D12*
%TO.C,Q2*%
X206783333Y-123840500D02*
X206716666Y-123807166D01*
X206716666Y-123807166D02*
X206650000Y-123740500D01*
X206650000Y-123740500D02*
X206550000Y-123640500D01*
X206550000Y-123640500D02*
X206483333Y-123607166D01*
X206483333Y-123607166D02*
X206416666Y-123607166D01*
X206450000Y-123773833D02*
X206383333Y-123740500D01*
X206383333Y-123740500D02*
X206316666Y-123673833D01*
X206316666Y-123673833D02*
X206283333Y-123540500D01*
X206283333Y-123540500D02*
X206283333Y-123307166D01*
X206283333Y-123307166D02*
X206316666Y-123173833D01*
X206316666Y-123173833D02*
X206383333Y-123107166D01*
X206383333Y-123107166D02*
X206450000Y-123073833D01*
X206450000Y-123073833D02*
X206583333Y-123073833D01*
X206583333Y-123073833D02*
X206650000Y-123107166D01*
X206650000Y-123107166D02*
X206716666Y-123173833D01*
X206716666Y-123173833D02*
X206750000Y-123307166D01*
X206750000Y-123307166D02*
X206750000Y-123540500D01*
X206750000Y-123540500D02*
X206716666Y-123673833D01*
X206716666Y-123673833D02*
X206650000Y-123740500D01*
X206650000Y-123740500D02*
X206583333Y-123773833D01*
X206583333Y-123773833D02*
X206450000Y-123773833D01*
X207016666Y-123140500D02*
X207049999Y-123107166D01*
X207049999Y-123107166D02*
X207116666Y-123073833D01*
X207116666Y-123073833D02*
X207283333Y-123073833D01*
X207283333Y-123073833D02*
X207349999Y-123107166D01*
X207349999Y-123107166D02*
X207383333Y-123140500D01*
X207383333Y-123140500D02*
X207416666Y-123207166D01*
X207416666Y-123207166D02*
X207416666Y-123273833D01*
X207416666Y-123273833D02*
X207383333Y-123373833D01*
X207383333Y-123373833D02*
X206983333Y-123773833D01*
X206983333Y-123773833D02*
X207416666Y-123773833D01*
%TO.C,C29*%
X232009999Y-137117166D02*
X231976666Y-137150500D01*
X231976666Y-137150500D02*
X231876666Y-137183833D01*
X231876666Y-137183833D02*
X231809999Y-137183833D01*
X231809999Y-137183833D02*
X231709999Y-137150500D01*
X231709999Y-137150500D02*
X231643333Y-137083833D01*
X231643333Y-137083833D02*
X231609999Y-137017166D01*
X231609999Y-137017166D02*
X231576666Y-136883833D01*
X231576666Y-136883833D02*
X231576666Y-136783833D01*
X231576666Y-136783833D02*
X231609999Y-136650500D01*
X231609999Y-136650500D02*
X231643333Y-136583833D01*
X231643333Y-136583833D02*
X231709999Y-136517166D01*
X231709999Y-136517166D02*
X231809999Y-136483833D01*
X231809999Y-136483833D02*
X231876666Y-136483833D01*
X231876666Y-136483833D02*
X231976666Y-136517166D01*
X231976666Y-136517166D02*
X232009999Y-136550500D01*
X232276666Y-136550500D02*
X232309999Y-136517166D01*
X232309999Y-136517166D02*
X232376666Y-136483833D01*
X232376666Y-136483833D02*
X232543333Y-136483833D01*
X232543333Y-136483833D02*
X232609999Y-136517166D01*
X232609999Y-136517166D02*
X232643333Y-136550500D01*
X232643333Y-136550500D02*
X232676666Y-136617166D01*
X232676666Y-136617166D02*
X232676666Y-136683833D01*
X232676666Y-136683833D02*
X232643333Y-136783833D01*
X232643333Y-136783833D02*
X232243333Y-137183833D01*
X232243333Y-137183833D02*
X232676666Y-137183833D01*
X233010000Y-137183833D02*
X233143333Y-137183833D01*
X233143333Y-137183833D02*
X233210000Y-137150500D01*
X233210000Y-137150500D02*
X233243333Y-137117166D01*
X233243333Y-137117166D02*
X233310000Y-137017166D01*
X233310000Y-137017166D02*
X233343333Y-136883833D01*
X233343333Y-136883833D02*
X233343333Y-136617166D01*
X233343333Y-136617166D02*
X233310000Y-136550500D01*
X233310000Y-136550500D02*
X233276666Y-136517166D01*
X233276666Y-136517166D02*
X233210000Y-136483833D01*
X233210000Y-136483833D02*
X233076666Y-136483833D01*
X233076666Y-136483833D02*
X233010000Y-136517166D01*
X233010000Y-136517166D02*
X232976666Y-136550500D01*
X232976666Y-136550500D02*
X232943333Y-136617166D01*
X232943333Y-136617166D02*
X232943333Y-136783833D01*
X232943333Y-136783833D02*
X232976666Y-136850500D01*
X232976666Y-136850500D02*
X233010000Y-136883833D01*
X233010000Y-136883833D02*
X233076666Y-136917166D01*
X233076666Y-136917166D02*
X233210000Y-136917166D01*
X233210000Y-136917166D02*
X233276666Y-136883833D01*
X233276666Y-136883833D02*
X233310000Y-136850500D01*
X233310000Y-136850500D02*
X233343333Y-136783833D01*
%TO.C,R29*%
X172228999Y-120649833D02*
X171995666Y-120316500D01*
X171828999Y-120649833D02*
X171828999Y-119949833D01*
X171828999Y-119949833D02*
X172095666Y-119949833D01*
X172095666Y-119949833D02*
X172162333Y-119983166D01*
X172162333Y-119983166D02*
X172195666Y-120016500D01*
X172195666Y-120016500D02*
X172228999Y-120083166D01*
X172228999Y-120083166D02*
X172228999Y-120183166D01*
X172228999Y-120183166D02*
X172195666Y-120249833D01*
X172195666Y-120249833D02*
X172162333Y-120283166D01*
X172162333Y-120283166D02*
X172095666Y-120316500D01*
X172095666Y-120316500D02*
X171828999Y-120316500D01*
X172495666Y-120016500D02*
X172528999Y-119983166D01*
X172528999Y-119983166D02*
X172595666Y-119949833D01*
X172595666Y-119949833D02*
X172762333Y-119949833D01*
X172762333Y-119949833D02*
X172828999Y-119983166D01*
X172828999Y-119983166D02*
X172862333Y-120016500D01*
X172862333Y-120016500D02*
X172895666Y-120083166D01*
X172895666Y-120083166D02*
X172895666Y-120149833D01*
X172895666Y-120149833D02*
X172862333Y-120249833D01*
X172862333Y-120249833D02*
X172462333Y-120649833D01*
X172462333Y-120649833D02*
X172895666Y-120649833D01*
X173229000Y-120649833D02*
X173362333Y-120649833D01*
X173362333Y-120649833D02*
X173429000Y-120616500D01*
X173429000Y-120616500D02*
X173462333Y-120583166D01*
X173462333Y-120583166D02*
X173529000Y-120483166D01*
X173529000Y-120483166D02*
X173562333Y-120349833D01*
X173562333Y-120349833D02*
X173562333Y-120083166D01*
X173562333Y-120083166D02*
X173529000Y-120016500D01*
X173529000Y-120016500D02*
X173495666Y-119983166D01*
X173495666Y-119983166D02*
X173429000Y-119949833D01*
X173429000Y-119949833D02*
X173295666Y-119949833D01*
X173295666Y-119949833D02*
X173229000Y-119983166D01*
X173229000Y-119983166D02*
X173195666Y-120016500D01*
X173195666Y-120016500D02*
X173162333Y-120083166D01*
X173162333Y-120083166D02*
X173162333Y-120249833D01*
X173162333Y-120249833D02*
X173195666Y-120316500D01*
X173195666Y-120316500D02*
X173229000Y-120349833D01*
X173229000Y-120349833D02*
X173295666Y-120383166D01*
X173295666Y-120383166D02*
X173429000Y-120383166D01*
X173429000Y-120383166D02*
X173495666Y-120349833D01*
X173495666Y-120349833D02*
X173529000Y-120316500D01*
X173529000Y-120316500D02*
X173562333Y-120249833D01*
%TO.C,U3*%
X174177666Y-125664833D02*
X174177666Y-126231500D01*
X174177666Y-126231500D02*
X174211000Y-126298166D01*
X174211000Y-126298166D02*
X174244333Y-126331500D01*
X174244333Y-126331500D02*
X174311000Y-126364833D01*
X174311000Y-126364833D02*
X174444333Y-126364833D01*
X174444333Y-126364833D02*
X174511000Y-126331500D01*
X174511000Y-126331500D02*
X174544333Y-126298166D01*
X174544333Y-126298166D02*
X174577666Y-126231500D01*
X174577666Y-126231500D02*
X174577666Y-125664833D01*
X174844333Y-125664833D02*
X175277666Y-125664833D01*
X175277666Y-125664833D02*
X175044333Y-125931500D01*
X175044333Y-125931500D02*
X175144333Y-125931500D01*
X175144333Y-125931500D02*
X175210999Y-125964833D01*
X175210999Y-125964833D02*
X175244333Y-125998166D01*
X175244333Y-125998166D02*
X175277666Y-126064833D01*
X175277666Y-126064833D02*
X175277666Y-126231500D01*
X175277666Y-126231500D02*
X175244333Y-126298166D01*
X175244333Y-126298166D02*
X175210999Y-126331500D01*
X175210999Y-126331500D02*
X175144333Y-126364833D01*
X175144333Y-126364833D02*
X174944333Y-126364833D01*
X174944333Y-126364833D02*
X174877666Y-126331500D01*
X174877666Y-126331500D02*
X174844333Y-126298166D01*
%TO.C,R27*%
X201173833Y-124600000D02*
X200840500Y-124833333D01*
X201173833Y-125000000D02*
X200473833Y-125000000D01*
X200473833Y-125000000D02*
X200473833Y-124733333D01*
X200473833Y-124733333D02*
X200507166Y-124666667D01*
X200507166Y-124666667D02*
X200540500Y-124633333D01*
X200540500Y-124633333D02*
X200607166Y-124600000D01*
X200607166Y-124600000D02*
X200707166Y-124600000D01*
X200707166Y-124600000D02*
X200773833Y-124633333D01*
X200773833Y-124633333D02*
X200807166Y-124666667D01*
X200807166Y-124666667D02*
X200840500Y-124733333D01*
X200840500Y-124733333D02*
X200840500Y-125000000D01*
X200540500Y-124333333D02*
X200507166Y-124300000D01*
X200507166Y-124300000D02*
X200473833Y-124233333D01*
X200473833Y-124233333D02*
X200473833Y-124066667D01*
X200473833Y-124066667D02*
X200507166Y-124000000D01*
X200507166Y-124000000D02*
X200540500Y-123966667D01*
X200540500Y-123966667D02*
X200607166Y-123933333D01*
X200607166Y-123933333D02*
X200673833Y-123933333D01*
X200673833Y-123933333D02*
X200773833Y-123966667D01*
X200773833Y-123966667D02*
X201173833Y-124366667D01*
X201173833Y-124366667D02*
X201173833Y-123933333D01*
X200473833Y-123700000D02*
X200473833Y-123233333D01*
X200473833Y-123233333D02*
X201173833Y-123533333D01*
%TO.C,U1*%
X197366666Y-110923833D02*
X197366666Y-111490500D01*
X197366666Y-111490500D02*
X197400000Y-111557166D01*
X197400000Y-111557166D02*
X197433333Y-111590500D01*
X197433333Y-111590500D02*
X197500000Y-111623833D01*
X197500000Y-111623833D02*
X197633333Y-111623833D01*
X197633333Y-111623833D02*
X197700000Y-111590500D01*
X197700000Y-111590500D02*
X197733333Y-111557166D01*
X197733333Y-111557166D02*
X197766666Y-111490500D01*
X197766666Y-111490500D02*
X197766666Y-110923833D01*
X198466666Y-111623833D02*
X198066666Y-111623833D01*
X198266666Y-111623833D02*
X198266666Y-110923833D01*
X198266666Y-110923833D02*
X198199999Y-111023833D01*
X198199999Y-111023833D02*
X198133333Y-111090500D01*
X198133333Y-111090500D02*
X198066666Y-111123833D01*
%TO.C,R16*%
X198459999Y-142833833D02*
X198226666Y-142500500D01*
X198059999Y-142833833D02*
X198059999Y-142133833D01*
X198059999Y-142133833D02*
X198326666Y-142133833D01*
X198326666Y-142133833D02*
X198393333Y-142167166D01*
X198393333Y-142167166D02*
X198426666Y-142200500D01*
X198426666Y-142200500D02*
X198459999Y-142267166D01*
X198459999Y-142267166D02*
X198459999Y-142367166D01*
X198459999Y-142367166D02*
X198426666Y-142433833D01*
X198426666Y-142433833D02*
X198393333Y-142467166D01*
X198393333Y-142467166D02*
X198326666Y-142500500D01*
X198326666Y-142500500D02*
X198059999Y-142500500D01*
X199126666Y-142833833D02*
X198726666Y-142833833D01*
X198926666Y-142833833D02*
X198926666Y-142133833D01*
X198926666Y-142133833D02*
X198859999Y-142233833D01*
X198859999Y-142233833D02*
X198793333Y-142300500D01*
X198793333Y-142300500D02*
X198726666Y-142333833D01*
X199726666Y-142133833D02*
X199593333Y-142133833D01*
X199593333Y-142133833D02*
X199526666Y-142167166D01*
X199526666Y-142167166D02*
X199493333Y-142200500D01*
X199493333Y-142200500D02*
X199426666Y-142300500D01*
X199426666Y-142300500D02*
X199393333Y-142433833D01*
X199393333Y-142433833D02*
X199393333Y-142700500D01*
X199393333Y-142700500D02*
X199426666Y-142767166D01*
X199426666Y-142767166D02*
X199460000Y-142800500D01*
X199460000Y-142800500D02*
X199526666Y-142833833D01*
X199526666Y-142833833D02*
X199660000Y-142833833D01*
X199660000Y-142833833D02*
X199726666Y-142800500D01*
X199726666Y-142800500D02*
X199760000Y-142767166D01*
X199760000Y-142767166D02*
X199793333Y-142700500D01*
X199793333Y-142700500D02*
X199793333Y-142533833D01*
X199793333Y-142533833D02*
X199760000Y-142467166D01*
X199760000Y-142467166D02*
X199726666Y-142433833D01*
X199726666Y-142433833D02*
X199660000Y-142400500D01*
X199660000Y-142400500D02*
X199526666Y-142400500D01*
X199526666Y-142400500D02*
X199460000Y-142433833D01*
X199460000Y-142433833D02*
X199426666Y-142467166D01*
X199426666Y-142467166D02*
X199393333Y-142533833D01*
%TO.C,C9*%
X203197166Y-114746666D02*
X203230500Y-114779999D01*
X203230500Y-114779999D02*
X203263833Y-114879999D01*
X203263833Y-114879999D02*
X203263833Y-114946666D01*
X203263833Y-114946666D02*
X203230500Y-115046666D01*
X203230500Y-115046666D02*
X203163833Y-115113333D01*
X203163833Y-115113333D02*
X203097166Y-115146666D01*
X203097166Y-115146666D02*
X202963833Y-115179999D01*
X202963833Y-115179999D02*
X202863833Y-115179999D01*
X202863833Y-115179999D02*
X202730500Y-115146666D01*
X202730500Y-115146666D02*
X202663833Y-115113333D01*
X202663833Y-115113333D02*
X202597166Y-115046666D01*
X202597166Y-115046666D02*
X202563833Y-114946666D01*
X202563833Y-114946666D02*
X202563833Y-114879999D01*
X202563833Y-114879999D02*
X202597166Y-114779999D01*
X202597166Y-114779999D02*
X202630500Y-114746666D01*
X203263833Y-114413333D02*
X203263833Y-114279999D01*
X203263833Y-114279999D02*
X203230500Y-114213333D01*
X203230500Y-114213333D02*
X203197166Y-114179999D01*
X203197166Y-114179999D02*
X203097166Y-114113333D01*
X203097166Y-114113333D02*
X202963833Y-114079999D01*
X202963833Y-114079999D02*
X202697166Y-114079999D01*
X202697166Y-114079999D02*
X202630500Y-114113333D01*
X202630500Y-114113333D02*
X202597166Y-114146666D01*
X202597166Y-114146666D02*
X202563833Y-114213333D01*
X202563833Y-114213333D02*
X202563833Y-114346666D01*
X202563833Y-114346666D02*
X202597166Y-114413333D01*
X202597166Y-114413333D02*
X202630500Y-114446666D01*
X202630500Y-114446666D02*
X202697166Y-114479999D01*
X202697166Y-114479999D02*
X202863833Y-114479999D01*
X202863833Y-114479999D02*
X202930500Y-114446666D01*
X202930500Y-114446666D02*
X202963833Y-114413333D01*
X202963833Y-114413333D02*
X202997166Y-114346666D01*
X202997166Y-114346666D02*
X202997166Y-114213333D01*
X202997166Y-114213333D02*
X202963833Y-114146666D01*
X202963833Y-114146666D02*
X202930500Y-114113333D01*
X202930500Y-114113333D02*
X202863833Y-114079999D01*
%TO.C,C23*%
X228997999Y-114487166D02*
X228964666Y-114520500D01*
X228964666Y-114520500D02*
X228864666Y-114553833D01*
X228864666Y-114553833D02*
X228797999Y-114553833D01*
X228797999Y-114553833D02*
X228697999Y-114520500D01*
X228697999Y-114520500D02*
X228631333Y-114453833D01*
X228631333Y-114453833D02*
X228597999Y-114387166D01*
X228597999Y-114387166D02*
X228564666Y-114253833D01*
X228564666Y-114253833D02*
X228564666Y-114153833D01*
X228564666Y-114153833D02*
X228597999Y-114020500D01*
X228597999Y-114020500D02*
X228631333Y-113953833D01*
X228631333Y-113953833D02*
X228697999Y-113887166D01*
X228697999Y-113887166D02*
X228797999Y-113853833D01*
X228797999Y-113853833D02*
X228864666Y-113853833D01*
X228864666Y-113853833D02*
X228964666Y-113887166D01*
X228964666Y-113887166D02*
X228997999Y-113920500D01*
X229264666Y-113920500D02*
X229297999Y-113887166D01*
X229297999Y-113887166D02*
X229364666Y-113853833D01*
X229364666Y-113853833D02*
X229531333Y-113853833D01*
X229531333Y-113853833D02*
X229597999Y-113887166D01*
X229597999Y-113887166D02*
X229631333Y-113920500D01*
X229631333Y-113920500D02*
X229664666Y-113987166D01*
X229664666Y-113987166D02*
X229664666Y-114053833D01*
X229664666Y-114053833D02*
X229631333Y-114153833D01*
X229631333Y-114153833D02*
X229231333Y-114553833D01*
X229231333Y-114553833D02*
X229664666Y-114553833D01*
X229898000Y-113853833D02*
X230331333Y-113853833D01*
X230331333Y-113853833D02*
X230098000Y-114120500D01*
X230098000Y-114120500D02*
X230198000Y-114120500D01*
X230198000Y-114120500D02*
X230264666Y-114153833D01*
X230264666Y-114153833D02*
X230298000Y-114187166D01*
X230298000Y-114187166D02*
X230331333Y-114253833D01*
X230331333Y-114253833D02*
X230331333Y-114420500D01*
X230331333Y-114420500D02*
X230298000Y-114487166D01*
X230298000Y-114487166D02*
X230264666Y-114520500D01*
X230264666Y-114520500D02*
X230198000Y-114553833D01*
X230198000Y-114553833D02*
X229998000Y-114553833D01*
X229998000Y-114553833D02*
X229931333Y-114520500D01*
X229931333Y-114520500D02*
X229898000Y-114487166D01*
%TO.C,C7*%
X205653333Y-117907166D02*
X205620000Y-117940500D01*
X205620000Y-117940500D02*
X205520000Y-117973833D01*
X205520000Y-117973833D02*
X205453333Y-117973833D01*
X205453333Y-117973833D02*
X205353333Y-117940500D01*
X205353333Y-117940500D02*
X205286667Y-117873833D01*
X205286667Y-117873833D02*
X205253333Y-117807166D01*
X205253333Y-117807166D02*
X205220000Y-117673833D01*
X205220000Y-117673833D02*
X205220000Y-117573833D01*
X205220000Y-117573833D02*
X205253333Y-117440500D01*
X205253333Y-117440500D02*
X205286667Y-117373833D01*
X205286667Y-117373833D02*
X205353333Y-117307166D01*
X205353333Y-117307166D02*
X205453333Y-117273833D01*
X205453333Y-117273833D02*
X205520000Y-117273833D01*
X205520000Y-117273833D02*
X205620000Y-117307166D01*
X205620000Y-117307166D02*
X205653333Y-117340500D01*
X205886667Y-117273833D02*
X206353333Y-117273833D01*
X206353333Y-117273833D02*
X206053333Y-117973833D01*
%TO.C,R32*%
X213049999Y-123933833D02*
X212816666Y-123600500D01*
X212649999Y-123933833D02*
X212649999Y-123233833D01*
X212649999Y-123233833D02*
X212916666Y-123233833D01*
X212916666Y-123233833D02*
X212983333Y-123267166D01*
X212983333Y-123267166D02*
X213016666Y-123300500D01*
X213016666Y-123300500D02*
X213049999Y-123367166D01*
X213049999Y-123367166D02*
X213049999Y-123467166D01*
X213049999Y-123467166D02*
X213016666Y-123533833D01*
X213016666Y-123533833D02*
X212983333Y-123567166D01*
X212983333Y-123567166D02*
X212916666Y-123600500D01*
X212916666Y-123600500D02*
X212649999Y-123600500D01*
X213283333Y-123233833D02*
X213716666Y-123233833D01*
X213716666Y-123233833D02*
X213483333Y-123500500D01*
X213483333Y-123500500D02*
X213583333Y-123500500D01*
X213583333Y-123500500D02*
X213649999Y-123533833D01*
X213649999Y-123533833D02*
X213683333Y-123567166D01*
X213683333Y-123567166D02*
X213716666Y-123633833D01*
X213716666Y-123633833D02*
X213716666Y-123800500D01*
X213716666Y-123800500D02*
X213683333Y-123867166D01*
X213683333Y-123867166D02*
X213649999Y-123900500D01*
X213649999Y-123900500D02*
X213583333Y-123933833D01*
X213583333Y-123933833D02*
X213383333Y-123933833D01*
X213383333Y-123933833D02*
X213316666Y-123900500D01*
X213316666Y-123900500D02*
X213283333Y-123867166D01*
X213983333Y-123300500D02*
X214016666Y-123267166D01*
X214016666Y-123267166D02*
X214083333Y-123233833D01*
X214083333Y-123233833D02*
X214250000Y-123233833D01*
X214250000Y-123233833D02*
X214316666Y-123267166D01*
X214316666Y-123267166D02*
X214350000Y-123300500D01*
X214350000Y-123300500D02*
X214383333Y-123367166D01*
X214383333Y-123367166D02*
X214383333Y-123433833D01*
X214383333Y-123433833D02*
X214350000Y-123533833D01*
X214350000Y-123533833D02*
X213950000Y-123933833D01*
X213950000Y-123933833D02*
X214383333Y-123933833D01*
%TO.C,R13*%
X186649999Y-110723833D02*
X186416666Y-110390500D01*
X186249999Y-110723833D02*
X186249999Y-110023833D01*
X186249999Y-110023833D02*
X186516666Y-110023833D01*
X186516666Y-110023833D02*
X186583333Y-110057166D01*
X186583333Y-110057166D02*
X186616666Y-110090500D01*
X186616666Y-110090500D02*
X186649999Y-110157166D01*
X186649999Y-110157166D02*
X186649999Y-110257166D01*
X186649999Y-110257166D02*
X186616666Y-110323833D01*
X186616666Y-110323833D02*
X186583333Y-110357166D01*
X186583333Y-110357166D02*
X186516666Y-110390500D01*
X186516666Y-110390500D02*
X186249999Y-110390500D01*
X187316666Y-110723833D02*
X186916666Y-110723833D01*
X187116666Y-110723833D02*
X187116666Y-110023833D01*
X187116666Y-110023833D02*
X187049999Y-110123833D01*
X187049999Y-110123833D02*
X186983333Y-110190500D01*
X186983333Y-110190500D02*
X186916666Y-110223833D01*
X187550000Y-110023833D02*
X187983333Y-110023833D01*
X187983333Y-110023833D02*
X187750000Y-110290500D01*
X187750000Y-110290500D02*
X187850000Y-110290500D01*
X187850000Y-110290500D02*
X187916666Y-110323833D01*
X187916666Y-110323833D02*
X187950000Y-110357166D01*
X187950000Y-110357166D02*
X187983333Y-110423833D01*
X187983333Y-110423833D02*
X187983333Y-110590500D01*
X187983333Y-110590500D02*
X187950000Y-110657166D01*
X187950000Y-110657166D02*
X187916666Y-110690500D01*
X187916666Y-110690500D02*
X187850000Y-110723833D01*
X187850000Y-110723833D02*
X187650000Y-110723833D01*
X187650000Y-110723833D02*
X187583333Y-110690500D01*
X187583333Y-110690500D02*
X187550000Y-110657166D01*
%TO.C,R42*%
X226838999Y-129116833D02*
X226605666Y-128783500D01*
X226438999Y-129116833D02*
X226438999Y-128416833D01*
X226438999Y-128416833D02*
X226705666Y-128416833D01*
X226705666Y-128416833D02*
X226772333Y-128450166D01*
X226772333Y-128450166D02*
X226805666Y-128483500D01*
X226805666Y-128483500D02*
X226838999Y-128550166D01*
X226838999Y-128550166D02*
X226838999Y-128650166D01*
X226838999Y-128650166D02*
X226805666Y-128716833D01*
X226805666Y-128716833D02*
X226772333Y-128750166D01*
X226772333Y-128750166D02*
X226705666Y-128783500D01*
X226705666Y-128783500D02*
X226438999Y-128783500D01*
X227438999Y-128650166D02*
X227438999Y-129116833D01*
X227272333Y-128383500D02*
X227105666Y-128883500D01*
X227105666Y-128883500D02*
X227538999Y-128883500D01*
X227772333Y-128483500D02*
X227805666Y-128450166D01*
X227805666Y-128450166D02*
X227872333Y-128416833D01*
X227872333Y-128416833D02*
X228039000Y-128416833D01*
X228039000Y-128416833D02*
X228105666Y-128450166D01*
X228105666Y-128450166D02*
X228139000Y-128483500D01*
X228139000Y-128483500D02*
X228172333Y-128550166D01*
X228172333Y-128550166D02*
X228172333Y-128616833D01*
X228172333Y-128616833D02*
X228139000Y-128716833D01*
X228139000Y-128716833D02*
X227739000Y-129116833D01*
X227739000Y-129116833D02*
X228172333Y-129116833D01*
%TO.C,R28*%
X169180999Y-120649833D02*
X168947666Y-120316500D01*
X168780999Y-120649833D02*
X168780999Y-119949833D01*
X168780999Y-119949833D02*
X169047666Y-119949833D01*
X169047666Y-119949833D02*
X169114333Y-119983166D01*
X169114333Y-119983166D02*
X169147666Y-120016500D01*
X169147666Y-120016500D02*
X169180999Y-120083166D01*
X169180999Y-120083166D02*
X169180999Y-120183166D01*
X169180999Y-120183166D02*
X169147666Y-120249833D01*
X169147666Y-120249833D02*
X169114333Y-120283166D01*
X169114333Y-120283166D02*
X169047666Y-120316500D01*
X169047666Y-120316500D02*
X168780999Y-120316500D01*
X169447666Y-120016500D02*
X169480999Y-119983166D01*
X169480999Y-119983166D02*
X169547666Y-119949833D01*
X169547666Y-119949833D02*
X169714333Y-119949833D01*
X169714333Y-119949833D02*
X169780999Y-119983166D01*
X169780999Y-119983166D02*
X169814333Y-120016500D01*
X169814333Y-120016500D02*
X169847666Y-120083166D01*
X169847666Y-120083166D02*
X169847666Y-120149833D01*
X169847666Y-120149833D02*
X169814333Y-120249833D01*
X169814333Y-120249833D02*
X169414333Y-120649833D01*
X169414333Y-120649833D02*
X169847666Y-120649833D01*
X170247666Y-120249833D02*
X170181000Y-120216500D01*
X170181000Y-120216500D02*
X170147666Y-120183166D01*
X170147666Y-120183166D02*
X170114333Y-120116500D01*
X170114333Y-120116500D02*
X170114333Y-120083166D01*
X170114333Y-120083166D02*
X170147666Y-120016500D01*
X170147666Y-120016500D02*
X170181000Y-119983166D01*
X170181000Y-119983166D02*
X170247666Y-119949833D01*
X170247666Y-119949833D02*
X170381000Y-119949833D01*
X170381000Y-119949833D02*
X170447666Y-119983166D01*
X170447666Y-119983166D02*
X170481000Y-120016500D01*
X170481000Y-120016500D02*
X170514333Y-120083166D01*
X170514333Y-120083166D02*
X170514333Y-120116500D01*
X170514333Y-120116500D02*
X170481000Y-120183166D01*
X170481000Y-120183166D02*
X170447666Y-120216500D01*
X170447666Y-120216500D02*
X170381000Y-120249833D01*
X170381000Y-120249833D02*
X170247666Y-120249833D01*
X170247666Y-120249833D02*
X170181000Y-120283166D01*
X170181000Y-120283166D02*
X170147666Y-120316500D01*
X170147666Y-120316500D02*
X170114333Y-120383166D01*
X170114333Y-120383166D02*
X170114333Y-120516500D01*
X170114333Y-120516500D02*
X170147666Y-120583166D01*
X170147666Y-120583166D02*
X170181000Y-120616500D01*
X170181000Y-120616500D02*
X170247666Y-120649833D01*
X170247666Y-120649833D02*
X170381000Y-120649833D01*
X170381000Y-120649833D02*
X170447666Y-120616500D01*
X170447666Y-120616500D02*
X170481000Y-120583166D01*
X170481000Y-120583166D02*
X170514333Y-120516500D01*
X170514333Y-120516500D02*
X170514333Y-120383166D01*
X170514333Y-120383166D02*
X170481000Y-120316500D01*
X170481000Y-120316500D02*
X170447666Y-120283166D01*
X170447666Y-120283166D02*
X170381000Y-120249833D01*
%TO.C,Q3*%
X189757333Y-120843500D02*
X189690666Y-120810166D01*
X189690666Y-120810166D02*
X189624000Y-120743500D01*
X189624000Y-120743500D02*
X189524000Y-120643500D01*
X189524000Y-120643500D02*
X189457333Y-120610166D01*
X189457333Y-120610166D02*
X189390666Y-120610166D01*
X189424000Y-120776833D02*
X189357333Y-120743500D01*
X189357333Y-120743500D02*
X189290666Y-120676833D01*
X189290666Y-120676833D02*
X189257333Y-120543500D01*
X189257333Y-120543500D02*
X189257333Y-120310166D01*
X189257333Y-120310166D02*
X189290666Y-120176833D01*
X189290666Y-120176833D02*
X189357333Y-120110166D01*
X189357333Y-120110166D02*
X189424000Y-120076833D01*
X189424000Y-120076833D02*
X189557333Y-120076833D01*
X189557333Y-120076833D02*
X189624000Y-120110166D01*
X189624000Y-120110166D02*
X189690666Y-120176833D01*
X189690666Y-120176833D02*
X189724000Y-120310166D01*
X189724000Y-120310166D02*
X189724000Y-120543500D01*
X189724000Y-120543500D02*
X189690666Y-120676833D01*
X189690666Y-120676833D02*
X189624000Y-120743500D01*
X189624000Y-120743500D02*
X189557333Y-120776833D01*
X189557333Y-120776833D02*
X189424000Y-120776833D01*
X189957333Y-120076833D02*
X190390666Y-120076833D01*
X190390666Y-120076833D02*
X190157333Y-120343500D01*
X190157333Y-120343500D02*
X190257333Y-120343500D01*
X190257333Y-120343500D02*
X190323999Y-120376833D01*
X190323999Y-120376833D02*
X190357333Y-120410166D01*
X190357333Y-120410166D02*
X190390666Y-120476833D01*
X190390666Y-120476833D02*
X190390666Y-120643500D01*
X190390666Y-120643500D02*
X190357333Y-120710166D01*
X190357333Y-120710166D02*
X190323999Y-120743500D01*
X190323999Y-120743500D02*
X190257333Y-120776833D01*
X190257333Y-120776833D02*
X190057333Y-120776833D01*
X190057333Y-120776833D02*
X189990666Y-120743500D01*
X189990666Y-120743500D02*
X189957333Y-120710166D01*
%TO.C,C28*%
X223689999Y-138477166D02*
X223656666Y-138510500D01*
X223656666Y-138510500D02*
X223556666Y-138543833D01*
X223556666Y-138543833D02*
X223489999Y-138543833D01*
X223489999Y-138543833D02*
X223389999Y-138510500D01*
X223389999Y-138510500D02*
X223323333Y-138443833D01*
X223323333Y-138443833D02*
X223289999Y-138377166D01*
X223289999Y-138377166D02*
X223256666Y-138243833D01*
X223256666Y-138243833D02*
X223256666Y-138143833D01*
X223256666Y-138143833D02*
X223289999Y-138010500D01*
X223289999Y-138010500D02*
X223323333Y-137943833D01*
X223323333Y-137943833D02*
X223389999Y-137877166D01*
X223389999Y-137877166D02*
X223489999Y-137843833D01*
X223489999Y-137843833D02*
X223556666Y-137843833D01*
X223556666Y-137843833D02*
X223656666Y-137877166D01*
X223656666Y-137877166D02*
X223689999Y-137910500D01*
X223956666Y-137910500D02*
X223989999Y-137877166D01*
X223989999Y-137877166D02*
X224056666Y-137843833D01*
X224056666Y-137843833D02*
X224223333Y-137843833D01*
X224223333Y-137843833D02*
X224289999Y-137877166D01*
X224289999Y-137877166D02*
X224323333Y-137910500D01*
X224323333Y-137910500D02*
X224356666Y-137977166D01*
X224356666Y-137977166D02*
X224356666Y-138043833D01*
X224356666Y-138043833D02*
X224323333Y-138143833D01*
X224323333Y-138143833D02*
X223923333Y-138543833D01*
X223923333Y-138543833D02*
X224356666Y-138543833D01*
X224756666Y-138143833D02*
X224690000Y-138110500D01*
X224690000Y-138110500D02*
X224656666Y-138077166D01*
X224656666Y-138077166D02*
X224623333Y-138010500D01*
X224623333Y-138010500D02*
X224623333Y-137977166D01*
X224623333Y-137977166D02*
X224656666Y-137910500D01*
X224656666Y-137910500D02*
X224690000Y-137877166D01*
X224690000Y-137877166D02*
X224756666Y-137843833D01*
X224756666Y-137843833D02*
X224890000Y-137843833D01*
X224890000Y-137843833D02*
X224956666Y-137877166D01*
X224956666Y-137877166D02*
X224990000Y-137910500D01*
X224990000Y-137910500D02*
X225023333Y-137977166D01*
X225023333Y-137977166D02*
X225023333Y-138010500D01*
X225023333Y-138010500D02*
X224990000Y-138077166D01*
X224990000Y-138077166D02*
X224956666Y-138110500D01*
X224956666Y-138110500D02*
X224890000Y-138143833D01*
X224890000Y-138143833D02*
X224756666Y-138143833D01*
X224756666Y-138143833D02*
X224690000Y-138177166D01*
X224690000Y-138177166D02*
X224656666Y-138210500D01*
X224656666Y-138210500D02*
X224623333Y-138277166D01*
X224623333Y-138277166D02*
X224623333Y-138410500D01*
X224623333Y-138410500D02*
X224656666Y-138477166D01*
X224656666Y-138477166D02*
X224690000Y-138510500D01*
X224690000Y-138510500D02*
X224756666Y-138543833D01*
X224756666Y-138543833D02*
X224890000Y-138543833D01*
X224890000Y-138543833D02*
X224956666Y-138510500D01*
X224956666Y-138510500D02*
X224990000Y-138477166D01*
X224990000Y-138477166D02*
X225023333Y-138410500D01*
X225023333Y-138410500D02*
X225023333Y-138277166D01*
X225023333Y-138277166D02*
X224990000Y-138210500D01*
X224990000Y-138210500D02*
X224956666Y-138177166D01*
X224956666Y-138177166D02*
X224890000Y-138143833D01*
%TO.C,D4*%
X180126465Y-142701122D02*
X179792454Y-142085950D01*
X179792454Y-142085950D02*
X179938924Y-142006423D01*
X179938924Y-142006423D02*
X180042711Y-141988001D01*
X180042711Y-141988001D02*
X180133109Y-142014778D01*
X180133109Y-142014778D02*
X180194213Y-142057461D01*
X180194213Y-142057461D02*
X180287129Y-142158731D01*
X180287129Y-142158731D02*
X180334844Y-142246613D01*
X180334844Y-142246613D02*
X180369172Y-142379694D01*
X180369172Y-142379694D02*
X180371688Y-142454187D01*
X180371688Y-142454187D02*
X180344911Y-142544585D01*
X180344911Y-142544585D02*
X180272935Y-142621595D01*
X180272935Y-142621595D02*
X180126465Y-142701122D01*
X180782608Y-141813848D02*
X181005282Y-142223963D01*
X180508896Y-141659023D02*
X180601006Y-142177958D01*
X180601006Y-142177958D02*
X180981827Y-141971190D01*
%TO.C,C26*%
X166332166Y-125602000D02*
X166365500Y-125635333D01*
X166365500Y-125635333D02*
X166398833Y-125735333D01*
X166398833Y-125735333D02*
X166398833Y-125802000D01*
X166398833Y-125802000D02*
X166365500Y-125902000D01*
X166365500Y-125902000D02*
X166298833Y-125968667D01*
X166298833Y-125968667D02*
X166232166Y-126002000D01*
X166232166Y-126002000D02*
X166098833Y-126035333D01*
X166098833Y-126035333D02*
X165998833Y-126035333D01*
X165998833Y-126035333D02*
X165865500Y-126002000D01*
X165865500Y-126002000D02*
X165798833Y-125968667D01*
X165798833Y-125968667D02*
X165732166Y-125902000D01*
X165732166Y-125902000D02*
X165698833Y-125802000D01*
X165698833Y-125802000D02*
X165698833Y-125735333D01*
X165698833Y-125735333D02*
X165732166Y-125635333D01*
X165732166Y-125635333D02*
X165765500Y-125602000D01*
X165765500Y-125335333D02*
X165732166Y-125302000D01*
X165732166Y-125302000D02*
X165698833Y-125235333D01*
X165698833Y-125235333D02*
X165698833Y-125068667D01*
X165698833Y-125068667D02*
X165732166Y-125002000D01*
X165732166Y-125002000D02*
X165765500Y-124968667D01*
X165765500Y-124968667D02*
X165832166Y-124935333D01*
X165832166Y-124935333D02*
X165898833Y-124935333D01*
X165898833Y-124935333D02*
X165998833Y-124968667D01*
X165998833Y-124968667D02*
X166398833Y-125368667D01*
X166398833Y-125368667D02*
X166398833Y-124935333D01*
X165698833Y-124335333D02*
X165698833Y-124468666D01*
X165698833Y-124468666D02*
X165732166Y-124535333D01*
X165732166Y-124535333D02*
X165765500Y-124568666D01*
X165765500Y-124568666D02*
X165865500Y-124635333D01*
X165865500Y-124635333D02*
X165998833Y-124668666D01*
X165998833Y-124668666D02*
X166265500Y-124668666D01*
X166265500Y-124668666D02*
X166332166Y-124635333D01*
X166332166Y-124635333D02*
X166365500Y-124602000D01*
X166365500Y-124602000D02*
X166398833Y-124535333D01*
X166398833Y-124535333D02*
X166398833Y-124402000D01*
X166398833Y-124402000D02*
X166365500Y-124335333D01*
X166365500Y-124335333D02*
X166332166Y-124302000D01*
X166332166Y-124302000D02*
X166265500Y-124268666D01*
X166265500Y-124268666D02*
X166098833Y-124268666D01*
X166098833Y-124268666D02*
X166032166Y-124302000D01*
X166032166Y-124302000D02*
X165998833Y-124335333D01*
X165998833Y-124335333D02*
X165965500Y-124402000D01*
X165965500Y-124402000D02*
X165965500Y-124535333D01*
X165965500Y-124535333D02*
X165998833Y-124602000D01*
X165998833Y-124602000D02*
X166032166Y-124635333D01*
X166032166Y-124635333D02*
X166098833Y-124668666D01*
%TO.C,C27*%
X203543166Y-108965000D02*
X203576500Y-108998333D01*
X203576500Y-108998333D02*
X203609833Y-109098333D01*
X203609833Y-109098333D02*
X203609833Y-109165000D01*
X203609833Y-109165000D02*
X203576500Y-109265000D01*
X203576500Y-109265000D02*
X203509833Y-109331667D01*
X203509833Y-109331667D02*
X203443166Y-109365000D01*
X203443166Y-109365000D02*
X203309833Y-109398333D01*
X203309833Y-109398333D02*
X203209833Y-109398333D01*
X203209833Y-109398333D02*
X203076500Y-109365000D01*
X203076500Y-109365000D02*
X203009833Y-109331667D01*
X203009833Y-109331667D02*
X202943166Y-109265000D01*
X202943166Y-109265000D02*
X202909833Y-109165000D01*
X202909833Y-109165000D02*
X202909833Y-109098333D01*
X202909833Y-109098333D02*
X202943166Y-108998333D01*
X202943166Y-108998333D02*
X202976500Y-108965000D01*
X202976500Y-108698333D02*
X202943166Y-108665000D01*
X202943166Y-108665000D02*
X202909833Y-108598333D01*
X202909833Y-108598333D02*
X202909833Y-108431667D01*
X202909833Y-108431667D02*
X202943166Y-108365000D01*
X202943166Y-108365000D02*
X202976500Y-108331667D01*
X202976500Y-108331667D02*
X203043166Y-108298333D01*
X203043166Y-108298333D02*
X203109833Y-108298333D01*
X203109833Y-108298333D02*
X203209833Y-108331667D01*
X203209833Y-108331667D02*
X203609833Y-108731667D01*
X203609833Y-108731667D02*
X203609833Y-108298333D01*
X202909833Y-108065000D02*
X202909833Y-107598333D01*
X202909833Y-107598333D02*
X203609833Y-107898333D01*
%TO.C,R17*%
X198323833Y-125950000D02*
X197990500Y-126183333D01*
X198323833Y-126350000D02*
X197623833Y-126350000D01*
X197623833Y-126350000D02*
X197623833Y-126083333D01*
X197623833Y-126083333D02*
X197657166Y-126016667D01*
X197657166Y-126016667D02*
X197690500Y-125983333D01*
X197690500Y-125983333D02*
X197757166Y-125950000D01*
X197757166Y-125950000D02*
X197857166Y-125950000D01*
X197857166Y-125950000D02*
X197923833Y-125983333D01*
X197923833Y-125983333D02*
X197957166Y-126016667D01*
X197957166Y-126016667D02*
X197990500Y-126083333D01*
X197990500Y-126083333D02*
X197990500Y-126350000D01*
X198323833Y-125283333D02*
X198323833Y-125683333D01*
X198323833Y-125483333D02*
X197623833Y-125483333D01*
X197623833Y-125483333D02*
X197723833Y-125550000D01*
X197723833Y-125550000D02*
X197790500Y-125616667D01*
X197790500Y-125616667D02*
X197823833Y-125683333D01*
X197623833Y-125050000D02*
X197623833Y-124583333D01*
X197623833Y-124583333D02*
X198323833Y-124883333D01*
%TO.C,R1*%
X205703333Y-117023833D02*
X205470000Y-116690500D01*
X205303333Y-117023833D02*
X205303333Y-116323833D01*
X205303333Y-116323833D02*
X205570000Y-116323833D01*
X205570000Y-116323833D02*
X205636667Y-116357166D01*
X205636667Y-116357166D02*
X205670000Y-116390500D01*
X205670000Y-116390500D02*
X205703333Y-116457166D01*
X205703333Y-116457166D02*
X205703333Y-116557166D01*
X205703333Y-116557166D02*
X205670000Y-116623833D01*
X205670000Y-116623833D02*
X205636667Y-116657166D01*
X205636667Y-116657166D02*
X205570000Y-116690500D01*
X205570000Y-116690500D02*
X205303333Y-116690500D01*
X206370000Y-117023833D02*
X205970000Y-117023833D01*
X206170000Y-117023833D02*
X206170000Y-116323833D01*
X206170000Y-116323833D02*
X206103333Y-116423833D01*
X206103333Y-116423833D02*
X206036667Y-116490500D01*
X206036667Y-116490500D02*
X205970000Y-116523833D01*
%TO.C,C25*%
X220549999Y-141507166D02*
X220516666Y-141540500D01*
X220516666Y-141540500D02*
X220416666Y-141573833D01*
X220416666Y-141573833D02*
X220349999Y-141573833D01*
X220349999Y-141573833D02*
X220249999Y-141540500D01*
X220249999Y-141540500D02*
X220183333Y-141473833D01*
X220183333Y-141473833D02*
X220149999Y-141407166D01*
X220149999Y-141407166D02*
X220116666Y-141273833D01*
X220116666Y-141273833D02*
X220116666Y-141173833D01*
X220116666Y-141173833D02*
X220149999Y-141040500D01*
X220149999Y-141040500D02*
X220183333Y-140973833D01*
X220183333Y-140973833D02*
X220249999Y-140907166D01*
X220249999Y-140907166D02*
X220349999Y-140873833D01*
X220349999Y-140873833D02*
X220416666Y-140873833D01*
X220416666Y-140873833D02*
X220516666Y-140907166D01*
X220516666Y-140907166D02*
X220549999Y-140940500D01*
X220816666Y-140940500D02*
X220849999Y-140907166D01*
X220849999Y-140907166D02*
X220916666Y-140873833D01*
X220916666Y-140873833D02*
X221083333Y-140873833D01*
X221083333Y-140873833D02*
X221149999Y-140907166D01*
X221149999Y-140907166D02*
X221183333Y-140940500D01*
X221183333Y-140940500D02*
X221216666Y-141007166D01*
X221216666Y-141007166D02*
X221216666Y-141073833D01*
X221216666Y-141073833D02*
X221183333Y-141173833D01*
X221183333Y-141173833D02*
X220783333Y-141573833D01*
X220783333Y-141573833D02*
X221216666Y-141573833D01*
X221850000Y-140873833D02*
X221516666Y-140873833D01*
X221516666Y-140873833D02*
X221483333Y-141207166D01*
X221483333Y-141207166D02*
X221516666Y-141173833D01*
X221516666Y-141173833D02*
X221583333Y-141140500D01*
X221583333Y-141140500D02*
X221750000Y-141140500D01*
X221750000Y-141140500D02*
X221816666Y-141173833D01*
X221816666Y-141173833D02*
X221850000Y-141207166D01*
X221850000Y-141207166D02*
X221883333Y-141273833D01*
X221883333Y-141273833D02*
X221883333Y-141440500D01*
X221883333Y-141440500D02*
X221850000Y-141507166D01*
X221850000Y-141507166D02*
X221816666Y-141540500D01*
X221816666Y-141540500D02*
X221750000Y-141573833D01*
X221750000Y-141573833D02*
X221583333Y-141573833D01*
X221583333Y-141573833D02*
X221516666Y-141540500D01*
X221516666Y-141540500D02*
X221483333Y-141507166D01*
%TO.C,R26*%
X208013833Y-111790000D02*
X207680500Y-112023333D01*
X208013833Y-112190000D02*
X207313833Y-112190000D01*
X207313833Y-112190000D02*
X207313833Y-111923333D01*
X207313833Y-111923333D02*
X207347166Y-111856667D01*
X207347166Y-111856667D02*
X207380500Y-111823333D01*
X207380500Y-111823333D02*
X207447166Y-111790000D01*
X207447166Y-111790000D02*
X207547166Y-111790000D01*
X207547166Y-111790000D02*
X207613833Y-111823333D01*
X207613833Y-111823333D02*
X207647166Y-111856667D01*
X207647166Y-111856667D02*
X207680500Y-111923333D01*
X207680500Y-111923333D02*
X207680500Y-112190000D01*
X207380500Y-111523333D02*
X207347166Y-111490000D01*
X207347166Y-111490000D02*
X207313833Y-111423333D01*
X207313833Y-111423333D02*
X207313833Y-111256667D01*
X207313833Y-111256667D02*
X207347166Y-111190000D01*
X207347166Y-111190000D02*
X207380500Y-111156667D01*
X207380500Y-111156667D02*
X207447166Y-111123333D01*
X207447166Y-111123333D02*
X207513833Y-111123333D01*
X207513833Y-111123333D02*
X207613833Y-111156667D01*
X207613833Y-111156667D02*
X208013833Y-111556667D01*
X208013833Y-111556667D02*
X208013833Y-111123333D01*
X207313833Y-110523333D02*
X207313833Y-110656666D01*
X207313833Y-110656666D02*
X207347166Y-110723333D01*
X207347166Y-110723333D02*
X207380500Y-110756666D01*
X207380500Y-110756666D02*
X207480500Y-110823333D01*
X207480500Y-110823333D02*
X207613833Y-110856666D01*
X207613833Y-110856666D02*
X207880500Y-110856666D01*
X207880500Y-110856666D02*
X207947166Y-110823333D01*
X207947166Y-110823333D02*
X207980500Y-110790000D01*
X207980500Y-110790000D02*
X208013833Y-110723333D01*
X208013833Y-110723333D02*
X208013833Y-110590000D01*
X208013833Y-110590000D02*
X207980500Y-110523333D01*
X207980500Y-110523333D02*
X207947166Y-110490000D01*
X207947166Y-110490000D02*
X207880500Y-110456666D01*
X207880500Y-110456666D02*
X207713833Y-110456666D01*
X207713833Y-110456666D02*
X207647166Y-110490000D01*
X207647166Y-110490000D02*
X207613833Y-110523333D01*
X207613833Y-110523333D02*
X207580500Y-110590000D01*
X207580500Y-110590000D02*
X207580500Y-110723333D01*
X207580500Y-110723333D02*
X207613833Y-110790000D01*
X207613833Y-110790000D02*
X207647166Y-110823333D01*
X207647166Y-110823333D02*
X207713833Y-110856666D01*
%TO.C,L1*%
X203355833Y-120442667D02*
X203355833Y-120776000D01*
X203355833Y-120776000D02*
X202655833Y-120776000D01*
X203355833Y-119842666D02*
X203355833Y-120242666D01*
X203355833Y-120042666D02*
X202655833Y-120042666D01*
X202655833Y-120042666D02*
X202755833Y-120109333D01*
X202755833Y-120109333D02*
X202822500Y-120176000D01*
X202822500Y-120176000D02*
X202855833Y-120242666D01*
%TO.C,D2*%
X157049333Y-102869833D02*
X157049333Y-102169833D01*
X157049333Y-102169833D02*
X157216000Y-102169833D01*
X157216000Y-102169833D02*
X157316000Y-102203166D01*
X157316000Y-102203166D02*
X157382667Y-102269833D01*
X157382667Y-102269833D02*
X157416000Y-102336500D01*
X157416000Y-102336500D02*
X157449333Y-102469833D01*
X157449333Y-102469833D02*
X157449333Y-102569833D01*
X157449333Y-102569833D02*
X157416000Y-102703166D01*
X157416000Y-102703166D02*
X157382667Y-102769833D01*
X157382667Y-102769833D02*
X157316000Y-102836500D01*
X157316000Y-102836500D02*
X157216000Y-102869833D01*
X157216000Y-102869833D02*
X157049333Y-102869833D01*
X157716000Y-102236500D02*
X157749333Y-102203166D01*
X157749333Y-102203166D02*
X157816000Y-102169833D01*
X157816000Y-102169833D02*
X157982667Y-102169833D01*
X157982667Y-102169833D02*
X158049333Y-102203166D01*
X158049333Y-102203166D02*
X158082667Y-102236500D01*
X158082667Y-102236500D02*
X158116000Y-102303166D01*
X158116000Y-102303166D02*
X158116000Y-102369833D01*
X158116000Y-102369833D02*
X158082667Y-102469833D01*
X158082667Y-102469833D02*
X157682667Y-102869833D01*
X157682667Y-102869833D02*
X158116000Y-102869833D01*
%TO.C,C5*%
X193383166Y-118029666D02*
X193416500Y-118062999D01*
X193416500Y-118062999D02*
X193449833Y-118162999D01*
X193449833Y-118162999D02*
X193449833Y-118229666D01*
X193449833Y-118229666D02*
X193416500Y-118329666D01*
X193416500Y-118329666D02*
X193349833Y-118396333D01*
X193349833Y-118396333D02*
X193283166Y-118429666D01*
X193283166Y-118429666D02*
X193149833Y-118462999D01*
X193149833Y-118462999D02*
X193049833Y-118462999D01*
X193049833Y-118462999D02*
X192916500Y-118429666D01*
X192916500Y-118429666D02*
X192849833Y-118396333D01*
X192849833Y-118396333D02*
X192783166Y-118329666D01*
X192783166Y-118329666D02*
X192749833Y-118229666D01*
X192749833Y-118229666D02*
X192749833Y-118162999D01*
X192749833Y-118162999D02*
X192783166Y-118062999D01*
X192783166Y-118062999D02*
X192816500Y-118029666D01*
X192749833Y-117396333D02*
X192749833Y-117729666D01*
X192749833Y-117729666D02*
X193083166Y-117762999D01*
X193083166Y-117762999D02*
X193049833Y-117729666D01*
X193049833Y-117729666D02*
X193016500Y-117662999D01*
X193016500Y-117662999D02*
X193016500Y-117496333D01*
X193016500Y-117496333D02*
X193049833Y-117429666D01*
X193049833Y-117429666D02*
X193083166Y-117396333D01*
X193083166Y-117396333D02*
X193149833Y-117362999D01*
X193149833Y-117362999D02*
X193316500Y-117362999D01*
X193316500Y-117362999D02*
X193383166Y-117396333D01*
X193383166Y-117396333D02*
X193416500Y-117429666D01*
X193416500Y-117429666D02*
X193449833Y-117496333D01*
X193449833Y-117496333D02*
X193449833Y-117662999D01*
X193449833Y-117662999D02*
X193416500Y-117729666D01*
X193416500Y-117729666D02*
X193383166Y-117762999D01*
%TO.C,R10*%
X186149999Y-123123833D02*
X185916666Y-122790500D01*
X185749999Y-123123833D02*
X185749999Y-122423833D01*
X185749999Y-122423833D02*
X186016666Y-122423833D01*
X186016666Y-122423833D02*
X186083333Y-122457166D01*
X186083333Y-122457166D02*
X186116666Y-122490500D01*
X186116666Y-122490500D02*
X186149999Y-122557166D01*
X186149999Y-122557166D02*
X186149999Y-122657166D01*
X186149999Y-122657166D02*
X186116666Y-122723833D01*
X186116666Y-122723833D02*
X186083333Y-122757166D01*
X186083333Y-122757166D02*
X186016666Y-122790500D01*
X186016666Y-122790500D02*
X185749999Y-122790500D01*
X186816666Y-123123833D02*
X186416666Y-123123833D01*
X186616666Y-123123833D02*
X186616666Y-122423833D01*
X186616666Y-122423833D02*
X186549999Y-122523833D01*
X186549999Y-122523833D02*
X186483333Y-122590500D01*
X186483333Y-122590500D02*
X186416666Y-122623833D01*
X187250000Y-122423833D02*
X187316666Y-122423833D01*
X187316666Y-122423833D02*
X187383333Y-122457166D01*
X187383333Y-122457166D02*
X187416666Y-122490500D01*
X187416666Y-122490500D02*
X187450000Y-122557166D01*
X187450000Y-122557166D02*
X187483333Y-122690500D01*
X187483333Y-122690500D02*
X187483333Y-122857166D01*
X187483333Y-122857166D02*
X187450000Y-122990500D01*
X187450000Y-122990500D02*
X187416666Y-123057166D01*
X187416666Y-123057166D02*
X187383333Y-123090500D01*
X187383333Y-123090500D02*
X187316666Y-123123833D01*
X187316666Y-123123833D02*
X187250000Y-123123833D01*
X187250000Y-123123833D02*
X187183333Y-123090500D01*
X187183333Y-123090500D02*
X187150000Y-123057166D01*
X187150000Y-123057166D02*
X187116666Y-122990500D01*
X187116666Y-122990500D02*
X187083333Y-122857166D01*
X187083333Y-122857166D02*
X187083333Y-122690500D01*
X187083333Y-122690500D02*
X187116666Y-122557166D01*
X187116666Y-122557166D02*
X187150000Y-122490500D01*
X187150000Y-122490500D02*
X187183333Y-122457166D01*
X187183333Y-122457166D02*
X187250000Y-122423833D01*
%TO.C,R9*%
X224783333Y-128023833D02*
X224550000Y-127690500D01*
X224383333Y-128023833D02*
X224383333Y-127323833D01*
X224383333Y-127323833D02*
X224650000Y-127323833D01*
X224650000Y-127323833D02*
X224716667Y-127357166D01*
X224716667Y-127357166D02*
X224750000Y-127390500D01*
X224750000Y-127390500D02*
X224783333Y-127457166D01*
X224783333Y-127457166D02*
X224783333Y-127557166D01*
X224783333Y-127557166D02*
X224750000Y-127623833D01*
X224750000Y-127623833D02*
X224716667Y-127657166D01*
X224716667Y-127657166D02*
X224650000Y-127690500D01*
X224650000Y-127690500D02*
X224383333Y-127690500D01*
X225116667Y-128023833D02*
X225250000Y-128023833D01*
X225250000Y-128023833D02*
X225316667Y-127990500D01*
X225316667Y-127990500D02*
X225350000Y-127957166D01*
X225350000Y-127957166D02*
X225416667Y-127857166D01*
X225416667Y-127857166D02*
X225450000Y-127723833D01*
X225450000Y-127723833D02*
X225450000Y-127457166D01*
X225450000Y-127457166D02*
X225416667Y-127390500D01*
X225416667Y-127390500D02*
X225383333Y-127357166D01*
X225383333Y-127357166D02*
X225316667Y-127323833D01*
X225316667Y-127323833D02*
X225183333Y-127323833D01*
X225183333Y-127323833D02*
X225116667Y-127357166D01*
X225116667Y-127357166D02*
X225083333Y-127390500D01*
X225083333Y-127390500D02*
X225050000Y-127457166D01*
X225050000Y-127457166D02*
X225050000Y-127623833D01*
X225050000Y-127623833D02*
X225083333Y-127690500D01*
X225083333Y-127690500D02*
X225116667Y-127723833D01*
X225116667Y-127723833D02*
X225183333Y-127757166D01*
X225183333Y-127757166D02*
X225316667Y-127757166D01*
X225316667Y-127757166D02*
X225383333Y-127723833D01*
X225383333Y-127723833D02*
X225416667Y-127690500D01*
X225416667Y-127690500D02*
X225450000Y-127623833D01*
%TO.C,R33*%
X207915999Y-124733833D02*
X207682666Y-124400500D01*
X207515999Y-124733833D02*
X207515999Y-124033833D01*
X207515999Y-124033833D02*
X207782666Y-124033833D01*
X207782666Y-124033833D02*
X207849333Y-124067166D01*
X207849333Y-124067166D02*
X207882666Y-124100500D01*
X207882666Y-124100500D02*
X207915999Y-124167166D01*
X207915999Y-124167166D02*
X207915999Y-124267166D01*
X207915999Y-124267166D02*
X207882666Y-124333833D01*
X207882666Y-124333833D02*
X207849333Y-124367166D01*
X207849333Y-124367166D02*
X207782666Y-124400500D01*
X207782666Y-124400500D02*
X207515999Y-124400500D01*
X208149333Y-124033833D02*
X208582666Y-124033833D01*
X208582666Y-124033833D02*
X208349333Y-124300500D01*
X208349333Y-124300500D02*
X208449333Y-124300500D01*
X208449333Y-124300500D02*
X208515999Y-124333833D01*
X208515999Y-124333833D02*
X208549333Y-124367166D01*
X208549333Y-124367166D02*
X208582666Y-124433833D01*
X208582666Y-124433833D02*
X208582666Y-124600500D01*
X208582666Y-124600500D02*
X208549333Y-124667166D01*
X208549333Y-124667166D02*
X208515999Y-124700500D01*
X208515999Y-124700500D02*
X208449333Y-124733833D01*
X208449333Y-124733833D02*
X208249333Y-124733833D01*
X208249333Y-124733833D02*
X208182666Y-124700500D01*
X208182666Y-124700500D02*
X208149333Y-124667166D01*
X208816000Y-124033833D02*
X209249333Y-124033833D01*
X209249333Y-124033833D02*
X209016000Y-124300500D01*
X209016000Y-124300500D02*
X209116000Y-124300500D01*
X209116000Y-124300500D02*
X209182666Y-124333833D01*
X209182666Y-124333833D02*
X209216000Y-124367166D01*
X209216000Y-124367166D02*
X209249333Y-124433833D01*
X209249333Y-124433833D02*
X209249333Y-124600500D01*
X209249333Y-124600500D02*
X209216000Y-124667166D01*
X209216000Y-124667166D02*
X209182666Y-124700500D01*
X209182666Y-124700500D02*
X209116000Y-124733833D01*
X209116000Y-124733833D02*
X208916000Y-124733833D01*
X208916000Y-124733833D02*
X208849333Y-124700500D01*
X208849333Y-124700500D02*
X208816000Y-124667166D01*
%TO.C,R20*%
X186649999Y-118223833D02*
X186416666Y-117890500D01*
X186249999Y-118223833D02*
X186249999Y-117523833D01*
X186249999Y-117523833D02*
X186516666Y-117523833D01*
X186516666Y-117523833D02*
X186583333Y-117557166D01*
X186583333Y-117557166D02*
X186616666Y-117590500D01*
X186616666Y-117590500D02*
X186649999Y-117657166D01*
X186649999Y-117657166D02*
X186649999Y-117757166D01*
X186649999Y-117757166D02*
X186616666Y-117823833D01*
X186616666Y-117823833D02*
X186583333Y-117857166D01*
X186583333Y-117857166D02*
X186516666Y-117890500D01*
X186516666Y-117890500D02*
X186249999Y-117890500D01*
X186916666Y-117590500D02*
X186949999Y-117557166D01*
X186949999Y-117557166D02*
X187016666Y-117523833D01*
X187016666Y-117523833D02*
X187183333Y-117523833D01*
X187183333Y-117523833D02*
X187249999Y-117557166D01*
X187249999Y-117557166D02*
X187283333Y-117590500D01*
X187283333Y-117590500D02*
X187316666Y-117657166D01*
X187316666Y-117657166D02*
X187316666Y-117723833D01*
X187316666Y-117723833D02*
X187283333Y-117823833D01*
X187283333Y-117823833D02*
X186883333Y-118223833D01*
X186883333Y-118223833D02*
X187316666Y-118223833D01*
X187750000Y-117523833D02*
X187816666Y-117523833D01*
X187816666Y-117523833D02*
X187883333Y-117557166D01*
X187883333Y-117557166D02*
X187916666Y-117590500D01*
X187916666Y-117590500D02*
X187950000Y-117657166D01*
X187950000Y-117657166D02*
X187983333Y-117790500D01*
X187983333Y-117790500D02*
X187983333Y-117957166D01*
X187983333Y-117957166D02*
X187950000Y-118090500D01*
X187950000Y-118090500D02*
X187916666Y-118157166D01*
X187916666Y-118157166D02*
X187883333Y-118190500D01*
X187883333Y-118190500D02*
X187816666Y-118223833D01*
X187816666Y-118223833D02*
X187750000Y-118223833D01*
X187750000Y-118223833D02*
X187683333Y-118190500D01*
X187683333Y-118190500D02*
X187650000Y-118157166D01*
X187650000Y-118157166D02*
X187616666Y-118090500D01*
X187616666Y-118090500D02*
X187583333Y-117957166D01*
X187583333Y-117957166D02*
X187583333Y-117790500D01*
X187583333Y-117790500D02*
X187616666Y-117657166D01*
X187616666Y-117657166D02*
X187650000Y-117590500D01*
X187650000Y-117590500D02*
X187683333Y-117557166D01*
X187683333Y-117557166D02*
X187750000Y-117523833D01*
%TO.C,C15*%
X198463166Y-107419000D02*
X198496500Y-107452333D01*
X198496500Y-107452333D02*
X198529833Y-107552333D01*
X198529833Y-107552333D02*
X198529833Y-107619000D01*
X198529833Y-107619000D02*
X198496500Y-107719000D01*
X198496500Y-107719000D02*
X198429833Y-107785667D01*
X198429833Y-107785667D02*
X198363166Y-107819000D01*
X198363166Y-107819000D02*
X198229833Y-107852333D01*
X198229833Y-107852333D02*
X198129833Y-107852333D01*
X198129833Y-107852333D02*
X197996500Y-107819000D01*
X197996500Y-107819000D02*
X197929833Y-107785667D01*
X197929833Y-107785667D02*
X197863166Y-107719000D01*
X197863166Y-107719000D02*
X197829833Y-107619000D01*
X197829833Y-107619000D02*
X197829833Y-107552333D01*
X197829833Y-107552333D02*
X197863166Y-107452333D01*
X197863166Y-107452333D02*
X197896500Y-107419000D01*
X198529833Y-106752333D02*
X198529833Y-107152333D01*
X198529833Y-106952333D02*
X197829833Y-106952333D01*
X197829833Y-106952333D02*
X197929833Y-107019000D01*
X197929833Y-107019000D02*
X197996500Y-107085667D01*
X197996500Y-107085667D02*
X198029833Y-107152333D01*
X197829833Y-106119000D02*
X197829833Y-106452333D01*
X197829833Y-106452333D02*
X198163166Y-106485666D01*
X198163166Y-106485666D02*
X198129833Y-106452333D01*
X198129833Y-106452333D02*
X198096500Y-106385666D01*
X198096500Y-106385666D02*
X198096500Y-106219000D01*
X198096500Y-106219000D02*
X198129833Y-106152333D01*
X198129833Y-106152333D02*
X198163166Y-106119000D01*
X198163166Y-106119000D02*
X198229833Y-106085666D01*
X198229833Y-106085666D02*
X198396500Y-106085666D01*
X198396500Y-106085666D02*
X198463166Y-106119000D01*
X198463166Y-106119000D02*
X198496500Y-106152333D01*
X198496500Y-106152333D02*
X198529833Y-106219000D01*
X198529833Y-106219000D02*
X198529833Y-106385666D01*
X198529833Y-106385666D02*
X198496500Y-106452333D01*
X198496500Y-106452333D02*
X198463166Y-106485666D01*
%TO.C,R3*%
X187283333Y-119223833D02*
X187050000Y-118890500D01*
X186883333Y-119223833D02*
X186883333Y-118523833D01*
X186883333Y-118523833D02*
X187150000Y-118523833D01*
X187150000Y-118523833D02*
X187216667Y-118557166D01*
X187216667Y-118557166D02*
X187250000Y-118590500D01*
X187250000Y-118590500D02*
X187283333Y-118657166D01*
X187283333Y-118657166D02*
X187283333Y-118757166D01*
X187283333Y-118757166D02*
X187250000Y-118823833D01*
X187250000Y-118823833D02*
X187216667Y-118857166D01*
X187216667Y-118857166D02*
X187150000Y-118890500D01*
X187150000Y-118890500D02*
X186883333Y-118890500D01*
X187516667Y-118523833D02*
X187950000Y-118523833D01*
X187950000Y-118523833D02*
X187716667Y-118790500D01*
X187716667Y-118790500D02*
X187816667Y-118790500D01*
X187816667Y-118790500D02*
X187883333Y-118823833D01*
X187883333Y-118823833D02*
X187916667Y-118857166D01*
X187916667Y-118857166D02*
X187950000Y-118923833D01*
X187950000Y-118923833D02*
X187950000Y-119090500D01*
X187950000Y-119090500D02*
X187916667Y-119157166D01*
X187916667Y-119157166D02*
X187883333Y-119190500D01*
X187883333Y-119190500D02*
X187816667Y-119223833D01*
X187816667Y-119223833D02*
X187616667Y-119223833D01*
X187616667Y-119223833D02*
X187550000Y-119190500D01*
X187550000Y-119190500D02*
X187516667Y-119157166D01*
%TO.C,D8*%
X193879333Y-122681833D02*
X193879333Y-121981833D01*
X193879333Y-121981833D02*
X194046000Y-121981833D01*
X194046000Y-121981833D02*
X194146000Y-122015166D01*
X194146000Y-122015166D02*
X194212667Y-122081833D01*
X194212667Y-122081833D02*
X194246000Y-122148500D01*
X194246000Y-122148500D02*
X194279333Y-122281833D01*
X194279333Y-122281833D02*
X194279333Y-122381833D01*
X194279333Y-122381833D02*
X194246000Y-122515166D01*
X194246000Y-122515166D02*
X194212667Y-122581833D01*
X194212667Y-122581833D02*
X194146000Y-122648500D01*
X194146000Y-122648500D02*
X194046000Y-122681833D01*
X194046000Y-122681833D02*
X193879333Y-122681833D01*
X194679333Y-122281833D02*
X194612667Y-122248500D01*
X194612667Y-122248500D02*
X194579333Y-122215166D01*
X194579333Y-122215166D02*
X194546000Y-122148500D01*
X194546000Y-122148500D02*
X194546000Y-122115166D01*
X194546000Y-122115166D02*
X194579333Y-122048500D01*
X194579333Y-122048500D02*
X194612667Y-122015166D01*
X194612667Y-122015166D02*
X194679333Y-121981833D01*
X194679333Y-121981833D02*
X194812667Y-121981833D01*
X194812667Y-121981833D02*
X194879333Y-122015166D01*
X194879333Y-122015166D02*
X194912667Y-122048500D01*
X194912667Y-122048500D02*
X194946000Y-122115166D01*
X194946000Y-122115166D02*
X194946000Y-122148500D01*
X194946000Y-122148500D02*
X194912667Y-122215166D01*
X194912667Y-122215166D02*
X194879333Y-122248500D01*
X194879333Y-122248500D02*
X194812667Y-122281833D01*
X194812667Y-122281833D02*
X194679333Y-122281833D01*
X194679333Y-122281833D02*
X194612667Y-122315166D01*
X194612667Y-122315166D02*
X194579333Y-122348500D01*
X194579333Y-122348500D02*
X194546000Y-122415166D01*
X194546000Y-122415166D02*
X194546000Y-122548500D01*
X194546000Y-122548500D02*
X194579333Y-122615166D01*
X194579333Y-122615166D02*
X194612667Y-122648500D01*
X194612667Y-122648500D02*
X194679333Y-122681833D01*
X194679333Y-122681833D02*
X194812667Y-122681833D01*
X194812667Y-122681833D02*
X194879333Y-122648500D01*
X194879333Y-122648500D02*
X194912667Y-122615166D01*
X194912667Y-122615166D02*
X194946000Y-122548500D01*
X194946000Y-122548500D02*
X194946000Y-122415166D01*
X194946000Y-122415166D02*
X194912667Y-122348500D01*
X194912667Y-122348500D02*
X194879333Y-122315166D01*
X194879333Y-122315166D02*
X194812667Y-122281833D01*
%TO.C,D6*%
X173883333Y-133823833D02*
X173883333Y-133123833D01*
X173883333Y-133123833D02*
X174050000Y-133123833D01*
X174050000Y-133123833D02*
X174150000Y-133157166D01*
X174150000Y-133157166D02*
X174216667Y-133223833D01*
X174216667Y-133223833D02*
X174250000Y-133290500D01*
X174250000Y-133290500D02*
X174283333Y-133423833D01*
X174283333Y-133423833D02*
X174283333Y-133523833D01*
X174283333Y-133523833D02*
X174250000Y-133657166D01*
X174250000Y-133657166D02*
X174216667Y-133723833D01*
X174216667Y-133723833D02*
X174150000Y-133790500D01*
X174150000Y-133790500D02*
X174050000Y-133823833D01*
X174050000Y-133823833D02*
X173883333Y-133823833D01*
X174883333Y-133123833D02*
X174750000Y-133123833D01*
X174750000Y-133123833D02*
X174683333Y-133157166D01*
X174683333Y-133157166D02*
X174650000Y-133190500D01*
X174650000Y-133190500D02*
X174583333Y-133290500D01*
X174583333Y-133290500D02*
X174550000Y-133423833D01*
X174550000Y-133423833D02*
X174550000Y-133690500D01*
X174550000Y-133690500D02*
X174583333Y-133757166D01*
X174583333Y-133757166D02*
X174616667Y-133790500D01*
X174616667Y-133790500D02*
X174683333Y-133823833D01*
X174683333Y-133823833D02*
X174816667Y-133823833D01*
X174816667Y-133823833D02*
X174883333Y-133790500D01*
X174883333Y-133790500D02*
X174916667Y-133757166D01*
X174916667Y-133757166D02*
X174950000Y-133690500D01*
X174950000Y-133690500D02*
X174950000Y-133523833D01*
X174950000Y-133523833D02*
X174916667Y-133457166D01*
X174916667Y-133457166D02*
X174883333Y-133423833D01*
X174883333Y-133423833D02*
X174816667Y-133390500D01*
X174816667Y-133390500D02*
X174683333Y-133390500D01*
X174683333Y-133390500D02*
X174616667Y-133423833D01*
X174616667Y-133423833D02*
X174583333Y-133457166D01*
X174583333Y-133457166D02*
X174550000Y-133523833D01*
%TO.C,C18*%
X218449999Y-126657166D02*
X218416666Y-126690500D01*
X218416666Y-126690500D02*
X218316666Y-126723833D01*
X218316666Y-126723833D02*
X218249999Y-126723833D01*
X218249999Y-126723833D02*
X218149999Y-126690500D01*
X218149999Y-126690500D02*
X218083333Y-126623833D01*
X218083333Y-126623833D02*
X218049999Y-126557166D01*
X218049999Y-126557166D02*
X218016666Y-126423833D01*
X218016666Y-126423833D02*
X218016666Y-126323833D01*
X218016666Y-126323833D02*
X218049999Y-126190500D01*
X218049999Y-126190500D02*
X218083333Y-126123833D01*
X218083333Y-126123833D02*
X218149999Y-126057166D01*
X218149999Y-126057166D02*
X218249999Y-126023833D01*
X218249999Y-126023833D02*
X218316666Y-126023833D01*
X218316666Y-126023833D02*
X218416666Y-126057166D01*
X218416666Y-126057166D02*
X218449999Y-126090500D01*
X219116666Y-126723833D02*
X218716666Y-126723833D01*
X218916666Y-126723833D02*
X218916666Y-126023833D01*
X218916666Y-126023833D02*
X218849999Y-126123833D01*
X218849999Y-126123833D02*
X218783333Y-126190500D01*
X218783333Y-126190500D02*
X218716666Y-126223833D01*
X219516666Y-126323833D02*
X219450000Y-126290500D01*
X219450000Y-126290500D02*
X219416666Y-126257166D01*
X219416666Y-126257166D02*
X219383333Y-126190500D01*
X219383333Y-126190500D02*
X219383333Y-126157166D01*
X219383333Y-126157166D02*
X219416666Y-126090500D01*
X219416666Y-126090500D02*
X219450000Y-126057166D01*
X219450000Y-126057166D02*
X219516666Y-126023833D01*
X219516666Y-126023833D02*
X219650000Y-126023833D01*
X219650000Y-126023833D02*
X219716666Y-126057166D01*
X219716666Y-126057166D02*
X219750000Y-126090500D01*
X219750000Y-126090500D02*
X219783333Y-126157166D01*
X219783333Y-126157166D02*
X219783333Y-126190500D01*
X219783333Y-126190500D02*
X219750000Y-126257166D01*
X219750000Y-126257166D02*
X219716666Y-126290500D01*
X219716666Y-126290500D02*
X219650000Y-126323833D01*
X219650000Y-126323833D02*
X219516666Y-126323833D01*
X219516666Y-126323833D02*
X219450000Y-126357166D01*
X219450000Y-126357166D02*
X219416666Y-126390500D01*
X219416666Y-126390500D02*
X219383333Y-126457166D01*
X219383333Y-126457166D02*
X219383333Y-126590500D01*
X219383333Y-126590500D02*
X219416666Y-126657166D01*
X219416666Y-126657166D02*
X219450000Y-126690500D01*
X219450000Y-126690500D02*
X219516666Y-126723833D01*
X219516666Y-126723833D02*
X219650000Y-126723833D01*
X219650000Y-126723833D02*
X219716666Y-126690500D01*
X219716666Y-126690500D02*
X219750000Y-126657166D01*
X219750000Y-126657166D02*
X219783333Y-126590500D01*
X219783333Y-126590500D02*
X219783333Y-126457166D01*
X219783333Y-126457166D02*
X219750000Y-126390500D01*
X219750000Y-126390500D02*
X219716666Y-126357166D01*
X219716666Y-126357166D02*
X219650000Y-126323833D01*
%TO.C,R24*%
X224425999Y-118236833D02*
X224192666Y-117903500D01*
X224025999Y-118236833D02*
X224025999Y-117536833D01*
X224025999Y-117536833D02*
X224292666Y-117536833D01*
X224292666Y-117536833D02*
X224359333Y-117570166D01*
X224359333Y-117570166D02*
X224392666Y-117603500D01*
X224392666Y-117603500D02*
X224425999Y-117670166D01*
X224425999Y-117670166D02*
X224425999Y-117770166D01*
X224425999Y-117770166D02*
X224392666Y-117836833D01*
X224392666Y-117836833D02*
X224359333Y-117870166D01*
X224359333Y-117870166D02*
X224292666Y-117903500D01*
X224292666Y-117903500D02*
X224025999Y-117903500D01*
X224692666Y-117603500D02*
X224725999Y-117570166D01*
X224725999Y-117570166D02*
X224792666Y-117536833D01*
X224792666Y-117536833D02*
X224959333Y-117536833D01*
X224959333Y-117536833D02*
X225025999Y-117570166D01*
X225025999Y-117570166D02*
X225059333Y-117603500D01*
X225059333Y-117603500D02*
X225092666Y-117670166D01*
X225092666Y-117670166D02*
X225092666Y-117736833D01*
X225092666Y-117736833D02*
X225059333Y-117836833D01*
X225059333Y-117836833D02*
X224659333Y-118236833D01*
X224659333Y-118236833D02*
X225092666Y-118236833D01*
X225692666Y-117770166D02*
X225692666Y-118236833D01*
X225526000Y-117503500D02*
X225359333Y-118003500D01*
X225359333Y-118003500D02*
X225792666Y-118003500D01*
%TO.C,Y1*%
X199360580Y-107473984D02*
X199596282Y-107709686D01*
X198936316Y-107379703D02*
X199360580Y-107473984D01*
X199360580Y-107473984D02*
X199266299Y-107049720D01*
X200185538Y-107120431D02*
X199902695Y-107403273D01*
X200044117Y-107261852D02*
X199549142Y-106766877D01*
X199549142Y-106766877D02*
X199572712Y-106884728D01*
X199572712Y-106884728D02*
X199572712Y-106979009D01*
X199572712Y-106979009D02*
X199549142Y-107049720D01*
%TO.C,R4*%
X187283333Y-116223833D02*
X187050000Y-115890500D01*
X186883333Y-116223833D02*
X186883333Y-115523833D01*
X186883333Y-115523833D02*
X187150000Y-115523833D01*
X187150000Y-115523833D02*
X187216667Y-115557166D01*
X187216667Y-115557166D02*
X187250000Y-115590500D01*
X187250000Y-115590500D02*
X187283333Y-115657166D01*
X187283333Y-115657166D02*
X187283333Y-115757166D01*
X187283333Y-115757166D02*
X187250000Y-115823833D01*
X187250000Y-115823833D02*
X187216667Y-115857166D01*
X187216667Y-115857166D02*
X187150000Y-115890500D01*
X187150000Y-115890500D02*
X186883333Y-115890500D01*
X187883333Y-115757166D02*
X187883333Y-116223833D01*
X187716667Y-115490500D02*
X187550000Y-115990500D01*
X187550000Y-115990500D02*
X187983333Y-115990500D01*
%TO.C,C31*%
X232079999Y-135937166D02*
X232046666Y-135970500D01*
X232046666Y-135970500D02*
X231946666Y-136003833D01*
X231946666Y-136003833D02*
X231879999Y-136003833D01*
X231879999Y-136003833D02*
X231779999Y-135970500D01*
X231779999Y-135970500D02*
X231713333Y-135903833D01*
X231713333Y-135903833D02*
X231679999Y-135837166D01*
X231679999Y-135837166D02*
X231646666Y-135703833D01*
X231646666Y-135703833D02*
X231646666Y-135603833D01*
X231646666Y-135603833D02*
X231679999Y-135470500D01*
X231679999Y-135470500D02*
X231713333Y-135403833D01*
X231713333Y-135403833D02*
X231779999Y-135337166D01*
X231779999Y-135337166D02*
X231879999Y-135303833D01*
X231879999Y-135303833D02*
X231946666Y-135303833D01*
X231946666Y-135303833D02*
X232046666Y-135337166D01*
X232046666Y-135337166D02*
X232079999Y-135370500D01*
X232313333Y-135303833D02*
X232746666Y-135303833D01*
X232746666Y-135303833D02*
X232513333Y-135570500D01*
X232513333Y-135570500D02*
X232613333Y-135570500D01*
X232613333Y-135570500D02*
X232679999Y-135603833D01*
X232679999Y-135603833D02*
X232713333Y-135637166D01*
X232713333Y-135637166D02*
X232746666Y-135703833D01*
X232746666Y-135703833D02*
X232746666Y-135870500D01*
X232746666Y-135870500D02*
X232713333Y-135937166D01*
X232713333Y-135937166D02*
X232679999Y-135970500D01*
X232679999Y-135970500D02*
X232613333Y-136003833D01*
X232613333Y-136003833D02*
X232413333Y-136003833D01*
X232413333Y-136003833D02*
X232346666Y-135970500D01*
X232346666Y-135970500D02*
X232313333Y-135937166D01*
X233413333Y-136003833D02*
X233013333Y-136003833D01*
X233213333Y-136003833D02*
X233213333Y-135303833D01*
X233213333Y-135303833D02*
X233146666Y-135403833D01*
X233146666Y-135403833D02*
X233080000Y-135470500D01*
X233080000Y-135470500D02*
X233013333Y-135503833D01*
%TO.C,D5*%
X218203333Y-120263833D02*
X218203333Y-119563833D01*
X218203333Y-119563833D02*
X218370000Y-119563833D01*
X218370000Y-119563833D02*
X218470000Y-119597166D01*
X218470000Y-119597166D02*
X218536667Y-119663833D01*
X218536667Y-119663833D02*
X218570000Y-119730500D01*
X218570000Y-119730500D02*
X218603333Y-119863833D01*
X218603333Y-119863833D02*
X218603333Y-119963833D01*
X218603333Y-119963833D02*
X218570000Y-120097166D01*
X218570000Y-120097166D02*
X218536667Y-120163833D01*
X218536667Y-120163833D02*
X218470000Y-120230500D01*
X218470000Y-120230500D02*
X218370000Y-120263833D01*
X218370000Y-120263833D02*
X218203333Y-120263833D01*
X219236667Y-119563833D02*
X218903333Y-119563833D01*
X218903333Y-119563833D02*
X218870000Y-119897166D01*
X218870000Y-119897166D02*
X218903333Y-119863833D01*
X218903333Y-119863833D02*
X218970000Y-119830500D01*
X218970000Y-119830500D02*
X219136667Y-119830500D01*
X219136667Y-119830500D02*
X219203333Y-119863833D01*
X219203333Y-119863833D02*
X219236667Y-119897166D01*
X219236667Y-119897166D02*
X219270000Y-119963833D01*
X219270000Y-119963833D02*
X219270000Y-120130500D01*
X219270000Y-120130500D02*
X219236667Y-120197166D01*
X219236667Y-120197166D02*
X219203333Y-120230500D01*
X219203333Y-120230500D02*
X219136667Y-120263833D01*
X219136667Y-120263833D02*
X218970000Y-120263833D01*
X218970000Y-120263833D02*
X218903333Y-120230500D01*
X218903333Y-120230500D02*
X218870000Y-120197166D01*
%TO.C,J2*%
X191804890Y-110570066D02*
X191891714Y-111062469D01*
X191891714Y-111062469D02*
X191876252Y-111166738D01*
X191876252Y-111166738D02*
X191822175Y-111243969D01*
X191822175Y-111243969D02*
X191729483Y-111294161D01*
X191729483Y-111294161D02*
X191663829Y-111305737D01*
X192111909Y-110583625D02*
X192138948Y-110545010D01*
X192138948Y-110545010D02*
X192198813Y-110500606D01*
X192198813Y-110500606D02*
X192362948Y-110471665D01*
X192362948Y-110471665D02*
X192434390Y-110492915D01*
X192434390Y-110492915D02*
X192473005Y-110519954D01*
X192473005Y-110519954D02*
X192517409Y-110579820D01*
X192517409Y-110579820D02*
X192528985Y-110645473D01*
X192528985Y-110645473D02*
X192513523Y-110749742D01*
X192513523Y-110749742D02*
X192189059Y-111213125D01*
X192189059Y-111213125D02*
X192615809Y-111137877D01*
%TO.C,C12*%
X206597166Y-108320000D02*
X206630500Y-108353333D01*
X206630500Y-108353333D02*
X206663833Y-108453333D01*
X206663833Y-108453333D02*
X206663833Y-108520000D01*
X206663833Y-108520000D02*
X206630500Y-108620000D01*
X206630500Y-108620000D02*
X206563833Y-108686667D01*
X206563833Y-108686667D02*
X206497166Y-108720000D01*
X206497166Y-108720000D02*
X206363833Y-108753333D01*
X206363833Y-108753333D02*
X206263833Y-108753333D01*
X206263833Y-108753333D02*
X206130500Y-108720000D01*
X206130500Y-108720000D02*
X206063833Y-108686667D01*
X206063833Y-108686667D02*
X205997166Y-108620000D01*
X205997166Y-108620000D02*
X205963833Y-108520000D01*
X205963833Y-108520000D02*
X205963833Y-108453333D01*
X205963833Y-108453333D02*
X205997166Y-108353333D01*
X205997166Y-108353333D02*
X206030500Y-108320000D01*
X206663833Y-107653333D02*
X206663833Y-108053333D01*
X206663833Y-107853333D02*
X205963833Y-107853333D01*
X205963833Y-107853333D02*
X206063833Y-107920000D01*
X206063833Y-107920000D02*
X206130500Y-107986667D01*
X206130500Y-107986667D02*
X206163833Y-108053333D01*
X206030500Y-107386666D02*
X205997166Y-107353333D01*
X205997166Y-107353333D02*
X205963833Y-107286666D01*
X205963833Y-107286666D02*
X205963833Y-107120000D01*
X205963833Y-107120000D02*
X205997166Y-107053333D01*
X205997166Y-107053333D02*
X206030500Y-107020000D01*
X206030500Y-107020000D02*
X206097166Y-106986666D01*
X206097166Y-106986666D02*
X206163833Y-106986666D01*
X206163833Y-106986666D02*
X206263833Y-107020000D01*
X206263833Y-107020000D02*
X206663833Y-107420000D01*
X206663833Y-107420000D02*
X206663833Y-106986666D01*
%TO.C,R11*%
X186149999Y-124123833D02*
X185916666Y-123790500D01*
X185749999Y-124123833D02*
X185749999Y-123423833D01*
X185749999Y-123423833D02*
X186016666Y-123423833D01*
X186016666Y-123423833D02*
X186083333Y-123457166D01*
X186083333Y-123457166D02*
X186116666Y-123490500D01*
X186116666Y-123490500D02*
X186149999Y-123557166D01*
X186149999Y-123557166D02*
X186149999Y-123657166D01*
X186149999Y-123657166D02*
X186116666Y-123723833D01*
X186116666Y-123723833D02*
X186083333Y-123757166D01*
X186083333Y-123757166D02*
X186016666Y-123790500D01*
X186016666Y-123790500D02*
X185749999Y-123790500D01*
X186816666Y-124123833D02*
X186416666Y-124123833D01*
X186616666Y-124123833D02*
X186616666Y-123423833D01*
X186616666Y-123423833D02*
X186549999Y-123523833D01*
X186549999Y-123523833D02*
X186483333Y-123590500D01*
X186483333Y-123590500D02*
X186416666Y-123623833D01*
X187483333Y-124123833D02*
X187083333Y-124123833D01*
X187283333Y-124123833D02*
X187283333Y-123423833D01*
X187283333Y-123423833D02*
X187216666Y-123523833D01*
X187216666Y-123523833D02*
X187150000Y-123590500D01*
X187150000Y-123590500D02*
X187083333Y-123623833D01*
%TO.C,R18*%
X191339999Y-145383833D02*
X191106666Y-145050500D01*
X190939999Y-145383833D02*
X190939999Y-144683833D01*
X190939999Y-144683833D02*
X191206666Y-144683833D01*
X191206666Y-144683833D02*
X191273333Y-144717166D01*
X191273333Y-144717166D02*
X191306666Y-144750500D01*
X191306666Y-144750500D02*
X191339999Y-144817166D01*
X191339999Y-144817166D02*
X191339999Y-144917166D01*
X191339999Y-144917166D02*
X191306666Y-144983833D01*
X191306666Y-144983833D02*
X191273333Y-145017166D01*
X191273333Y-145017166D02*
X191206666Y-145050500D01*
X191206666Y-145050500D02*
X190939999Y-145050500D01*
X192006666Y-145383833D02*
X191606666Y-145383833D01*
X191806666Y-145383833D02*
X191806666Y-144683833D01*
X191806666Y-144683833D02*
X191739999Y-144783833D01*
X191739999Y-144783833D02*
X191673333Y-144850500D01*
X191673333Y-144850500D02*
X191606666Y-144883833D01*
X192406666Y-144983833D02*
X192340000Y-144950500D01*
X192340000Y-144950500D02*
X192306666Y-144917166D01*
X192306666Y-144917166D02*
X192273333Y-144850500D01*
X192273333Y-144850500D02*
X192273333Y-144817166D01*
X192273333Y-144817166D02*
X192306666Y-144750500D01*
X192306666Y-144750500D02*
X192340000Y-144717166D01*
X192340000Y-144717166D02*
X192406666Y-144683833D01*
X192406666Y-144683833D02*
X192540000Y-144683833D01*
X192540000Y-144683833D02*
X192606666Y-144717166D01*
X192606666Y-144717166D02*
X192640000Y-144750500D01*
X192640000Y-144750500D02*
X192673333Y-144817166D01*
X192673333Y-144817166D02*
X192673333Y-144850500D01*
X192673333Y-144850500D02*
X192640000Y-144917166D01*
X192640000Y-144917166D02*
X192606666Y-144950500D01*
X192606666Y-144950500D02*
X192540000Y-144983833D01*
X192540000Y-144983833D02*
X192406666Y-144983833D01*
X192406666Y-144983833D02*
X192340000Y-145017166D01*
X192340000Y-145017166D02*
X192306666Y-145050500D01*
X192306666Y-145050500D02*
X192273333Y-145117166D01*
X192273333Y-145117166D02*
X192273333Y-145250500D01*
X192273333Y-145250500D02*
X192306666Y-145317166D01*
X192306666Y-145317166D02*
X192340000Y-145350500D01*
X192340000Y-145350500D02*
X192406666Y-145383833D01*
X192406666Y-145383833D02*
X192540000Y-145383833D01*
X192540000Y-145383833D02*
X192606666Y-145350500D01*
X192606666Y-145350500D02*
X192640000Y-145317166D01*
X192640000Y-145317166D02*
X192673333Y-145250500D01*
X192673333Y-145250500D02*
X192673333Y-145117166D01*
X192673333Y-145117166D02*
X192640000Y-145050500D01*
X192640000Y-145050500D02*
X192606666Y-145017166D01*
X192606666Y-145017166D02*
X192540000Y-144983833D01*
%TO.C,R19*%
X177559999Y-135123833D02*
X177326666Y-134790500D01*
X177159999Y-135123833D02*
X177159999Y-134423833D01*
X177159999Y-134423833D02*
X177426666Y-134423833D01*
X177426666Y-134423833D02*
X177493333Y-134457166D01*
X177493333Y-134457166D02*
X177526666Y-134490500D01*
X177526666Y-134490500D02*
X177559999Y-134557166D01*
X177559999Y-134557166D02*
X177559999Y-134657166D01*
X177559999Y-134657166D02*
X177526666Y-134723833D01*
X177526666Y-134723833D02*
X177493333Y-134757166D01*
X177493333Y-134757166D02*
X177426666Y-134790500D01*
X177426666Y-134790500D02*
X177159999Y-134790500D01*
X178226666Y-135123833D02*
X177826666Y-135123833D01*
X178026666Y-135123833D02*
X178026666Y-134423833D01*
X178026666Y-134423833D02*
X177959999Y-134523833D01*
X177959999Y-134523833D02*
X177893333Y-134590500D01*
X177893333Y-134590500D02*
X177826666Y-134623833D01*
X178560000Y-135123833D02*
X178693333Y-135123833D01*
X178693333Y-135123833D02*
X178760000Y-135090500D01*
X178760000Y-135090500D02*
X178793333Y-135057166D01*
X178793333Y-135057166D02*
X178860000Y-134957166D01*
X178860000Y-134957166D02*
X178893333Y-134823833D01*
X178893333Y-134823833D02*
X178893333Y-134557166D01*
X178893333Y-134557166D02*
X178860000Y-134490500D01*
X178860000Y-134490500D02*
X178826666Y-134457166D01*
X178826666Y-134457166D02*
X178760000Y-134423833D01*
X178760000Y-134423833D02*
X178626666Y-134423833D01*
X178626666Y-134423833D02*
X178560000Y-134457166D01*
X178560000Y-134457166D02*
X178526666Y-134490500D01*
X178526666Y-134490500D02*
X178493333Y-134557166D01*
X178493333Y-134557166D02*
X178493333Y-134723833D01*
X178493333Y-134723833D02*
X178526666Y-134790500D01*
X178526666Y-134790500D02*
X178560000Y-134823833D01*
X178560000Y-134823833D02*
X178626666Y-134857166D01*
X178626666Y-134857166D02*
X178760000Y-134857166D01*
X178760000Y-134857166D02*
X178826666Y-134823833D01*
X178826666Y-134823833D02*
X178860000Y-134790500D01*
X178860000Y-134790500D02*
X178893333Y-134723833D01*
%TO.C,D1*%
X241885333Y-103123833D02*
X241885333Y-102423833D01*
X241885333Y-102423833D02*
X242052000Y-102423833D01*
X242052000Y-102423833D02*
X242152000Y-102457166D01*
X242152000Y-102457166D02*
X242218667Y-102523833D01*
X242218667Y-102523833D02*
X242252000Y-102590500D01*
X242252000Y-102590500D02*
X242285333Y-102723833D01*
X242285333Y-102723833D02*
X242285333Y-102823833D01*
X242285333Y-102823833D02*
X242252000Y-102957166D01*
X242252000Y-102957166D02*
X242218667Y-103023833D01*
X242218667Y-103023833D02*
X242152000Y-103090500D01*
X242152000Y-103090500D02*
X242052000Y-103123833D01*
X242052000Y-103123833D02*
X241885333Y-103123833D01*
X242952000Y-103123833D02*
X242552000Y-103123833D01*
X242752000Y-103123833D02*
X242752000Y-102423833D01*
X242752000Y-102423833D02*
X242685333Y-102523833D01*
X242685333Y-102523833D02*
X242618667Y-102590500D01*
X242618667Y-102590500D02*
X242552000Y-102623833D01*
%TO.C,C33*%
X191549999Y-113257166D02*
X191516666Y-113290500D01*
X191516666Y-113290500D02*
X191416666Y-113323833D01*
X191416666Y-113323833D02*
X191349999Y-113323833D01*
X191349999Y-113323833D02*
X191249999Y-113290500D01*
X191249999Y-113290500D02*
X191183333Y-113223833D01*
X191183333Y-113223833D02*
X191149999Y-113157166D01*
X191149999Y-113157166D02*
X191116666Y-113023833D01*
X191116666Y-113023833D02*
X191116666Y-112923833D01*
X191116666Y-112923833D02*
X191149999Y-112790500D01*
X191149999Y-112790500D02*
X191183333Y-112723833D01*
X191183333Y-112723833D02*
X191249999Y-112657166D01*
X191249999Y-112657166D02*
X191349999Y-112623833D01*
X191349999Y-112623833D02*
X191416666Y-112623833D01*
X191416666Y-112623833D02*
X191516666Y-112657166D01*
X191516666Y-112657166D02*
X191549999Y-112690500D01*
X191783333Y-112623833D02*
X192216666Y-112623833D01*
X192216666Y-112623833D02*
X191983333Y-112890500D01*
X191983333Y-112890500D02*
X192083333Y-112890500D01*
X192083333Y-112890500D02*
X192149999Y-112923833D01*
X192149999Y-112923833D02*
X192183333Y-112957166D01*
X192183333Y-112957166D02*
X192216666Y-113023833D01*
X192216666Y-113023833D02*
X192216666Y-113190500D01*
X192216666Y-113190500D02*
X192183333Y-113257166D01*
X192183333Y-113257166D02*
X192149999Y-113290500D01*
X192149999Y-113290500D02*
X192083333Y-113323833D01*
X192083333Y-113323833D02*
X191883333Y-113323833D01*
X191883333Y-113323833D02*
X191816666Y-113290500D01*
X191816666Y-113290500D02*
X191783333Y-113257166D01*
X192450000Y-112623833D02*
X192883333Y-112623833D01*
X192883333Y-112623833D02*
X192650000Y-112890500D01*
X192650000Y-112890500D02*
X192750000Y-112890500D01*
X192750000Y-112890500D02*
X192816666Y-112923833D01*
X192816666Y-112923833D02*
X192850000Y-112957166D01*
X192850000Y-112957166D02*
X192883333Y-113023833D01*
X192883333Y-113023833D02*
X192883333Y-113190500D01*
X192883333Y-113190500D02*
X192850000Y-113257166D01*
X192850000Y-113257166D02*
X192816666Y-113290500D01*
X192816666Y-113290500D02*
X192750000Y-113323833D01*
X192750000Y-113323833D02*
X192550000Y-113323833D01*
X192550000Y-113323833D02*
X192483333Y-113290500D01*
X192483333Y-113290500D02*
X192450000Y-113257166D01*
%TO.C,C13*%
X210401166Y-125348000D02*
X210434500Y-125381333D01*
X210434500Y-125381333D02*
X210467833Y-125481333D01*
X210467833Y-125481333D02*
X210467833Y-125548000D01*
X210467833Y-125548000D02*
X210434500Y-125648000D01*
X210434500Y-125648000D02*
X210367833Y-125714667D01*
X210367833Y-125714667D02*
X210301166Y-125748000D01*
X210301166Y-125748000D02*
X210167833Y-125781333D01*
X210167833Y-125781333D02*
X210067833Y-125781333D01*
X210067833Y-125781333D02*
X209934500Y-125748000D01*
X209934500Y-125748000D02*
X209867833Y-125714667D01*
X209867833Y-125714667D02*
X209801166Y-125648000D01*
X209801166Y-125648000D02*
X209767833Y-125548000D01*
X209767833Y-125548000D02*
X209767833Y-125481333D01*
X209767833Y-125481333D02*
X209801166Y-125381333D01*
X209801166Y-125381333D02*
X209834500Y-125348000D01*
X210467833Y-124681333D02*
X210467833Y-125081333D01*
X210467833Y-124881333D02*
X209767833Y-124881333D01*
X209767833Y-124881333D02*
X209867833Y-124948000D01*
X209867833Y-124948000D02*
X209934500Y-125014667D01*
X209934500Y-125014667D02*
X209967833Y-125081333D01*
X209767833Y-124448000D02*
X209767833Y-124014666D01*
X209767833Y-124014666D02*
X210034500Y-124248000D01*
X210034500Y-124248000D02*
X210034500Y-124148000D01*
X210034500Y-124148000D02*
X210067833Y-124081333D01*
X210067833Y-124081333D02*
X210101166Y-124048000D01*
X210101166Y-124048000D02*
X210167833Y-124014666D01*
X210167833Y-124014666D02*
X210334500Y-124014666D01*
X210334500Y-124014666D02*
X210401166Y-124048000D01*
X210401166Y-124048000D02*
X210434500Y-124081333D01*
X210434500Y-124081333D02*
X210467833Y-124148000D01*
X210467833Y-124148000D02*
X210467833Y-124348000D01*
X210467833Y-124348000D02*
X210434500Y-124414666D01*
X210434500Y-124414666D02*
X210401166Y-124448000D01*
%TO.C,R15*%
X200589999Y-142843833D02*
X200356666Y-142510500D01*
X200189999Y-142843833D02*
X200189999Y-142143833D01*
X200189999Y-142143833D02*
X200456666Y-142143833D01*
X200456666Y-142143833D02*
X200523333Y-142177166D01*
X200523333Y-142177166D02*
X200556666Y-142210500D01*
X200556666Y-142210500D02*
X200589999Y-142277166D01*
X200589999Y-142277166D02*
X200589999Y-142377166D01*
X200589999Y-142377166D02*
X200556666Y-142443833D01*
X200556666Y-142443833D02*
X200523333Y-142477166D01*
X200523333Y-142477166D02*
X200456666Y-142510500D01*
X200456666Y-142510500D02*
X200189999Y-142510500D01*
X201256666Y-142843833D02*
X200856666Y-142843833D01*
X201056666Y-142843833D02*
X201056666Y-142143833D01*
X201056666Y-142143833D02*
X200989999Y-142243833D01*
X200989999Y-142243833D02*
X200923333Y-142310500D01*
X200923333Y-142310500D02*
X200856666Y-142343833D01*
X201890000Y-142143833D02*
X201556666Y-142143833D01*
X201556666Y-142143833D02*
X201523333Y-142477166D01*
X201523333Y-142477166D02*
X201556666Y-142443833D01*
X201556666Y-142443833D02*
X201623333Y-142410500D01*
X201623333Y-142410500D02*
X201790000Y-142410500D01*
X201790000Y-142410500D02*
X201856666Y-142443833D01*
X201856666Y-142443833D02*
X201890000Y-142477166D01*
X201890000Y-142477166D02*
X201923333Y-142543833D01*
X201923333Y-142543833D02*
X201923333Y-142710500D01*
X201923333Y-142710500D02*
X201890000Y-142777166D01*
X201890000Y-142777166D02*
X201856666Y-142810500D01*
X201856666Y-142810500D02*
X201790000Y-142843833D01*
X201790000Y-142843833D02*
X201623333Y-142843833D01*
X201623333Y-142843833D02*
X201556666Y-142810500D01*
X201556666Y-142810500D02*
X201523333Y-142777166D01*
%TO.C,R22*%
X180093999Y-133253833D02*
X179860666Y-132920500D01*
X179693999Y-133253833D02*
X179693999Y-132553833D01*
X179693999Y-132553833D02*
X179960666Y-132553833D01*
X179960666Y-132553833D02*
X180027333Y-132587166D01*
X180027333Y-132587166D02*
X180060666Y-132620500D01*
X180060666Y-132620500D02*
X180093999Y-132687166D01*
X180093999Y-132687166D02*
X180093999Y-132787166D01*
X180093999Y-132787166D02*
X180060666Y-132853833D01*
X180060666Y-132853833D02*
X180027333Y-132887166D01*
X180027333Y-132887166D02*
X179960666Y-132920500D01*
X179960666Y-132920500D02*
X179693999Y-132920500D01*
X180360666Y-132620500D02*
X180393999Y-132587166D01*
X180393999Y-132587166D02*
X180460666Y-132553833D01*
X180460666Y-132553833D02*
X180627333Y-132553833D01*
X180627333Y-132553833D02*
X180693999Y-132587166D01*
X180693999Y-132587166D02*
X180727333Y-132620500D01*
X180727333Y-132620500D02*
X180760666Y-132687166D01*
X180760666Y-132687166D02*
X180760666Y-132753833D01*
X180760666Y-132753833D02*
X180727333Y-132853833D01*
X180727333Y-132853833D02*
X180327333Y-133253833D01*
X180327333Y-133253833D02*
X180760666Y-133253833D01*
X181027333Y-132620500D02*
X181060666Y-132587166D01*
X181060666Y-132587166D02*
X181127333Y-132553833D01*
X181127333Y-132553833D02*
X181294000Y-132553833D01*
X181294000Y-132553833D02*
X181360666Y-132587166D01*
X181360666Y-132587166D02*
X181394000Y-132620500D01*
X181394000Y-132620500D02*
X181427333Y-132687166D01*
X181427333Y-132687166D02*
X181427333Y-132753833D01*
X181427333Y-132753833D02*
X181394000Y-132853833D01*
X181394000Y-132853833D02*
X180994000Y-133253833D01*
X180994000Y-133253833D02*
X181427333Y-133253833D01*
%TO.C,H2*%
X200112619Y-138561904D02*
X199112619Y-138561904D01*
X199588809Y-138561904D02*
X199588809Y-137990476D01*
X200112619Y-137990476D02*
X199112619Y-137990476D01*
X199207857Y-137561904D02*
X199160238Y-137514285D01*
X199160238Y-137514285D02*
X199112619Y-137419047D01*
X199112619Y-137419047D02*
X199112619Y-137180952D01*
X199112619Y-137180952D02*
X199160238Y-137085714D01*
X199160238Y-137085714D02*
X199207857Y-137038095D01*
X199207857Y-137038095D02*
X199303095Y-136990476D01*
X199303095Y-136990476D02*
X199398333Y-136990476D01*
X199398333Y-136990476D02*
X199541190Y-137038095D01*
X199541190Y-137038095D02*
X200112619Y-137609523D01*
X200112619Y-137609523D02*
X200112619Y-136990476D01*
%TO.C,C1*%
X167856166Y-125014666D02*
X167889500Y-125047999D01*
X167889500Y-125047999D02*
X167922833Y-125147999D01*
X167922833Y-125147999D02*
X167922833Y-125214666D01*
X167922833Y-125214666D02*
X167889500Y-125314666D01*
X167889500Y-125314666D02*
X167822833Y-125381333D01*
X167822833Y-125381333D02*
X167756166Y-125414666D01*
X167756166Y-125414666D02*
X167622833Y-125447999D01*
X167622833Y-125447999D02*
X167522833Y-125447999D01*
X167522833Y-125447999D02*
X167389500Y-125414666D01*
X167389500Y-125414666D02*
X167322833Y-125381333D01*
X167322833Y-125381333D02*
X167256166Y-125314666D01*
X167256166Y-125314666D02*
X167222833Y-125214666D01*
X167222833Y-125214666D02*
X167222833Y-125147999D01*
X167222833Y-125147999D02*
X167256166Y-125047999D01*
X167256166Y-125047999D02*
X167289500Y-125014666D01*
X167922833Y-124347999D02*
X167922833Y-124747999D01*
X167922833Y-124547999D02*
X167222833Y-124547999D01*
X167222833Y-124547999D02*
X167322833Y-124614666D01*
X167322833Y-124614666D02*
X167389500Y-124681333D01*
X167389500Y-124681333D02*
X167422833Y-124747999D01*
%TO.C,R6*%
X187264333Y-115223833D02*
X187031000Y-114890500D01*
X186864333Y-115223833D02*
X186864333Y-114523833D01*
X186864333Y-114523833D02*
X187131000Y-114523833D01*
X187131000Y-114523833D02*
X187197667Y-114557166D01*
X187197667Y-114557166D02*
X187231000Y-114590500D01*
X187231000Y-114590500D02*
X187264333Y-114657166D01*
X187264333Y-114657166D02*
X187264333Y-114757166D01*
X187264333Y-114757166D02*
X187231000Y-114823833D01*
X187231000Y-114823833D02*
X187197667Y-114857166D01*
X187197667Y-114857166D02*
X187131000Y-114890500D01*
X187131000Y-114890500D02*
X186864333Y-114890500D01*
X187864333Y-114523833D02*
X187731000Y-114523833D01*
X187731000Y-114523833D02*
X187664333Y-114557166D01*
X187664333Y-114557166D02*
X187631000Y-114590500D01*
X187631000Y-114590500D02*
X187564333Y-114690500D01*
X187564333Y-114690500D02*
X187531000Y-114823833D01*
X187531000Y-114823833D02*
X187531000Y-115090500D01*
X187531000Y-115090500D02*
X187564333Y-115157166D01*
X187564333Y-115157166D02*
X187597667Y-115190500D01*
X187597667Y-115190500D02*
X187664333Y-115223833D01*
X187664333Y-115223833D02*
X187797667Y-115223833D01*
X187797667Y-115223833D02*
X187864333Y-115190500D01*
X187864333Y-115190500D02*
X187897667Y-115157166D01*
X187897667Y-115157166D02*
X187931000Y-115090500D01*
X187931000Y-115090500D02*
X187931000Y-114923833D01*
X187931000Y-114923833D02*
X187897667Y-114857166D01*
X187897667Y-114857166D02*
X187864333Y-114823833D01*
X187864333Y-114823833D02*
X187797667Y-114790500D01*
X187797667Y-114790500D02*
X187664333Y-114790500D01*
X187664333Y-114790500D02*
X187597667Y-114823833D01*
X187597667Y-114823833D02*
X187564333Y-114857166D01*
X187564333Y-114857166D02*
X187531000Y-114923833D01*
%TO.C,U5*%
X207324666Y-116393833D02*
X207324666Y-116960500D01*
X207324666Y-116960500D02*
X207358000Y-117027166D01*
X207358000Y-117027166D02*
X207391333Y-117060500D01*
X207391333Y-117060500D02*
X207458000Y-117093833D01*
X207458000Y-117093833D02*
X207591333Y-117093833D01*
X207591333Y-117093833D02*
X207658000Y-117060500D01*
X207658000Y-117060500D02*
X207691333Y-117027166D01*
X207691333Y-117027166D02*
X207724666Y-116960500D01*
X207724666Y-116960500D02*
X207724666Y-116393833D01*
X208391333Y-116393833D02*
X208057999Y-116393833D01*
X208057999Y-116393833D02*
X208024666Y-116727166D01*
X208024666Y-116727166D02*
X208057999Y-116693833D01*
X208057999Y-116693833D02*
X208124666Y-116660500D01*
X208124666Y-116660500D02*
X208291333Y-116660500D01*
X208291333Y-116660500D02*
X208357999Y-116693833D01*
X208357999Y-116693833D02*
X208391333Y-116727166D01*
X208391333Y-116727166D02*
X208424666Y-116793833D01*
X208424666Y-116793833D02*
X208424666Y-116960500D01*
X208424666Y-116960500D02*
X208391333Y-117027166D01*
X208391333Y-117027166D02*
X208357999Y-117060500D01*
X208357999Y-117060500D02*
X208291333Y-117093833D01*
X208291333Y-117093833D02*
X208124666Y-117093833D01*
X208124666Y-117093833D02*
X208057999Y-117060500D01*
X208057999Y-117060500D02*
X208024666Y-117027166D01*
%TO.C,R25*%
X193749999Y-116923833D02*
X193516666Y-116590500D01*
X193349999Y-116923833D02*
X193349999Y-116223833D01*
X193349999Y-116223833D02*
X193616666Y-116223833D01*
X193616666Y-116223833D02*
X193683333Y-116257166D01*
X193683333Y-116257166D02*
X193716666Y-116290500D01*
X193716666Y-116290500D02*
X193749999Y-116357166D01*
X193749999Y-116357166D02*
X193749999Y-116457166D01*
X193749999Y-116457166D02*
X193716666Y-116523833D01*
X193716666Y-116523833D02*
X193683333Y-116557166D01*
X193683333Y-116557166D02*
X193616666Y-116590500D01*
X193616666Y-116590500D02*
X193349999Y-116590500D01*
X194016666Y-116290500D02*
X194049999Y-116257166D01*
X194049999Y-116257166D02*
X194116666Y-116223833D01*
X194116666Y-116223833D02*
X194283333Y-116223833D01*
X194283333Y-116223833D02*
X194349999Y-116257166D01*
X194349999Y-116257166D02*
X194383333Y-116290500D01*
X194383333Y-116290500D02*
X194416666Y-116357166D01*
X194416666Y-116357166D02*
X194416666Y-116423833D01*
X194416666Y-116423833D02*
X194383333Y-116523833D01*
X194383333Y-116523833D02*
X193983333Y-116923833D01*
X193983333Y-116923833D02*
X194416666Y-116923833D01*
X195050000Y-116223833D02*
X194716666Y-116223833D01*
X194716666Y-116223833D02*
X194683333Y-116557166D01*
X194683333Y-116557166D02*
X194716666Y-116523833D01*
X194716666Y-116523833D02*
X194783333Y-116490500D01*
X194783333Y-116490500D02*
X194950000Y-116490500D01*
X194950000Y-116490500D02*
X195016666Y-116523833D01*
X195016666Y-116523833D02*
X195050000Y-116557166D01*
X195050000Y-116557166D02*
X195083333Y-116623833D01*
X195083333Y-116623833D02*
X195083333Y-116790500D01*
X195083333Y-116790500D02*
X195050000Y-116857166D01*
X195050000Y-116857166D02*
X195016666Y-116890500D01*
X195016666Y-116890500D02*
X194950000Y-116923833D01*
X194950000Y-116923833D02*
X194783333Y-116923833D01*
X194783333Y-116923833D02*
X194716666Y-116890500D01*
X194716666Y-116890500D02*
X194683333Y-116857166D01*
%TO.C,C10*%
X205639999Y-112827166D02*
X205606666Y-112860500D01*
X205606666Y-112860500D02*
X205506666Y-112893833D01*
X205506666Y-112893833D02*
X205439999Y-112893833D01*
X205439999Y-112893833D02*
X205339999Y-112860500D01*
X205339999Y-112860500D02*
X205273333Y-112793833D01*
X205273333Y-112793833D02*
X205239999Y-112727166D01*
X205239999Y-112727166D02*
X205206666Y-112593833D01*
X205206666Y-112593833D02*
X205206666Y-112493833D01*
X205206666Y-112493833D02*
X205239999Y-112360500D01*
X205239999Y-112360500D02*
X205273333Y-112293833D01*
X205273333Y-112293833D02*
X205339999Y-112227166D01*
X205339999Y-112227166D02*
X205439999Y-112193833D01*
X205439999Y-112193833D02*
X205506666Y-112193833D01*
X205506666Y-112193833D02*
X205606666Y-112227166D01*
X205606666Y-112227166D02*
X205639999Y-112260500D01*
X206306666Y-112893833D02*
X205906666Y-112893833D01*
X206106666Y-112893833D02*
X206106666Y-112193833D01*
X206106666Y-112193833D02*
X206039999Y-112293833D01*
X206039999Y-112293833D02*
X205973333Y-112360500D01*
X205973333Y-112360500D02*
X205906666Y-112393833D01*
X206740000Y-112193833D02*
X206806666Y-112193833D01*
X206806666Y-112193833D02*
X206873333Y-112227166D01*
X206873333Y-112227166D02*
X206906666Y-112260500D01*
X206906666Y-112260500D02*
X206940000Y-112327166D01*
X206940000Y-112327166D02*
X206973333Y-112460500D01*
X206973333Y-112460500D02*
X206973333Y-112627166D01*
X206973333Y-112627166D02*
X206940000Y-112760500D01*
X206940000Y-112760500D02*
X206906666Y-112827166D01*
X206906666Y-112827166D02*
X206873333Y-112860500D01*
X206873333Y-112860500D02*
X206806666Y-112893833D01*
X206806666Y-112893833D02*
X206740000Y-112893833D01*
X206740000Y-112893833D02*
X206673333Y-112860500D01*
X206673333Y-112860500D02*
X206640000Y-112827166D01*
X206640000Y-112827166D02*
X206606666Y-112760500D01*
X206606666Y-112760500D02*
X206573333Y-112627166D01*
X206573333Y-112627166D02*
X206573333Y-112460500D01*
X206573333Y-112460500D02*
X206606666Y-112327166D01*
X206606666Y-112327166D02*
X206640000Y-112260500D01*
X206640000Y-112260500D02*
X206673333Y-112227166D01*
X206673333Y-112227166D02*
X206740000Y-112193833D01*
%TO.C,R14*%
X220996999Y-128396833D02*
X220763666Y-128063500D01*
X220596999Y-128396833D02*
X220596999Y-127696833D01*
X220596999Y-127696833D02*
X220863666Y-127696833D01*
X220863666Y-127696833D02*
X220930333Y-127730166D01*
X220930333Y-127730166D02*
X220963666Y-127763500D01*
X220963666Y-127763500D02*
X220996999Y-127830166D01*
X220996999Y-127830166D02*
X220996999Y-127930166D01*
X220996999Y-127930166D02*
X220963666Y-127996833D01*
X220963666Y-127996833D02*
X220930333Y-128030166D01*
X220930333Y-128030166D02*
X220863666Y-128063500D01*
X220863666Y-128063500D02*
X220596999Y-128063500D01*
X221663666Y-128396833D02*
X221263666Y-128396833D01*
X221463666Y-128396833D02*
X221463666Y-127696833D01*
X221463666Y-127696833D02*
X221396999Y-127796833D01*
X221396999Y-127796833D02*
X221330333Y-127863500D01*
X221330333Y-127863500D02*
X221263666Y-127896833D01*
X222263666Y-127930166D02*
X222263666Y-128396833D01*
X222097000Y-127663500D02*
X221930333Y-128163500D01*
X221930333Y-128163500D02*
X222363666Y-128163500D01*
%TO.C,C20*%
X202607166Y-107490000D02*
X202640500Y-107523333D01*
X202640500Y-107523333D02*
X202673833Y-107623333D01*
X202673833Y-107623333D02*
X202673833Y-107690000D01*
X202673833Y-107690000D02*
X202640500Y-107790000D01*
X202640500Y-107790000D02*
X202573833Y-107856667D01*
X202573833Y-107856667D02*
X202507166Y-107890000D01*
X202507166Y-107890000D02*
X202373833Y-107923333D01*
X202373833Y-107923333D02*
X202273833Y-107923333D01*
X202273833Y-107923333D02*
X202140500Y-107890000D01*
X202140500Y-107890000D02*
X202073833Y-107856667D01*
X202073833Y-107856667D02*
X202007166Y-107790000D01*
X202007166Y-107790000D02*
X201973833Y-107690000D01*
X201973833Y-107690000D02*
X201973833Y-107623333D01*
X201973833Y-107623333D02*
X202007166Y-107523333D01*
X202007166Y-107523333D02*
X202040500Y-107490000D01*
X202040500Y-107223333D02*
X202007166Y-107190000D01*
X202007166Y-107190000D02*
X201973833Y-107123333D01*
X201973833Y-107123333D02*
X201973833Y-106956667D01*
X201973833Y-106956667D02*
X202007166Y-106890000D01*
X202007166Y-106890000D02*
X202040500Y-106856667D01*
X202040500Y-106856667D02*
X202107166Y-106823333D01*
X202107166Y-106823333D02*
X202173833Y-106823333D01*
X202173833Y-106823333D02*
X202273833Y-106856667D01*
X202273833Y-106856667D02*
X202673833Y-107256667D01*
X202673833Y-107256667D02*
X202673833Y-106823333D01*
X201973833Y-106390000D02*
X201973833Y-106323333D01*
X201973833Y-106323333D02*
X202007166Y-106256666D01*
X202007166Y-106256666D02*
X202040500Y-106223333D01*
X202040500Y-106223333D02*
X202107166Y-106190000D01*
X202107166Y-106190000D02*
X202240500Y-106156666D01*
X202240500Y-106156666D02*
X202407166Y-106156666D01*
X202407166Y-106156666D02*
X202540500Y-106190000D01*
X202540500Y-106190000D02*
X202607166Y-106223333D01*
X202607166Y-106223333D02*
X202640500Y-106256666D01*
X202640500Y-106256666D02*
X202673833Y-106323333D01*
X202673833Y-106323333D02*
X202673833Y-106390000D01*
X202673833Y-106390000D02*
X202640500Y-106456666D01*
X202640500Y-106456666D02*
X202607166Y-106490000D01*
X202607166Y-106490000D02*
X202540500Y-106523333D01*
X202540500Y-106523333D02*
X202407166Y-106556666D01*
X202407166Y-106556666D02*
X202240500Y-106556666D01*
X202240500Y-106556666D02*
X202107166Y-106523333D01*
X202107166Y-106523333D02*
X202040500Y-106490000D01*
X202040500Y-106490000D02*
X202007166Y-106456666D01*
X202007166Y-106456666D02*
X201973833Y-106390000D01*
D13*
%TO.C,R31*%
X191417833Y-117855000D02*
X191084500Y-118088333D01*
X191417833Y-118255000D02*
X190717833Y-118255000D01*
X190717833Y-118255000D02*
X190717833Y-117988333D01*
X190717833Y-117988333D02*
X190751166Y-117921667D01*
X190751166Y-117921667D02*
X190784500Y-117888333D01*
X190784500Y-117888333D02*
X190851166Y-117855000D01*
X190851166Y-117855000D02*
X190951166Y-117855000D01*
X190951166Y-117855000D02*
X191017833Y-117888333D01*
X191017833Y-117888333D02*
X191051166Y-117921667D01*
X191051166Y-117921667D02*
X191084500Y-117988333D01*
X191084500Y-117988333D02*
X191084500Y-118255000D01*
X190717833Y-117621667D02*
X190717833Y-117188333D01*
X190717833Y-117188333D02*
X190984500Y-117421667D01*
X190984500Y-117421667D02*
X190984500Y-117321667D01*
X190984500Y-117321667D02*
X191017833Y-117255000D01*
X191017833Y-117255000D02*
X191051166Y-117221667D01*
X191051166Y-117221667D02*
X191117833Y-117188333D01*
X191117833Y-117188333D02*
X191284500Y-117188333D01*
X191284500Y-117188333D02*
X191351166Y-117221667D01*
X191351166Y-117221667D02*
X191384500Y-117255000D01*
X191384500Y-117255000D02*
X191417833Y-117321667D01*
X191417833Y-117321667D02*
X191417833Y-117521667D01*
X191417833Y-117521667D02*
X191384500Y-117588333D01*
X191384500Y-117588333D02*
X191351166Y-117621667D01*
X191417833Y-116521666D02*
X191417833Y-116921666D01*
X191417833Y-116721666D02*
X190717833Y-116721666D01*
X190717833Y-116721666D02*
X190817833Y-116788333D01*
X190817833Y-116788333D02*
X190884500Y-116855000D01*
X190884500Y-116855000D02*
X190917833Y-116921666D01*
D12*
%TO.C,R37*%
X216944833Y-133730000D02*
X216611500Y-133963333D01*
X216944833Y-134130000D02*
X216244833Y-134130000D01*
X216244833Y-134130000D02*
X216244833Y-133863333D01*
X216244833Y-133863333D02*
X216278166Y-133796667D01*
X216278166Y-133796667D02*
X216311500Y-133763333D01*
X216311500Y-133763333D02*
X216378166Y-133730000D01*
X216378166Y-133730000D02*
X216478166Y-133730000D01*
X216478166Y-133730000D02*
X216544833Y-133763333D01*
X216544833Y-133763333D02*
X216578166Y-133796667D01*
X216578166Y-133796667D02*
X216611500Y-133863333D01*
X216611500Y-133863333D02*
X216611500Y-134130000D01*
X216244833Y-133496667D02*
X216244833Y-133063333D01*
X216244833Y-133063333D02*
X216511500Y-133296667D01*
X216511500Y-133296667D02*
X216511500Y-133196667D01*
X216511500Y-133196667D02*
X216544833Y-133130000D01*
X216544833Y-133130000D02*
X216578166Y-133096667D01*
X216578166Y-133096667D02*
X216644833Y-133063333D01*
X216644833Y-133063333D02*
X216811500Y-133063333D01*
X216811500Y-133063333D02*
X216878166Y-133096667D01*
X216878166Y-133096667D02*
X216911500Y-133130000D01*
X216911500Y-133130000D02*
X216944833Y-133196667D01*
X216944833Y-133196667D02*
X216944833Y-133396667D01*
X216944833Y-133396667D02*
X216911500Y-133463333D01*
X216911500Y-133463333D02*
X216878166Y-133496667D01*
X216244833Y-132830000D02*
X216244833Y-132363333D01*
X216244833Y-132363333D02*
X216944833Y-132663333D01*
%TO.C,R35*%
X196323833Y-125950000D02*
X195990500Y-126183333D01*
X196323833Y-126350000D02*
X195623833Y-126350000D01*
X195623833Y-126350000D02*
X195623833Y-126083333D01*
X195623833Y-126083333D02*
X195657166Y-126016667D01*
X195657166Y-126016667D02*
X195690500Y-125983333D01*
X195690500Y-125983333D02*
X195757166Y-125950000D01*
X195757166Y-125950000D02*
X195857166Y-125950000D01*
X195857166Y-125950000D02*
X195923833Y-125983333D01*
X195923833Y-125983333D02*
X195957166Y-126016667D01*
X195957166Y-126016667D02*
X195990500Y-126083333D01*
X195990500Y-126083333D02*
X195990500Y-126350000D01*
X195623833Y-125716667D02*
X195623833Y-125283333D01*
X195623833Y-125283333D02*
X195890500Y-125516667D01*
X195890500Y-125516667D02*
X195890500Y-125416667D01*
X195890500Y-125416667D02*
X195923833Y-125350000D01*
X195923833Y-125350000D02*
X195957166Y-125316667D01*
X195957166Y-125316667D02*
X196023833Y-125283333D01*
X196023833Y-125283333D02*
X196190500Y-125283333D01*
X196190500Y-125283333D02*
X196257166Y-125316667D01*
X196257166Y-125316667D02*
X196290500Y-125350000D01*
X196290500Y-125350000D02*
X196323833Y-125416667D01*
X196323833Y-125416667D02*
X196323833Y-125616667D01*
X196323833Y-125616667D02*
X196290500Y-125683333D01*
X196290500Y-125683333D02*
X196257166Y-125716667D01*
X195623833Y-124650000D02*
X195623833Y-124983333D01*
X195623833Y-124983333D02*
X195957166Y-125016666D01*
X195957166Y-125016666D02*
X195923833Y-124983333D01*
X195923833Y-124983333D02*
X195890500Y-124916666D01*
X195890500Y-124916666D02*
X195890500Y-124750000D01*
X195890500Y-124750000D02*
X195923833Y-124683333D01*
X195923833Y-124683333D02*
X195957166Y-124650000D01*
X195957166Y-124650000D02*
X196023833Y-124616666D01*
X196023833Y-124616666D02*
X196190500Y-124616666D01*
X196190500Y-124616666D02*
X196257166Y-124650000D01*
X196257166Y-124650000D02*
X196290500Y-124683333D01*
X196290500Y-124683333D02*
X196323833Y-124750000D01*
X196323833Y-124750000D02*
X196323833Y-124916666D01*
X196323833Y-124916666D02*
X196290500Y-124983333D01*
X196290500Y-124983333D02*
X196257166Y-125016666D01*
%TO.C,C22*%
X210401166Y-117728000D02*
X210434500Y-117761333D01*
X210434500Y-117761333D02*
X210467833Y-117861333D01*
X210467833Y-117861333D02*
X210467833Y-117928000D01*
X210467833Y-117928000D02*
X210434500Y-118028000D01*
X210434500Y-118028000D02*
X210367833Y-118094667D01*
X210367833Y-118094667D02*
X210301166Y-118128000D01*
X210301166Y-118128000D02*
X210167833Y-118161333D01*
X210167833Y-118161333D02*
X210067833Y-118161333D01*
X210067833Y-118161333D02*
X209934500Y-118128000D01*
X209934500Y-118128000D02*
X209867833Y-118094667D01*
X209867833Y-118094667D02*
X209801166Y-118028000D01*
X209801166Y-118028000D02*
X209767833Y-117928000D01*
X209767833Y-117928000D02*
X209767833Y-117861333D01*
X209767833Y-117861333D02*
X209801166Y-117761333D01*
X209801166Y-117761333D02*
X209834500Y-117728000D01*
X209834500Y-117461333D02*
X209801166Y-117428000D01*
X209801166Y-117428000D02*
X209767833Y-117361333D01*
X209767833Y-117361333D02*
X209767833Y-117194667D01*
X209767833Y-117194667D02*
X209801166Y-117128000D01*
X209801166Y-117128000D02*
X209834500Y-117094667D01*
X209834500Y-117094667D02*
X209901166Y-117061333D01*
X209901166Y-117061333D02*
X209967833Y-117061333D01*
X209967833Y-117061333D02*
X210067833Y-117094667D01*
X210067833Y-117094667D02*
X210467833Y-117494667D01*
X210467833Y-117494667D02*
X210467833Y-117061333D01*
X209834500Y-116794666D02*
X209801166Y-116761333D01*
X209801166Y-116761333D02*
X209767833Y-116694666D01*
X209767833Y-116694666D02*
X209767833Y-116528000D01*
X209767833Y-116528000D02*
X209801166Y-116461333D01*
X209801166Y-116461333D02*
X209834500Y-116428000D01*
X209834500Y-116428000D02*
X209901166Y-116394666D01*
X209901166Y-116394666D02*
X209967833Y-116394666D01*
X209967833Y-116394666D02*
X210067833Y-116428000D01*
X210067833Y-116428000D02*
X210467833Y-116828000D01*
X210467833Y-116828000D02*
X210467833Y-116394666D01*
%TO.C,C19*%
X201511166Y-107695000D02*
X201544500Y-107728333D01*
X201544500Y-107728333D02*
X201577833Y-107828333D01*
X201577833Y-107828333D02*
X201577833Y-107895000D01*
X201577833Y-107895000D02*
X201544500Y-107995000D01*
X201544500Y-107995000D02*
X201477833Y-108061667D01*
X201477833Y-108061667D02*
X201411166Y-108095000D01*
X201411166Y-108095000D02*
X201277833Y-108128333D01*
X201277833Y-108128333D02*
X201177833Y-108128333D01*
X201177833Y-108128333D02*
X201044500Y-108095000D01*
X201044500Y-108095000D02*
X200977833Y-108061667D01*
X200977833Y-108061667D02*
X200911166Y-107995000D01*
X200911166Y-107995000D02*
X200877833Y-107895000D01*
X200877833Y-107895000D02*
X200877833Y-107828333D01*
X200877833Y-107828333D02*
X200911166Y-107728333D01*
X200911166Y-107728333D02*
X200944500Y-107695000D01*
X201577833Y-107028333D02*
X201577833Y-107428333D01*
X201577833Y-107228333D02*
X200877833Y-107228333D01*
X200877833Y-107228333D02*
X200977833Y-107295000D01*
X200977833Y-107295000D02*
X201044500Y-107361667D01*
X201044500Y-107361667D02*
X201077833Y-107428333D01*
X201577833Y-106695000D02*
X201577833Y-106561666D01*
X201577833Y-106561666D02*
X201544500Y-106495000D01*
X201544500Y-106495000D02*
X201511166Y-106461666D01*
X201511166Y-106461666D02*
X201411166Y-106395000D01*
X201411166Y-106395000D02*
X201277833Y-106361666D01*
X201277833Y-106361666D02*
X201011166Y-106361666D01*
X201011166Y-106361666D02*
X200944500Y-106395000D01*
X200944500Y-106395000D02*
X200911166Y-106428333D01*
X200911166Y-106428333D02*
X200877833Y-106495000D01*
X200877833Y-106495000D02*
X200877833Y-106628333D01*
X200877833Y-106628333D02*
X200911166Y-106695000D01*
X200911166Y-106695000D02*
X200944500Y-106728333D01*
X200944500Y-106728333D02*
X201011166Y-106761666D01*
X201011166Y-106761666D02*
X201177833Y-106761666D01*
X201177833Y-106761666D02*
X201244500Y-106728333D01*
X201244500Y-106728333D02*
X201277833Y-106695000D01*
X201277833Y-106695000D02*
X201311166Y-106628333D01*
X201311166Y-106628333D02*
X201311166Y-106495000D01*
X201311166Y-106495000D02*
X201277833Y-106428333D01*
X201277833Y-106428333D02*
X201244500Y-106395000D01*
X201244500Y-106395000D02*
X201177833Y-106361666D01*
%TO.C,R21*%
X207349999Y-145423833D02*
X207116666Y-145090500D01*
X206949999Y-145423833D02*
X206949999Y-144723833D01*
X206949999Y-144723833D02*
X207216666Y-144723833D01*
X207216666Y-144723833D02*
X207283333Y-144757166D01*
X207283333Y-144757166D02*
X207316666Y-144790500D01*
X207316666Y-144790500D02*
X207349999Y-144857166D01*
X207349999Y-144857166D02*
X207349999Y-144957166D01*
X207349999Y-144957166D02*
X207316666Y-145023833D01*
X207316666Y-145023833D02*
X207283333Y-145057166D01*
X207283333Y-145057166D02*
X207216666Y-145090500D01*
X207216666Y-145090500D02*
X206949999Y-145090500D01*
X207616666Y-144790500D02*
X207649999Y-144757166D01*
X207649999Y-144757166D02*
X207716666Y-144723833D01*
X207716666Y-144723833D02*
X207883333Y-144723833D01*
X207883333Y-144723833D02*
X207949999Y-144757166D01*
X207949999Y-144757166D02*
X207983333Y-144790500D01*
X207983333Y-144790500D02*
X208016666Y-144857166D01*
X208016666Y-144857166D02*
X208016666Y-144923833D01*
X208016666Y-144923833D02*
X207983333Y-145023833D01*
X207983333Y-145023833D02*
X207583333Y-145423833D01*
X207583333Y-145423833D02*
X208016666Y-145423833D01*
X208683333Y-145423833D02*
X208283333Y-145423833D01*
X208483333Y-145423833D02*
X208483333Y-144723833D01*
X208483333Y-144723833D02*
X208416666Y-144823833D01*
X208416666Y-144823833D02*
X208350000Y-144890500D01*
X208350000Y-144890500D02*
X208283333Y-144923833D01*
%TO.C,C34*%
X198027166Y-121820000D02*
X198060500Y-121853333D01*
X198060500Y-121853333D02*
X198093833Y-121953333D01*
X198093833Y-121953333D02*
X198093833Y-122020000D01*
X198093833Y-122020000D02*
X198060500Y-122120000D01*
X198060500Y-122120000D02*
X197993833Y-122186667D01*
X197993833Y-122186667D02*
X197927166Y-122220000D01*
X197927166Y-122220000D02*
X197793833Y-122253333D01*
X197793833Y-122253333D02*
X197693833Y-122253333D01*
X197693833Y-122253333D02*
X197560500Y-122220000D01*
X197560500Y-122220000D02*
X197493833Y-122186667D01*
X197493833Y-122186667D02*
X197427166Y-122120000D01*
X197427166Y-122120000D02*
X197393833Y-122020000D01*
X197393833Y-122020000D02*
X197393833Y-121953333D01*
X197393833Y-121953333D02*
X197427166Y-121853333D01*
X197427166Y-121853333D02*
X197460500Y-121820000D01*
X197393833Y-121586667D02*
X197393833Y-121153333D01*
X197393833Y-121153333D02*
X197660500Y-121386667D01*
X197660500Y-121386667D02*
X197660500Y-121286667D01*
X197660500Y-121286667D02*
X197693833Y-121220000D01*
X197693833Y-121220000D02*
X197727166Y-121186667D01*
X197727166Y-121186667D02*
X197793833Y-121153333D01*
X197793833Y-121153333D02*
X197960500Y-121153333D01*
X197960500Y-121153333D02*
X198027166Y-121186667D01*
X198027166Y-121186667D02*
X198060500Y-121220000D01*
X198060500Y-121220000D02*
X198093833Y-121286667D01*
X198093833Y-121286667D02*
X198093833Y-121486667D01*
X198093833Y-121486667D02*
X198060500Y-121553333D01*
X198060500Y-121553333D02*
X198027166Y-121586667D01*
X197627166Y-120553333D02*
X198093833Y-120553333D01*
X197360500Y-120720000D02*
X197860500Y-120886666D01*
X197860500Y-120886666D02*
X197860500Y-120453333D01*
%TO.C,C4*%
X203483333Y-113797166D02*
X203450000Y-113830500D01*
X203450000Y-113830500D02*
X203350000Y-113863833D01*
X203350000Y-113863833D02*
X203283333Y-113863833D01*
X203283333Y-113863833D02*
X203183333Y-113830500D01*
X203183333Y-113830500D02*
X203116667Y-113763833D01*
X203116667Y-113763833D02*
X203083333Y-113697166D01*
X203083333Y-113697166D02*
X203050000Y-113563833D01*
X203050000Y-113563833D02*
X203050000Y-113463833D01*
X203050000Y-113463833D02*
X203083333Y-113330500D01*
X203083333Y-113330500D02*
X203116667Y-113263833D01*
X203116667Y-113263833D02*
X203183333Y-113197166D01*
X203183333Y-113197166D02*
X203283333Y-113163833D01*
X203283333Y-113163833D02*
X203350000Y-113163833D01*
X203350000Y-113163833D02*
X203450000Y-113197166D01*
X203450000Y-113197166D02*
X203483333Y-113230500D01*
X204083333Y-113397166D02*
X204083333Y-113863833D01*
X203916667Y-113130500D02*
X203750000Y-113630500D01*
X203750000Y-113630500D02*
X204183333Y-113630500D01*
%TO.C,C8*%
X204583904Y-116783332D02*
X204622000Y-116821428D01*
X204622000Y-116821428D02*
X204660095Y-116935713D01*
X204660095Y-116935713D02*
X204660095Y-117011904D01*
X204660095Y-117011904D02*
X204622000Y-117126190D01*
X204622000Y-117126190D02*
X204545809Y-117202380D01*
X204545809Y-117202380D02*
X204469619Y-117240475D01*
X204469619Y-117240475D02*
X204317238Y-117278571D01*
X204317238Y-117278571D02*
X204202952Y-117278571D01*
X204202952Y-117278571D02*
X204050571Y-117240475D01*
X204050571Y-117240475D02*
X203974380Y-117202380D01*
X203974380Y-117202380D02*
X203898190Y-117126190D01*
X203898190Y-117126190D02*
X203860095Y-117011904D01*
X203860095Y-117011904D02*
X203860095Y-116935713D01*
X203860095Y-116935713D02*
X203898190Y-116821428D01*
X203898190Y-116821428D02*
X203936285Y-116783332D01*
X204202952Y-116326190D02*
X204164857Y-116402380D01*
X204164857Y-116402380D02*
X204126761Y-116440475D01*
X204126761Y-116440475D02*
X204050571Y-116478571D01*
X204050571Y-116478571D02*
X204012476Y-116478571D01*
X204012476Y-116478571D02*
X203936285Y-116440475D01*
X203936285Y-116440475D02*
X203898190Y-116402380D01*
X203898190Y-116402380D02*
X203860095Y-116326190D01*
X203860095Y-116326190D02*
X203860095Y-116173809D01*
X203860095Y-116173809D02*
X203898190Y-116097618D01*
X203898190Y-116097618D02*
X203936285Y-116059523D01*
X203936285Y-116059523D02*
X204012476Y-116021428D01*
X204012476Y-116021428D02*
X204050571Y-116021428D01*
X204050571Y-116021428D02*
X204126761Y-116059523D01*
X204126761Y-116059523D02*
X204164857Y-116097618D01*
X204164857Y-116097618D02*
X204202952Y-116173809D01*
X204202952Y-116173809D02*
X204202952Y-116326190D01*
X204202952Y-116326190D02*
X204241047Y-116402380D01*
X204241047Y-116402380D02*
X204279142Y-116440475D01*
X204279142Y-116440475D02*
X204355333Y-116478571D01*
X204355333Y-116478571D02*
X204507714Y-116478571D01*
X204507714Y-116478571D02*
X204583904Y-116440475D01*
X204583904Y-116440475D02*
X204622000Y-116402380D01*
X204622000Y-116402380D02*
X204660095Y-116326190D01*
X204660095Y-116326190D02*
X204660095Y-116173809D01*
X204660095Y-116173809D02*
X204622000Y-116097618D01*
X204622000Y-116097618D02*
X204583904Y-116059523D01*
X204583904Y-116059523D02*
X204507714Y-116021428D01*
X204507714Y-116021428D02*
X204355333Y-116021428D01*
X204355333Y-116021428D02*
X204279142Y-116059523D01*
X204279142Y-116059523D02*
X204241047Y-116097618D01*
X204241047Y-116097618D02*
X204202952Y-116173809D01*
%TO.C,C32*%
X173371999Y-135950166D02*
X173338666Y-135983500D01*
X173338666Y-135983500D02*
X173238666Y-136016833D01*
X173238666Y-136016833D02*
X173171999Y-136016833D01*
X173171999Y-136016833D02*
X173071999Y-135983500D01*
X173071999Y-135983500D02*
X173005333Y-135916833D01*
X173005333Y-135916833D02*
X172971999Y-135850166D01*
X172971999Y-135850166D02*
X172938666Y-135716833D01*
X172938666Y-135716833D02*
X172938666Y-135616833D01*
X172938666Y-135616833D02*
X172971999Y-135483500D01*
X172971999Y-135483500D02*
X173005333Y-135416833D01*
X173005333Y-135416833D02*
X173071999Y-135350166D01*
X173071999Y-135350166D02*
X173171999Y-135316833D01*
X173171999Y-135316833D02*
X173238666Y-135316833D01*
X173238666Y-135316833D02*
X173338666Y-135350166D01*
X173338666Y-135350166D02*
X173371999Y-135383500D01*
X173605333Y-135316833D02*
X174038666Y-135316833D01*
X174038666Y-135316833D02*
X173805333Y-135583500D01*
X173805333Y-135583500D02*
X173905333Y-135583500D01*
X173905333Y-135583500D02*
X173971999Y-135616833D01*
X173971999Y-135616833D02*
X174005333Y-135650166D01*
X174005333Y-135650166D02*
X174038666Y-135716833D01*
X174038666Y-135716833D02*
X174038666Y-135883500D01*
X174038666Y-135883500D02*
X174005333Y-135950166D01*
X174005333Y-135950166D02*
X173971999Y-135983500D01*
X173971999Y-135983500D02*
X173905333Y-136016833D01*
X173905333Y-136016833D02*
X173705333Y-136016833D01*
X173705333Y-136016833D02*
X173638666Y-135983500D01*
X173638666Y-135983500D02*
X173605333Y-135950166D01*
X174305333Y-135383500D02*
X174338666Y-135350166D01*
X174338666Y-135350166D02*
X174405333Y-135316833D01*
X174405333Y-135316833D02*
X174572000Y-135316833D01*
X174572000Y-135316833D02*
X174638666Y-135350166D01*
X174638666Y-135350166D02*
X174672000Y-135383500D01*
X174672000Y-135383500D02*
X174705333Y-135450166D01*
X174705333Y-135450166D02*
X174705333Y-135516833D01*
X174705333Y-135516833D02*
X174672000Y-135616833D01*
X174672000Y-135616833D02*
X174272000Y-136016833D01*
X174272000Y-136016833D02*
X174705333Y-136016833D01*
%TO.C,C11*%
X194449999Y-110957166D02*
X194416666Y-110990500D01*
X194416666Y-110990500D02*
X194316666Y-111023833D01*
X194316666Y-111023833D02*
X194249999Y-111023833D01*
X194249999Y-111023833D02*
X194149999Y-110990500D01*
X194149999Y-110990500D02*
X194083333Y-110923833D01*
X194083333Y-110923833D02*
X194049999Y-110857166D01*
X194049999Y-110857166D02*
X194016666Y-110723833D01*
X194016666Y-110723833D02*
X194016666Y-110623833D01*
X194016666Y-110623833D02*
X194049999Y-110490500D01*
X194049999Y-110490500D02*
X194083333Y-110423833D01*
X194083333Y-110423833D02*
X194149999Y-110357166D01*
X194149999Y-110357166D02*
X194249999Y-110323833D01*
X194249999Y-110323833D02*
X194316666Y-110323833D01*
X194316666Y-110323833D02*
X194416666Y-110357166D01*
X194416666Y-110357166D02*
X194449999Y-110390500D01*
X195116666Y-111023833D02*
X194716666Y-111023833D01*
X194916666Y-111023833D02*
X194916666Y-110323833D01*
X194916666Y-110323833D02*
X194849999Y-110423833D01*
X194849999Y-110423833D02*
X194783333Y-110490500D01*
X194783333Y-110490500D02*
X194716666Y-110523833D01*
X195783333Y-111023833D02*
X195383333Y-111023833D01*
X195583333Y-111023833D02*
X195583333Y-110323833D01*
X195583333Y-110323833D02*
X195516666Y-110423833D01*
X195516666Y-110423833D02*
X195450000Y-110490500D01*
X195450000Y-110490500D02*
X195383333Y-110523833D01*
%TO.C,R39*%
X186649999Y-111723833D02*
X186416666Y-111390500D01*
X186249999Y-111723833D02*
X186249999Y-111023833D01*
X186249999Y-111023833D02*
X186516666Y-111023833D01*
X186516666Y-111023833D02*
X186583333Y-111057166D01*
X186583333Y-111057166D02*
X186616666Y-111090500D01*
X186616666Y-111090500D02*
X186649999Y-111157166D01*
X186649999Y-111157166D02*
X186649999Y-111257166D01*
X186649999Y-111257166D02*
X186616666Y-111323833D01*
X186616666Y-111323833D02*
X186583333Y-111357166D01*
X186583333Y-111357166D02*
X186516666Y-111390500D01*
X186516666Y-111390500D02*
X186249999Y-111390500D01*
X186883333Y-111023833D02*
X187316666Y-111023833D01*
X187316666Y-111023833D02*
X187083333Y-111290500D01*
X187083333Y-111290500D02*
X187183333Y-111290500D01*
X187183333Y-111290500D02*
X187249999Y-111323833D01*
X187249999Y-111323833D02*
X187283333Y-111357166D01*
X187283333Y-111357166D02*
X187316666Y-111423833D01*
X187316666Y-111423833D02*
X187316666Y-111590500D01*
X187316666Y-111590500D02*
X187283333Y-111657166D01*
X187283333Y-111657166D02*
X187249999Y-111690500D01*
X187249999Y-111690500D02*
X187183333Y-111723833D01*
X187183333Y-111723833D02*
X186983333Y-111723833D01*
X186983333Y-111723833D02*
X186916666Y-111690500D01*
X186916666Y-111690500D02*
X186883333Y-111657166D01*
X187650000Y-111723833D02*
X187783333Y-111723833D01*
X187783333Y-111723833D02*
X187850000Y-111690500D01*
X187850000Y-111690500D02*
X187883333Y-111657166D01*
X187883333Y-111657166D02*
X187950000Y-111557166D01*
X187950000Y-111557166D02*
X187983333Y-111423833D01*
X187983333Y-111423833D02*
X187983333Y-111157166D01*
X187983333Y-111157166D02*
X187950000Y-111090500D01*
X187950000Y-111090500D02*
X187916666Y-111057166D01*
X187916666Y-111057166D02*
X187850000Y-111023833D01*
X187850000Y-111023833D02*
X187716666Y-111023833D01*
X187716666Y-111023833D02*
X187650000Y-111057166D01*
X187650000Y-111057166D02*
X187616666Y-111090500D01*
X187616666Y-111090500D02*
X187583333Y-111157166D01*
X187583333Y-111157166D02*
X187583333Y-111323833D01*
X187583333Y-111323833D02*
X187616666Y-111390500D01*
X187616666Y-111390500D02*
X187650000Y-111423833D01*
X187650000Y-111423833D02*
X187716666Y-111457166D01*
X187716666Y-111457166D02*
X187850000Y-111457166D01*
X187850000Y-111457166D02*
X187916666Y-111423833D01*
X187916666Y-111423833D02*
X187950000Y-111390500D01*
X187950000Y-111390500D02*
X187983333Y-111323833D01*
%TO.C,C37*%
X205407166Y-125850000D02*
X205440500Y-125883333D01*
X205440500Y-125883333D02*
X205473833Y-125983333D01*
X205473833Y-125983333D02*
X205473833Y-126050000D01*
X205473833Y-126050000D02*
X205440500Y-126150000D01*
X205440500Y-126150000D02*
X205373833Y-126216667D01*
X205373833Y-126216667D02*
X205307166Y-126250000D01*
X205307166Y-126250000D02*
X205173833Y-126283333D01*
X205173833Y-126283333D02*
X205073833Y-126283333D01*
X205073833Y-126283333D02*
X204940500Y-126250000D01*
X204940500Y-126250000D02*
X204873833Y-126216667D01*
X204873833Y-126216667D02*
X204807166Y-126150000D01*
X204807166Y-126150000D02*
X204773833Y-126050000D01*
X204773833Y-126050000D02*
X204773833Y-125983333D01*
X204773833Y-125983333D02*
X204807166Y-125883333D01*
X204807166Y-125883333D02*
X204840500Y-125850000D01*
X204773833Y-125616667D02*
X204773833Y-125183333D01*
X204773833Y-125183333D02*
X205040500Y-125416667D01*
X205040500Y-125416667D02*
X205040500Y-125316667D01*
X205040500Y-125316667D02*
X205073833Y-125250000D01*
X205073833Y-125250000D02*
X205107166Y-125216667D01*
X205107166Y-125216667D02*
X205173833Y-125183333D01*
X205173833Y-125183333D02*
X205340500Y-125183333D01*
X205340500Y-125183333D02*
X205407166Y-125216667D01*
X205407166Y-125216667D02*
X205440500Y-125250000D01*
X205440500Y-125250000D02*
X205473833Y-125316667D01*
X205473833Y-125316667D02*
X205473833Y-125516667D01*
X205473833Y-125516667D02*
X205440500Y-125583333D01*
X205440500Y-125583333D02*
X205407166Y-125616667D01*
X204773833Y-124950000D02*
X204773833Y-124483333D01*
X204773833Y-124483333D02*
X205473833Y-124783333D01*
%TO.C,C24*%
X228997999Y-113217166D02*
X228964666Y-113250500D01*
X228964666Y-113250500D02*
X228864666Y-113283833D01*
X228864666Y-113283833D02*
X228797999Y-113283833D01*
X228797999Y-113283833D02*
X228697999Y-113250500D01*
X228697999Y-113250500D02*
X228631333Y-113183833D01*
X228631333Y-113183833D02*
X228597999Y-113117166D01*
X228597999Y-113117166D02*
X228564666Y-112983833D01*
X228564666Y-112983833D02*
X228564666Y-112883833D01*
X228564666Y-112883833D02*
X228597999Y-112750500D01*
X228597999Y-112750500D02*
X228631333Y-112683833D01*
X228631333Y-112683833D02*
X228697999Y-112617166D01*
X228697999Y-112617166D02*
X228797999Y-112583833D01*
X228797999Y-112583833D02*
X228864666Y-112583833D01*
X228864666Y-112583833D02*
X228964666Y-112617166D01*
X228964666Y-112617166D02*
X228997999Y-112650500D01*
X229264666Y-112650500D02*
X229297999Y-112617166D01*
X229297999Y-112617166D02*
X229364666Y-112583833D01*
X229364666Y-112583833D02*
X229531333Y-112583833D01*
X229531333Y-112583833D02*
X229597999Y-112617166D01*
X229597999Y-112617166D02*
X229631333Y-112650500D01*
X229631333Y-112650500D02*
X229664666Y-112717166D01*
X229664666Y-112717166D02*
X229664666Y-112783833D01*
X229664666Y-112783833D02*
X229631333Y-112883833D01*
X229631333Y-112883833D02*
X229231333Y-113283833D01*
X229231333Y-113283833D02*
X229664666Y-113283833D01*
X230264666Y-112817166D02*
X230264666Y-113283833D01*
X230098000Y-112550500D02*
X229931333Y-113050500D01*
X229931333Y-113050500D02*
X230364666Y-113050500D01*
%TO.C,R2*%
X206083333Y-114923833D02*
X205850000Y-114590500D01*
X205683333Y-114923833D02*
X205683333Y-114223833D01*
X205683333Y-114223833D02*
X205950000Y-114223833D01*
X205950000Y-114223833D02*
X206016667Y-114257166D01*
X206016667Y-114257166D02*
X206050000Y-114290500D01*
X206050000Y-114290500D02*
X206083333Y-114357166D01*
X206083333Y-114357166D02*
X206083333Y-114457166D01*
X206083333Y-114457166D02*
X206050000Y-114523833D01*
X206050000Y-114523833D02*
X206016667Y-114557166D01*
X206016667Y-114557166D02*
X205950000Y-114590500D01*
X205950000Y-114590500D02*
X205683333Y-114590500D01*
X206350000Y-114290500D02*
X206383333Y-114257166D01*
X206383333Y-114257166D02*
X206450000Y-114223833D01*
X206450000Y-114223833D02*
X206616667Y-114223833D01*
X206616667Y-114223833D02*
X206683333Y-114257166D01*
X206683333Y-114257166D02*
X206716667Y-114290500D01*
X206716667Y-114290500D02*
X206750000Y-114357166D01*
X206750000Y-114357166D02*
X206750000Y-114423833D01*
X206750000Y-114423833D02*
X206716667Y-114523833D01*
X206716667Y-114523833D02*
X206316667Y-114923833D01*
X206316667Y-114923833D02*
X206750000Y-114923833D01*
%TO.C,R12*%
X186149999Y-122123833D02*
X185916666Y-121790500D01*
X185749999Y-122123833D02*
X185749999Y-121423833D01*
X185749999Y-121423833D02*
X186016666Y-121423833D01*
X186016666Y-121423833D02*
X186083333Y-121457166D01*
X186083333Y-121457166D02*
X186116666Y-121490500D01*
X186116666Y-121490500D02*
X186149999Y-121557166D01*
X186149999Y-121557166D02*
X186149999Y-121657166D01*
X186149999Y-121657166D02*
X186116666Y-121723833D01*
X186116666Y-121723833D02*
X186083333Y-121757166D01*
X186083333Y-121757166D02*
X186016666Y-121790500D01*
X186016666Y-121790500D02*
X185749999Y-121790500D01*
X186816666Y-122123833D02*
X186416666Y-122123833D01*
X186616666Y-122123833D02*
X186616666Y-121423833D01*
X186616666Y-121423833D02*
X186549999Y-121523833D01*
X186549999Y-121523833D02*
X186483333Y-121590500D01*
X186483333Y-121590500D02*
X186416666Y-121623833D01*
X187083333Y-121490500D02*
X187116666Y-121457166D01*
X187116666Y-121457166D02*
X187183333Y-121423833D01*
X187183333Y-121423833D02*
X187350000Y-121423833D01*
X187350000Y-121423833D02*
X187416666Y-121457166D01*
X187416666Y-121457166D02*
X187450000Y-121490500D01*
X187450000Y-121490500D02*
X187483333Y-121557166D01*
X187483333Y-121557166D02*
X187483333Y-121623833D01*
X187483333Y-121623833D02*
X187450000Y-121723833D01*
X187450000Y-121723833D02*
X187050000Y-122123833D01*
X187050000Y-122123833D02*
X187483333Y-122123833D01*
%TO.C,R5*%
X187283333Y-117223833D02*
X187050000Y-116890500D01*
X186883333Y-117223833D02*
X186883333Y-116523833D01*
X186883333Y-116523833D02*
X187150000Y-116523833D01*
X187150000Y-116523833D02*
X187216667Y-116557166D01*
X187216667Y-116557166D02*
X187250000Y-116590500D01*
X187250000Y-116590500D02*
X187283333Y-116657166D01*
X187283333Y-116657166D02*
X187283333Y-116757166D01*
X187283333Y-116757166D02*
X187250000Y-116823833D01*
X187250000Y-116823833D02*
X187216667Y-116857166D01*
X187216667Y-116857166D02*
X187150000Y-116890500D01*
X187150000Y-116890500D02*
X186883333Y-116890500D01*
X187916667Y-116523833D02*
X187583333Y-116523833D01*
X187583333Y-116523833D02*
X187550000Y-116857166D01*
X187550000Y-116857166D02*
X187583333Y-116823833D01*
X187583333Y-116823833D02*
X187650000Y-116790500D01*
X187650000Y-116790500D02*
X187816667Y-116790500D01*
X187816667Y-116790500D02*
X187883333Y-116823833D01*
X187883333Y-116823833D02*
X187916667Y-116857166D01*
X187916667Y-116857166D02*
X187950000Y-116923833D01*
X187950000Y-116923833D02*
X187950000Y-117090500D01*
X187950000Y-117090500D02*
X187916667Y-117157166D01*
X187916667Y-117157166D02*
X187883333Y-117190500D01*
X187883333Y-117190500D02*
X187816667Y-117223833D01*
X187816667Y-117223833D02*
X187650000Y-117223833D01*
X187650000Y-117223833D02*
X187583333Y-117190500D01*
X187583333Y-117190500D02*
X187550000Y-117157166D01*
%TO.C,U4*%
X219770666Y-130871833D02*
X219770666Y-131438500D01*
X219770666Y-131438500D02*
X219804000Y-131505166D01*
X219804000Y-131505166D02*
X219837333Y-131538500D01*
X219837333Y-131538500D02*
X219904000Y-131571833D01*
X219904000Y-131571833D02*
X220037333Y-131571833D01*
X220037333Y-131571833D02*
X220104000Y-131538500D01*
X220104000Y-131538500D02*
X220137333Y-131505166D01*
X220137333Y-131505166D02*
X220170666Y-131438500D01*
X220170666Y-131438500D02*
X220170666Y-130871833D01*
X220803999Y-131105166D02*
X220803999Y-131571833D01*
X220637333Y-130838500D02*
X220470666Y-131338500D01*
X220470666Y-131338500D02*
X220903999Y-131338500D01*
%TO.C,H1*%
X199138095Y-129362619D02*
X199138095Y-128362619D01*
X199138095Y-128838809D02*
X199709523Y-128838809D01*
X199709523Y-129362619D02*
X199709523Y-128362619D01*
X200709523Y-129362619D02*
X200138095Y-129362619D01*
X200423809Y-129362619D02*
X200423809Y-128362619D01*
X200423809Y-128362619D02*
X200328571Y-128505476D01*
X200328571Y-128505476D02*
X200233333Y-128600714D01*
X200233333Y-128600714D02*
X200138095Y-128648333D01*
%TO.C,C36*%
X200257166Y-122550000D02*
X200290500Y-122583333D01*
X200290500Y-122583333D02*
X200323833Y-122683333D01*
X200323833Y-122683333D02*
X200323833Y-122750000D01*
X200323833Y-122750000D02*
X200290500Y-122850000D01*
X200290500Y-122850000D02*
X200223833Y-122916667D01*
X200223833Y-122916667D02*
X200157166Y-122950000D01*
X200157166Y-122950000D02*
X200023833Y-122983333D01*
X200023833Y-122983333D02*
X199923833Y-122983333D01*
X199923833Y-122983333D02*
X199790500Y-122950000D01*
X199790500Y-122950000D02*
X199723833Y-122916667D01*
X199723833Y-122916667D02*
X199657166Y-122850000D01*
X199657166Y-122850000D02*
X199623833Y-122750000D01*
X199623833Y-122750000D02*
X199623833Y-122683333D01*
X199623833Y-122683333D02*
X199657166Y-122583333D01*
X199657166Y-122583333D02*
X199690500Y-122550000D01*
X199623833Y-122316667D02*
X199623833Y-121883333D01*
X199623833Y-121883333D02*
X199890500Y-122116667D01*
X199890500Y-122116667D02*
X199890500Y-122016667D01*
X199890500Y-122016667D02*
X199923833Y-121950000D01*
X199923833Y-121950000D02*
X199957166Y-121916667D01*
X199957166Y-121916667D02*
X200023833Y-121883333D01*
X200023833Y-121883333D02*
X200190500Y-121883333D01*
X200190500Y-121883333D02*
X200257166Y-121916667D01*
X200257166Y-121916667D02*
X200290500Y-121950000D01*
X200290500Y-121950000D02*
X200323833Y-122016667D01*
X200323833Y-122016667D02*
X200323833Y-122216667D01*
X200323833Y-122216667D02*
X200290500Y-122283333D01*
X200290500Y-122283333D02*
X200257166Y-122316667D01*
X199623833Y-121283333D02*
X199623833Y-121416666D01*
X199623833Y-121416666D02*
X199657166Y-121483333D01*
X199657166Y-121483333D02*
X199690500Y-121516666D01*
X199690500Y-121516666D02*
X199790500Y-121583333D01*
X199790500Y-121583333D02*
X199923833Y-121616666D01*
X199923833Y-121616666D02*
X200190500Y-121616666D01*
X200190500Y-121616666D02*
X200257166Y-121583333D01*
X200257166Y-121583333D02*
X200290500Y-121550000D01*
X200290500Y-121550000D02*
X200323833Y-121483333D01*
X200323833Y-121483333D02*
X200323833Y-121350000D01*
X200323833Y-121350000D02*
X200290500Y-121283333D01*
X200290500Y-121283333D02*
X200257166Y-121250000D01*
X200257166Y-121250000D02*
X200190500Y-121216666D01*
X200190500Y-121216666D02*
X200023833Y-121216666D01*
X200023833Y-121216666D02*
X199957166Y-121250000D01*
X199957166Y-121250000D02*
X199923833Y-121283333D01*
X199923833Y-121283333D02*
X199890500Y-121350000D01*
X199890500Y-121350000D02*
X199890500Y-121483333D01*
X199890500Y-121483333D02*
X199923833Y-121550000D01*
X199923833Y-121550000D02*
X199957166Y-121583333D01*
X199957166Y-121583333D02*
X200023833Y-121616666D01*
%TO.C,R36*%
X217933833Y-136524000D02*
X217600500Y-136757333D01*
X217933833Y-136924000D02*
X217233833Y-136924000D01*
X217233833Y-136924000D02*
X217233833Y-136657333D01*
X217233833Y-136657333D02*
X217267166Y-136590667D01*
X217267166Y-136590667D02*
X217300500Y-136557333D01*
X217300500Y-136557333D02*
X217367166Y-136524000D01*
X217367166Y-136524000D02*
X217467166Y-136524000D01*
X217467166Y-136524000D02*
X217533833Y-136557333D01*
X217533833Y-136557333D02*
X217567166Y-136590667D01*
X217567166Y-136590667D02*
X217600500Y-136657333D01*
X217600500Y-136657333D02*
X217600500Y-136924000D01*
X217233833Y-136290667D02*
X217233833Y-135857333D01*
X217233833Y-135857333D02*
X217500500Y-136090667D01*
X217500500Y-136090667D02*
X217500500Y-135990667D01*
X217500500Y-135990667D02*
X217533833Y-135924000D01*
X217533833Y-135924000D02*
X217567166Y-135890667D01*
X217567166Y-135890667D02*
X217633833Y-135857333D01*
X217633833Y-135857333D02*
X217800500Y-135857333D01*
X217800500Y-135857333D02*
X217867166Y-135890667D01*
X217867166Y-135890667D02*
X217900500Y-135924000D01*
X217900500Y-135924000D02*
X217933833Y-135990667D01*
X217933833Y-135990667D02*
X217933833Y-136190667D01*
X217933833Y-136190667D02*
X217900500Y-136257333D01*
X217900500Y-136257333D02*
X217867166Y-136290667D01*
X217233833Y-135257333D02*
X217233833Y-135390666D01*
X217233833Y-135390666D02*
X217267166Y-135457333D01*
X217267166Y-135457333D02*
X217300500Y-135490666D01*
X217300500Y-135490666D02*
X217400500Y-135557333D01*
X217400500Y-135557333D02*
X217533833Y-135590666D01*
X217533833Y-135590666D02*
X217800500Y-135590666D01*
X217800500Y-135590666D02*
X217867166Y-135557333D01*
X217867166Y-135557333D02*
X217900500Y-135524000D01*
X217900500Y-135524000D02*
X217933833Y-135457333D01*
X217933833Y-135457333D02*
X217933833Y-135324000D01*
X217933833Y-135324000D02*
X217900500Y-135257333D01*
X217900500Y-135257333D02*
X217867166Y-135224000D01*
X217867166Y-135224000D02*
X217800500Y-135190666D01*
X217800500Y-135190666D02*
X217633833Y-135190666D01*
X217633833Y-135190666D02*
X217567166Y-135224000D01*
X217567166Y-135224000D02*
X217533833Y-135257333D01*
X217533833Y-135257333D02*
X217500500Y-135324000D01*
X217500500Y-135324000D02*
X217500500Y-135457333D01*
X217500500Y-135457333D02*
X217533833Y-135524000D01*
X217533833Y-135524000D02*
X217567166Y-135557333D01*
X217567166Y-135557333D02*
X217633833Y-135590666D01*
D14*
%TO.C,R43*%
X196620000Y-123853641D02*
X196620000Y-123546359D01*
X197380000Y-123853641D02*
X197380000Y-123546359D01*
%TO.C,R7*%
X194446359Y-119120000D02*
X194753641Y-119120000D01*
X194446359Y-119880000D02*
X194753641Y-119880000D01*
%TO.C,C16*%
X203840000Y-111007836D02*
X203840000Y-110792164D01*
X204560000Y-111007836D02*
X204560000Y-110792164D01*
%TO.C,D7*%
X228250000Y-132940000D02*
X228250000Y-134940000D01*
X228250000Y-132940000D02*
X232110000Y-132940000D01*
X228250000Y-134940000D02*
X232110000Y-134940000D01*
%TO.C,C21*%
X219301580Y-124392000D02*
X219020420Y-124392000D01*
X219301580Y-123372000D02*
X219020420Y-123372000D01*
%TO.C,R8*%
X189153641Y-114280000D02*
X188846359Y-114280000D01*
X189153641Y-113520000D02*
X188846359Y-113520000D01*
%TO.C,D3*%
X215717233Y-144245887D02*
X213875400Y-147638121D01*
X215717233Y-144245887D02*
X218459142Y-145734622D01*
X216034121Y-144270016D02*
X216034121Y-144270016D01*
X216034121Y-144270016D02*
X215972090Y-144384263D01*
X215972090Y-144384263D02*
X216034121Y-144270016D01*
X215972090Y-144384263D02*
X215972090Y-144384263D01*
X218266316Y-145482000D02*
X218266316Y-145482000D01*
X218266316Y-145482000D02*
X218204285Y-145596246D01*
X218204285Y-145596246D02*
X218266316Y-145482000D01*
X218204285Y-145596246D02*
X218204285Y-145596246D01*
X218459142Y-145734622D02*
X216617310Y-149126856D01*
X218459142Y-145734622D02*
X218810669Y-145925486D01*
X217924725Y-146718897D02*
X218459142Y-145734622D01*
X218810669Y-145925486D02*
X218276251Y-146909761D01*
X218276251Y-146909761D02*
X217924725Y-146718897D01*
X213875400Y-147638121D02*
G75*
G03*
X216617310Y-149126856I1370955J-744367D01*
G01*
%TO.C,R41*%
X169596064Y-132031000D02*
X168141936Y-132031000D01*
X169596064Y-130211000D02*
X168141936Y-130211000D01*
%TO.C,C6*%
X208340000Y-113407836D02*
X208340000Y-113192164D01*
X209060000Y-113407836D02*
X209060000Y-113192164D01*
%TO.C,C14*%
X204840000Y-111007836D02*
X204840000Y-110792164D01*
X205560000Y-111007836D02*
X205560000Y-110792164D01*
D10*
%TO.C,ANT1*%
X212200000Y-109800000D02*
X212200000Y-108600000D01*
X210200000Y-109800000D02*
X210200000Y-108600000D01*
X212200000Y-114200000D02*
X212200000Y-113000000D01*
X210200000Y-114200000D02*
X210200000Y-113000000D01*
X211400000Y-115800000D02*
X211400000Y-115800000D01*
X211300000Y-115800000D02*
X211300000Y-115800000D01*
X211300000Y-115800000D02*
G75*
G03*
X211400000Y-115800000I50000J0D01*
G01*
X211400000Y-115800000D02*
G75*
G03*
X211300000Y-115800000I-50000J0D01*
G01*
D14*
%TO.C,U2*%
X224600000Y-120590000D02*
X221150000Y-120590000D01*
X224600000Y-120590000D02*
X226550000Y-120590000D01*
X224600000Y-125710000D02*
X222650000Y-125710000D01*
X224600000Y-125710000D02*
X226550000Y-125710000D01*
%TO.C,C17*%
X227529420Y-126166000D02*
X227810580Y-126166000D01*
X227529420Y-127186000D02*
X227810580Y-127186000D01*
%TO.C,C3*%
X202260000Y-119692164D02*
X202260000Y-119907836D01*
X201540000Y-119692164D02*
X201540000Y-119907836D01*
%TO.C,R34*%
X194620000Y-123853641D02*
X194620000Y-123546359D01*
X195380000Y-123853641D02*
X195380000Y-123546359D01*
%TO.C,R40*%
X188846359Y-112020000D02*
X189153641Y-112020000D01*
X188846359Y-112780000D02*
X189153641Y-112780000D01*
%TO.C,C2*%
X201260000Y-119692164D02*
X201260000Y-119907836D01*
X200540000Y-119692164D02*
X200540000Y-119907836D01*
%TO.C,R23*%
X213627064Y-120510000D02*
X212172936Y-120510000D01*
X213627064Y-118690000D02*
X212172936Y-118690000D01*
%TO.C,C30*%
X171262836Y-137069000D02*
X171047164Y-137069000D01*
X171262836Y-136349000D02*
X171047164Y-136349000D01*
%TO.C,R30*%
X191246359Y-123120000D02*
X191553641Y-123120000D01*
X191246359Y-123880000D02*
X191553641Y-123880000D01*
D11*
%TO.C,Q2*%
X206450000Y-122300000D02*
G75*
G03*
X206450000Y-122300000I-100000J0D01*
G01*
D14*
%TO.C,C29*%
X229967836Y-137120000D02*
X229752164Y-137120000D01*
X229967836Y-136400000D02*
X229752164Y-136400000D01*
%TO.C,R29*%
X172324641Y-121976000D02*
X172017359Y-121976000D01*
X172324641Y-121216000D02*
X172017359Y-121216000D01*
%TO.C,U3*%
X173461000Y-125914000D02*
X173461000Y-122464000D01*
X173461000Y-125914000D02*
X173461000Y-127864000D01*
X168341000Y-125914000D02*
X168341000Y-123964000D01*
X168341000Y-125914000D02*
X168341000Y-127864000D01*
%TO.C,R27*%
X202935000Y-123372936D02*
X202935000Y-123827064D01*
X201465000Y-123372936D02*
X201465000Y-123827064D01*
%TO.C,U1*%
X202110000Y-118510000D02*
X201560000Y-118510000D01*
X195890000Y-117960000D02*
X195890000Y-118510000D01*
X202110000Y-117960000D02*
X202110000Y-118510000D01*
X195890000Y-112840000D02*
X195890000Y-112290000D01*
X202110000Y-112840000D02*
X202110000Y-112290000D01*
X195890000Y-112290000D02*
X196440000Y-112290000D01*
X202110000Y-112290000D02*
X201560000Y-112290000D01*
D11*
X196600000Y-118900000D02*
G75*
G03*
X196600000Y-118900000I-100000J0D01*
G01*
D14*
%TO.C,R16*%
X198953641Y-143880000D02*
X198646359Y-143880000D01*
X198953641Y-143120000D02*
X198646359Y-143120000D01*
%TO.C,C9*%
X204260000Y-114892164D02*
X204260000Y-115107836D01*
X203540000Y-114892164D02*
X203540000Y-115107836D01*
%TO.C,C23*%
X226392164Y-113840000D02*
X226607836Y-113840000D01*
X226392164Y-114560000D02*
X226607836Y-114560000D01*
%TO.C,C7*%
X203892164Y-117340000D02*
X204107836Y-117340000D01*
X203892164Y-118060000D02*
X204107836Y-118060000D01*
%TO.C,R32*%
X212182936Y-121120000D02*
X213637064Y-121120000D01*
X212182936Y-122940000D02*
X213637064Y-122940000D01*
%TO.C,R13*%
X189153641Y-110780000D02*
X188846359Y-110780000D01*
X189153641Y-110020000D02*
X188846359Y-110020000D01*
%TO.C,R42*%
X226307936Y-129703000D02*
X227762064Y-129703000D01*
X226307936Y-131523000D02*
X227762064Y-131523000D01*
%TO.C,R28*%
X169477359Y-121216000D02*
X169784641Y-121216000D01*
X169477359Y-121976000D02*
X169784641Y-121976000D01*
%TO.C,Q3*%
X192537500Y-118790000D02*
X190737500Y-118790000D01*
X192537500Y-118790000D02*
X193337500Y-118790000D01*
X192537500Y-121910000D02*
X191737500Y-121910000D01*
X192537500Y-121910000D02*
X193337500Y-121910000D01*
%TO.C,C28*%
X221009420Y-137640000D02*
X221290580Y-137640000D01*
X221009420Y-138660000D02*
X221290580Y-138660000D01*
%TO.C,D4*%
X180976010Y-145815535D02*
X182817843Y-149207769D01*
X180976010Y-145815535D02*
X183717920Y-144326799D01*
X181168836Y-145562912D02*
X181168836Y-145562912D01*
X181168836Y-145562912D02*
X181230867Y-145677159D01*
X181230867Y-145677159D02*
X181168836Y-145562912D01*
X181230867Y-145677159D02*
X181230867Y-145677159D01*
X183401032Y-144350929D02*
X183401032Y-144350929D01*
X183401032Y-144350929D02*
X183463063Y-144465175D01*
X183463063Y-144465175D02*
X183401032Y-144350929D01*
X183463063Y-144465175D02*
X183463063Y-144465175D01*
X183717920Y-144326799D02*
X185559752Y-147719033D01*
X183717920Y-144326799D02*
X184069446Y-144135936D01*
X184252337Y-145311075D02*
X183717920Y-144326799D01*
X184069446Y-144135936D02*
X184603864Y-145120211D01*
X184603864Y-145120211D02*
X184252337Y-145311075D01*
X182817844Y-149207768D02*
G75*
G03*
X185559752Y-147719033I1370954J744367D01*
G01*
%TO.C,C26*%
X165565000Y-122625580D02*
X165565000Y-122344420D01*
X166585000Y-122625580D02*
X166585000Y-122344420D01*
%TO.C,C27*%
X202540000Y-110807836D02*
X202540000Y-110592164D01*
X203260000Y-110807836D02*
X203260000Y-110592164D01*
%TO.C,R17*%
X197620000Y-123853641D02*
X197620000Y-123546359D01*
X198380000Y-123853641D02*
X198380000Y-123546359D01*
%TO.C,R1*%
X205953641Y-116080000D02*
X205646359Y-116080000D01*
X205953641Y-115320000D02*
X205646359Y-115320000D01*
%TO.C,C25*%
X220959420Y-139040000D02*
X221240580Y-139040000D01*
X220959420Y-140060000D02*
X221240580Y-140060000D01*
%TO.C,R26*%
X207320000Y-113453641D02*
X207320000Y-113146359D01*
X208080000Y-113453641D02*
X208080000Y-113146359D01*
%TO.C,L1*%
X204479622Y-119560000D02*
X203680378Y-119560000D01*
X204479622Y-118440000D02*
X203680378Y-118440000D01*
%TO.C,D2*%
X158450000Y-105450000D02*
X156350000Y-105450000D01*
X158450000Y-103350000D02*
X158450000Y-105450000D01*
X158450000Y-103350000D02*
X156350000Y-103350000D01*
X156350000Y-103350000D02*
X156350000Y-105450000D01*
D15*
X158900000Y-105500000D02*
G75*
G03*
X158900000Y-105500000I-100000J0D01*
G01*
D14*
%TO.C,C5*%
X194492164Y-118140000D02*
X194707836Y-118140000D01*
X194492164Y-118860000D02*
X194707836Y-118860000D01*
%TO.C,R10*%
X188346359Y-122420000D02*
X188653641Y-122420000D01*
X188346359Y-123180000D02*
X188653641Y-123180000D01*
%TO.C,R9*%
X225029641Y-127056000D02*
X224722359Y-127056000D01*
X225029641Y-126296000D02*
X224722359Y-126296000D01*
%TO.C,R33*%
X208603641Y-123790000D02*
X208296359Y-123790000D01*
X208603641Y-123030000D02*
X208296359Y-123030000D01*
%TO.C,R20*%
X189134641Y-118280000D02*
X188827359Y-118280000D01*
X189134641Y-117520000D02*
X188827359Y-117520000D01*
%TO.C,C15*%
X198566000Y-108661164D02*
X198566000Y-108876836D01*
X197846000Y-108661164D02*
X197846000Y-108876836D01*
%TO.C,R3*%
X189134641Y-119280000D02*
X188827359Y-119280000D01*
X189134641Y-118520000D02*
X188827359Y-118520000D01*
D11*
%TO.C,D8*%
X193360000Y-122400000D02*
G75*
G03*
X193360000Y-122400000I-100000J0D01*
G01*
D14*
%TO.C,D6*%
X168945000Y-132534000D02*
X168945000Y-134534000D01*
X168945000Y-132534000D02*
X172805000Y-132534000D01*
X168945000Y-134534000D02*
X172805000Y-134534000D01*
%TO.C,C18*%
X219020420Y-124769000D02*
X219301580Y-124769000D01*
X219020420Y-125789000D02*
X219301580Y-125789000D01*
%TO.C,R24*%
X225327064Y-117110000D02*
X223872936Y-117110000D01*
X225327064Y-115290000D02*
X223872936Y-115290000D01*
%TO.C,Y1*%
X200241421Y-111267767D02*
X201867767Y-109641421D01*
X201867767Y-109641421D02*
X199958579Y-107732233D01*
%TO.C,R4*%
X188846359Y-115520000D02*
X189153641Y-115520000D01*
X188846359Y-116280000D02*
X189153641Y-116280000D01*
%TO.C,C31*%
X229937836Y-136040000D02*
X229722164Y-136040000D01*
X229937836Y-135320000D02*
X229722164Y-135320000D01*
%TO.C,D5*%
X222000000Y-119000000D02*
X222000000Y-116000000D01*
X222000000Y-116000000D02*
X216300000Y-116000000D01*
D11*
X219349440Y-118299080D02*
X219349440Y-116698880D01*
X219349440Y-117498980D02*
X220251140Y-117498980D01*
X219349440Y-117498980D02*
X218198820Y-118299080D01*
X219349440Y-117498980D02*
X218198820Y-116749680D01*
X218198820Y-117498980D02*
X217200600Y-117498980D01*
X218198820Y-116749680D02*
X218198820Y-118299080D01*
D14*
X216300000Y-119000000D02*
X222000000Y-119000000D01*
%TO.C,J2*%
X190190767Y-110527775D02*
X189998017Y-109434639D01*
X190939220Y-110395803D02*
X190190767Y-110527775D01*
X191687674Y-110263830D02*
X197877191Y-109172451D01*
X191687674Y-110263830D02*
X191592771Y-109725604D01*
X197877191Y-109172451D02*
X197737844Y-108382173D01*
X197631040Y-107776457D02*
X197491692Y-106986178D01*
X191397079Y-108615783D02*
X191302175Y-108077557D01*
X191302175Y-108077557D02*
X197491692Y-106986178D01*
%TO.C,C12*%
X205790000Y-110440580D02*
X205790000Y-110159420D01*
X206810000Y-110440580D02*
X206810000Y-110159420D01*
%TO.C,R11*%
X188346359Y-123420000D02*
X188653641Y-123420000D01*
X188346359Y-124180000D02*
X188653641Y-124180000D01*
%TO.C,R18*%
X193000000Y-150000000D02*
X190200000Y-150000000D01*
X193000000Y-145800000D02*
X190200000Y-145800000D01*
X192986036Y-150009241D02*
G75*
G03*
X193000000Y-145800001I-1386036J2109241D01*
G01*
X190213964Y-145790759D02*
G75*
G03*
X190200000Y-149999999I1386036J-2109241D01*
G01*
%TO.C,R19*%
X178563641Y-136180000D02*
X178256359Y-136180000D01*
X178563641Y-135420000D02*
X178256359Y-135420000D01*
%TO.C,D1*%
X243450000Y-105650000D02*
X241350000Y-105650000D01*
X243450000Y-103550000D02*
X243450000Y-105650000D01*
X243450000Y-103550000D02*
X241350000Y-103550000D01*
X241350000Y-103550000D02*
X241350000Y-105650000D01*
D15*
X243900000Y-105700000D02*
G75*
G03*
X243900000Y-105700000I-100000J0D01*
G01*
D14*
%TO.C,C33*%
X194007836Y-113360000D02*
X193792164Y-113360000D01*
X194007836Y-112640000D02*
X193792164Y-112640000D01*
%TO.C,C13*%
X210610000Y-122129420D02*
X210610000Y-122410580D01*
X209590000Y-122129420D02*
X209590000Y-122410580D01*
%TO.C,R15*%
X200746359Y-143120000D02*
X201053641Y-143120000D01*
X200746359Y-143880000D02*
X201053641Y-143880000D01*
%TO.C,R22*%
X180346359Y-133820000D02*
X180653641Y-133820000D01*
X180346359Y-134580000D02*
X180653641Y-134580000D01*
%TO.C,C1*%
X167089000Y-122625580D02*
X167089000Y-122344420D01*
X168109000Y-122625580D02*
X168109000Y-122344420D01*
%TO.C,R6*%
X188846359Y-114520000D02*
X189153641Y-114520000D01*
X188846359Y-115280000D02*
X189153641Y-115280000D01*
%TO.C,U5*%
X206360000Y-119150000D02*
X206360000Y-120950000D01*
X206360000Y-119150000D02*
X206360000Y-118350000D01*
X209480000Y-119150000D02*
X209480000Y-119950000D01*
X209480000Y-119150000D02*
X209480000Y-118350000D01*
%TO.C,R25*%
X194346359Y-117120000D02*
X194653641Y-117120000D01*
X194346359Y-117880000D02*
X194653641Y-117880000D01*
%TO.C,C10*%
X203992164Y-112240000D02*
X204207836Y-112240000D01*
X203992164Y-112960000D02*
X204207836Y-112960000D01*
%TO.C,R14*%
X221473641Y-127056000D02*
X221166359Y-127056000D01*
X221473641Y-126296000D02*
X221166359Y-126296000D01*
%TO.C,C20*%
X202440000Y-108832164D02*
X202440000Y-109047836D01*
X201720000Y-108832164D02*
X201720000Y-109047836D01*
%TO.C,R31*%
X192480000Y-117646359D02*
X192480000Y-117953641D01*
X191720000Y-117646359D02*
X191720000Y-117953641D01*
%TO.C,R37*%
X219160000Y-133507359D02*
X219160000Y-133814641D01*
X218400000Y-133507359D02*
X218400000Y-133814641D01*
%TO.C,R35*%
X195620000Y-123853641D02*
X195620000Y-123546359D01*
X196380000Y-123853641D02*
X196380000Y-123546359D01*
%TO.C,C22*%
X209540000Y-119660580D02*
X209540000Y-119379420D01*
X210560000Y-119660580D02*
X210560000Y-119379420D01*
%TO.C,C19*%
X201640000Y-111207836D02*
X201640000Y-110992164D01*
X202360000Y-111207836D02*
X202360000Y-110992164D01*
%TO.C,R21*%
X206650000Y-145800000D02*
X209450000Y-145800000D01*
X206650000Y-150000000D02*
X209450000Y-150000000D01*
X206663964Y-145790759D02*
G75*
G03*
X206650000Y-149999999I1386036J-2109241D01*
G01*
X209436036Y-150009241D02*
G75*
G03*
X209450000Y-145800001I-1386036J2109241D01*
G01*
%TO.C,C34*%
X199060000Y-121192164D02*
X199060000Y-121407836D01*
X198340000Y-121192164D02*
X198340000Y-121407836D01*
%TO.C,C4*%
X205160000Y-113892164D02*
X205160000Y-114107836D01*
X204440000Y-113892164D02*
X204440000Y-114107836D01*
%TO.C,C8*%
X203460000Y-116092164D02*
X203460000Y-116307836D01*
X202740000Y-116092164D02*
X202740000Y-116307836D01*
%TO.C,C32*%
X171262836Y-135926000D02*
X171047164Y-135926000D01*
X171262836Y-135206000D02*
X171047164Y-135206000D01*
%TO.C,C11*%
X194792164Y-111340000D02*
X195007836Y-111340000D01*
X194792164Y-112060000D02*
X195007836Y-112060000D01*
%TO.C,R39*%
X188846359Y-111020000D02*
X189153641Y-111020000D01*
X188846359Y-111780000D02*
X189153641Y-111780000D01*
%TO.C,C37*%
X206010000Y-121388748D02*
X206010000Y-122811252D01*
X204190000Y-121388748D02*
X204190000Y-122811252D01*
%TO.C,C24*%
X226392164Y-112640000D02*
X226607836Y-112640000D01*
X226392164Y-113360000D02*
X226607836Y-113360000D01*
%TO.C,R2*%
X206046359Y-113220000D02*
X206353641Y-113220000D01*
X206046359Y-113980000D02*
X206353641Y-113980000D01*
%TO.C,R12*%
X188346359Y-121420000D02*
X188653641Y-121420000D01*
X188346359Y-122180000D02*
X188653641Y-122180000D01*
%TO.C,R5*%
X188827359Y-116520000D02*
X189134641Y-116520000D01*
X188827359Y-117280000D02*
X189134641Y-117280000D01*
%TO.C,U4*%
X223370000Y-132240000D02*
X219920000Y-132240000D01*
X223370000Y-132240000D02*
X225320000Y-132240000D01*
X223370000Y-137360000D02*
X221420000Y-137360000D01*
X223370000Y-137360000D02*
X225320000Y-137360000D01*
%TO.C,C36*%
X200360000Y-120192164D02*
X200360000Y-120407836D01*
X199640000Y-120192164D02*
X199640000Y-120407836D01*
%TO.C,R36*%
X218400000Y-136227641D02*
X218400000Y-135920359D01*
X219160000Y-136227641D02*
X219160000Y-135920359D01*
%TD*%
M02*
