%TF.GenerationSoftware,KiCad,Pcbnew,7.0.1*%
%TF.CreationDate,2023-08-08T22:15:58+07:00*%
%TF.ProjectId,BL706 Robot,424c3730-3620-4526-9f62-6f742e6b6963,rev?*%
%TF.SameCoordinates,Original*%
%TF.FileFunction,Copper,L2,Bot*%
%TF.FilePolarity,Positive*%
%FSLAX46Y46*%
G04 Gerber Fmt 4.6, Leading zero omitted, Abs format (unit mm)*
G04 Created by KiCad (PCBNEW 7.0.1) date 2023-08-08 22:15:58*
%MOMM*%
%LPD*%
G01*
G04 APERTURE LIST*
G04 Aperture macros list*
%AMRoundRect*
0 Rectangle with rounded corners*
0 $1 Rounding radius*
0 $2 $3 $4 $5 $6 $7 $8 $9 X,Y pos of 4 corners*
0 Add a 4 corners polygon primitive as box body*
4,1,4,$2,$3,$4,$5,$6,$7,$8,$9,$2,$3,0*
0 Add four circle primitives for the rounded corners*
1,1,$1+$1,$2,$3*
1,1,$1+$1,$4,$5*
1,1,$1+$1,$6,$7*
1,1,$1+$1,$8,$9*
0 Add four rect primitives between the rounded corners*
20,1,$1+$1,$2,$3,$4,$5,0*
20,1,$1+$1,$4,$5,$6,$7,0*
20,1,$1+$1,$6,$7,$8,$9,0*
20,1,$1+$1,$8,$9,$2,$3,0*%
%AMHorizOval*
0 Thick line with rounded ends*
0 $1 width*
0 $2 $3 position (X,Y) of the first rounded end (center of the circle)*
0 $4 $5 position (X,Y) of the second rounded end (center of the circle)*
0 Add line between two ends*
20,1,$1,$2,$3,$4,$5,0*
0 Add two circle primitives to create the rounded ends*
1,1,$1,$2,$3*
1,1,$1,$4,$5*%
%AMRotRect*
0 Rectangle, with rotation*
0 The origin of the aperture is its center*
0 $1 length*
0 $2 width*
0 $3 Rotation angle, in degrees counterclockwise*
0 Add horizontal line*
21,1,$1,$2,0,0,$3*%
G04 Aperture macros list end*
%TA.AperFunction,ComponentPad*%
%ADD10RotRect,1.800000X1.800000X331.500000*%
%TD*%
%TA.AperFunction,ComponentPad*%
%ADD11C,1.800000*%
%TD*%
%TA.AperFunction,ComponentPad*%
%ADD12RotRect,1.800000X1.800000X28.500000*%
%TD*%
%TA.AperFunction,ComponentPad*%
%ADD13RotRect,1.000000X1.000000X100.000000*%
%TD*%
%TA.AperFunction,ComponentPad*%
%ADD14HorizOval,1.000000X0.000000X0.000000X0.000000X0.000000X0*%
%TD*%
%TA.AperFunction,ComponentPad*%
%ADD15C,1.600000*%
%TD*%
%TA.AperFunction,SMDPad,CuDef*%
%ADD16RoundRect,0.250000X-1.950000X-1.000000X1.950000X-1.000000X1.950000X1.000000X-1.950000X1.000000X0*%
%TD*%
%TA.AperFunction,ComponentPad*%
%ADD17RoundRect,0.250000X0.750000X-0.600000X0.750000X0.600000X-0.750000X0.600000X-0.750000X-0.600000X0*%
%TD*%
%TA.AperFunction,ComponentPad*%
%ADD18O,2.000000X1.700000*%
%TD*%
%TA.AperFunction,ComponentPad*%
%ADD19RoundRect,0.250000X0.542655X0.467601X-0.115130X0.707015X-0.542655X-0.467601X0.115130X-0.707015X0*%
%TD*%
%TA.AperFunction,ComponentPad*%
%ADD20HorizOval,1.200000X0.094056X0.258415X-0.094056X-0.258415X0*%
%TD*%
%TA.AperFunction,ComponentPad*%
%ADD21RoundRect,0.250000X-0.954594X-0.106066X-0.106066X-0.954594X0.954594X0.106066X0.106066X0.954594X0*%
%TD*%
%TA.AperFunction,ComponentPad*%
%ADD22HorizOval,1.700000X-0.106066X-0.106066X0.106066X0.106066X0*%
%TD*%
%TA.AperFunction,ComponentPad*%
%ADD23RoundRect,0.250000X0.106066X-0.954594X0.954594X-0.106066X-0.106066X0.954594X-0.954594X0.106066X0*%
%TD*%
%TA.AperFunction,ComponentPad*%
%ADD24HorizOval,1.700000X-0.106066X0.106066X0.106066X-0.106066X0*%
%TD*%
%TA.AperFunction,ViaPad*%
%ADD25C,0.600000*%
%TD*%
%TA.AperFunction,ViaPad*%
%ADD26C,0.500000*%
%TD*%
%TA.AperFunction,Conductor*%
%ADD27C,0.200000*%
%TD*%
%TA.AperFunction,Conductor*%
%ADD28C,0.500000*%
%TD*%
%TA.AperFunction,Conductor*%
%ADD29C,0.254000*%
%TD*%
%TA.AperFunction,Conductor*%
%ADD30C,0.300000*%
%TD*%
G04 APERTURE END LIST*
D10*
%TO.P,D3,1,K*%
%TO.N,GND*%
X216549452Y-143320894D03*
D11*
%TO.P,D3,2,A*%
%TO.N,Net-(D3-A)*%
X218781647Y-144532877D03*
%TD*%
D12*
%TO.P,D4,1,K*%
%TO.N,GND*%
X180653505Y-144613790D03*
D11*
%TO.P,D4,2,A*%
%TO.N,Net-(D4-A)*%
X182885700Y-143401807D03*
%TD*%
D13*
%TO.P,J2,1,Pin_1*%
%TO.N,GNDD*%
X190746471Y-109302666D03*
D14*
%TO.P,J2,2,Pin_2*%
%TO.N,/UART0_RXD*%
X191997177Y-109082133D03*
%TO.P,J2,3,Pin_3*%
%TO.N,/UART0_TXD*%
X193247883Y-108861600D03*
%TO.P,J2,4,Pin_4*%
%TO.N,VPP*%
X194498589Y-108641066D03*
%TO.P,J2,5,Pin_5*%
%TO.N,/BOOT*%
X195749294Y-108420533D03*
%TO.P,J2,6,Pin_6*%
%TO.N,/RESET*%
X197000000Y-108200000D03*
%TD*%
D15*
%TO.P,R18,1*%
%TO.N,/VCC_LED*%
X193100000Y-147900000D03*
%TO.P,R18,2*%
%TO.N,/P1*%
X190100000Y-147900000D03*
%TD*%
%TO.P,R21,1*%
%TO.N,/VCC_LED*%
X206550000Y-147900000D03*
%TO.P,R21,2*%
%TO.N,/P2*%
X209550000Y-147900000D03*
%TD*%
D16*
%TO.P,C35,1*%
%TO.N,Net-(D5-K)*%
X224700000Y-129780000D03*
%TO.P,C35,2*%
%TO.N,GND*%
X232100000Y-129780000D03*
%TD*%
D17*
%TO.P,LS1,1,1*%
%TO.N,Net-(U2-VO1)*%
X231300000Y-122300000D03*
D18*
%TO.P,LS1,2,2*%
%TO.N,Net-(U2-VO2)*%
X231300000Y-119800000D03*
%TD*%
D19*
%TO.P,BT1,1,+*%
%TO.N,VCC*%
X222050000Y-112150000D03*
D20*
%TO.P,BT1,2,-*%
%TO.N,GND*%
X220170615Y-111465960D03*
%TD*%
D21*
%TO.P,M1,1,Pin_1*%
%TO.N,Net-(D6-A1)*%
X170132233Y-139132233D03*
D22*
%TO.P,M1,2,Pin_2*%
%TO.N,Net-(D6-A2)*%
X171900000Y-140900000D03*
%TD*%
D23*
%TO.P,M2,1,Pin_1*%
%TO.N,Net-(D7-A1)*%
X227427348Y-140965115D03*
D24*
%TO.P,M2,2,Pin_2*%
%TO.N,Net-(D7-A2)*%
X229195115Y-139197348D03*
%TD*%
D25*
%TO.N,GND*%
X222600000Y-139550000D03*
X196902334Y-145500000D03*
X224411089Y-114311089D03*
X227680000Y-130580000D03*
X224900000Y-111600000D03*
X196047000Y-138360000D03*
X175727000Y-142678000D03*
X216875000Y-124898000D03*
X223225000Y-118167000D03*
X205953000Y-136074000D03*
X215180000Y-119640000D03*
X166190000Y-132900000D03*
X229110000Y-121620000D03*
X213710000Y-120500000D03*
X231500000Y-127500000D03*
X214220000Y-118460000D03*
X204000000Y-145500000D03*
X166230000Y-129050000D03*
X228480000Y-129440000D03*
X204500000Y-140400000D03*
X225100000Y-143700000D03*
X173314000Y-113341000D03*
X166202000Y-131121000D03*
X223225000Y-135058000D03*
X167400000Y-132310000D03*
X194777000Y-133153000D03*
X229030000Y-123360000D03*
X229745000Y-131545000D03*
X227924000Y-112960000D03*
X198500000Y-145500000D03*
X216700000Y-115900000D03*
X232500000Y-127500000D03*
X233500000Y-127500000D03*
X177886000Y-133661000D03*
X230400000Y-127500000D03*
X167599000Y-120860000D03*
X229500000Y-127500000D03*
X216000000Y-119100000D03*
X229448000Y-126676000D03*
X223225000Y-136455000D03*
X195300242Y-145500000D03*
X167980000Y-129060000D03*
X202307798Y-145500000D03*
X211033000Y-141027000D03*
X181569000Y-135312000D03*
X167370000Y-130000000D03*
X187919000Y-138360000D03*
X227924000Y-114230000D03*
X205953000Y-130867000D03*
X217800000Y-139820000D03*
X211541000Y-145599000D03*
X216240000Y-128708000D03*
X222300000Y-144800000D03*
X181569000Y-129089000D03*
X228540000Y-128480000D03*
X208100000Y-150600000D03*
X166075000Y-120880000D03*
X229610000Y-130590000D03*
X218399000Y-122866000D03*
X176997000Y-145091000D03*
X178902000Y-110928000D03*
X166202000Y-127565000D03*
X200400000Y-145500000D03*
X177886000Y-127438000D03*
X222600000Y-138150000D03*
%TO.N,/DCDC_OUT*%
X207300000Y-111250000D03*
X207000000Y-114600000D03*
%TO.N,VCC*%
X225400000Y-121850000D03*
X227035000Y-116262000D03*
X219450000Y-130600000D03*
X218775000Y-138075000D03*
X225386000Y-121100000D03*
X218780000Y-137344000D03*
X227050000Y-117000000D03*
X218780000Y-130613000D03*
X218780000Y-132590000D03*
%TO.N,/AUDIO*%
X203794000Y-133407000D03*
X184363000Y-110928000D03*
%TO.N,GNDD*%
X193900000Y-111700000D03*
X197200000Y-113600000D03*
X208190000Y-115754000D03*
X200800000Y-117200000D03*
X200100000Y-121300000D03*
X204400000Y-115700000D03*
X210060000Y-118050000D03*
X194900000Y-106500000D03*
X197200000Y-117200000D03*
X199000000Y-117200000D03*
X205200000Y-109900000D03*
X205100000Y-112600000D03*
X199700000Y-106500000D03*
X198714000Y-122300000D03*
X206000000Y-107900000D03*
X197200000Y-115400000D03*
X202900000Y-109800000D03*
X205800000Y-122800000D03*
X201400000Y-121600000D03*
X202500000Y-110420000D03*
X200800000Y-113600000D03*
X199900000Y-123200000D03*
X199000000Y-113600000D03*
D26*
X200256417Y-111005901D03*
D25*
X208620000Y-116770000D03*
X204600000Y-122900000D03*
X199000000Y-115400000D03*
X203600000Y-108300000D03*
X203600000Y-116700000D03*
X205700000Y-109300000D03*
X211400000Y-117900000D03*
X209418000Y-123410000D03*
X193500000Y-117700000D03*
X200500000Y-108300000D03*
X193600000Y-118600000D03*
X205150000Y-117800000D03*
X211900000Y-123500000D03*
X210906000Y-118548000D03*
X198841000Y-107880000D03*
X206200000Y-123500000D03*
X201900000Y-120800000D03*
X207604000Y-116770000D03*
X191300000Y-112100000D03*
X202080000Y-107920000D03*
X210906000Y-123374000D03*
X211900000Y-118500000D03*
X190500000Y-121300000D03*
X208200000Y-114900000D03*
X200800000Y-115400000D03*
X208300000Y-107500000D03*
X200900000Y-120800000D03*
X208158319Y-112244319D03*
X204300000Y-109900000D03*
X193000000Y-113300000D03*
X205200500Y-114700000D03*
%TO.N,VPP*%
X189000000Y-120200000D03*
X203070500Y-121310000D03*
X206200000Y-114300000D03*
X192330403Y-123390403D03*
X203075000Y-121990000D03*
X204442183Y-116800000D03*
X189000000Y-109500000D03*
X206198593Y-112802231D03*
X197500000Y-106900000D03*
X189000000Y-113100000D03*
%TO.N,/RESET*%
X205172536Y-116150500D03*
X188200497Y-109500000D03*
%TO.N,Net-(D1-GK)*%
X184998000Y-116897000D03*
X202905000Y-132772000D03*
%TO.N,Net-(D1-BK)*%
X186649000Y-115881000D03*
X201000000Y-131756000D03*
%TO.N,Net-(D1-RK)*%
X185887000Y-114992000D03*
X202016000Y-132264000D03*
%TO.N,/S_SD*%
X217383000Y-130486000D03*
X217510000Y-133661000D03*
%TO.N,/MC_1*%
X171409000Y-127057000D03*
X171060000Y-119330000D03*
%TO.N,/MOTOR2A*%
X195285000Y-127057000D03*
X196682000Y-127057000D03*
%TO.N,Net-(D2-GK)*%
X174584000Y-121088000D03*
X164170000Y-110674000D03*
%TO.N,/P1*%
X190586000Y-140519000D03*
X180428995Y-124426500D03*
X190586000Y-143200000D03*
X180553000Y-112579000D03*
%TO.N,/P2*%
X208493000Y-141800000D03*
X181315000Y-124426500D03*
X208493000Y-144100000D03*
X181315000Y-112960000D03*
%TO.N,Net-(D2-BK)*%
X163535000Y-109023000D03*
X174584000Y-120072000D03*
%TO.N,/BOOT*%
X188600000Y-108800000D03*
X189900000Y-119800000D03*
%TO.N,Net-(D2-RK)*%
X175600000Y-120072000D03*
X163027000Y-107499000D03*
%TO.N,Net-(D5-K)*%
X215135000Y-121615000D03*
%TO.N,Net-(U2-VO1)*%
X222717000Y-126676000D03*
X228559000Y-125055000D03*
%TO.N,/VCC_LED*%
X199900000Y-144000000D03*
X205500000Y-137100000D03*
%TD*%
D27*
%TO.N,/DCDC_OUT*%
X206800000Y-111750000D02*
X207300000Y-111250000D01*
X206800000Y-114400000D02*
X206800000Y-111750000D01*
X207000000Y-114600000D02*
X206800000Y-114400000D01*
D28*
%TO.N,VCC*%
X218780000Y-132590000D02*
X218780000Y-137344000D01*
X225386000Y-121836000D02*
X225400000Y-121850000D01*
X227035000Y-119451000D02*
X225386000Y-121100000D01*
X227050000Y-117000000D02*
X227035000Y-117015000D01*
X218780000Y-137344000D02*
X218780000Y-138070000D01*
X227035000Y-117015000D02*
X227035000Y-119451000D01*
X218780000Y-130613000D02*
X218780000Y-132590000D01*
X225386000Y-121100000D02*
X225386000Y-121836000D01*
X218780000Y-130613000D02*
X219437000Y-130613000D01*
X227050000Y-117000000D02*
X227035000Y-116985000D01*
X219437000Y-130613000D02*
X219450000Y-130600000D01*
X218780000Y-138070000D02*
X218775000Y-138075000D01*
X227035000Y-116985000D02*
X227035000Y-116262000D01*
D27*
%TO.N,/AUDIO*%
X191353000Y-126300000D02*
X187500000Y-126300000D01*
X184363000Y-123163000D02*
X184363000Y-119310000D01*
D29*
X203794000Y-133407000D02*
X198460000Y-133407000D01*
X184363000Y-119310000D02*
X184363000Y-110928000D01*
D27*
X197444000Y-132391000D02*
X191353000Y-126300000D01*
D29*
X198460000Y-133407000D02*
X197444000Y-132391000D01*
D27*
X187500000Y-126300000D02*
X184363000Y-123163000D01*
D30*
%TO.N,VPP*%
X203070000Y-121309500D02*
X203070000Y-118210330D01*
X203070500Y-121310000D02*
X203070000Y-121309500D01*
X206198593Y-112802231D02*
X206200000Y-112803638D01*
X203070500Y-121310000D02*
X203070000Y-121310500D01*
X195008092Y-107570533D02*
X194200000Y-108378625D01*
X204442183Y-116838147D02*
X204442183Y-116800000D01*
X197500000Y-106900000D02*
X197100000Y-106900000D01*
X192330403Y-123390403D02*
X192330403Y-123949597D01*
X203070000Y-121310500D02*
X203070000Y-121985000D01*
X189000000Y-123400000D02*
X189000000Y-120200000D01*
X189000000Y-113100000D02*
X189000000Y-109500000D01*
X203075000Y-122875000D02*
X202000000Y-123950000D01*
X203075000Y-121990000D02*
X203075000Y-122875000D01*
X202000000Y-123950000D02*
X192330000Y-123950000D01*
X189000000Y-113100000D02*
X189000000Y-120200000D01*
X203070000Y-121985000D02*
X203075000Y-121990000D01*
X192330403Y-123949597D02*
X192330000Y-123950000D01*
X196429467Y-107570533D02*
X195008092Y-107570533D01*
X203070000Y-118210330D02*
X204442183Y-116838147D01*
X206200000Y-112803638D02*
X206200000Y-114300000D01*
X192330000Y-123950000D02*
X189550000Y-123950000D01*
X189550000Y-123950000D02*
X189000000Y-123400000D01*
X197100000Y-106900000D02*
X196429467Y-107570533D01*
D27*
%TO.N,/RESET*%
X202411514Y-124400000D02*
X189363604Y-124400000D01*
X205100000Y-116990712D02*
X203670000Y-118420712D01*
X188550000Y-113498529D02*
X188400000Y-113348529D01*
X189363604Y-124400000D02*
X188550000Y-123586396D01*
X203670000Y-118420712D02*
X203670000Y-121736471D01*
X188550000Y-112701471D02*
X188550000Y-109898529D01*
X188550000Y-109898529D02*
X188200497Y-109549026D01*
X188550000Y-123586396D02*
X188550000Y-120598529D01*
X188400000Y-113348529D02*
X188400000Y-112851471D01*
X203675000Y-123136514D02*
X202411514Y-124400000D01*
X188550000Y-120598529D02*
X188400000Y-120448529D01*
X203675000Y-121741471D02*
X203675000Y-123136514D01*
X188550000Y-119801471D02*
X188550000Y-113498529D01*
X188400000Y-112851471D02*
X188550000Y-112701471D01*
X188200497Y-109549026D02*
X188200497Y-109500000D01*
X188400000Y-120448529D02*
X188400000Y-119951471D01*
X203670000Y-121736471D02*
X203675000Y-121741471D01*
X188400000Y-119951471D02*
X188550000Y-119801471D01*
X205100000Y-116223036D02*
X205100000Y-116990712D01*
X205172536Y-116150500D02*
X205100000Y-116223036D01*
%TO.N,Net-(D1-GK)*%
X198699896Y-132899000D02*
X198555870Y-132899000D01*
D29*
X202905000Y-132772000D02*
X202778000Y-132899000D01*
D27*
X198555870Y-132899000D02*
X191556870Y-125900000D01*
D29*
X184998000Y-119197104D02*
X184998000Y-116897000D01*
D27*
X191556870Y-125900000D02*
X187800000Y-125900000D01*
X187800000Y-125900000D02*
X184998000Y-123098000D01*
X184998000Y-123098000D02*
X184998000Y-119197104D01*
D29*
X202778000Y-132899000D02*
X198699896Y-132899000D01*
D27*
%TO.N,Net-(D1-BK)*%
X198841000Y-131756000D02*
X192185000Y-125100000D01*
X192185000Y-125100000D02*
X188165686Y-125100000D01*
X188165686Y-125100000D02*
X186649000Y-123583314D01*
X186649000Y-123583314D02*
X186649000Y-119564000D01*
D29*
X201000000Y-131756000D02*
X198841000Y-131756000D01*
X186649000Y-119564000D02*
X186649000Y-115881000D01*
D27*
%TO.N,Net-(D1-RK)*%
X202437471Y-132391000D02*
X202356471Y-132472000D01*
X202356471Y-132472000D02*
X198694556Y-132472000D01*
D29*
X202016000Y-132264000D02*
X201889000Y-132391000D01*
D27*
X191722556Y-125500000D02*
X188000000Y-125500000D01*
D29*
X201889000Y-132391000D02*
X198833948Y-132391000D01*
D27*
X198694556Y-132472000D02*
X191722556Y-125500000D01*
X198833948Y-132391000D02*
X202437471Y-132391000D01*
X185887000Y-123387000D02*
X185887000Y-119444052D01*
X188000000Y-125500000D02*
X185887000Y-123387000D01*
D29*
X185887000Y-119444052D02*
X185887000Y-114992000D01*
%TO.N,/S_SD*%
X217383000Y-130486000D02*
X217383000Y-133534000D01*
X217383000Y-133534000D02*
X217510000Y-133661000D01*
%TO.N,/MC_1*%
X171060000Y-119330000D02*
X171409000Y-119679000D01*
X171409000Y-119679000D02*
X171409000Y-127057000D01*
%TO.N,/MOTOR2A*%
X196682000Y-127057000D02*
X195285000Y-127057000D01*
%TO.N,Net-(D2-GK)*%
X174584000Y-121088000D02*
X164170000Y-110674000D01*
%TO.N,/P1*%
X190586000Y-140519000D02*
X190586000Y-143200000D01*
X180553000Y-124302495D02*
X180428995Y-124426500D01*
X180553000Y-112579000D02*
X180553000Y-124302495D01*
%TO.N,/P2*%
X181315000Y-112960000D02*
X181315000Y-124426500D01*
X208493000Y-141800000D02*
X208493000Y-144100000D01*
%TO.N,Net-(D2-BK)*%
X174584000Y-120072000D02*
X163535000Y-109023000D01*
D27*
%TO.N,/BOOT*%
X189600000Y-113348529D02*
X189500000Y-113448529D01*
X189148529Y-108800000D02*
X189600000Y-109251471D01*
X189500000Y-113448529D02*
X189500000Y-119400000D01*
X189600000Y-109748529D02*
X189450000Y-109898529D01*
X189450000Y-112701471D02*
X189600000Y-112851471D01*
X189500000Y-119400000D02*
X189900000Y-119800000D01*
X189450000Y-109898529D02*
X189450000Y-112701471D01*
X189600000Y-109251471D02*
X189600000Y-109748529D01*
X189600000Y-112851471D02*
X189600000Y-113348529D01*
X188600000Y-108800000D02*
X189148529Y-108800000D01*
D29*
%TO.N,Net-(D2-RK)*%
X163027000Y-107499000D02*
X175600000Y-120072000D01*
D28*
%TO.N,Net-(D5-K)*%
X219160000Y-128910000D02*
X223830000Y-128910000D01*
X215135000Y-124885000D02*
X219160000Y-128910000D01*
X223830000Y-128910000D02*
X224700000Y-129780000D01*
X215135000Y-121615000D02*
X215135000Y-124885000D01*
%TO.N,Net-(U2-VO1)*%
X222717000Y-126676000D02*
X224338000Y-125055000D01*
X224338000Y-125055000D02*
X228559000Y-125055000D01*
D30*
%TO.N,/VCC_LED*%
X199900000Y-142700000D02*
X199900000Y-144000000D01*
X205500000Y-137100000D02*
X199900000Y-142700000D01*
%TD*%
%TA.AperFunction,Conductor*%
%TO.N,GNDD*%
G36*
X200240872Y-106092346D02*
G01*
X201023919Y-106101798D01*
X201024911Y-106101816D01*
X201903860Y-106122432D01*
X201905184Y-106122472D01*
X202687729Y-106150822D01*
X202688540Y-106150856D01*
X203567092Y-106192094D01*
X203568708Y-106192181D01*
X204349724Y-106239376D01*
X204350401Y-106239420D01*
X205228401Y-106301295D01*
X205229794Y-106301403D01*
X206008657Y-106367370D01*
X206009764Y-106367469D01*
X206886699Y-106449975D01*
X206888321Y-106450140D01*
X207664175Y-106534761D01*
X207664902Y-106534843D01*
X208540926Y-106638039D01*
X208542651Y-106638255D01*
X208893417Y-106685105D01*
X208948251Y-106706528D01*
X208987025Y-106750826D01*
X209001000Y-106808014D01*
X209001000Y-117659000D01*
X212077000Y-117659000D01*
X212139000Y-117675613D01*
X212184387Y-117721000D01*
X212201000Y-117783000D01*
X212201000Y-123735000D01*
X212184387Y-123797000D01*
X212139000Y-123842387D01*
X212077000Y-123859000D01*
X203676846Y-123859000D01*
X203620551Y-123845485D01*
X203576528Y-123807885D01*
X203554373Y-123754398D01*
X203558915Y-123696682D01*
X203589165Y-123647319D01*
X203709472Y-123527012D01*
X203838518Y-123397965D01*
X203852353Y-123388012D01*
X203859225Y-123380473D01*
X203859228Y-123380472D01*
X203890488Y-123346180D01*
X203894379Y-123342104D01*
X203907174Y-123329311D01*
X203907178Y-123329304D01*
X203907868Y-123328615D01*
X203916922Y-123317185D01*
X203934914Y-123297449D01*
X203934913Y-123297449D01*
X203934916Y-123297447D01*
X203937419Y-123290984D01*
X203950743Y-123265705D01*
X203954656Y-123259995D01*
X203960770Y-123233995D01*
X203965846Y-123217603D01*
X203975500Y-123192687D01*
X203975500Y-123185763D01*
X203978794Y-123157370D01*
X203980379Y-123150633D01*
X203976688Y-123124180D01*
X203975500Y-123107049D01*
X203975500Y-121810714D01*
X203978243Y-121793893D01*
X203977772Y-121783707D01*
X203977773Y-121783706D01*
X203975631Y-121737390D01*
X203975500Y-121731666D01*
X203975500Y-121712649D01*
X203973817Y-121698151D01*
X203973285Y-121686641D01*
X203972585Y-121671479D01*
X203972584Y-121671478D01*
X203971515Y-121648321D01*
X203972122Y-121648292D01*
X203970500Y-121640599D01*
X203970500Y-118596545D01*
X203979939Y-118549092D01*
X204006819Y-118508864D01*
X204300685Y-118214998D01*
X205263518Y-117252163D01*
X205277353Y-117242210D01*
X205284225Y-117234671D01*
X205284228Y-117234670D01*
X205315488Y-117200378D01*
X205319379Y-117196302D01*
X205332174Y-117183509D01*
X205332178Y-117183502D01*
X205332868Y-117182813D01*
X205341922Y-117171383D01*
X205359914Y-117151647D01*
X205359913Y-117151647D01*
X205359916Y-117151645D01*
X205362419Y-117145182D01*
X205375743Y-117119903D01*
X205379656Y-117114193D01*
X205385770Y-117088193D01*
X205390846Y-117071801D01*
X205400500Y-117046885D01*
X205400500Y-117039961D01*
X205403794Y-117011568D01*
X205405379Y-117004831D01*
X205401688Y-116978378D01*
X205400500Y-116961247D01*
X205400500Y-116827474D01*
X205414956Y-116769370D01*
X205428263Y-116744283D01*
X205625232Y-116372930D01*
X205639479Y-116333790D01*
X205643202Y-116324702D01*
X205657701Y-116292957D01*
X205678183Y-116150500D01*
X205657701Y-116008043D01*
X205597913Y-115877127D01*
X205597912Y-115877126D01*
X205597912Y-115877125D01*
X205503665Y-115768358D01*
X205503664Y-115768357D01*
X205382589Y-115690547D01*
X205244497Y-115650000D01*
X205100575Y-115650000D01*
X204962483Y-115690547D01*
X204841406Y-115768358D01*
X204747159Y-115877125D01*
X204687370Y-116008042D01*
X204666888Y-116150502D01*
X204668529Y-116161913D01*
X204661972Y-116222892D01*
X204626994Y-116273269D01*
X204572152Y-116300723D01*
X204531972Y-116299289D01*
X204531972Y-116299500D01*
X204370222Y-116299500D01*
X204232130Y-116340047D01*
X204111053Y-116417858D01*
X204016805Y-116526626D01*
X203996889Y-116570234D01*
X203982036Y-116594770D01*
X203977320Y-116600842D01*
X203918707Y-116714934D01*
X203915736Y-116718768D01*
X203908900Y-116733737D01*
X203906406Y-116738881D01*
X203903630Y-116744283D01*
X203900221Y-116752540D01*
X203898403Y-116756721D01*
X203856620Y-116848208D01*
X203842240Y-116872132D01*
X203835356Y-116881111D01*
X203833807Y-116883405D01*
X203821309Y-116904524D01*
X203768047Y-117008198D01*
X203745432Y-117039214D01*
X202856955Y-117927691D01*
X202837104Y-117943813D01*
X202829332Y-117948891D01*
X202811500Y-117971801D01*
X202801765Y-117982826D01*
X202790441Y-117998687D01*
X202787392Y-118002775D01*
X202770954Y-118023896D01*
X202752891Y-118047103D01*
X202736871Y-118100912D01*
X202735309Y-118105788D01*
X202717074Y-118158907D01*
X202719394Y-118214998D01*
X202719500Y-118220122D01*
X202719500Y-120648637D01*
X202715477Y-120679965D01*
X202594660Y-121142665D01*
X202587480Y-121162843D01*
X202585335Y-121167539D01*
X202564853Y-121309999D01*
X202585334Y-121452457D01*
X202587480Y-121457155D01*
X202594661Y-121477336D01*
X202633213Y-121624978D01*
X202633468Y-121686641D01*
X202599378Y-121821754D01*
X202591943Y-121842925D01*
X202589835Y-121847540D01*
X202569353Y-121989999D01*
X202589835Y-122132460D01*
X202591982Y-122137161D01*
X202599135Y-122157231D01*
X202601629Y-122166745D01*
X202720449Y-122620105D01*
X202724500Y-122651538D01*
X202724500Y-122678457D01*
X202715061Y-122725910D01*
X202688181Y-122766138D01*
X201891137Y-123563181D01*
X201850909Y-123590061D01*
X201803456Y-123599500D01*
X192949090Y-123599500D01*
X192882051Y-123579815D01*
X192836296Y-123527012D01*
X192826352Y-123457853D01*
X192836050Y-123390403D01*
X192815568Y-123247946D01*
X192809199Y-123234001D01*
X192755779Y-123117028D01*
X192661532Y-123008261D01*
X192661531Y-123008260D01*
X192540456Y-122930450D01*
X192402364Y-122889903D01*
X192258442Y-122889903D01*
X192120350Y-122930450D01*
X191999273Y-123008261D01*
X191905026Y-123117028D01*
X191845237Y-123247945D01*
X191831110Y-123346209D01*
X191824756Y-123390403D01*
X191833893Y-123453956D01*
X191834454Y-123457853D01*
X191824510Y-123527012D01*
X191778755Y-123579815D01*
X191711716Y-123599500D01*
X189746544Y-123599500D01*
X189699091Y-123590061D01*
X189658863Y-123563181D01*
X189637319Y-123541637D01*
X189610439Y-123501409D01*
X189601000Y-123453956D01*
X189601000Y-120399480D01*
X189614116Y-120343976D01*
X189650689Y-120300213D01*
X189702983Y-120277450D01*
X189759934Y-120280502D01*
X189828039Y-120300500D01*
X189971961Y-120300500D01*
X190110053Y-120259953D01*
X190231128Y-120182143D01*
X190325377Y-120073373D01*
X190385165Y-119942457D01*
X190405647Y-119800000D01*
X190385165Y-119657543D01*
X190362421Y-119607742D01*
X190325376Y-119526625D01*
X190231129Y-119417858D01*
X190231128Y-119417857D01*
X190190769Y-119391920D01*
X190110051Y-119340045D01*
X190104072Y-119338290D01*
X190080060Y-119328404D01*
X190076344Y-119326396D01*
X189880569Y-119252226D01*
X189838623Y-119225718D01*
X189810428Y-119184886D01*
X189800500Y-119136269D01*
X189800500Y-113624363D01*
X189809939Y-113576910D01*
X189826840Y-113551616D01*
X189825673Y-113550817D01*
X189831249Y-113542675D01*
X189841922Y-113529200D01*
X189859914Y-113509464D01*
X189859913Y-113509464D01*
X189859916Y-113509462D01*
X189862419Y-113502999D01*
X189875743Y-113477720D01*
X189879656Y-113472010D01*
X189885770Y-113446010D01*
X189890846Y-113429618D01*
X189900500Y-113404702D01*
X189900500Y-113397778D01*
X189903794Y-113369385D01*
X189905379Y-113362648D01*
X189901688Y-113336195D01*
X189900500Y-113319064D01*
X189900500Y-112920714D01*
X189903243Y-112903893D01*
X189902772Y-112893707D01*
X189902773Y-112893706D01*
X189900631Y-112847390D01*
X189900500Y-112841666D01*
X189900500Y-112822649D01*
X189898817Y-112808151D01*
X189898544Y-112802230D01*
X205692946Y-112802230D01*
X205713427Y-112944687D01*
X205715573Y-112949385D01*
X205722637Y-112969117D01*
X205725405Y-112979559D01*
X205725406Y-112979562D01*
X205838128Y-113404701D01*
X205845359Y-113431973D01*
X205849500Y-113463752D01*
X205849500Y-113638462D01*
X205845449Y-113669894D01*
X205775421Y-113937088D01*
X205724135Y-114132769D01*
X205716983Y-114152837D01*
X205714835Y-114157540D01*
X205694353Y-114300000D01*
X205714834Y-114442457D01*
X205774623Y-114573374D01*
X205797694Y-114599999D01*
X205868872Y-114682143D01*
X205989947Y-114759953D01*
X206128039Y-114800500D01*
X206271961Y-114800500D01*
X206406398Y-114761025D01*
X206464799Y-114758244D01*
X206517984Y-114782532D01*
X206554126Y-114828492D01*
X206574622Y-114873373D01*
X206668870Y-114982141D01*
X206668872Y-114982143D01*
X206789947Y-115059953D01*
X206928039Y-115100500D01*
X207071961Y-115100500D01*
X207210053Y-115059953D01*
X207331128Y-114982143D01*
X207425377Y-114873373D01*
X207485165Y-114742457D01*
X207505647Y-114600000D01*
X207485165Y-114457543D01*
X207478275Y-114442457D01*
X207425377Y-114326627D01*
X207381375Y-114275846D01*
X207377181Y-114270737D01*
X207374131Y-114266813D01*
X207348135Y-114233364D01*
X207348130Y-114233359D01*
X207137390Y-114025336D01*
X207110093Y-113984912D01*
X207100500Y-113937088D01*
X207100500Y-111979054D01*
X207119954Y-111912375D01*
X207172211Y-111866618D01*
X207231944Y-111838838D01*
X207491326Y-111718213D01*
X207491330Y-111718209D01*
X207499000Y-111714643D01*
X207508076Y-111711222D01*
X207510048Y-111709954D01*
X207510053Y-111709953D01*
X207631128Y-111632143D01*
X207651233Y-111608941D01*
X207725376Y-111523374D01*
X207725375Y-111523374D01*
X207725377Y-111523373D01*
X207785165Y-111392457D01*
X207805647Y-111250000D01*
X207785165Y-111107543D01*
X207725377Y-110976627D01*
X207725376Y-110976626D01*
X207725376Y-110976625D01*
X207631129Y-110867858D01*
X207631128Y-110867857D01*
X207510053Y-110790047D01*
X207371961Y-110749500D01*
X207228039Y-110749500D01*
X207089947Y-110790047D01*
X206968870Y-110867858D01*
X206874622Y-110976626D01*
X206851461Y-111027340D01*
X206839163Y-111048468D01*
X206831787Y-111058672D01*
X206640038Y-111470988D01*
X206619238Y-111502239D01*
X206584524Y-111540317D01*
X206580573Y-111544454D01*
X206567141Y-111557886D01*
X206558087Y-111569317D01*
X206540083Y-111589067D01*
X206537578Y-111595534D01*
X206524259Y-111620802D01*
X206520343Y-111626518D01*
X206514228Y-111652517D01*
X206509151Y-111668913D01*
X206499500Y-111693827D01*
X206499500Y-111700751D01*
X206496206Y-111729144D01*
X206494621Y-111735881D01*
X206498311Y-111762332D01*
X206499500Y-111779465D01*
X206499500Y-112203311D01*
X206486384Y-112258815D01*
X206449811Y-112302578D01*
X206397517Y-112325341D01*
X206340565Y-112322288D01*
X206270554Y-112301731D01*
X206126632Y-112301731D01*
X205988540Y-112342278D01*
X205867463Y-112420089D01*
X205773216Y-112528856D01*
X205713427Y-112659773D01*
X205692946Y-112802230D01*
X189898544Y-112802230D01*
X189897585Y-112781479D01*
X189894786Y-112775141D01*
X189886332Y-112747838D01*
X189885061Y-112741038D01*
X189871002Y-112718331D01*
X189862995Y-112703141D01*
X189852206Y-112678706D01*
X189847310Y-112673810D01*
X189829563Y-112651404D01*
X189825919Y-112645519D01*
X189804602Y-112629421D01*
X189791648Y-112618148D01*
X189786819Y-112613319D01*
X189759939Y-112573091D01*
X189750500Y-112525638D01*
X189750500Y-110299952D01*
X189763660Y-110244360D01*
X189800347Y-110200567D01*
X189852773Y-110177870D01*
X189909812Y-110181086D01*
X189959355Y-110209532D01*
X190051155Y-110295682D01*
X190179470Y-110360550D01*
X190320857Y-110386639D01*
X190380613Y-110382602D01*
X190673917Y-110330885D01*
X190543681Y-109592280D01*
X190326620Y-108361270D01*
X190033321Y-108412987D01*
X189975783Y-108429634D01*
X189851846Y-108502505D01*
X189815420Y-108541321D01*
X189766300Y-108573386D01*
X189707938Y-108579287D01*
X189653394Y-108557701D01*
X189614875Y-108513461D01*
X189601000Y-108456466D01*
X189601000Y-108274446D01*
X190819024Y-108274446D01*
X190949261Y-109013053D01*
X191166320Y-110244061D01*
X191459619Y-110192345D01*
X191517158Y-110175697D01*
X191641095Y-110102826D01*
X191739488Y-109997980D01*
X191812400Y-109853757D01*
X191814550Y-109854844D01*
X191824553Y-109832066D01*
X191868267Y-109795677D01*
X191923628Y-109782633D01*
X192082232Y-109782633D01*
X192082233Y-109782633D01*
X192247402Y-109741923D01*
X192398029Y-109662867D01*
X192525360Y-109550062D01*
X192614056Y-109421563D01*
X192667501Y-109377928D01*
X192735996Y-109369611D01*
X192798330Y-109399189D01*
X192847031Y-109442334D01*
X192997658Y-109521390D01*
X193162827Y-109562100D01*
X193332938Y-109562100D01*
X193332939Y-109562100D01*
X193498108Y-109521390D01*
X193648735Y-109442334D01*
X193776066Y-109329529D01*
X193864762Y-109201030D01*
X193918207Y-109157395D01*
X193986701Y-109149078D01*
X194049037Y-109178656D01*
X194074295Y-109201032D01*
X194097737Y-109221800D01*
X194248364Y-109300856D01*
X194413533Y-109341566D01*
X194583644Y-109341566D01*
X194583645Y-109341566D01*
X194748814Y-109300856D01*
X194899441Y-109221800D01*
X195026772Y-109108995D01*
X195115468Y-108980497D01*
X195168912Y-108936862D01*
X195237406Y-108928545D01*
X195299742Y-108958123D01*
X195348442Y-109001267D01*
X195499069Y-109080323D01*
X195664238Y-109121033D01*
X195834349Y-109121033D01*
X195834350Y-109121033D01*
X195999519Y-109080323D01*
X196150146Y-109001267D01*
X196277477Y-108888462D01*
X196366173Y-108759963D01*
X196419618Y-108716328D01*
X196488113Y-108708011D01*
X196550447Y-108737589D01*
X196599148Y-108780734D01*
X196749775Y-108859790D01*
X196914944Y-108900500D01*
X197085055Y-108900500D01*
X197085056Y-108900500D01*
X197250225Y-108859790D01*
X197400852Y-108780734D01*
X197528183Y-108667929D01*
X197624818Y-108527930D01*
X197685140Y-108368872D01*
X197705645Y-108200000D01*
X197685140Y-108031128D01*
X197624818Y-107872070D01*
X197528183Y-107732071D01*
X197400852Y-107619266D01*
X197400848Y-107619263D01*
X197400400Y-107618867D01*
X197366868Y-107570501D01*
X197359412Y-107512122D01*
X197379712Y-107456881D01*
X197423195Y-107417221D01*
X197480064Y-107402077D01*
X197519944Y-107401254D01*
X197519950Y-107401252D01*
X197527111Y-107401105D01*
X197534602Y-107400500D01*
X197571961Y-107400500D01*
X197710053Y-107359953D01*
X197831128Y-107282143D01*
X197925377Y-107173373D01*
X197985165Y-107042457D01*
X198005647Y-106900000D01*
X197985165Y-106757543D01*
X197982097Y-106750826D01*
X197925376Y-106626625D01*
X197831129Y-106517858D01*
X197831128Y-106517857D01*
X197710053Y-106440047D01*
X197571961Y-106399500D01*
X197428039Y-106399500D01*
X197428038Y-106399500D01*
X197289947Y-106440046D01*
X197282296Y-106444963D01*
X197277115Y-106447661D01*
X197277258Y-106447904D01*
X197269651Y-106452366D01*
X197269653Y-106452366D01*
X197133146Y-106532452D01*
X197080894Y-106546648D01*
X197081088Y-106547810D01*
X197051961Y-106552668D01*
X197046903Y-106553405D01*
X196991189Y-106560351D01*
X196941813Y-106587072D01*
X196937261Y-106589415D01*
X196886804Y-106614082D01*
X196848780Y-106655387D01*
X196845233Y-106659083D01*
X196724823Y-106779493D01*
X196715383Y-106788011D01*
X196713256Y-106789740D01*
X196702644Y-106801458D01*
X196698417Y-106805899D01*
X196320604Y-107183714D01*
X196280376Y-107210594D01*
X196232923Y-107220033D01*
X195057304Y-107220033D01*
X195031858Y-107217394D01*
X195022777Y-107215490D01*
X194993969Y-107219081D01*
X194979293Y-107219991D01*
X194960053Y-107223201D01*
X194954995Y-107223938D01*
X194899281Y-107230884D01*
X194849900Y-107257607D01*
X194845349Y-107259950D01*
X194794894Y-107284617D01*
X194756849Y-107325942D01*
X194753304Y-107329637D01*
X194550042Y-107532900D01*
X194543056Y-107539370D01*
X194508004Y-107569411D01*
X194466517Y-107616119D01*
X194461490Y-107621452D01*
X193931627Y-108151314D01*
X193880759Y-108222560D01*
X193874094Y-108244949D01*
X193842441Y-108297735D01*
X193789306Y-108328798D01*
X193727781Y-108330486D01*
X193673023Y-108302383D01*
X193648736Y-108280867D01*
X193648735Y-108280866D01*
X193573421Y-108241337D01*
X193498107Y-108201809D01*
X193373647Y-108171133D01*
X193332939Y-108161100D01*
X193162827Y-108161100D01*
X193130167Y-108169149D01*
X192997658Y-108201809D01*
X192847032Y-108280865D01*
X192719697Y-108393673D01*
X192631003Y-108522168D01*
X192577557Y-108565805D01*
X192509063Y-108574121D01*
X192446728Y-108544542D01*
X192398029Y-108501399D01*
X192261294Y-108429634D01*
X192247401Y-108422342D01*
X192122941Y-108391666D01*
X192082233Y-108381633D01*
X191912121Y-108381633D01*
X191829536Y-108401988D01*
X191746951Y-108422343D01*
X191704923Y-108444401D01*
X191644297Y-108458568D01*
X191584428Y-108441484D01*
X191561352Y-108418404D01*
X191559630Y-108420240D01*
X191441786Y-108309649D01*
X191313471Y-108244781D01*
X191172084Y-108218692D01*
X191112327Y-108222729D01*
X190819024Y-108274446D01*
X189601000Y-108274446D01*
X189601000Y-106945974D01*
X189614824Y-106889077D01*
X189653213Y-106844867D01*
X189707609Y-106823200D01*
X189832204Y-106805550D01*
X190284921Y-106741424D01*
X191057364Y-106638253D01*
X191059075Y-106638039D01*
X191935485Y-106534797D01*
X191935579Y-106534787D01*
X192711831Y-106450124D01*
X192713252Y-106449979D01*
X193590308Y-106367462D01*
X193591296Y-106367374D01*
X194370156Y-106301406D01*
X194371529Y-106301300D01*
X195249478Y-106239429D01*
X195250492Y-106239363D01*
X196031418Y-106192173D01*
X196032752Y-106192101D01*
X196911457Y-106150856D01*
X196912257Y-106150823D01*
X197694826Y-106122472D01*
X197696136Y-106122433D01*
X198575101Y-106101815D01*
X198576076Y-106101798D01*
X199359129Y-106092346D01*
X199360627Y-106092337D01*
X200239375Y-106092337D01*
X200240872Y-106092346D01*
G37*
%TD.AperFunction*%
%TD*%
%TA.AperFunction,Conductor*%
%TO.N,GND*%
G36*
X242415377Y-94479949D02*
G01*
X242417983Y-94479994D01*
X242698906Y-94487971D01*
X242703729Y-94488205D01*
X243040645Y-94511342D01*
X243043362Y-94511560D01*
X243323560Y-94537262D01*
X243328413Y-94537804D01*
X243662875Y-94581837D01*
X243665484Y-94582212D01*
X243943931Y-94625594D01*
X243948653Y-94626424D01*
X243973537Y-94631293D01*
X244279307Y-94691124D01*
X244282192Y-94691725D01*
X244557605Y-94752630D01*
X244562065Y-94753706D01*
X244887903Y-94838841D01*
X244890717Y-94839614D01*
X245161999Y-94917835D01*
X245166341Y-94919175D01*
X245486006Y-95024364D01*
X245488869Y-95025347D01*
X245720186Y-95108165D01*
X245754862Y-95120580D01*
X245759082Y-95122177D01*
X246071329Y-95246977D01*
X246074279Y-95248202D01*
X246333941Y-95360102D01*
X246337843Y-95361867D01*
X246641586Y-95505816D01*
X246644551Y-95507271D01*
X246896732Y-95635363D01*
X246900536Y-95637380D01*
X247194582Y-95799893D01*
X247197528Y-95801576D01*
X247441260Y-95945387D01*
X247444821Y-95947571D01*
X247693703Y-96106127D01*
X247727991Y-96127971D01*
X247730987Y-96129940D01*
X247965237Y-96288877D01*
X247968606Y-96291246D01*
X248239930Y-96488893D01*
X248242825Y-96491067D01*
X248466659Y-96664509D01*
X248469790Y-96667018D01*
X248728311Y-96881211D01*
X248731108Y-96883602D01*
X248908825Y-97040201D01*
X248943537Y-97070788D01*
X248946464Y-97073451D01*
X249191068Y-97303264D01*
X249193843Y-97305954D01*
X249394043Y-97506154D01*
X249396705Y-97508899D01*
X249626579Y-97753568D01*
X249629193Y-97756442D01*
X249816381Y-97968873D01*
X249818804Y-97971708D01*
X250012648Y-98205668D01*
X250032987Y-98230216D01*
X250035501Y-98233354D01*
X250178157Y-98417457D01*
X250208890Y-98457118D01*
X250211100Y-98460059D01*
X250408737Y-98731371D01*
X250411121Y-98734760D01*
X250570049Y-98968997D01*
X250572019Y-98971993D01*
X250752421Y-99255168D01*
X250754636Y-99258780D01*
X250898401Y-99502434D01*
X250900133Y-99505466D01*
X251062607Y-99799440D01*
X251064635Y-99803266D01*
X251192718Y-100055430D01*
X251194215Y-100058481D01*
X251255940Y-100188724D01*
X251325223Y-100334916D01*
X251338090Y-100362065D01*
X251339913Y-100366095D01*
X251451776Y-100625673D01*
X251453044Y-100628726D01*
X251577828Y-100940934D01*
X251579427Y-100945158D01*
X251674611Y-101211017D01*
X251675655Y-101214055D01*
X251780809Y-101533613D01*
X251782168Y-101538017D01*
X251860357Y-101809184D01*
X251861184Y-101812193D01*
X251946278Y-102137876D01*
X251947380Y-102142447D01*
X252008269Y-102417788D01*
X252008886Y-102420751D01*
X252073574Y-102751344D01*
X252074404Y-102756066D01*
X252117764Y-103034361D01*
X252118181Y-103037266D01*
X252162193Y-103371582D01*
X252162736Y-103376440D01*
X252188433Y-103656579D01*
X252188660Y-103659410D01*
X252211789Y-103996192D01*
X252212030Y-104001169D01*
X252220002Y-104281944D01*
X252220050Y-104284690D01*
X252222157Y-104622677D01*
X252222084Y-104627751D01*
X252212356Y-104908021D01*
X252212236Y-104910672D01*
X252193261Y-105248571D01*
X252192864Y-105253725D01*
X252165525Y-105532422D01*
X252165248Y-105534967D01*
X252125212Y-105871438D01*
X252124480Y-105876649D01*
X252079715Y-106152517D01*
X252079296Y-106154948D01*
X252018274Y-106488837D01*
X252017198Y-106494082D01*
X251955249Y-106766066D01*
X251954699Y-106768376D01*
X251872863Y-107098352D01*
X251871436Y-107103609D01*
X251792670Y-107370446D01*
X251792004Y-107372628D01*
X251689554Y-107697559D01*
X251687770Y-107702805D01*
X251592601Y-107963427D01*
X251591833Y-107965476D01*
X251469059Y-108284126D01*
X251466914Y-108289335D01*
X251355829Y-108542698D01*
X251354972Y-108544610D01*
X251212260Y-108855705D01*
X251209752Y-108860853D01*
X251083325Y-109105916D01*
X251082393Y-109107689D01*
X250920138Y-109410111D01*
X250917267Y-109415173D01*
X250776154Y-109650922D01*
X250775161Y-109652553D01*
X250593871Y-109945105D01*
X250590638Y-109950054D01*
X250435583Y-110175509D01*
X250434543Y-110176998D01*
X250234705Y-110458644D01*
X250231112Y-110463457D01*
X250062949Y-110677673D01*
X250061875Y-110679020D01*
X249844069Y-110948676D01*
X249840121Y-110953326D01*
X249659755Y-111155430D01*
X249658662Y-111156638D01*
X249423491Y-111413281D01*
X249419196Y-111417740D01*
X249227642Y-111606893D01*
X249226541Y-111607966D01*
X248974647Y-111850611D01*
X248970012Y-111854856D01*
X248768296Y-112030355D01*
X248767201Y-112031296D01*
X248499254Y-112258991D01*
X248494289Y-112262995D01*
X248283618Y-112424122D01*
X248282541Y-112424936D01*
X247999217Y-112636779D01*
X247993935Y-112640518D01*
X247775645Y-112786624D01*
X247774597Y-112787318D01*
X247476467Y-112982515D01*
X247470881Y-112985964D01*
X247246316Y-113116563D01*
X247245307Y-113117144D01*
X246933113Y-113294804D01*
X246927241Y-113297940D01*
X246697948Y-113412593D01*
X246696988Y-113413068D01*
X246371204Y-113572467D01*
X246365061Y-113575267D01*
X246132849Y-113673604D01*
X246131948Y-113673982D01*
X245793024Y-113814370D01*
X245786631Y-113816814D01*
X245553531Y-113898615D01*
X245552695Y-113898905D01*
X245200799Y-114019581D01*
X245194177Y-114021646D01*
X244962257Y-114086936D01*
X244961495Y-114087148D01*
X244596920Y-114187277D01*
X244590090Y-114188946D01*
X244362172Y-114237842D01*
X244361489Y-114237987D01*
X243983669Y-114316819D01*
X243976658Y-114318073D01*
X243756380Y-114350971D01*
X243755781Y-114351059D01*
X243363511Y-114407686D01*
X243356342Y-114408509D01*
X243148334Y-114426267D01*
X243147823Y-114426309D01*
X242738876Y-114459520D01*
X242731576Y-114459897D01*
X242543175Y-114464057D01*
X242542757Y-114464065D01*
X242112207Y-114472117D01*
X242104805Y-114472035D01*
X241948784Y-114465634D01*
X241948458Y-114465620D01*
X241485952Y-114445427D01*
X241478479Y-114444874D01*
X241381011Y-114434693D01*
X241380778Y-114434668D01*
X240863291Y-114379625D01*
X240855635Y-114378569D01*
X240248861Y-114275475D01*
X240241286Y-114273944D01*
X239648143Y-114134668D01*
X239638842Y-114131674D01*
X239623169Y-114140723D01*
X239614323Y-114156028D01*
X234816995Y-118953355D01*
X234816819Y-118953473D01*
X234799617Y-118970675D01*
X234799457Y-118971057D01*
X234799461Y-118995725D01*
X234799500Y-118995915D01*
X234799500Y-128169476D01*
X234785985Y-128225771D01*
X234748385Y-128269794D01*
X234694898Y-128291949D01*
X234637182Y-128287407D01*
X234587819Y-128257157D01*
X234518345Y-128187683D01*
X234369122Y-128095642D01*
X234202696Y-128040493D01*
X234099979Y-128030000D01*
X232350000Y-128030000D01*
X232350000Y-131529999D01*
X234099979Y-131529999D01*
X234202695Y-131519506D01*
X234369122Y-131464357D01*
X234518345Y-131372316D01*
X234587819Y-131302843D01*
X234637182Y-131272593D01*
X234694898Y-131268051D01*
X234748385Y-131290206D01*
X234785985Y-131334229D01*
X234799500Y-131390524D01*
X234799500Y-131898486D01*
X234799462Y-131901542D01*
X234784504Y-132508329D01*
X234784503Y-132508329D01*
X234784504Y-132508330D01*
X234781195Y-132638231D01*
X234780896Y-132644232D01*
X234746909Y-133103095D01*
X234746886Y-133103400D01*
X234725129Y-133387627D01*
X234724551Y-133393404D01*
X234671754Y-133819698D01*
X234671690Y-133820204D01*
X234631609Y-134133277D01*
X234630772Y-134138816D01*
X234559326Y-134548848D01*
X234559202Y-134549550D01*
X234500871Y-134873291D01*
X234499798Y-134878581D01*
X234409837Y-135277505D01*
X234409632Y-135278399D01*
X234333250Y-135605800D01*
X234331964Y-135610833D01*
X234223678Y-136000446D01*
X234223373Y-136001525D01*
X234129172Y-136328958D01*
X234127696Y-136333725D01*
X234001310Y-136714621D01*
X234000887Y-136715875D01*
X233889149Y-137040972D01*
X233887505Y-137045469D01*
X233743308Y-137417605D01*
X233742748Y-137419027D01*
X233613787Y-137740045D01*
X233612000Y-137744265D01*
X233450252Y-138107478D01*
X233449536Y-138109056D01*
X233303786Y-138424418D01*
X233301879Y-138428360D01*
X233123005Y-138782031D01*
X233122118Y-138783752D01*
X232959910Y-139092410D01*
X232957905Y-139096073D01*
X232762285Y-139439689D01*
X232761211Y-139441539D01*
X232583041Y-139742314D01*
X232580961Y-139745699D01*
X232369010Y-140078692D01*
X232367734Y-140080656D01*
X232174173Y-140372437D01*
X232172042Y-140375546D01*
X231944175Y-140697363D01*
X231942682Y-140699426D01*
X231734247Y-140981340D01*
X231732086Y-140984176D01*
X231488882Y-141294066D01*
X231487161Y-141296211D01*
X231264470Y-141567360D01*
X231262301Y-141569928D01*
X231004211Y-141867361D01*
X231002249Y-141869569D01*
X230765980Y-142129096D01*
X230763825Y-142131404D01*
X230491408Y-142415745D01*
X230489194Y-142417997D01*
X230239996Y-142665183D01*
X230237874Y-142667238D01*
X229951807Y-142937784D01*
X229949334Y-142940060D01*
X229687965Y-143174158D01*
X229685896Y-143175971D01*
X229386655Y-143432258D01*
X229383914Y-143434538D01*
X229111196Y-143654840D01*
X229109199Y-143656419D01*
X228797443Y-143897846D01*
X228794429Y-143900108D01*
X228511234Y-144105961D01*
X228509325Y-144107321D01*
X228185643Y-144333381D01*
X228182350Y-144335603D01*
X227889571Y-144526426D01*
X227887769Y-144527579D01*
X227552770Y-144737777D01*
X227549196Y-144739937D01*
X227247802Y-144915188D01*
X227246121Y-144916147D01*
X226900423Y-145110004D01*
X226896565Y-145112079D01*
X226587681Y-145271221D01*
X226586137Y-145272003D01*
X226230233Y-145449128D01*
X226226092Y-145451094D01*
X225910898Y-145593677D01*
X225909502Y-145594298D01*
X225543867Y-145754300D01*
X225539445Y-145756135D01*
X225219479Y-145881670D01*
X225218244Y-145882146D01*
X224843055Y-146024744D01*
X224838354Y-146026424D01*
X224515249Y-146134557D01*
X224514185Y-146134907D01*
X224129554Y-146259778D01*
X224124581Y-146261279D01*
X223800814Y-146351588D01*
X223799931Y-146351830D01*
X223405177Y-146458803D01*
X223399936Y-146460102D01*
X223078864Y-146532267D01*
X223078168Y-146532421D01*
X222671709Y-146621325D01*
X222666210Y-146622398D01*
X222354796Y-146675903D01*
X222354295Y-146675988D01*
X221931018Y-146746926D01*
X221925271Y-146747752D01*
X221642287Y-146781651D01*
X221641983Y-146781687D01*
X221184889Y-146835301D01*
X221178907Y-146835856D01*
X221050731Y-146844624D01*
X221050729Y-146844623D01*
X221050730Y-146844624D01*
X220477786Y-146883339D01*
X220410906Y-146868943D01*
X218500462Y-145846286D01*
X218450903Y-145797750D01*
X218435167Y-145730190D01*
X218458179Y-145664751D01*
X218512737Y-145621910D01*
X218581764Y-145615075D01*
X218679671Y-145633377D01*
X218883621Y-145633377D01*
X218883623Y-145633377D01*
X219084103Y-145595901D01*
X219274284Y-145522225D01*
X219447688Y-145414858D01*
X219530801Y-145339091D01*
X219598410Y-145277457D01*
X219603149Y-145271182D01*
X219721320Y-145114698D01*
X219721320Y-145114696D01*
X219721322Y-145114695D01*
X219775711Y-145005466D01*
X219812229Y-144932127D01*
X219868044Y-144735960D01*
X219886862Y-144532877D01*
X219868044Y-144329794D01*
X219812229Y-144133627D01*
X219795485Y-144100000D01*
X219721322Y-143951058D01*
X219598410Y-143788296D01*
X219447688Y-143650895D01*
X219274285Y-143543529D01*
X219084104Y-143469853D01*
X219017276Y-143457361D01*
X218883623Y-143432377D01*
X218679671Y-143432377D01*
X218579431Y-143451114D01*
X218479189Y-143469853D01*
X218289010Y-143543528D01*
X218283328Y-143547047D01*
X218221754Y-143565563D01*
X218159186Y-143550754D01*
X218112445Y-143506602D01*
X218094099Y-143444978D01*
X218109080Y-143382450D01*
X218232062Y-143155945D01*
X218254847Y-143100566D01*
X218274971Y-142958196D01*
X218254170Y-142815935D01*
X218194131Y-142685289D01*
X218099718Y-142576854D01*
X218050441Y-142542813D01*
X217437178Y-142209839D01*
X217437177Y-142209839D01*
X216709034Y-143550915D01*
X216664851Y-143597474D01*
X216603307Y-143615705D01*
X216540893Y-143600720D01*
X216240424Y-143437579D01*
X216240417Y-143437573D01*
X215199818Y-142872576D01*
X215199817Y-142872576D01*
X214866841Y-143485842D01*
X214844056Y-143541221D01*
X214823192Y-143688832D01*
X214801269Y-143743615D01*
X214756509Y-143782063D01*
X214699046Y-143795469D01*
X214641892Y-143780800D01*
X214550785Y-143732030D01*
X214550632Y-143731905D01*
X214529225Y-143720444D01*
X214529157Y-143720438D01*
X214528878Y-143720410D01*
X214528816Y-143720403D01*
X214528496Y-143720667D01*
X214517072Y-143742011D01*
X214517014Y-143742201D01*
X212861972Y-146834020D01*
X212816366Y-146881878D01*
X212752650Y-146899500D01*
X210594764Y-146899500D01*
X210594558Y-146899459D01*
X210570002Y-146899459D01*
X210569811Y-146899538D01*
X210569623Y-146899615D01*
X210569619Y-146899618D01*
X210569463Y-146899999D01*
X210569480Y-146924616D01*
X210569475Y-146924616D01*
X210569504Y-146924760D01*
X210569504Y-147218616D01*
X210554862Y-147277069D01*
X210514395Y-147321718D01*
X210457658Y-147342019D01*
X210398052Y-147333177D01*
X210349651Y-147297281D01*
X210260883Y-147189117D01*
X210108538Y-147064090D01*
X210086091Y-147052091D01*
X209934726Y-146971185D01*
X209746133Y-146913976D01*
X209550000Y-146894659D01*
X209353866Y-146913976D01*
X209165273Y-146971185D01*
X208991463Y-147064089D01*
X208839117Y-147189117D01*
X208714089Y-147341463D01*
X208621185Y-147515273D01*
X208563976Y-147703866D01*
X208544659Y-147900000D01*
X208563976Y-148096133D01*
X208621185Y-148284726D01*
X208621186Y-148284727D01*
X208714090Y-148458538D01*
X208839117Y-148610883D01*
X208991462Y-148735910D01*
X209165273Y-148828814D01*
X209353868Y-148886024D01*
X209550000Y-148905341D01*
X209746132Y-148886024D01*
X209934727Y-148828814D01*
X210108538Y-148735910D01*
X210260883Y-148610883D01*
X210349651Y-148502718D01*
X210398052Y-148466823D01*
X210457658Y-148457981D01*
X210514395Y-148478282D01*
X210554862Y-148522931D01*
X210569504Y-148581384D01*
X210569504Y-151775500D01*
X210552891Y-151837500D01*
X210507504Y-151882887D01*
X210445504Y-151899500D01*
X205694504Y-151899500D01*
X205632504Y-151882887D01*
X205587117Y-151837500D01*
X205570504Y-151775500D01*
X205570504Y-148630134D01*
X205585146Y-148571681D01*
X205625613Y-148527032D01*
X205682349Y-148506731D01*
X205741956Y-148515573D01*
X205790354Y-148551466D01*
X205839117Y-148610883D01*
X205991462Y-148735910D01*
X206165273Y-148828814D01*
X206353868Y-148886024D01*
X206550000Y-148905341D01*
X206746132Y-148886024D01*
X206934727Y-148828814D01*
X207108538Y-148735910D01*
X207260883Y-148610883D01*
X207385910Y-148458538D01*
X207478814Y-148284727D01*
X207536024Y-148096132D01*
X207555341Y-147900000D01*
X207536024Y-147703868D01*
X207478814Y-147515273D01*
X207385910Y-147341462D01*
X207260883Y-147189117D01*
X207108538Y-147064090D01*
X207086091Y-147052091D01*
X206934726Y-146971185D01*
X206746133Y-146913976D01*
X206550000Y-146894659D01*
X206353866Y-146913976D01*
X206165273Y-146971185D01*
X205991463Y-147064089D01*
X205991461Y-147064090D01*
X205991462Y-147064090D01*
X205839117Y-147189117D01*
X205790354Y-147248533D01*
X205741956Y-147284427D01*
X205682349Y-147293269D01*
X205625613Y-147272968D01*
X205585146Y-147228319D01*
X205570504Y-147169866D01*
X205570504Y-146924760D01*
X205570532Y-146924616D01*
X205570528Y-146924616D01*
X205570543Y-146900002D01*
X205570545Y-146900000D01*
X205570466Y-146899808D01*
X205570388Y-146899618D01*
X205570384Y-146899614D01*
X205570198Y-146899538D01*
X205570006Y-146899459D01*
X205545450Y-146899459D01*
X205545244Y-146899500D01*
X202624000Y-146899500D01*
X202562000Y-146882887D01*
X202516613Y-146837500D01*
X202500000Y-146775500D01*
X202500000Y-146700000D01*
X196800000Y-146700000D01*
X196800000Y-146775500D01*
X196783387Y-146837500D01*
X196738000Y-146882887D01*
X196676000Y-146899500D01*
X194054755Y-146899500D01*
X194054549Y-146899459D01*
X194029993Y-146899459D01*
X194029802Y-146899538D01*
X194029614Y-146899615D01*
X194029610Y-146899618D01*
X194029454Y-146899999D01*
X194029471Y-146924616D01*
X194029466Y-146924616D01*
X194029495Y-146924760D01*
X194029495Y-147108941D01*
X194014853Y-147167394D01*
X193974385Y-147212044D01*
X193917648Y-147232344D01*
X193858041Y-147223502D01*
X193821005Y-147196033D01*
X193820323Y-147196865D01*
X193810884Y-147189119D01*
X193810883Y-147189117D01*
X193658538Y-147064090D01*
X193636091Y-147052091D01*
X193484726Y-146971185D01*
X193296133Y-146913976D01*
X193100000Y-146894659D01*
X192903866Y-146913976D01*
X192715273Y-146971185D01*
X192541463Y-147064089D01*
X192389117Y-147189117D01*
X192264089Y-147341463D01*
X192171185Y-147515273D01*
X192113976Y-147703866D01*
X192094659Y-147900000D01*
X192113976Y-148096133D01*
X192171185Y-148284726D01*
X192171186Y-148284727D01*
X192264090Y-148458538D01*
X192389117Y-148610883D01*
X192541462Y-148735910D01*
X192715273Y-148828814D01*
X192903868Y-148886024D01*
X193100000Y-148905341D01*
X193296132Y-148886024D01*
X193484727Y-148828814D01*
X193658538Y-148735910D01*
X193810883Y-148610883D01*
X193810885Y-148610880D01*
X193820323Y-148603135D01*
X193821005Y-148603966D01*
X193858041Y-148576498D01*
X193917648Y-148567656D01*
X193974385Y-148587956D01*
X194014853Y-148632606D01*
X194029495Y-148691059D01*
X194029495Y-151775500D01*
X194012882Y-151837500D01*
X193967495Y-151882887D01*
X193905495Y-151899500D01*
X189154495Y-151899500D01*
X189092495Y-151882887D01*
X189047108Y-151837500D01*
X189030495Y-151775500D01*
X189030495Y-148516548D01*
X189047516Y-148453846D01*
X189093906Y-148408358D01*
X189156930Y-148392572D01*
X189219285Y-148410821D01*
X189255794Y-148449546D01*
X189256342Y-148449097D01*
X189262876Y-148457059D01*
X189263853Y-148458095D01*
X189264090Y-148458538D01*
X189389117Y-148610883D01*
X189541462Y-148735910D01*
X189715273Y-148828814D01*
X189903868Y-148886024D01*
X190100000Y-148905341D01*
X190296132Y-148886024D01*
X190484727Y-148828814D01*
X190658538Y-148735910D01*
X190810883Y-148610883D01*
X190935910Y-148458538D01*
X191028814Y-148284727D01*
X191086024Y-148096132D01*
X191105341Y-147900000D01*
X191086024Y-147703868D01*
X191028814Y-147515273D01*
X190935910Y-147341462D01*
X190810883Y-147189117D01*
X190658538Y-147064090D01*
X190636091Y-147052091D01*
X190484726Y-146971185D01*
X190296133Y-146913976D01*
X190100000Y-146894659D01*
X189903866Y-146913976D01*
X189715273Y-146971185D01*
X189541463Y-147064089D01*
X189389117Y-147189117D01*
X189264089Y-147341463D01*
X189263853Y-147341905D01*
X189262876Y-147342940D01*
X189256342Y-147350903D01*
X189255794Y-147350453D01*
X189219285Y-147389179D01*
X189156930Y-147407428D01*
X189093906Y-147391642D01*
X189047516Y-147346154D01*
X189030495Y-147283452D01*
X189030495Y-146924760D01*
X189030523Y-146924616D01*
X189030519Y-146924616D01*
X189030534Y-146900002D01*
X189030536Y-146900000D01*
X189030457Y-146899808D01*
X189030379Y-146899618D01*
X189030375Y-146899614D01*
X189030189Y-146899538D01*
X189029997Y-146899459D01*
X189005441Y-146899459D01*
X189005235Y-146899500D01*
X186847349Y-146899500D01*
X186783633Y-146881878D01*
X186738027Y-146834020D01*
X185220982Y-144000000D01*
X199394353Y-144000000D01*
X199414834Y-144142457D01*
X199474623Y-144273374D01*
X199568049Y-144381193D01*
X199568872Y-144382143D01*
X199689947Y-144459953D01*
X199828039Y-144500500D01*
X199971961Y-144500500D01*
X200110053Y-144459953D01*
X200231128Y-144382143D01*
X200325377Y-144273373D01*
X200385165Y-144142457D01*
X200391269Y-144100000D01*
X207987353Y-144100000D01*
X208007834Y-144242457D01*
X208067623Y-144373374D01*
X208142644Y-144459953D01*
X208161872Y-144482143D01*
X208282947Y-144559953D01*
X208421039Y-144600500D01*
X208564961Y-144600500D01*
X208703053Y-144559953D01*
X208824128Y-144482143D01*
X208918377Y-144373373D01*
X208978165Y-144242457D01*
X208998647Y-144100000D01*
X208978165Y-143957543D01*
X208973133Y-143946527D01*
X208967158Y-143925102D01*
X208966724Y-143925237D01*
X208826043Y-143470680D01*
X208820500Y-143434019D01*
X208820500Y-142465981D01*
X208825461Y-142433167D01*
X215438397Y-142433167D01*
X216449036Y-142981898D01*
X216449037Y-142981898D01*
X216997768Y-141971260D01*
X216997768Y-141971259D01*
X216384503Y-141638283D01*
X216329124Y-141615498D01*
X216186754Y-141595374D01*
X216044493Y-141616175D01*
X215913847Y-141676214D01*
X215805413Y-141770626D01*
X215771371Y-141819906D01*
X215438397Y-142433167D01*
X208825461Y-142433167D01*
X208826043Y-142429320D01*
X208842762Y-142375298D01*
X208963333Y-141985718D01*
X208963333Y-141985714D01*
X208966723Y-141974762D01*
X208967157Y-141974896D01*
X208973133Y-141953474D01*
X208978165Y-141942457D01*
X208998647Y-141800000D01*
X208978165Y-141657543D01*
X208969369Y-141638283D01*
X208918376Y-141526625D01*
X208824129Y-141417858D01*
X208824128Y-141417857D01*
X208703053Y-141340047D01*
X208564961Y-141299500D01*
X208421039Y-141299500D01*
X208282947Y-141340047D01*
X208161870Y-141417858D01*
X208067623Y-141526625D01*
X208007834Y-141657542D01*
X207987353Y-141800000D01*
X208007835Y-141942459D01*
X208012863Y-141953469D01*
X208018842Y-141974899D01*
X208019276Y-141974765D01*
X208159957Y-142429320D01*
X208165500Y-142465981D01*
X208165500Y-143434017D01*
X208159956Y-143470678D01*
X208022666Y-143914282D01*
X208022665Y-143914286D01*
X208019277Y-143925235D01*
X208018843Y-143925100D01*
X208012866Y-143946526D01*
X208007834Y-143957542D01*
X207987353Y-144100000D01*
X200391269Y-144100000D01*
X200405647Y-144000000D01*
X200385165Y-143857543D01*
X200383015Y-143852835D01*
X200375861Y-143832761D01*
X200373370Y-143823255D01*
X200254550Y-143369895D01*
X200250500Y-143338463D01*
X200250500Y-142896544D01*
X200259939Y-142849091D01*
X200286819Y-142808863D01*
X201528328Y-141567354D01*
X202236633Y-140859049D01*
X226017164Y-140859049D01*
X226037406Y-140993337D01*
X226096326Y-141115687D01*
X226096328Y-141115690D01*
X226096329Y-141115691D01*
X226115830Y-141139229D01*
X227253234Y-142276633D01*
X227276772Y-142296134D01*
X227276773Y-142296134D01*
X227276775Y-142296136D01*
X227391510Y-142351389D01*
X227399127Y-142355057D01*
X227533414Y-142375298D01*
X227667701Y-142355057D01*
X227790056Y-142296134D01*
X227813594Y-142276633D01*
X228738866Y-141351361D01*
X228758367Y-141327823D01*
X228817290Y-141205468D01*
X228837531Y-141071181D01*
X228817290Y-140936894D01*
X228779802Y-140859049D01*
X228758369Y-140814542D01*
X228758367Y-140814539D01*
X228738866Y-140791001D01*
X227601462Y-139653597D01*
X227577924Y-139634096D01*
X227577923Y-139634095D01*
X227577920Y-139634093D01*
X227455570Y-139575173D01*
X227321281Y-139554931D01*
X227186993Y-139575173D01*
X227064643Y-139634093D01*
X227041095Y-139653603D01*
X226115836Y-140578862D01*
X226096326Y-140602410D01*
X226037406Y-140724760D01*
X226017164Y-140859049D01*
X202236633Y-140859049D01*
X204004399Y-139091282D01*
X228033466Y-139091282D01*
X228034077Y-139097481D01*
X228053748Y-139297214D01*
X228113817Y-139495237D01*
X228211364Y-139677732D01*
X228309743Y-139797608D01*
X228594854Y-140082719D01*
X228594858Y-140082722D01*
X228714731Y-140181099D01*
X228897226Y-140278646D01*
X229095247Y-140338714D01*
X229301181Y-140358997D01*
X229507115Y-140338714D01*
X229705136Y-140278646D01*
X229887631Y-140181099D01*
X230047591Y-140049824D01*
X230178866Y-139889864D01*
X230276413Y-139707369D01*
X230336481Y-139509348D01*
X230356764Y-139303414D01*
X230336481Y-139097480D01*
X230276413Y-138899459D01*
X230178866Y-138716964D01*
X230080963Y-138597668D01*
X230080486Y-138597087D01*
X229795375Y-138311976D01*
X229675499Y-138213597D01*
X229493004Y-138116050D01*
X229294981Y-138055981D01*
X229089049Y-138035699D01*
X228883116Y-138055981D01*
X228685093Y-138116050D01*
X228502598Y-138213597D01*
X228342638Y-138344871D01*
X228211364Y-138504831D01*
X228113817Y-138687326D01*
X228053748Y-138885349D01*
X228042710Y-138997423D01*
X228033466Y-139091282D01*
X204004399Y-139091282D01*
X205020681Y-138074999D01*
X218269353Y-138074999D01*
X218289834Y-138217457D01*
X218349623Y-138348374D01*
X218443870Y-138457141D01*
X218443872Y-138457143D01*
X218564947Y-138534953D01*
X218703039Y-138575500D01*
X218846961Y-138575500D01*
X218985053Y-138534953D01*
X219106128Y-138457143D01*
X219200377Y-138348373D01*
X219260165Y-138217457D01*
X219280647Y-138075000D01*
X219280084Y-138071090D01*
X219279269Y-138050918D01*
X219278980Y-138047077D01*
X219278981Y-138047070D01*
X219255367Y-137732740D01*
X219255446Y-137713176D01*
X219283737Y-137373695D01*
X219283736Y-137373684D01*
X219283811Y-137372790D01*
X219284834Y-137349647D01*
X219285647Y-137344000D01*
X219284834Y-137338352D01*
X219283811Y-137315208D01*
X219283736Y-137314313D01*
X219283737Y-137314304D01*
X219235684Y-136737662D01*
X219234964Y-136735050D01*
X219230500Y-136702080D01*
X219230500Y-133231920D01*
X219234964Y-133198950D01*
X219235683Y-133196342D01*
X219235683Y-133196341D01*
X219235684Y-133196338D01*
X219283737Y-132619695D01*
X219283736Y-132619685D01*
X219283811Y-132618792D01*
X219284834Y-132595647D01*
X219285647Y-132590000D01*
X219284834Y-132584352D01*
X219283811Y-132561208D01*
X219283736Y-132560313D01*
X219283737Y-132560304D01*
X219235684Y-131983662D01*
X219234964Y-131981050D01*
X219230500Y-131948080D01*
X219230500Y-131254920D01*
X219234964Y-131221950D01*
X219235683Y-131219343D01*
X219235683Y-131219341D01*
X219235684Y-131219338D01*
X219236108Y-131214239D01*
X219257313Y-131154559D01*
X219305225Y-131113134D01*
X219367344Y-131100774D01*
X219424915Y-131104340D01*
X219468382Y-131101119D01*
X219472165Y-131100839D01*
X219481327Y-131100500D01*
X219521961Y-131100500D01*
X219660053Y-131059953D01*
X219781128Y-130982143D01*
X219875377Y-130873373D01*
X219935165Y-130742457D01*
X219955647Y-130600000D01*
X219935165Y-130457543D01*
X219875377Y-130326627D01*
X219875376Y-130326626D01*
X219875376Y-130326625D01*
X219781129Y-130217858D01*
X219781128Y-130217857D01*
X219660053Y-130140047D01*
X219521961Y-130099500D01*
X219486558Y-130099500D01*
X219481275Y-130099040D01*
X219481268Y-130099245D01*
X219472621Y-130098948D01*
X219472620Y-130098948D01*
X219463651Y-130098640D01*
X219415566Y-130096990D01*
X219399698Y-130098664D01*
X219398259Y-130098816D01*
X219385255Y-130099500D01*
X219376554Y-130099500D01*
X219359178Y-130102937D01*
X219094770Y-130130820D01*
X219071468Y-130131076D01*
X218865864Y-130113942D01*
X218858129Y-130112500D01*
X218853710Y-130112500D01*
X218843414Y-130112072D01*
X218834982Y-130111369D01*
X218809693Y-130109262D01*
X218809691Y-130109262D01*
X218753655Y-130112316D01*
X218746907Y-130112500D01*
X218708039Y-130112500D01*
X218569947Y-130153047D01*
X218448870Y-130230858D01*
X218354623Y-130339625D01*
X218294834Y-130470542D01*
X218274353Y-130612998D01*
X218275165Y-130618649D01*
X218276190Y-130641840D01*
X218294762Y-130864696D01*
X218324316Y-131219338D01*
X218324316Y-131219341D01*
X218324317Y-131219343D01*
X218325036Y-131221950D01*
X218329500Y-131254920D01*
X218329500Y-131948080D01*
X218325036Y-131981050D01*
X218324317Y-131983656D01*
X218324316Y-131983659D01*
X218324316Y-131983662D01*
X218301870Y-132253008D01*
X218276190Y-132561163D01*
X218275166Y-132584339D01*
X218274352Y-132589998D01*
X218275165Y-132595650D01*
X218276191Y-132618842D01*
X218276262Y-132619694D01*
X218276262Y-132619695D01*
X218324316Y-133196338D01*
X218324316Y-133196341D01*
X218324317Y-133196343D01*
X218325036Y-133198950D01*
X218329500Y-133231920D01*
X218329500Y-136702080D01*
X218325036Y-136735050D01*
X218324317Y-136737656D01*
X218324316Y-136737659D01*
X218324316Y-136737662D01*
X218304709Y-136972943D01*
X218276190Y-137315163D01*
X218275166Y-137338339D01*
X218274352Y-137343998D01*
X218275165Y-137349650D01*
X218276191Y-137372842D01*
X218302368Y-137686965D01*
X218302277Y-137708601D01*
X218271528Y-138043492D01*
X218271556Y-138044082D01*
X218270430Y-138067507D01*
X218269353Y-138074999D01*
X205020681Y-138074999D01*
X205280062Y-137815618D01*
X205305149Y-137796259D01*
X205695459Y-137568053D01*
X205701505Y-137565445D01*
X205710048Y-137559954D01*
X205710053Y-137559953D01*
X205831128Y-137482143D01*
X205925377Y-137373373D01*
X205985165Y-137242457D01*
X206005647Y-137100000D01*
X205985165Y-136957543D01*
X205961236Y-136905147D01*
X205925376Y-136826625D01*
X205831129Y-136717858D01*
X205831128Y-136717857D01*
X205710053Y-136640047D01*
X205571961Y-136599500D01*
X205428039Y-136599500D01*
X205289947Y-136640047D01*
X205168870Y-136717858D01*
X205074623Y-136826625D01*
X205058836Y-136861193D01*
X205040435Y-136890018D01*
X204803746Y-137294841D01*
X204784381Y-137319935D01*
X199686955Y-142417361D01*
X199667104Y-142433483D01*
X199659332Y-142438561D01*
X199641500Y-142461471D01*
X199631765Y-142472496D01*
X199620441Y-142488357D01*
X199617392Y-142492445D01*
X199600954Y-142513566D01*
X199582891Y-142536773D01*
X199566871Y-142590582D01*
X199565309Y-142595458D01*
X199547074Y-142648577D01*
X199549394Y-142704668D01*
X199549500Y-142709792D01*
X199549500Y-143338462D01*
X199545449Y-143369894D01*
X199470355Y-143656419D01*
X199424135Y-143832769D01*
X199416983Y-143852837D01*
X199414835Y-143857540D01*
X199394353Y-144000000D01*
X185220982Y-144000000D01*
X185077329Y-143731640D01*
X185077126Y-143731261D01*
X185071503Y-143720670D01*
X185071503Y-143720668D01*
X185071220Y-143720435D01*
X185071182Y-143720404D01*
X185071176Y-143720402D01*
X185070772Y-143720445D01*
X185050032Y-143731478D01*
X185049624Y-143731810D01*
X183765987Y-144418938D01*
X183708604Y-144433611D01*
X183650962Y-144419993D01*
X183606211Y-144381193D01*
X183584562Y-144326062D01*
X183590955Y-144267179D01*
X183623928Y-144217980D01*
X183702464Y-144146386D01*
X183825373Y-143983628D01*
X183825373Y-143983626D01*
X183825375Y-143983625D01*
X183900153Y-143833448D01*
X183916282Y-143801057D01*
X183972097Y-143604890D01*
X183990915Y-143401807D01*
X183972215Y-143200000D01*
X190080353Y-143200000D01*
X190100834Y-143342457D01*
X190160623Y-143473374D01*
X190209078Y-143529294D01*
X190254872Y-143582143D01*
X190375947Y-143659953D01*
X190514039Y-143700500D01*
X190657961Y-143700500D01*
X190796053Y-143659953D01*
X190917128Y-143582143D01*
X191011377Y-143473373D01*
X191071165Y-143342457D01*
X191091647Y-143200000D01*
X191071165Y-143057543D01*
X191066133Y-143046527D01*
X191060158Y-143025102D01*
X191059724Y-143025237D01*
X190919043Y-142570680D01*
X190913500Y-142534019D01*
X190913500Y-141184981D01*
X190919043Y-141148320D01*
X190964988Y-140999866D01*
X191056333Y-140704718D01*
X191056333Y-140704714D01*
X191059723Y-140693762D01*
X191060157Y-140693896D01*
X191066133Y-140672474D01*
X191071165Y-140661457D01*
X191091647Y-140519000D01*
X191071165Y-140376543D01*
X191069282Y-140372420D01*
X191011376Y-140245625D01*
X190917129Y-140136858D01*
X190917128Y-140136857D01*
X190796053Y-140059047D01*
X190657961Y-140018500D01*
X190514039Y-140018500D01*
X190375947Y-140059047D01*
X190254870Y-140136858D01*
X190160623Y-140245625D01*
X190100834Y-140376542D01*
X190080353Y-140518999D01*
X190080353Y-140519000D01*
X190083720Y-140542416D01*
X190100835Y-140661459D01*
X190105863Y-140672469D01*
X190111842Y-140693899D01*
X190112276Y-140693765D01*
X190252957Y-141148320D01*
X190258500Y-141184981D01*
X190258500Y-142534017D01*
X190252956Y-142570678D01*
X190115666Y-143014282D01*
X190115665Y-143014286D01*
X190112277Y-143025235D01*
X190111843Y-143025100D01*
X190105866Y-143046526D01*
X190100834Y-143057542D01*
X190080353Y-143200000D01*
X183972215Y-143200000D01*
X183972097Y-143198724D01*
X183916282Y-143002557D01*
X183905995Y-142981898D01*
X183825375Y-142819988D01*
X183702463Y-142657226D01*
X183551741Y-142519825D01*
X183378338Y-142412459D01*
X183188157Y-142338783D01*
X183121329Y-142326291D01*
X182987676Y-142301307D01*
X182783724Y-142301307D01*
X182683484Y-142320044D01*
X182583242Y-142338783D01*
X182393061Y-142412459D01*
X182219658Y-142519825D01*
X182068936Y-142657226D01*
X181946024Y-142819988D01*
X181855118Y-143002555D01*
X181799302Y-143198723D01*
X181790161Y-143297379D01*
X181768838Y-143356235D01*
X181721482Y-143397176D01*
X181660162Y-143409766D01*
X181600506Y-143390798D01*
X181557717Y-143345106D01*
X181431585Y-143112800D01*
X181397544Y-143063523D01*
X181289109Y-142969110D01*
X181158463Y-142909071D01*
X181016202Y-142888270D01*
X180873832Y-142908394D01*
X180818453Y-142931179D01*
X180205187Y-143264155D01*
X180205187Y-143264156D01*
X180753919Y-144274796D01*
X180933331Y-144605231D01*
X180948316Y-144667645D01*
X180930085Y-144729189D01*
X180883526Y-144773372D01*
X179542450Y-145501515D01*
X179542450Y-145501516D01*
X179875424Y-146114779D01*
X179909465Y-146164056D01*
X180000996Y-146243751D01*
X180035134Y-146292316D01*
X180042787Y-146351184D01*
X180022199Y-146406863D01*
X179978090Y-146446592D01*
X179189093Y-146868942D01*
X179122213Y-146883338D01*
X178549346Y-146844628D01*
X178421110Y-146835857D01*
X178415126Y-146835302D01*
X177957353Y-146781609D01*
X177957049Y-146781573D01*
X177674774Y-146747759D01*
X177669027Y-146746933D01*
X177245337Y-146675926D01*
X177244835Y-146675841D01*
X176933807Y-146622401D01*
X176928309Y-146621328D01*
X176521538Y-146532355D01*
X176520842Y-146532201D01*
X176200113Y-146460114D01*
X176194872Y-146458815D01*
X175799859Y-146351772D01*
X175798976Y-146351530D01*
X175475432Y-146261283D01*
X175470459Y-146259782D01*
X175085745Y-146134885D01*
X175084680Y-146134534D01*
X174761644Y-146026423D01*
X174756955Y-146024749D01*
X174381710Y-145882130D01*
X174380498Y-145881662D01*
X174060583Y-145756147D01*
X174056161Y-145754312D01*
X173690387Y-145594249D01*
X173688991Y-145593628D01*
X173373938Y-145451110D01*
X173369797Y-145449144D01*
X173013784Y-145271964D01*
X173012240Y-145271182D01*
X172703469Y-145112098D01*
X172699611Y-145110023D01*
X172353817Y-144916111D01*
X172352137Y-144915152D01*
X172050834Y-144739955D01*
X172047259Y-144737795D01*
X172047230Y-144737777D01*
X171828447Y-144600500D01*
X171712148Y-144527527D01*
X171710346Y-144526374D01*
X171497485Y-144387639D01*
X171417668Y-144335617D01*
X171414415Y-144333422D01*
X171296532Y-144251092D01*
X178927985Y-144251092D01*
X178948109Y-144393462D01*
X178970894Y-144448841D01*
X179303870Y-145062106D01*
X179303871Y-145062106D01*
X180314509Y-144513375D01*
X180314509Y-144513374D01*
X179765778Y-143502735D01*
X179152517Y-143835709D01*
X179103237Y-143869751D01*
X179008825Y-143978185D01*
X178948786Y-144108831D01*
X178927985Y-144251092D01*
X171296532Y-144251092D01*
X171090590Y-144107262D01*
X171088691Y-144105908D01*
X170805606Y-143900135D01*
X170802591Y-143897873D01*
X170490767Y-143656393D01*
X170488770Y-143654814D01*
X170216104Y-143434554D01*
X170213363Y-143432274D01*
X169914078Y-143175949D01*
X169912009Y-143174136D01*
X169650693Y-142940085D01*
X169648220Y-142937809D01*
X169407121Y-142709792D01*
X169362055Y-142667171D01*
X169359975Y-142665156D01*
X169227768Y-142534017D01*
X169110822Y-142418015D01*
X169108609Y-142415763D01*
X168993996Y-142296134D01*
X168836103Y-142131331D01*
X168834058Y-142129141D01*
X168597750Y-141869569D01*
X168595812Y-141867388D01*
X168337693Y-141569922D01*
X168335524Y-141567354D01*
X168112853Y-141296230D01*
X168111132Y-141294085D01*
X168008908Y-141163831D01*
X167885092Y-141006065D01*
X170738351Y-141006065D01*
X170758633Y-141211998D01*
X170818702Y-141410021D01*
X170916249Y-141592516D01*
X171047523Y-141752476D01*
X171129688Y-141819906D01*
X171207484Y-141883751D01*
X171389979Y-141981298D01*
X171588000Y-142041366D01*
X171793934Y-142061649D01*
X171999868Y-142041366D01*
X172197889Y-141981298D01*
X172380384Y-141883751D01*
X172500257Y-141785374D01*
X172785374Y-141500257D01*
X172883751Y-141380384D01*
X172981298Y-141197889D01*
X173041366Y-140999868D01*
X173061649Y-140793934D01*
X173041366Y-140588000D01*
X172981298Y-140389979D01*
X172883751Y-140207484D01*
X172825790Y-140136858D01*
X172752476Y-140047523D01*
X172592516Y-139916249D01*
X172410021Y-139818702D01*
X172211998Y-139758633D01*
X172006066Y-139738351D01*
X171800133Y-139758633D01*
X171602110Y-139818702D01*
X171419615Y-139916249D01*
X171299739Y-140014628D01*
X171014628Y-140299739D01*
X170916249Y-140419615D01*
X170818702Y-140602110D01*
X170758633Y-140800133D01*
X170738351Y-141006065D01*
X167885092Y-141006065D01*
X167867861Y-140984110D01*
X167865749Y-140981338D01*
X167657316Y-140699426D01*
X167655869Y-140697427D01*
X167427945Y-140375529D01*
X167425814Y-140372420D01*
X167269547Y-140136858D01*
X167232264Y-140080656D01*
X167231090Y-140078850D01*
X167018970Y-139745590D01*
X167016927Y-139742264D01*
X166996256Y-139707369D01*
X166870596Y-139495237D01*
X166838836Y-139441621D01*
X166837762Y-139439771D01*
X166760133Y-139303413D01*
X166723064Y-139238299D01*
X168722049Y-139238299D01*
X168742291Y-139372587D01*
X168801211Y-139494937D01*
X168801213Y-139494940D01*
X168801214Y-139494941D01*
X168820715Y-139518479D01*
X169745987Y-140443751D01*
X169769525Y-140463252D01*
X169769526Y-140463252D01*
X169769528Y-140463254D01*
X169884263Y-140518507D01*
X169891880Y-140522175D01*
X170002332Y-140538823D01*
X170026166Y-140542416D01*
X170026166Y-140542415D01*
X170026167Y-140542416D01*
X170160454Y-140522175D01*
X170282809Y-140463252D01*
X170306347Y-140443751D01*
X171443751Y-139306347D01*
X171463252Y-139282809D01*
X171522175Y-139160454D01*
X171542416Y-139026167D01*
X171522175Y-138891880D01*
X171518507Y-138884263D01*
X171463254Y-138769528D01*
X171463252Y-138769525D01*
X171443751Y-138745987D01*
X170532439Y-137834675D01*
X198095747Y-137834675D01*
X198104225Y-138055844D01*
X198105749Y-138095593D01*
X198152713Y-138337754D01*
X198155463Y-138351930D01*
X198243719Y-138597664D01*
X198368460Y-138827060D01*
X198526749Y-139034715D01*
X198714887Y-139215779D01*
X198868261Y-139323659D01*
X198928456Y-139365999D01*
X199162452Y-139481858D01*
X199162453Y-139481859D01*
X199411391Y-139560640D01*
X199411392Y-139560640D01*
X199411395Y-139560641D01*
X199669445Y-139600500D01*
X199865177Y-139600500D01*
X199865179Y-139600500D01*
X199889536Y-139598629D01*
X200060344Y-139585516D01*
X200314586Y-139526021D01*
X200461384Y-139466856D01*
X200556762Y-139428416D01*
X200556764Y-139428414D01*
X200556766Y-139428414D01*
X200781208Y-139294982D01*
X200982652Y-139128852D01*
X201156375Y-138933920D01*
X201298306Y-138714753D01*
X201378909Y-138534953D01*
X201405118Y-138476490D01*
X201474306Y-138224716D01*
X201474307Y-138224713D01*
X201504252Y-137965325D01*
X201494251Y-137704407D01*
X201444538Y-137448073D01*
X201356279Y-137202332D01*
X201258627Y-137022754D01*
X201231539Y-136972939D01*
X201073250Y-136765284D01*
X200885112Y-136584220D01*
X200671546Y-136434002D01*
X200437546Y-136318140D01*
X200188608Y-136239359D01*
X200015242Y-136212581D01*
X199930555Y-136199500D01*
X199734823Y-136199500D01*
X199734821Y-136199500D01*
X199539656Y-136214484D01*
X199285412Y-136273979D01*
X199043237Y-136371583D01*
X198818791Y-136505017D01*
X198617346Y-136671148D01*
X198443622Y-136866082D01*
X198301693Y-137085247D01*
X198194881Y-137323509D01*
X198125693Y-137575283D01*
X198095747Y-137834675D01*
X170532439Y-137834675D01*
X170518479Y-137820715D01*
X170494941Y-137801214D01*
X170494940Y-137801213D01*
X170494937Y-137801211D01*
X170372587Y-137742291D01*
X170238298Y-137722049D01*
X170104010Y-137742291D01*
X169981660Y-137801211D01*
X169958112Y-137820721D01*
X168820721Y-138958112D01*
X168801211Y-138981660D01*
X168742291Y-139104010D01*
X168722049Y-139238299D01*
X166723064Y-139238299D01*
X166642048Y-139095991D01*
X166640088Y-139092410D01*
X166477846Y-138783686D01*
X166477137Y-138782310D01*
X166298096Y-138428311D01*
X166296194Y-138424378D01*
X166262711Y-138351930D01*
X166150453Y-138109036D01*
X166149793Y-138107581D01*
X165987956Y-137744167D01*
X165986230Y-137740091D01*
X165857234Y-137418987D01*
X165856792Y-137417865D01*
X165712477Y-137045424D01*
X165710862Y-137041008D01*
X165599068Y-136715750D01*
X165598771Y-136714869D01*
X165472279Y-136333653D01*
X165470842Y-136329015D01*
X165376618Y-136001499D01*
X165376377Y-136000645D01*
X165268011Y-135610747D01*
X165266748Y-135605800D01*
X165190367Y-135278399D01*
X165190200Y-135277671D01*
X165172897Y-135200942D01*
X165100191Y-134878541D01*
X165099127Y-134873291D01*
X165040760Y-134549349D01*
X164969220Y-134138779D01*
X164968395Y-134133319D01*
X164928288Y-133820040D01*
X164875439Y-133393327D01*
X164874872Y-133387661D01*
X164853130Y-133103624D01*
X164819099Y-132644176D01*
X164818805Y-132638283D01*
X164815496Y-132508329D01*
X164800538Y-131901476D01*
X164800500Y-131898421D01*
X164800500Y-119329999D01*
X170554353Y-119329999D01*
X170574834Y-119472457D01*
X170634623Y-119603374D01*
X170728869Y-119712141D01*
X170728871Y-119712142D01*
X170728872Y-119712143D01*
X170849947Y-119789953D01*
X170849951Y-119789954D01*
X170854294Y-119792745D01*
X170863944Y-119796669D01*
X171015510Y-119876895D01*
X171063729Y-119922525D01*
X171081500Y-119986489D01*
X171081500Y-126391017D01*
X171075956Y-126427678D01*
X170938666Y-126871282D01*
X170938665Y-126871286D01*
X170935277Y-126882235D01*
X170934843Y-126882100D01*
X170928866Y-126903526D01*
X170923834Y-126914542D01*
X170903353Y-127057000D01*
X170923834Y-127199457D01*
X170983623Y-127330374D01*
X171073416Y-127434001D01*
X171077872Y-127439143D01*
X171198947Y-127516953D01*
X171337039Y-127557500D01*
X171480961Y-127557500D01*
X171619053Y-127516953D01*
X171740128Y-127439143D01*
X171834377Y-127330373D01*
X171894165Y-127199457D01*
X171914647Y-127057000D01*
X171894165Y-126914543D01*
X171889133Y-126903527D01*
X171883158Y-126882102D01*
X171882724Y-126882237D01*
X171742043Y-126427680D01*
X171736500Y-126391019D01*
X171736500Y-124426500D01*
X179923348Y-124426500D01*
X179943829Y-124568957D01*
X180003618Y-124699874D01*
X180097865Y-124808641D01*
X180097867Y-124808643D01*
X180218942Y-124886453D01*
X180357034Y-124927000D01*
X180500956Y-124927000D01*
X180639048Y-124886453D01*
X180760123Y-124808643D01*
X180778285Y-124787682D01*
X180820484Y-124756092D01*
X180871996Y-124744886D01*
X180923508Y-124756092D01*
X180965710Y-124787684D01*
X180983869Y-124808641D01*
X180983871Y-124808642D01*
X180983872Y-124808643D01*
X181104947Y-124886453D01*
X181243039Y-124927000D01*
X181386961Y-124927000D01*
X181525053Y-124886453D01*
X181646128Y-124808643D01*
X181740377Y-124699873D01*
X181800165Y-124568957D01*
X181820647Y-124426500D01*
X181800165Y-124284043D01*
X181795133Y-124273027D01*
X181789158Y-124251602D01*
X181788724Y-124251737D01*
X181648043Y-123797180D01*
X181642500Y-123760519D01*
X181642500Y-113625981D01*
X181648043Y-113589320D01*
X181688387Y-113458962D01*
X181785333Y-113145718D01*
X181785333Y-113145714D01*
X181788723Y-113134762D01*
X181789157Y-113134896D01*
X181795133Y-113113474D01*
X181800165Y-113102457D01*
X181820647Y-112960000D01*
X181800165Y-112817543D01*
X181799738Y-112816609D01*
X181740376Y-112686625D01*
X181646129Y-112577858D01*
X181646128Y-112577857D01*
X181525053Y-112500047D01*
X181386961Y-112459500D01*
X181243039Y-112459500D01*
X181174727Y-112479558D01*
X181116325Y-112482339D01*
X181063141Y-112458051D01*
X181026999Y-112412092D01*
X180978376Y-112305625D01*
X180884129Y-112196858D01*
X180884128Y-112196857D01*
X180763053Y-112119047D01*
X180624961Y-112078500D01*
X180481039Y-112078500D01*
X180342947Y-112119047D01*
X180221870Y-112196858D01*
X180127623Y-112305625D01*
X180067834Y-112436542D01*
X180047353Y-112579000D01*
X180067835Y-112721459D01*
X180072863Y-112732469D01*
X180078842Y-112753899D01*
X180079276Y-112753765D01*
X180219957Y-113208320D01*
X180225500Y-113244981D01*
X180225500Y-123755768D01*
X180207783Y-123819642D01*
X180021392Y-124129790D01*
X180008829Y-124147111D01*
X180003616Y-124153127D01*
X179994643Y-124172775D01*
X179988139Y-124185125D01*
X179982664Y-124194236D01*
X179958048Y-124252772D01*
X179956539Y-124256213D01*
X179943829Y-124284042D01*
X179923348Y-124426500D01*
X171736500Y-124426500D01*
X171736500Y-119698714D01*
X171736972Y-119687906D01*
X171740287Y-119650016D01*
X171730443Y-119613281D01*
X171728102Y-119602719D01*
X171721320Y-119564254D01*
X171710981Y-119539295D01*
X171710395Y-119538458D01*
X171710395Y-119538457D01*
X171688574Y-119507295D01*
X171682763Y-119498173D01*
X171663750Y-119465240D01*
X171659576Y-119461738D01*
X171659125Y-119461359D01*
X171621745Y-119407196D01*
X171596436Y-119334612D01*
X171549265Y-119199329D01*
X171547833Y-119193360D01*
X171547579Y-119192806D01*
X171543193Y-119181915D01*
X171535272Y-119159198D01*
X171535272Y-119159197D01*
X171510086Y-119109734D01*
X171510083Y-119109730D01*
X171506858Y-119103396D01*
X171504576Y-119098668D01*
X171485377Y-119056627D01*
X171485375Y-119056625D01*
X171485375Y-119056624D01*
X171391129Y-118947858D01*
X171391128Y-118947857D01*
X171270053Y-118870047D01*
X171131961Y-118829500D01*
X170988039Y-118829500D01*
X170849947Y-118870047D01*
X170728870Y-118947858D01*
X170634623Y-119056625D01*
X170574834Y-119187542D01*
X170554353Y-119329999D01*
X164800500Y-119329999D01*
X164800500Y-118995916D01*
X164800553Y-118995645D01*
X164800541Y-118971062D01*
X164800542Y-118971060D01*
X164800538Y-118971051D01*
X164800530Y-118971030D01*
X164800385Y-118970680D01*
X164800383Y-118970678D01*
X164800383Y-118970677D01*
X164800381Y-118970676D01*
X164783339Y-118953548D01*
X164782904Y-118953257D01*
X159985805Y-114156157D01*
X159976989Y-114140856D01*
X159962138Y-114132239D01*
X159962137Y-114132239D01*
X159961210Y-114131701D01*
X159952118Y-114134606D01*
X159358714Y-114273944D01*
X159351139Y-114275475D01*
X158744365Y-114378569D01*
X158736709Y-114379625D01*
X158219221Y-114434668D01*
X158218988Y-114434693D01*
X158121520Y-114444874D01*
X158114047Y-114445427D01*
X157651541Y-114465620D01*
X157651215Y-114465634D01*
X157495194Y-114472035D01*
X157487792Y-114472117D01*
X157057242Y-114464065D01*
X157056824Y-114464057D01*
X156868423Y-114459897D01*
X156861123Y-114459520D01*
X156452176Y-114426309D01*
X156451665Y-114426267D01*
X156243657Y-114408509D01*
X156236489Y-114407686D01*
X155844353Y-114351079D01*
X155843753Y-114350991D01*
X155623325Y-114318070D01*
X155616314Y-114316816D01*
X155238569Y-114238000D01*
X155237886Y-114237855D01*
X155009908Y-114188946D01*
X155003078Y-114187277D01*
X154638598Y-114087175D01*
X154637836Y-114086963D01*
X154405790Y-114021638D01*
X154399167Y-114019572D01*
X154047598Y-113899006D01*
X154046763Y-113898717D01*
X153813352Y-113816807D01*
X153806959Y-113814363D01*
X153468027Y-113673972D01*
X153467126Y-113673594D01*
X153234943Y-113575269D01*
X153228800Y-113572469D01*
X152902977Y-113413052D01*
X152902017Y-113412577D01*
X152672764Y-113297944D01*
X152666892Y-113294808D01*
X152425682Y-113157543D01*
X152354607Y-113117096D01*
X152353660Y-113116551D01*
X152307505Y-113089709D01*
X152129098Y-112985954D01*
X152123553Y-112982530D01*
X151825391Y-112787312D01*
X151824361Y-112786630D01*
X151606064Y-112640519D01*
X151600782Y-112636780D01*
X151317468Y-112424944D01*
X151316391Y-112424130D01*
X151105702Y-112262989D01*
X151100737Y-112258985D01*
X151022772Y-112192732D01*
X150832698Y-112031211D01*
X150831834Y-112030469D01*
X150629983Y-111854854D01*
X150625360Y-111850620D01*
X150373442Y-111607952D01*
X150372407Y-111606943D01*
X150180797Y-111417735D01*
X150176518Y-111413294D01*
X149941294Y-111156592D01*
X149940201Y-111155383D01*
X149759881Y-110953329D01*
X149755934Y-110948681D01*
X149603901Y-110760458D01*
X149538095Y-110678987D01*
X149537054Y-110677680D01*
X149534164Y-110673999D01*
X149368875Y-110463443D01*
X149365283Y-110458630D01*
X149263806Y-110315612D01*
X149165418Y-110176947D01*
X149164468Y-110175588D01*
X149076222Y-110047276D01*
X149009370Y-109950070D01*
X149006137Y-109945120D01*
X148824821Y-109652525D01*
X148823828Y-109650895D01*
X148724929Y-109485671D01*
X148682722Y-109415158D01*
X148679873Y-109410135D01*
X148517554Y-109107591D01*
X148516673Y-109105916D01*
X148390246Y-108860853D01*
X148387749Y-108855727D01*
X148362185Y-108800000D01*
X148245019Y-108544592D01*
X148244176Y-108542713D01*
X148133063Y-108289287D01*
X148130949Y-108284153D01*
X148008143Y-107965417D01*
X148007396Y-107963424D01*
X148004917Y-107956634D01*
X147912225Y-107702797D01*
X147910463Y-107697616D01*
X147847839Y-107498999D01*
X162521353Y-107498999D01*
X162541834Y-107641457D01*
X162601623Y-107772374D01*
X162695872Y-107881144D01*
X162821175Y-107961671D01*
X162830912Y-107965621D01*
X163014552Y-108062457D01*
X163236498Y-108179491D01*
X163266341Y-108201495D01*
X163411352Y-108346506D01*
X163443253Y-108401381D01*
X163443819Y-108464853D01*
X163412903Y-108520289D01*
X163358606Y-108553164D01*
X163324947Y-108563046D01*
X163203870Y-108640858D01*
X163109623Y-108749625D01*
X163049834Y-108880542D01*
X163029353Y-109023000D01*
X163049834Y-109165457D01*
X163109623Y-109296374D01*
X163203872Y-109405144D01*
X163329175Y-109485671D01*
X163338912Y-109489621D01*
X163476361Y-109562100D01*
X163744498Y-109703491D01*
X163774341Y-109725495D01*
X164046352Y-109997506D01*
X164078253Y-110052381D01*
X164078819Y-110115853D01*
X164047903Y-110171289D01*
X163993606Y-110204164D01*
X163959947Y-110214046D01*
X163838870Y-110291858D01*
X163744623Y-110400625D01*
X163684834Y-110531542D01*
X163664353Y-110673999D01*
X163684834Y-110816457D01*
X163744623Y-110947374D01*
X163838872Y-111056144D01*
X163964175Y-111136671D01*
X163973912Y-111140621D01*
X164310024Y-111317857D01*
X164379498Y-111354491D01*
X164409341Y-111376495D01*
X173881502Y-120848656D01*
X173903506Y-120878499D01*
X174120102Y-121289254D01*
X174123973Y-121294144D01*
X174139541Y-121319593D01*
X174158622Y-121361373D01*
X174237547Y-121452457D01*
X174252872Y-121470143D01*
X174373947Y-121547953D01*
X174512039Y-121588500D01*
X174655961Y-121588500D01*
X174794053Y-121547953D01*
X174915128Y-121470143D01*
X175009377Y-121361373D01*
X175069165Y-121230457D01*
X175089647Y-121088000D01*
X175069165Y-120945543D01*
X175050108Y-120903815D01*
X175009376Y-120814625D01*
X174915130Y-120705858D01*
X174881609Y-120684316D01*
X174839816Y-120639427D01*
X174824648Y-120580000D01*
X174839816Y-120520573D01*
X174881609Y-120475684D01*
X174913072Y-120455464D01*
X174915128Y-120454143D01*
X174998287Y-120358170D01*
X175040488Y-120326580D01*
X175092000Y-120315374D01*
X175143512Y-120326580D01*
X175185712Y-120358170D01*
X175268872Y-120454143D01*
X175389947Y-120531953D01*
X175528039Y-120572500D01*
X175671961Y-120572500D01*
X175810053Y-120531953D01*
X175931128Y-120454143D01*
X176025377Y-120345373D01*
X176085165Y-120214457D01*
X176105647Y-120072000D01*
X176085165Y-119929543D01*
X176079258Y-119916609D01*
X176026004Y-119800000D01*
X176025377Y-119798627D01*
X176025376Y-119798626D01*
X176025376Y-119798625D01*
X175931129Y-119689858D01*
X175931128Y-119689857D01*
X175810053Y-119612047D01*
X175810052Y-119612046D01*
X175805825Y-119609330D01*
X175796099Y-119605383D01*
X175554041Y-119477744D01*
X175390501Y-119391507D01*
X175360658Y-119369503D01*
X163729495Y-107738341D01*
X163707491Y-107708498D01*
X163672667Y-107642457D01*
X163490898Y-107297747D01*
X163490895Y-107297743D01*
X163487028Y-107292858D01*
X163471456Y-107267404D01*
X163455844Y-107233219D01*
X163452377Y-107225627D01*
X163358128Y-107116857D01*
X163358127Y-107116856D01*
X163296020Y-107076943D01*
X163237053Y-107039047D01*
X163098961Y-106998500D01*
X162955039Y-106998500D01*
X162816947Y-107039047D01*
X162695870Y-107116858D01*
X162601623Y-107225625D01*
X162541834Y-107356542D01*
X162521353Y-107498999D01*
X147847839Y-107498999D01*
X147807954Y-107372501D01*
X147807348Y-107370514D01*
X147728554Y-107103584D01*
X147727144Y-107098388D01*
X147646601Y-106773619D01*
X147645278Y-106768285D01*
X147644729Y-106765975D01*
X147582810Y-106494127D01*
X147581733Y-106488882D01*
X147579556Y-106476969D01*
X147520686Y-106154857D01*
X147520293Y-106152577D01*
X147475507Y-105876578D01*
X147474796Y-105871514D01*
X147434739Y-105534874D01*
X147434483Y-105532514D01*
X147407128Y-105253656D01*
X147406742Y-105248641D01*
X147387759Y-104910628D01*
X147387644Y-104908074D01*
X147377913Y-104627717D01*
X147377841Y-104622714D01*
X147379949Y-104284619D01*
X147379994Y-104282019D01*
X147387971Y-104001088D01*
X147388205Y-103996275D01*
X147411343Y-103659340D01*
X147411559Y-103656651D01*
X147437263Y-103376428D01*
X147437805Y-103371583D01*
X147441482Y-103343656D01*
X147481841Y-103037097D01*
X147482208Y-103034538D01*
X147525597Y-102756048D01*
X147526424Y-102751345D01*
X147529191Y-102737203D01*
X147591130Y-102420659D01*
X147591729Y-102417788D01*
X147652635Y-102142370D01*
X147653699Y-102137959D01*
X147738853Y-101812051D01*
X147739602Y-101809321D01*
X147817844Y-101537970D01*
X147819165Y-101533688D01*
X147924380Y-101213943D01*
X147925330Y-101211177D01*
X148020595Y-100945095D01*
X148022171Y-100940934D01*
X148146999Y-100628616D01*
X148148179Y-100625774D01*
X148260120Y-100366016D01*
X148261847Y-100362198D01*
X148405845Y-100058352D01*
X148407242Y-100055504D01*
X148535387Y-99803220D01*
X148537355Y-99799507D01*
X148699927Y-99505355D01*
X148701540Y-99502532D01*
X148845418Y-99258686D01*
X148847538Y-99255231D01*
X149028011Y-98971945D01*
X149029901Y-98969070D01*
X149188929Y-98734686D01*
X149191205Y-98731450D01*
X149388942Y-98460001D01*
X149391018Y-98457237D01*
X149564556Y-98233279D01*
X149566969Y-98230268D01*
X149781265Y-97971623D01*
X149783545Y-97968956D01*
X149970843Y-97756400D01*
X149973395Y-97753594D01*
X150203328Y-97508863D01*
X150205890Y-97506220D01*
X150406220Y-97305890D01*
X150408832Y-97303357D01*
X150653635Y-97073357D01*
X150656385Y-97070856D01*
X150868946Y-96883554D01*
X150871631Y-96881258D01*
X151130295Y-96666947D01*
X151133296Y-96664543D01*
X151357219Y-96491031D01*
X151359955Y-96488975D01*
X151631447Y-96291207D01*
X151634686Y-96288928D01*
X151869082Y-96129893D01*
X151871906Y-96128035D01*
X152155244Y-95947530D01*
X152158703Y-95945409D01*
X152402531Y-95801541D01*
X152405367Y-95799920D01*
X152699521Y-95637347D01*
X152703185Y-95635405D01*
X152955518Y-95507236D01*
X152958390Y-95505827D01*
X153262166Y-95361862D01*
X153265996Y-95360129D01*
X153525770Y-95248181D01*
X153528630Y-95246993D01*
X153841023Y-95122136D01*
X153845069Y-95120604D01*
X154111095Y-95025359D01*
X154113975Y-95024370D01*
X154433679Y-94919168D01*
X154437952Y-94917849D01*
X154709342Y-94839597D01*
X154712035Y-94838857D01*
X155037947Y-94753702D01*
X155042378Y-94752634D01*
X155317826Y-94691721D01*
X155320713Y-94691119D01*
X155651355Y-94626421D01*
X155656047Y-94625597D01*
X155934537Y-94582208D01*
X155937096Y-94581841D01*
X156271596Y-94537803D01*
X156276427Y-94537263D01*
X156556650Y-94511559D01*
X156559339Y-94511343D01*
X156896274Y-94488205D01*
X156901087Y-94487971D01*
X157182018Y-94479994D01*
X157184618Y-94479949D01*
X157522713Y-94477841D01*
X157527716Y-94477913D01*
X157808073Y-94487644D01*
X157810627Y-94487759D01*
X158148640Y-94506742D01*
X158153655Y-94507128D01*
X158432513Y-94534483D01*
X158434873Y-94534739D01*
X158771513Y-94574796D01*
X158776577Y-94575507D01*
X159052587Y-94620295D01*
X159054882Y-94620690D01*
X159388844Y-94681725D01*
X159394075Y-94682798D01*
X159666141Y-94744766D01*
X159668288Y-94745278D01*
X159998376Y-94827141D01*
X160003586Y-94828555D01*
X160270489Y-94907341D01*
X160272585Y-94907981D01*
X160597574Y-95010449D01*
X160602791Y-95012223D01*
X160863475Y-95107415D01*
X160865433Y-95108149D01*
X161184155Y-95230951D01*
X161189306Y-95233072D01*
X161442803Y-95344216D01*
X161444512Y-95344982D01*
X161755728Y-95487749D01*
X161760848Y-95490243D01*
X161790969Y-95505783D01*
X162005916Y-95616673D01*
X162007622Y-95617570D01*
X162192389Y-95716700D01*
X162310111Y-95779860D01*
X162315173Y-95782731D01*
X162550960Y-95923867D01*
X162552460Y-95924780D01*
X162730632Y-96035190D01*
X162845105Y-96106127D01*
X162850054Y-96109360D01*
X163075509Y-96264415D01*
X163076998Y-96265455D01*
X163201724Y-96353953D01*
X163358655Y-96465301D01*
X163363447Y-96468878D01*
X163577673Y-96637049D01*
X163579020Y-96638123D01*
X163848676Y-96855929D01*
X163853317Y-96859869D01*
X163879927Y-96883617D01*
X164055430Y-97040243D01*
X164056638Y-97041336D01*
X164313281Y-97276507D01*
X164317740Y-97280802D01*
X164506893Y-97472356D01*
X164507966Y-97473457D01*
X164750611Y-97725351D01*
X164754856Y-97729986D01*
X164930355Y-97931702D01*
X164931281Y-97932779D01*
X164964389Y-97971740D01*
X165158991Y-98200744D01*
X165162995Y-98205709D01*
X165324122Y-98416380D01*
X165324902Y-98417412D01*
X165536784Y-98700789D01*
X165540513Y-98706056D01*
X165559725Y-98734760D01*
X165686624Y-98924353D01*
X165687306Y-98925383D01*
X165717833Y-98972007D01*
X165882515Y-99223531D01*
X165885964Y-99229117D01*
X166016563Y-99453682D01*
X166017116Y-99454642D01*
X166194804Y-99766885D01*
X166197940Y-99772757D01*
X166312593Y-100002050D01*
X166313068Y-100003010D01*
X166472467Y-100328794D01*
X166475267Y-100334937D01*
X166573604Y-100567149D01*
X166573982Y-100568050D01*
X166714370Y-100906974D01*
X166716803Y-100913340D01*
X166727970Y-100945158D01*
X166798615Y-101146467D01*
X166798905Y-101147303D01*
X166919581Y-101499199D01*
X166921646Y-101505821D01*
X166986936Y-101737741D01*
X166987148Y-101738503D01*
X167087277Y-102103078D01*
X167088946Y-102109908D01*
X167137842Y-102337826D01*
X167137987Y-102338509D01*
X167216819Y-102716329D01*
X167218073Y-102723340D01*
X167250948Y-102943461D01*
X167251036Y-102944060D01*
X167307686Y-103336487D01*
X167308509Y-103343656D01*
X167326267Y-103551664D01*
X167326309Y-103552175D01*
X167359520Y-103961122D01*
X167359897Y-103968421D01*
X167364059Y-104156877D01*
X167364067Y-104157297D01*
X167372117Y-104587792D01*
X167372035Y-104595193D01*
X167365634Y-104751214D01*
X167365620Y-104751540D01*
X167345427Y-105214046D01*
X167344874Y-105221519D01*
X167334693Y-105318987D01*
X167334668Y-105319220D01*
X167279625Y-105836708D01*
X167278569Y-105844364D01*
X167175475Y-106451138D01*
X167173944Y-106458713D01*
X167034636Y-107051990D01*
X167031687Y-107061183D01*
X167032239Y-107062136D01*
X167032239Y-107062137D01*
X167040815Y-107076943D01*
X167056121Y-107085769D01*
X171854063Y-111883710D01*
X171865090Y-111899884D01*
X171869582Y-111901191D01*
X171869984Y-111901016D01*
X171872361Y-111900002D01*
X171904458Y-111886709D01*
X171905734Y-111885937D01*
X171956401Y-111864594D01*
X173210349Y-111336378D01*
X173385572Y-111262639D01*
X173388015Y-111261645D01*
X174373036Y-110873651D01*
X174373047Y-110873679D01*
X174373147Y-110873606D01*
X174373479Y-110873476D01*
X174935352Y-110652829D01*
X174937765Y-110651912D01*
X175854573Y-110315401D01*
X175854789Y-110315387D01*
X175854768Y-110315330D01*
X175854955Y-110315261D01*
X176499170Y-110080064D01*
X176501622Y-110079200D01*
X177393355Y-109775424D01*
X178076188Y-109544651D01*
X178078460Y-109543908D01*
X178958784Y-109266883D01*
X179665537Y-109046886D01*
X179667686Y-109046241D01*
X180542582Y-108793312D01*
X181266227Y-108587080D01*
X181268188Y-108586542D01*
X182140772Y-108356310D01*
X182877320Y-108165500D01*
X182879231Y-108165023D01*
X183751087Y-107956723D01*
X184497905Y-107782375D01*
X184499931Y-107781921D01*
X185250024Y-107621208D01*
X185304800Y-107621847D01*
X185353957Y-107646026D01*
X185387899Y-107689027D01*
X185400000Y-107742456D01*
X185400000Y-114853437D01*
X185398738Y-114871082D01*
X185381353Y-114992000D01*
X185394313Y-115082143D01*
X185398738Y-115112916D01*
X185400000Y-115130563D01*
X185400000Y-116333315D01*
X185382642Y-116396588D01*
X185335427Y-116442147D01*
X185271575Y-116457236D01*
X185208962Y-116437631D01*
X185208053Y-116437047D01*
X185069961Y-116396500D01*
X184926039Y-116396500D01*
X184849433Y-116418993D01*
X184792483Y-116422046D01*
X184740190Y-116399283D01*
X184703616Y-116355521D01*
X184690500Y-116300016D01*
X184690500Y-111593981D01*
X184696043Y-111557320D01*
X184712900Y-111502853D01*
X184833333Y-111113718D01*
X184833333Y-111113714D01*
X184836723Y-111102762D01*
X184837157Y-111102896D01*
X184843133Y-111081474D01*
X184848165Y-111070457D01*
X184868647Y-110928000D01*
X184848165Y-110785543D01*
X184836709Y-110760459D01*
X184788376Y-110654625D01*
X184694129Y-110545858D01*
X184694128Y-110545857D01*
X184573053Y-110468047D01*
X184434961Y-110427500D01*
X184291039Y-110427500D01*
X184152947Y-110468047D01*
X184031870Y-110545858D01*
X183937623Y-110654625D01*
X183877834Y-110785542D01*
X183864261Y-110879953D01*
X183857353Y-110928000D01*
X183860874Y-110952488D01*
X183877835Y-111070459D01*
X183882863Y-111081469D01*
X183888842Y-111102899D01*
X183889276Y-111102765D01*
X184029957Y-111557320D01*
X184035500Y-111593981D01*
X184035500Y-119338652D01*
X184046315Y-119399990D01*
X184054300Y-119445271D01*
X184053821Y-119445355D01*
X184062500Y-119477744D01*
X184062500Y-123093757D01*
X184059756Y-123110577D01*
X184062368Y-123167079D01*
X184062500Y-123172805D01*
X184062500Y-123191819D01*
X184064181Y-123206307D01*
X184065415Y-123232993D01*
X184068213Y-123239330D01*
X184076666Y-123266626D01*
X184077938Y-123273434D01*
X184091997Y-123296140D01*
X184100002Y-123311327D01*
X184110792Y-123335763D01*
X184115688Y-123340659D01*
X184133434Y-123363063D01*
X184137081Y-123368952D01*
X184158396Y-123385048D01*
X184171351Y-123396322D01*
X185363681Y-124588652D01*
X185390561Y-124628880D01*
X185400000Y-124676333D01*
X185400000Y-126800000D01*
X187448783Y-126792656D01*
X187507063Y-126806970D01*
X187551797Y-126846975D01*
X187572505Y-126903303D01*
X187564337Y-126962758D01*
X187529206Y-127011414D01*
X187475341Y-127037874D01*
X187382549Y-127057864D01*
X186963531Y-127187407D01*
X186557463Y-127353132D01*
X186167462Y-127553769D01*
X185796528Y-127787772D01*
X185447493Y-128053356D01*
X185123051Y-128348471D01*
X184825697Y-128670848D01*
X184557692Y-129018034D01*
X184321120Y-129387331D01*
X184117773Y-129775940D01*
X183949235Y-130180837D01*
X183816785Y-130598941D01*
X183721446Y-131027038D01*
X183663946Y-131461840D01*
X183644732Y-131899999D01*
X183663946Y-132338159D01*
X183721446Y-132772961D01*
X183816785Y-133201058D01*
X183949235Y-133619162D01*
X184117773Y-134024059D01*
X184117777Y-134024066D01*
X184321117Y-134412664D01*
X184557695Y-134781969D01*
X184649097Y-134900376D01*
X184825697Y-135129151D01*
X185123051Y-135451528D01*
X185447493Y-135746643D01*
X185796528Y-136012227D01*
X186167462Y-136246230D01*
X186557463Y-136446867D01*
X186780700Y-136537975D01*
X186963533Y-136612593D01*
X187382548Y-136742135D01*
X187811296Y-136834499D01*
X188246482Y-136888976D01*
X188684767Y-136905147D01*
X189122785Y-136882889D01*
X189557173Y-136822372D01*
X189984596Y-136724061D01*
X190401771Y-136588710D01*
X190805497Y-136417360D01*
X191192672Y-136211325D01*
X191560325Y-135972188D01*
X191905632Y-135701785D01*
X192225943Y-135402191D01*
X192518658Y-135075863D01*
X192518791Y-135075715D01*
X192518792Y-135075713D01*
X192518797Y-135075708D01*
X192644717Y-134907878D01*
X192651263Y-134900376D01*
X192650506Y-134889701D01*
X192650506Y-128910335D01*
X192651264Y-128899693D01*
X192644892Y-128892353D01*
X192608049Y-128843248D01*
X192518797Y-128724292D01*
X192518663Y-128724143D01*
X192385136Y-128575283D01*
X192225943Y-128397809D01*
X191905632Y-128098215D01*
X191745659Y-127972943D01*
X191560326Y-127827812D01*
X191377732Y-127709046D01*
X191192672Y-127588675D01*
X190805497Y-127382640D01*
X190401771Y-127211290D01*
X190401767Y-127211288D01*
X190401763Y-127211287D01*
X189984602Y-127075940D01*
X189780714Y-127029044D01*
X189727550Y-127002123D01*
X189693084Y-126953510D01*
X189685276Y-126894433D01*
X189705928Y-126838535D01*
X189750271Y-126798726D01*
X189808063Y-126784200D01*
X191354879Y-126778656D01*
X191402569Y-126788009D01*
X191443003Y-126814974D01*
X197112901Y-132484872D01*
X197129668Y-132513911D01*
X197130065Y-132513634D01*
X197192162Y-132602316D01*
X198214478Y-133624633D01*
X198221786Y-133632607D01*
X198246240Y-133661750D01*
X198279191Y-133680774D01*
X198288296Y-133686575D01*
X198307909Y-133700308D01*
X198320295Y-133708981D01*
X198345251Y-133719318D01*
X198346258Y-133719495D01*
X198346261Y-133719497D01*
X198383738Y-133726104D01*
X198394253Y-133728435D01*
X198431016Y-133738287D01*
X198468903Y-133734971D01*
X198479711Y-133734500D01*
X203128020Y-133734500D01*
X203164681Y-133740043D01*
X203608281Y-133877333D01*
X203616027Y-133878233D01*
X203636646Y-133882426D01*
X203722039Y-133907500D01*
X203865961Y-133907500D01*
X204004053Y-133866953D01*
X204125128Y-133789143D01*
X204219377Y-133680373D01*
X204279165Y-133549457D01*
X204299647Y-133407000D01*
X204279165Y-133264543D01*
X204264266Y-133231920D01*
X204219376Y-133133625D01*
X204125129Y-133024858D01*
X204125128Y-133024857D01*
X204004053Y-132947047D01*
X203865961Y-132906500D01*
X203722039Y-132906500D01*
X203694939Y-132914457D01*
X203636647Y-132931572D01*
X203616037Y-132935764D01*
X203608279Y-132936666D01*
X203563965Y-132950380D01*
X203502269Y-132953369D01*
X203446785Y-132926223D01*
X203411282Y-132875677D01*
X203404568Y-132814278D01*
X203410647Y-132772000D01*
X203390165Y-132629543D01*
X203385255Y-132618792D01*
X203330376Y-132498625D01*
X203236129Y-132389858D01*
X203236128Y-132389857D01*
X203115053Y-132312047D01*
X202976961Y-132271500D01*
X202833039Y-132271500D01*
X202828530Y-132272824D01*
X202771493Y-132275860D01*
X202719146Y-132253008D01*
X202682596Y-132209116D01*
X202678212Y-132200312D01*
X202636990Y-132166082D01*
X202632683Y-132162334D01*
X202598404Y-132131084D01*
X202598402Y-132131083D01*
X202593072Y-132126224D01*
X202542290Y-132109203D01*
X202536899Y-132107256D01*
X202532594Y-132105588D01*
X202492325Y-132080183D01*
X202464599Y-132041475D01*
X202441377Y-131990626D01*
X202347129Y-131881858D01*
X202347128Y-131881857D01*
X202226053Y-131804047D01*
X202087961Y-131763500D01*
X201944039Y-131763500D01*
X201944038Y-131763500D01*
X201805947Y-131804046D01*
X201793968Y-131811744D01*
X201790073Y-131813811D01*
X201790114Y-131813879D01*
X201693974Y-131872544D01*
X201627215Y-131890675D01*
X201561131Y-131870220D01*
X201516290Y-131817544D01*
X201510072Y-131773375D01*
X201508184Y-131773647D01*
X201485165Y-131613542D01*
X201425376Y-131482625D01*
X201331129Y-131373858D01*
X201331128Y-131373857D01*
X201210053Y-131296047D01*
X201071961Y-131255500D01*
X200928039Y-131255500D01*
X200885292Y-131268051D01*
X200842647Y-131280572D01*
X200822037Y-131284764D01*
X200814284Y-131285665D01*
X200370678Y-131422957D01*
X200334017Y-131428500D01*
X198989834Y-131428500D01*
X198942381Y-131419061D01*
X198902153Y-131392181D01*
X197090678Y-129580706D01*
X196344647Y-128834675D01*
X198095747Y-128834675D01*
X198102711Y-129016345D01*
X198105749Y-129095593D01*
X198152912Y-129338780D01*
X198155463Y-129351930D01*
X198243719Y-129597664D01*
X198368460Y-129827060D01*
X198526749Y-130034715D01*
X198714887Y-130215779D01*
X198890960Y-130339625D01*
X198928456Y-130365999D01*
X199054513Y-130428414D01*
X199162453Y-130481859D01*
X199411391Y-130560640D01*
X199411392Y-130560640D01*
X199411395Y-130560641D01*
X199669445Y-130600500D01*
X199865177Y-130600500D01*
X199865179Y-130600500D01*
X199895603Y-130598164D01*
X200060344Y-130585516D01*
X200314586Y-130526021D01*
X200484492Y-130457543D01*
X200556762Y-130428416D01*
X200556764Y-130428414D01*
X200556766Y-130428414D01*
X200781208Y-130294982D01*
X200982652Y-130128852D01*
X201004928Y-130103857D01*
X201066546Y-130034716D01*
X201156375Y-129933920D01*
X201298306Y-129714753D01*
X201358398Y-129580706D01*
X201405118Y-129476490D01*
X201474306Y-129224716D01*
X201474307Y-129224713D01*
X201504252Y-128965325D01*
X201494251Y-128704407D01*
X201444538Y-128448073D01*
X201356279Y-128202332D01*
X201231541Y-127972943D01*
X201231539Y-127972939D01*
X201073250Y-127765284D01*
X200885112Y-127584220D01*
X200671546Y-127434002D01*
X200437546Y-127318140D01*
X200188608Y-127239359D01*
X200006884Y-127211290D01*
X199930555Y-127199500D01*
X199734823Y-127199500D01*
X199734821Y-127199500D01*
X199539656Y-127214484D01*
X199285412Y-127273979D01*
X199043237Y-127371583D01*
X198818791Y-127505017D01*
X198617346Y-127671148D01*
X198443622Y-127866082D01*
X198301693Y-128085247D01*
X198194881Y-128323509D01*
X198125693Y-128575283D01*
X198095747Y-128834675D01*
X196344647Y-128834675D01*
X195279151Y-127769179D01*
X195248902Y-127719818D01*
X195244360Y-127662102D01*
X195266515Y-127608615D01*
X195310538Y-127571015D01*
X195340252Y-127563881D01*
X195339854Y-127562523D01*
X195356960Y-127557500D01*
X195356961Y-127557500D01*
X195442361Y-127532423D01*
X195462962Y-127528234D01*
X195470718Y-127527333D01*
X195914317Y-127390043D01*
X195950979Y-127384500D01*
X196016020Y-127384500D01*
X196052681Y-127390043D01*
X196496281Y-127527333D01*
X196504027Y-127528233D01*
X196524646Y-127532426D01*
X196610039Y-127557500D01*
X196753961Y-127557500D01*
X196892053Y-127516953D01*
X197013128Y-127439143D01*
X197107377Y-127330373D01*
X197167165Y-127199457D01*
X197187647Y-127057000D01*
X197167165Y-126914543D01*
X197167165Y-126914542D01*
X197164936Y-126899039D01*
X197174818Y-126830015D01*
X197220386Y-126777237D01*
X197287228Y-126757393D01*
X210100402Y-126711468D01*
X210160023Y-126726499D01*
X210205094Y-126768322D01*
X210224532Y-126826655D01*
X210213560Y-126887154D01*
X210174874Y-126934945D01*
X210117986Y-126958277D01*
X210028998Y-126970696D01*
X209994105Y-126975566D01*
X209833197Y-127012619D01*
X209566448Y-127074044D01*
X209149048Y-127209587D01*
X208745138Y-127381148D01*
X208357788Y-127587418D01*
X207989984Y-127826810D01*
X207872213Y-127919093D01*
X207700870Y-128053355D01*
X207644545Y-128097490D01*
X207324145Y-128397361D01*
X207031221Y-128724143D01*
X206904929Y-128892582D01*
X206898732Y-128899758D01*
X206899495Y-128910384D01*
X206899495Y-134889652D01*
X206898733Y-134900313D01*
X206905120Y-134907670D01*
X207031227Y-135075863D01*
X207324145Y-135402638D01*
X207541215Y-135605800D01*
X207644551Y-135702515D01*
X207989983Y-135973189D01*
X208357786Y-136212580D01*
X208745135Y-136418850D01*
X208811099Y-136446868D01*
X209149048Y-136590412D01*
X209149056Y-136590414D01*
X209149057Y-136590415D01*
X209566449Y-136725956D01*
X209994105Y-136824434D01*
X210254591Y-136860787D01*
X210428739Y-136885091D01*
X210452312Y-136886294D01*
X210867017Y-136907461D01*
X211305570Y-136891374D01*
X211741030Y-136836952D01*
X212170053Y-136744614D01*
X212589344Y-136615068D01*
X212995683Y-136449309D01*
X213385949Y-136248612D01*
X213757145Y-136014516D01*
X214106420Y-135748820D01*
X214431092Y-135453565D01*
X214728666Y-135131017D01*
X214996858Y-134783655D01*
X215233607Y-134414146D01*
X215437096Y-134025328D01*
X215605762Y-133620188D01*
X215738309Y-133201835D01*
X215833720Y-132773485D01*
X215870072Y-132498627D01*
X215891260Y-132338431D01*
X215896932Y-132209116D01*
X215910490Y-131900000D01*
X215893801Y-131519506D01*
X215891260Y-131461568D01*
X215844013Y-131104340D01*
X215833720Y-131026515D01*
X215738309Y-130598165D01*
X215702771Y-130485999D01*
X216877353Y-130485999D01*
X216897835Y-130628459D01*
X216902863Y-130639469D01*
X216908842Y-130660899D01*
X216909276Y-130660765D01*
X217049957Y-131115320D01*
X217055500Y-131151981D01*
X217055500Y-133050510D01*
X217051107Y-133083222D01*
X217050298Y-133086176D01*
X217006051Y-133633511D01*
X217005088Y-133655885D01*
X217004352Y-133660998D01*
X217024834Y-133803457D01*
X217084623Y-133934374D01*
X217163432Y-134025324D01*
X217178872Y-134043143D01*
X217299947Y-134120953D01*
X217438039Y-134161500D01*
X217581961Y-134161500D01*
X217720053Y-134120953D01*
X217841128Y-134043143D01*
X217935377Y-133934373D01*
X217995165Y-133803457D01*
X218015647Y-133661000D01*
X217995165Y-133518543D01*
X217983408Y-133492801D01*
X217982297Y-133489693D01*
X217982122Y-133489768D01*
X217955484Y-133427517D01*
X217953979Y-133425052D01*
X217951835Y-133421537D01*
X217944896Y-133408471D01*
X217935377Y-133387627D01*
X217935375Y-133387625D01*
X217935375Y-133387624D01*
X217927816Y-133378900D01*
X217915681Y-133362289D01*
X217816010Y-133198950D01*
X217728650Y-133055786D01*
X217710500Y-132991197D01*
X217710500Y-131151981D01*
X217716043Y-131115320D01*
X217743365Y-131027038D01*
X217853333Y-130671718D01*
X217853333Y-130671714D01*
X217856723Y-130660762D01*
X217857157Y-130660896D01*
X217863133Y-130639474D01*
X217868165Y-130628457D01*
X217888647Y-130486000D01*
X217868165Y-130343543D01*
X217850609Y-130305102D01*
X217808376Y-130212625D01*
X217714129Y-130103858D01*
X217714128Y-130103857D01*
X217593053Y-130026047D01*
X217454961Y-129985500D01*
X217311039Y-129985500D01*
X217172947Y-130026047D01*
X217051870Y-130103858D01*
X216957623Y-130212625D01*
X216897834Y-130343542D01*
X216877353Y-130485999D01*
X215702771Y-130485999D01*
X215605762Y-130179812D01*
X215437096Y-129774672D01*
X215233607Y-129385854D01*
X214996858Y-129016345D01*
X214728666Y-128668983D01*
X214431092Y-128346435D01*
X214106420Y-128051180D01*
X213757145Y-127785484D01*
X213725115Y-127765284D01*
X213385952Y-127551389D01*
X212995679Y-127350689D01*
X212589343Y-127184931D01*
X212170055Y-127055386D01*
X211741032Y-126963048D01*
X211659574Y-126952868D01*
X211602237Y-126930267D01*
X211562863Y-126882855D01*
X211551178Y-126822343D01*
X211570068Y-126763679D01*
X211614866Y-126721355D01*
X211674507Y-126705826D01*
X213300000Y-126700000D01*
X213300000Y-121615000D01*
X214629353Y-121615000D01*
X214629397Y-121615303D01*
X214630165Y-121620649D01*
X214631190Y-121643840D01*
X214654026Y-121917857D01*
X214679316Y-122221338D01*
X214679316Y-122221341D01*
X214679317Y-122221343D01*
X214680036Y-122223950D01*
X214684500Y-122256920D01*
X214684500Y-124852738D01*
X214683720Y-124866622D01*
X214679729Y-124902034D01*
X214690356Y-124958194D01*
X214691133Y-124962766D01*
X214700550Y-125025248D01*
X214702163Y-125030148D01*
X214731687Y-125086010D01*
X214733777Y-125090150D01*
X214761184Y-125147060D01*
X214764183Y-125151287D01*
X214808847Y-125195951D01*
X214812064Y-125199291D01*
X214855040Y-125245608D01*
X214869930Y-125257034D01*
X218818630Y-129205733D01*
X218827896Y-129216101D01*
X218850120Y-129243969D01*
X218897364Y-129276180D01*
X218901145Y-129278863D01*
X218951973Y-129316376D01*
X218956568Y-129318695D01*
X218962325Y-129320470D01*
X218962327Y-129320472D01*
X218987351Y-129328190D01*
X219016980Y-129337330D01*
X219021371Y-129338774D01*
X219075301Y-129357646D01*
X219075303Y-129357646D01*
X219080990Y-129359636D01*
X219086071Y-129360500D01*
X219092098Y-129360500D01*
X219149246Y-129360500D01*
X219153883Y-129360586D01*
X219211010Y-129362725D01*
X219211010Y-129362724D01*
X219217026Y-129362950D01*
X219235638Y-129360500D01*
X221353315Y-129360500D01*
X221402379Y-129370620D01*
X221443434Y-129399327D01*
X222265619Y-130269254D01*
X222290719Y-130308595D01*
X222299500Y-130354427D01*
X222299500Y-130834269D01*
X222302353Y-130864696D01*
X222347207Y-130992884D01*
X222427849Y-131102150D01*
X222537115Y-131182792D01*
X222537118Y-131182793D01*
X222665301Y-131227646D01*
X222677474Y-131228787D01*
X222695731Y-131230500D01*
X222695734Y-131230500D01*
X226704266Y-131230500D01*
X226704269Y-131230500D01*
X226719482Y-131229072D01*
X226734699Y-131227646D01*
X226862882Y-131182793D01*
X226862882Y-131182792D01*
X226862884Y-131182792D01*
X226972150Y-131102150D01*
X227052792Y-130992884D01*
X227052793Y-130992882D01*
X227097646Y-130864699D01*
X227100500Y-130834266D01*
X227100500Y-130030000D01*
X229400001Y-130030000D01*
X229400001Y-130829979D01*
X229410493Y-130932695D01*
X229465642Y-131099122D01*
X229557683Y-131248345D01*
X229681654Y-131372316D01*
X229830877Y-131464357D01*
X229997303Y-131519506D01*
X230100021Y-131530000D01*
X231850000Y-131530000D01*
X231850000Y-130030000D01*
X229400001Y-130030000D01*
X227100500Y-130030000D01*
X227100500Y-129530000D01*
X229400000Y-129530000D01*
X231850000Y-129530000D01*
X231850000Y-128030001D01*
X230100021Y-128030001D01*
X229997304Y-128040493D01*
X229830877Y-128095642D01*
X229681654Y-128187683D01*
X229557683Y-128311654D01*
X229465642Y-128460877D01*
X229410493Y-128627303D01*
X229400000Y-128730021D01*
X229400000Y-129530000D01*
X227100500Y-129530000D01*
X227100500Y-128725734D01*
X227097646Y-128695301D01*
X227052793Y-128567118D01*
X227052792Y-128567115D01*
X226972150Y-128457849D01*
X226862884Y-128377207D01*
X226734696Y-128332353D01*
X226704269Y-128329500D01*
X226704266Y-128329500D01*
X222782251Y-128329500D01*
X222774224Y-128329240D01*
X222724672Y-128326025D01*
X222724671Y-128326025D01*
X222508845Y-128348471D01*
X221488193Y-128454619D01*
X221454412Y-128459500D01*
X219397965Y-128459500D01*
X219350512Y-128450061D01*
X219310284Y-128423181D01*
X217563102Y-126675999D01*
X222211353Y-126675999D01*
X222231834Y-126818457D01*
X222291623Y-126949374D01*
X222385630Y-127057864D01*
X222385872Y-127058143D01*
X222506947Y-127135953D01*
X222645039Y-127176500D01*
X222788961Y-127176500D01*
X222927053Y-127135953D01*
X223048128Y-127058143D01*
X223064930Y-127038751D01*
X223075855Y-127027640D01*
X223094194Y-127011198D01*
X223467962Y-126569472D01*
X223469296Y-126567120D01*
X223489453Y-126540649D01*
X224488283Y-125541819D01*
X224528512Y-125514939D01*
X224575965Y-125505500D01*
X227917080Y-125505500D01*
X227950050Y-125509964D01*
X227952657Y-125510683D01*
X227952658Y-125510683D01*
X227952662Y-125510684D01*
X228473095Y-125554052D01*
X228480848Y-125555500D01*
X228485299Y-125555500D01*
X228495596Y-125555928D01*
X228529304Y-125558737D01*
X228529306Y-125558736D01*
X228529308Y-125558737D01*
X228585353Y-125555684D01*
X228592098Y-125555500D01*
X228630961Y-125555500D01*
X228769053Y-125514953D01*
X228890128Y-125437143D01*
X228984377Y-125328373D01*
X229044165Y-125197457D01*
X229064647Y-125055000D01*
X229044165Y-124912543D01*
X229039366Y-124902035D01*
X228984376Y-124781625D01*
X228890129Y-124672858D01*
X228890128Y-124672857D01*
X228769053Y-124595047D01*
X228630961Y-124554500D01*
X228592107Y-124554500D01*
X228585361Y-124554316D01*
X228529308Y-124551261D01*
X228495584Y-124554072D01*
X228485288Y-124554500D01*
X228480904Y-124554500D01*
X228473179Y-124555938D01*
X227952658Y-124599316D01*
X227950054Y-124600035D01*
X227917079Y-124604500D01*
X224370262Y-124604500D01*
X224356378Y-124603720D01*
X224320963Y-124599729D01*
X224264811Y-124610354D01*
X224260241Y-124611131D01*
X224197758Y-124620549D01*
X224192851Y-124622163D01*
X224136985Y-124651690D01*
X224132847Y-124653779D01*
X224075936Y-124681186D01*
X224071712Y-124684183D01*
X224027059Y-124728836D01*
X224023722Y-124732051D01*
X223977392Y-124775039D01*
X223965967Y-124789928D01*
X222852356Y-125903539D01*
X222825890Y-125923695D01*
X222823530Y-125925034D01*
X222399466Y-126283856D01*
X222386427Y-126293499D01*
X222385872Y-126293855D01*
X222376040Y-126305201D01*
X222374666Y-126306761D01*
X222343647Y-126341363D01*
X222335581Y-126351894D01*
X222291623Y-126402626D01*
X222231834Y-126533542D01*
X222211353Y-126675999D01*
X217563102Y-126675999D01*
X215621819Y-124734716D01*
X215594939Y-124694488D01*
X215585500Y-124647035D01*
X215585500Y-122954269D01*
X230099500Y-122954269D01*
X230102353Y-122984696D01*
X230147207Y-123112884D01*
X230227849Y-123222150D01*
X230337115Y-123302792D01*
X230337118Y-123302793D01*
X230465301Y-123347646D01*
X230477474Y-123348787D01*
X230495731Y-123350500D01*
X230495734Y-123350500D01*
X232104266Y-123350500D01*
X232104269Y-123350500D01*
X232119482Y-123349072D01*
X232134699Y-123347646D01*
X232262882Y-123302793D01*
X232262882Y-123302792D01*
X232262884Y-123302792D01*
X232372150Y-123222150D01*
X232452792Y-123112884D01*
X232452793Y-123112882D01*
X232497646Y-122984699D01*
X232500500Y-122954266D01*
X232500500Y-121645734D01*
X232500322Y-121643840D01*
X232498787Y-121627474D01*
X232497646Y-121615301D01*
X232452793Y-121487118D01*
X232452792Y-121487115D01*
X232372150Y-121377849D01*
X232262884Y-121297207D01*
X232134696Y-121252353D01*
X232104269Y-121249500D01*
X232104266Y-121249500D01*
X230495734Y-121249500D01*
X230495731Y-121249500D01*
X230465303Y-121252353D01*
X230337115Y-121297207D01*
X230227849Y-121377849D01*
X230147207Y-121487115D01*
X230102353Y-121615303D01*
X230099500Y-121645731D01*
X230099500Y-122954269D01*
X215585500Y-122954269D01*
X215585500Y-122256920D01*
X215589964Y-122223950D01*
X215590683Y-122221342D01*
X215590683Y-122221341D01*
X215590684Y-122221338D01*
X215638737Y-121644695D01*
X215638736Y-121644687D01*
X215638811Y-121643794D01*
X215639835Y-121620644D01*
X215640647Y-121615000D01*
X215620165Y-121472543D01*
X215613397Y-121457724D01*
X215560376Y-121341625D01*
X215466129Y-121232858D01*
X215466128Y-121232857D01*
X215345053Y-121155047D01*
X215206961Y-121114500D01*
X215063039Y-121114500D01*
X214924947Y-121155047D01*
X214803870Y-121232858D01*
X214709623Y-121341625D01*
X214649834Y-121472542D01*
X214629353Y-121614998D01*
X214629353Y-121615000D01*
X213300000Y-121615000D01*
X213300000Y-121099998D01*
X224880353Y-121099998D01*
X224881165Y-121105649D01*
X224882190Y-121128840D01*
X224913602Y-121505777D01*
X224913805Y-121523536D01*
X224895110Y-121833677D01*
X224894995Y-121833670D01*
X224894474Y-121849154D01*
X224894352Y-121849998D01*
X224914834Y-121992457D01*
X224974623Y-122123374D01*
X225068870Y-122232141D01*
X225068872Y-122232143D01*
X225189947Y-122309953D01*
X225328039Y-122350500D01*
X225471961Y-122350500D01*
X225610053Y-122309953D01*
X225731128Y-122232143D01*
X225825377Y-122123373D01*
X225885165Y-121992457D01*
X225905647Y-121850000D01*
X225904071Y-121839042D01*
X225902876Y-121817352D01*
X225902947Y-121815199D01*
X225864637Y-121457719D01*
X225864360Y-121434219D01*
X225872027Y-121342202D01*
X225881038Y-121305050D01*
X225900936Y-121272410D01*
X226136962Y-120993472D01*
X226138296Y-120991120D01*
X226158453Y-120964649D01*
X227323102Y-119799999D01*
X230094417Y-119799999D01*
X230114699Y-120005932D01*
X230114700Y-120005934D01*
X230174768Y-120203954D01*
X230272315Y-120386450D01*
X230298090Y-120417857D01*
X230403589Y-120546410D01*
X230455467Y-120588984D01*
X230563550Y-120677685D01*
X230746046Y-120775232D01*
X230944066Y-120835300D01*
X231098392Y-120850500D01*
X231501607Y-120850500D01*
X231501608Y-120850500D01*
X231655934Y-120835300D01*
X231853954Y-120775232D01*
X232036450Y-120677685D01*
X232196410Y-120546410D01*
X232327685Y-120386450D01*
X232425232Y-120203954D01*
X232485300Y-120005934D01*
X232505583Y-119800000D01*
X232485300Y-119594066D01*
X232425232Y-119396046D01*
X232327685Y-119213550D01*
X232240908Y-119107811D01*
X232196410Y-119053589D01*
X232082312Y-118959953D01*
X232036450Y-118922315D01*
X231853954Y-118824768D01*
X231754943Y-118794733D01*
X231655932Y-118764699D01*
X231518467Y-118751160D01*
X231501608Y-118749500D01*
X231098392Y-118749500D01*
X231083193Y-118750996D01*
X230944067Y-118764699D01*
X230746043Y-118824769D01*
X230563551Y-118922314D01*
X230403589Y-119053589D01*
X230272314Y-119213551D01*
X230174769Y-119396043D01*
X230114699Y-119594067D01*
X230094417Y-119799999D01*
X227323102Y-119799999D01*
X227330744Y-119792357D01*
X227341093Y-119783109D01*
X227368970Y-119760879D01*
X227401191Y-119713618D01*
X227403859Y-119709859D01*
X227437793Y-119663882D01*
X227437794Y-119663877D01*
X227441381Y-119659018D01*
X227443692Y-119654441D01*
X227445470Y-119648675D01*
X227445472Y-119648673D01*
X227462330Y-119594014D01*
X227463775Y-119589626D01*
X227472654Y-119564254D01*
X227482646Y-119535699D01*
X227482646Y-119535697D01*
X227484637Y-119530008D01*
X227485500Y-119524930D01*
X227485500Y-119461738D01*
X227485587Y-119457101D01*
X227485607Y-119456563D01*
X227487724Y-119399990D01*
X227487723Y-119399989D01*
X227487949Y-119393970D01*
X227485500Y-119375365D01*
X227485500Y-117643452D01*
X227489997Y-117612786D01*
X227490427Y-117608827D01*
X227490429Y-117608824D01*
X227552886Y-117035164D01*
X227552814Y-117032869D01*
X227554015Y-117011345D01*
X227555647Y-117000000D01*
X227554014Y-116988647D01*
X227552814Y-116967126D01*
X227552886Y-116964835D01*
X227514385Y-116611216D01*
X227514086Y-116587504D01*
X227516583Y-116557543D01*
X227538737Y-116291695D01*
X227538736Y-116291687D01*
X227538811Y-116290794D01*
X227539835Y-116267644D01*
X227540647Y-116262000D01*
X227520165Y-116119543D01*
X227496040Y-116066718D01*
X227460376Y-115988625D01*
X227366129Y-115879858D01*
X227366128Y-115879857D01*
X227245053Y-115802047D01*
X227106961Y-115761500D01*
X226963039Y-115761500D01*
X226824947Y-115802047D01*
X226703870Y-115879858D01*
X226609623Y-115988625D01*
X226549834Y-116119542D01*
X226529353Y-116261998D01*
X226530165Y-116267649D01*
X226531191Y-116290843D01*
X226562470Y-116666202D01*
X226562685Y-116683756D01*
X226545082Y-116984029D01*
X226544935Y-116984020D01*
X226544426Y-116999487D01*
X226544352Y-117000000D01*
X226544425Y-117000509D01*
X226544934Y-117015977D01*
X226545082Y-117015969D01*
X226579205Y-117598028D01*
X226580718Y-117604010D01*
X226584500Y-117634400D01*
X226584500Y-119213035D01*
X226575061Y-119260488D01*
X226548181Y-119300716D01*
X225521356Y-120327539D01*
X225494890Y-120347695D01*
X225492530Y-120349034D01*
X225068466Y-120707856D01*
X225055427Y-120717499D01*
X225054872Y-120717855D01*
X225045040Y-120729201D01*
X225043666Y-120730761D01*
X225012647Y-120765363D01*
X225004581Y-120775894D01*
X224960623Y-120826626D01*
X224900834Y-120957542D01*
X224880353Y-121099998D01*
X213300000Y-121099998D01*
X213300000Y-117524000D01*
X213316613Y-117462000D01*
X213362000Y-117416613D01*
X213424000Y-117400000D01*
X215799999Y-117400000D01*
X215800000Y-117400000D01*
X217421636Y-112816532D01*
X219945089Y-112816532D01*
X220059024Y-112829239D01*
X220268439Y-112812592D01*
X220470917Y-112756613D01*
X220659141Y-112663326D01*
X220826311Y-112536103D01*
X220840570Y-112520166D01*
X220889754Y-112486624D01*
X220948903Y-112479870D01*
X221004383Y-112501462D01*
X221043405Y-112546423D01*
X221056974Y-112604390D01*
X221056032Y-112679878D01*
X221074484Y-112742457D01*
X221094441Y-112810141D01*
X221169538Y-112923293D01*
X221274650Y-113009282D01*
X221302272Y-113022372D01*
X222062043Y-113298907D01*
X222091617Y-113306633D01*
X222182145Y-113307761D01*
X222227408Y-113308326D01*
X222227408Y-113308325D01*
X222227410Y-113308326D01*
X222357670Y-113269919D01*
X222470822Y-113194822D01*
X222556811Y-113089710D01*
X222569901Y-113062088D01*
X223034547Y-111785486D01*
X223042273Y-111755912D01*
X223043967Y-111620119D01*
X223005559Y-111489859D01*
X222930462Y-111376707D01*
X222903305Y-111354491D01*
X222825349Y-111290717D01*
X222797733Y-111277630D01*
X222797728Y-111277628D01*
X222037957Y-111001093D01*
X222008383Y-110993367D01*
X222008381Y-110993366D01*
X222008378Y-110993366D01*
X221872591Y-110991673D01*
X221742328Y-111030081D01*
X221629178Y-111105177D01*
X221579275Y-111166178D01*
X221533785Y-111200920D01*
X221477539Y-111211529D01*
X221422519Y-111195745D01*
X221380451Y-111156932D01*
X221360296Y-111103359D01*
X221342525Y-110964103D01*
X221276974Y-110764518D01*
X221174836Y-110580941D01*
X221039806Y-110420017D01*
X220876758Y-110287555D01*
X220867390Y-110282535D01*
X220478681Y-111350504D01*
X220478681Y-111350505D01*
X219945089Y-112816532D01*
X217421636Y-112816532D01*
X217795640Y-111759429D01*
X218972111Y-111759429D01*
X218998704Y-111967816D01*
X219064255Y-112167402D01*
X219166391Y-112350975D01*
X219301426Y-112511904D01*
X219464472Y-112644366D01*
X219473839Y-112649384D01*
X219850186Y-111615378D01*
X219850186Y-111615377D01*
X219051446Y-111324660D01*
X219051446Y-111324661D01*
X219024977Y-111397386D01*
X218985435Y-111549782D01*
X218972111Y-111759429D01*
X217795640Y-111759429D01*
X218115693Y-110854815D01*
X219222458Y-110854815D01*
X220021195Y-111145530D01*
X220396139Y-110115386D01*
X220396138Y-110115385D01*
X220282205Y-110102680D01*
X220072789Y-110119327D01*
X219870312Y-110175307D01*
X219682087Y-110268593D01*
X219514915Y-110395817D01*
X219374843Y-110552378D01*
X219266936Y-110732615D01*
X219222458Y-110854815D01*
X218115693Y-110854815D01*
X218825653Y-108848151D01*
X218860049Y-108796942D01*
X218914867Y-108768643D01*
X218976531Y-108770260D01*
X219057628Y-108793372D01*
X219932175Y-109046201D01*
X219934501Y-109046898D01*
X220641515Y-109266976D01*
X221521393Y-109543862D01*
X221523832Y-109544659D01*
X222206997Y-109775545D01*
X222206974Y-109775612D01*
X222207276Y-109775639D01*
X222858564Y-109997506D01*
X223098332Y-110079185D01*
X223100873Y-110080081D01*
X223208370Y-110119327D01*
X223745146Y-110315299D01*
X223745129Y-110315347D01*
X223745341Y-110315370D01*
X224662182Y-110651893D01*
X224664735Y-110652863D01*
X225226367Y-110873415D01*
X225226616Y-110873513D01*
X225226719Y-110873581D01*
X225226728Y-110873558D01*
X226211923Y-111261620D01*
X226214486Y-111262663D01*
X226390995Y-111336944D01*
X227699072Y-111887962D01*
X227706182Y-111890957D01*
X227706502Y-111891172D01*
X227727900Y-111900107D01*
X227729725Y-111900887D01*
X227730582Y-111901261D01*
X227739591Y-111896556D01*
X227742387Y-111895453D01*
X227747489Y-111890878D01*
X227765053Y-111864594D01*
X228955648Y-110673999D01*
X232543774Y-107085871D01*
X232559129Y-107077039D01*
X232567760Y-107062138D01*
X232567761Y-107062138D01*
X232567760Y-107062137D01*
X232568332Y-107061151D01*
X232565318Y-107051802D01*
X232558534Y-107022911D01*
X232426052Y-106458701D01*
X232424524Y-106451139D01*
X232424517Y-106451098D01*
X232321429Y-105844360D01*
X232320374Y-105836709D01*
X232288018Y-105532514D01*
X232265278Y-105318722D01*
X232255122Y-105221500D01*
X232254572Y-105214066D01*
X232234359Y-104751098D01*
X232227962Y-104595173D01*
X232227881Y-104587813D01*
X232235942Y-104156766D01*
X232240103Y-103968382D01*
X232240475Y-103961164D01*
X232273733Y-103551648D01*
X232291494Y-103343613D01*
X232292307Y-103336527D01*
X232348965Y-102944044D01*
X232381930Y-102723309D01*
X232383179Y-102716329D01*
X232462047Y-102338337D01*
X232511067Y-102109844D01*
X232512705Y-102103143D01*
X232612953Y-101738128D01*
X232678374Y-101505742D01*
X232680407Y-101499227D01*
X232801214Y-101146955D01*
X232883208Y-100913305D01*
X232885617Y-100907005D01*
X233026112Y-100567820D01*
X233026346Y-100567263D01*
X233124740Y-100334916D01*
X233127510Y-100328840D01*
X233287105Y-100002653D01*
X233287275Y-100002311D01*
X233402071Y-99772730D01*
X233405164Y-99766938D01*
X233583114Y-99454237D01*
X233583247Y-99454006D01*
X233714078Y-99229043D01*
X233717434Y-99223607D01*
X233912888Y-98925085D01*
X233913168Y-98924662D01*
X234059509Y-98706021D01*
X234063188Y-98700823D01*
X234275258Y-98417197D01*
X234275717Y-98416589D01*
X234437035Y-98205668D01*
X234440984Y-98200772D01*
X234668975Y-97932477D01*
X234669367Y-97932022D01*
X234845183Y-97729940D01*
X234849346Y-97725394D01*
X235092213Y-97473270D01*
X235092903Y-97472562D01*
X235282303Y-97280757D01*
X235286664Y-97276555D01*
X235543568Y-97041146D01*
X235544462Y-97040338D01*
X235746690Y-96859862D01*
X235751295Y-96855952D01*
X236021166Y-96637971D01*
X236022144Y-96637192D01*
X236236588Y-96468849D01*
X236241332Y-96465309D01*
X236523195Y-96265317D01*
X236524288Y-96264553D01*
X236749951Y-96109354D01*
X236754854Y-96106152D01*
X237047606Y-95924739D01*
X237048984Y-95923899D01*
X237284877Y-95782700D01*
X237289827Y-95779893D01*
X237592511Y-95617498D01*
X237593959Y-95616737D01*
X237839162Y-95490237D01*
X237844232Y-95487767D01*
X238155502Y-95344975D01*
X238157162Y-95344230D01*
X238410743Y-95233050D01*
X238415815Y-95230961D01*
X238734654Y-95108115D01*
X238736475Y-95107433D01*
X238997229Y-95012215D01*
X239002355Y-95010471D01*
X239327563Y-94907934D01*
X239329423Y-94907366D01*
X239596438Y-94828548D01*
X239601588Y-94827150D01*
X239931741Y-94745271D01*
X239933995Y-94744735D01*
X240205898Y-94682804D01*
X240211089Y-94681738D01*
X240545179Y-94620679D01*
X240547387Y-94620298D01*
X240823434Y-94575505D01*
X240828472Y-94574798D01*
X241165152Y-94534736D01*
X241167464Y-94534484D01*
X241446350Y-94507127D01*
X241451350Y-94506742D01*
X241789380Y-94487759D01*
X241791916Y-94487644D01*
X242072283Y-94477913D01*
X242077284Y-94477841D01*
X242415377Y-94479949D01*
G37*
%TD.AperFunction*%
%TD*%
%TA.AperFunction,Conductor*%
%TO.N,/BOOT*%
G36*
X188725761Y-108527755D02*
G01*
X189240158Y-108758735D01*
X189245610Y-108763757D01*
X189246949Y-108771049D01*
X189243638Y-108777681D01*
X189115817Y-108905502D01*
X189112127Y-108907994D01*
X188829344Y-109028395D01*
X188828058Y-109028856D01*
X188789946Y-109040047D01*
X188767155Y-109054693D01*
X188765414Y-109055615D01*
X188725663Y-109072541D01*
X188719633Y-109073386D01*
X188713995Y-109071088D01*
X188710275Y-109066267D01*
X188694723Y-109028856D01*
X188601163Y-108803792D01*
X188600268Y-108799293D01*
X188601170Y-108794798D01*
X188710175Y-108533916D01*
X188713958Y-108529063D01*
X188719682Y-108526800D01*
X188725761Y-108527755D01*
G37*
%TD.AperFunction*%
%TD*%
%TA.AperFunction,Conductor*%
%TO.N,Net-(D5-K)*%
G36*
X222753448Y-128532209D02*
G01*
X224676558Y-129764340D01*
X224680990Y-129769558D01*
X224681743Y-129776362D01*
X224678560Y-129782424D01*
X224672530Y-129785666D01*
X222506344Y-130216804D01*
X222500507Y-130216476D01*
X222495557Y-130213366D01*
X221503197Y-129163383D01*
X221500000Y-129155346D01*
X221500000Y-128670546D01*
X221503009Y-128662712D01*
X221510490Y-128658909D01*
X222745928Y-128530423D01*
X222753448Y-128532209D01*
G37*
%TD.AperFunction*%
%TD*%
%TA.AperFunction,Conductor*%
%TO.N,VPP*%
G36*
X206348119Y-113702437D02*
G01*
X206352289Y-113708734D01*
X206474584Y-114175354D01*
X206473753Y-114183507D01*
X206467777Y-114189116D01*
X206204511Y-114299115D01*
X206200000Y-114300019D01*
X206195489Y-114299115D01*
X205932222Y-114189116D01*
X205926246Y-114183507D01*
X205925415Y-114175354D01*
X206047711Y-113708734D01*
X206051881Y-113702437D01*
X206059029Y-113700000D01*
X206340971Y-113700000D01*
X206348119Y-113702437D01*
G37*
%TD.AperFunction*%
%TD*%
%TA.AperFunction,Conductor*%
%TO.N,/AUDIO*%
G36*
X184367507Y-110928883D02*
G01*
X184630354Y-111038706D01*
X184636441Y-111044546D01*
X184637020Y-111052961D01*
X184492551Y-111519759D01*
X184488317Y-111525717D01*
X184481374Y-111528000D01*
X184244626Y-111528000D01*
X184237683Y-111525717D01*
X184233449Y-111519759D01*
X184088979Y-111052961D01*
X184089558Y-111044546D01*
X184095643Y-111038707D01*
X184358492Y-110928883D01*
X184363000Y-110927980D01*
X184367507Y-110928883D01*
G37*
%TD.AperFunction*%
%TD*%
%TA.AperFunction,Conductor*%
%TO.N,Net-(D2-RK)*%
G36*
X175273167Y-119561956D02*
G01*
X175497380Y-119680186D01*
X175705400Y-119789877D01*
X175710942Y-119796237D01*
X175710766Y-119804670D01*
X175602563Y-120068184D01*
X175600013Y-120072013D01*
X175596184Y-120074563D01*
X175332670Y-120182766D01*
X175324237Y-120182942D01*
X175317877Y-120177400D01*
X175089957Y-119745169D01*
X175088738Y-119737963D01*
X175092031Y-119731441D01*
X175259441Y-119564031D01*
X175265963Y-119560738D01*
X175273167Y-119561956D01*
G37*
%TD.AperFunction*%
%TD*%
%TA.AperFunction,Conductor*%
%TO.N,VPP*%
G36*
X189004507Y-113100883D02*
G01*
X189241497Y-113199902D01*
X189267777Y-113210883D01*
X189273753Y-113216492D01*
X189274584Y-113224645D01*
X189266092Y-113257044D01*
X189264442Y-113260667D01*
X189264350Y-113260802D01*
X189263329Y-113262095D01*
X189240083Y-113287596D01*
X189232874Y-113306204D01*
X189231617Y-113308588D01*
X189220344Y-113325047D01*
X189212444Y-113358629D01*
X189211965Y-113360176D01*
X189199500Y-113392356D01*
X189199500Y-113412310D01*
X189199189Y-113414989D01*
X189194621Y-113434409D01*
X189199388Y-113468582D01*
X189199500Y-113470198D01*
X189199500Y-113509624D01*
X189199118Y-113512590D01*
X189152289Y-113691266D01*
X189148119Y-113697563D01*
X189140971Y-113700000D01*
X188862200Y-113700000D01*
X188853927Y-113696573D01*
X188850500Y-113688300D01*
X188850500Y-113549456D01*
X188851106Y-113545738D01*
X188851304Y-113545144D01*
X188852773Y-113540764D01*
X188850511Y-113491853D01*
X188850500Y-113491314D01*
X188850500Y-113470687D01*
X188850409Y-113470198D01*
X188849363Y-113464607D01*
X188849177Y-113463003D01*
X188847856Y-113434410D01*
X188847585Y-113428537D01*
X188839523Y-113410278D01*
X188838727Y-113407711D01*
X188835061Y-113388096D01*
X188816898Y-113358761D01*
X188816143Y-113357328D01*
X188802206Y-113325763D01*
X188788098Y-113311656D01*
X188786423Y-113309542D01*
X188775918Y-113292576D01*
X188748382Y-113271782D01*
X188747160Y-113270718D01*
X188736296Y-113259854D01*
X188733252Y-113254549D01*
X188725414Y-113224642D01*
X188726245Y-113216492D01*
X188732219Y-113210884D01*
X188995492Y-113100883D01*
X189000000Y-113099980D01*
X189004507Y-113100883D01*
G37*
%TD.AperFunction*%
%TD*%
%TA.AperFunction,Conductor*%
%TO.N,VPP*%
G36*
X189146073Y-112503427D02*
G01*
X189149500Y-112511700D01*
X189149500Y-112650544D01*
X189148894Y-112654262D01*
X189147226Y-112659236D01*
X189149488Y-112708146D01*
X189149500Y-112708686D01*
X189149500Y-112729315D01*
X189150634Y-112735384D01*
X189150821Y-112736993D01*
X189152415Y-112771464D01*
X189160474Y-112789716D01*
X189161272Y-112792292D01*
X189164939Y-112811904D01*
X189183100Y-112841237D01*
X189183855Y-112842670D01*
X189197793Y-112874236D01*
X189211903Y-112888345D01*
X189213574Y-112890454D01*
X189215936Y-112894268D01*
X189224081Y-112907423D01*
X189251616Y-112928216D01*
X189252838Y-112929280D01*
X189263702Y-112940144D01*
X189266747Y-112945451D01*
X189274584Y-112975354D01*
X189273753Y-112983507D01*
X189267777Y-112989116D01*
X189004511Y-113099115D01*
X189000000Y-113100019D01*
X188995489Y-113099115D01*
X188732221Y-112989116D01*
X188726245Y-112983507D01*
X188725414Y-112975357D01*
X188732137Y-112949705D01*
X188734804Y-112944796D01*
X188767249Y-112909205D01*
X188767538Y-112908902D01*
X188782174Y-112894268D01*
X188785669Y-112889164D01*
X188786663Y-112887910D01*
X188809916Y-112862404D01*
X188817127Y-112843787D01*
X188818376Y-112841417D01*
X188829656Y-112824952D01*
X188829656Y-112824951D01*
X188829657Y-112824950D01*
X188837553Y-112791372D01*
X188838028Y-112789834D01*
X188850500Y-112757644D01*
X188850500Y-112737690D01*
X188850811Y-112735011D01*
X188851028Y-112734088D01*
X188855379Y-112715590D01*
X188850611Y-112681417D01*
X188850500Y-112679802D01*
X188850500Y-112511700D01*
X188853927Y-112503427D01*
X188862200Y-112500000D01*
X189137800Y-112500000D01*
X189146073Y-112503427D01*
G37*
%TD.AperFunction*%
%TD*%
%TA.AperFunction,Conductor*%
%TO.N,VPP*%
G36*
X206203100Y-112803114D02*
G01*
X206466395Y-112913124D01*
X206472365Y-112918719D01*
X206473209Y-112926857D01*
X206352273Y-113393188D01*
X206348108Y-113399504D01*
X206340948Y-113401951D01*
X206059002Y-113401951D01*
X206051867Y-113399524D01*
X206047693Y-113393250D01*
X206047677Y-113393188D01*
X205924043Y-112926895D01*
X205924857Y-112918727D01*
X205930840Y-112913103D01*
X206194085Y-112803114D01*
X206198593Y-112802211D01*
X206203100Y-112803114D01*
G37*
%TD.AperFunction*%
%TD*%
%TA.AperFunction,Conductor*%
%TO.N,/MC_1*%
G36*
X171337662Y-119221713D02*
G01*
X171341230Y-119226857D01*
X171530577Y-119769888D01*
X171530707Y-119777197D01*
X171526473Y-119783156D01*
X171519529Y-119785440D01*
X171284907Y-119785440D01*
X171279433Y-119784081D01*
X170954593Y-119612138D01*
X170949061Y-119605768D01*
X170949252Y-119597333D01*
X171058142Y-119333501D01*
X171060688Y-119329689D01*
X171064505Y-119327150D01*
X171325739Y-119219885D01*
X171331954Y-119219144D01*
X171337662Y-119221713D01*
G37*
%TD.AperFunction*%
%TD*%
%TA.AperFunction,Conductor*%
%TO.N,VCC*%
G36*
X225633307Y-121255782D02*
G01*
X225637120Y-121263238D01*
X225698617Y-121837096D01*
X225697513Y-121843446D01*
X225693213Y-121848247D01*
X225687023Y-121850043D01*
X225400039Y-121850999D01*
X225399961Y-121850999D01*
X225112385Y-121850041D01*
X225106350Y-121848341D01*
X225102059Y-121843768D01*
X225100745Y-121837637D01*
X225135337Y-121263781D01*
X225138996Y-121255967D01*
X225147016Y-121252785D01*
X225625487Y-121252785D01*
X225633307Y-121255782D01*
G37*
%TD.AperFunction*%
%TD*%
%TA.AperFunction,Conductor*%
%TO.N,VPP*%
G36*
X203218167Y-121393396D02*
G01*
X203222352Y-121399612D01*
X203287510Y-121638327D01*
X203349457Y-121865279D01*
X203348683Y-121873494D01*
X203342681Y-121879156D01*
X203079511Y-121989115D01*
X203075000Y-121990019D01*
X203070489Y-121989115D01*
X202807134Y-121879080D01*
X202801182Y-121873519D01*
X202800301Y-121865424D01*
X202917770Y-121399832D01*
X202921924Y-121393465D01*
X202929114Y-121390995D01*
X203211066Y-121390995D01*
X203218167Y-121393396D01*
G37*
%TD.AperFunction*%
%TD*%
%TA.AperFunction,Conductor*%
%TO.N,Net-(D2-BK)*%
G36*
X163817122Y-108917599D02*
G01*
X164045042Y-109349830D01*
X164046261Y-109357036D01*
X164042966Y-109363560D01*
X163875560Y-109530966D01*
X163869036Y-109534261D01*
X163861830Y-109533042D01*
X163429599Y-109305122D01*
X163424057Y-109298762D01*
X163424233Y-109290329D01*
X163532436Y-109026815D01*
X163534986Y-109022986D01*
X163538815Y-109020436D01*
X163802330Y-108912232D01*
X163810762Y-108912057D01*
X163817122Y-108917599D01*
G37*
%TD.AperFunction*%
%TD*%
%TA.AperFunction,Conductor*%
%TO.N,/DCDC_OUT*%
G36*
X207033174Y-111139439D02*
G01*
X207196804Y-111206629D01*
X207296184Y-111247436D01*
X207300013Y-111249986D01*
X207302563Y-111253815D01*
X207410559Y-111516824D01*
X207410632Y-111525531D01*
X207404670Y-111531877D01*
X206953867Y-111741523D01*
X206946895Y-111742435D01*
X206940660Y-111739187D01*
X206810812Y-111609339D01*
X206807564Y-111603104D01*
X206808475Y-111596135D01*
X207018124Y-111145327D01*
X207024468Y-111139367D01*
X207033174Y-111139439D01*
G37*
%TD.AperFunction*%
%TD*%
%TA.AperFunction,Conductor*%
%TO.N,/P2*%
G36*
X208618317Y-143502283D02*
G01*
X208622551Y-143508241D01*
X208767020Y-143975038D01*
X208766441Y-143983453D01*
X208760354Y-143989293D01*
X208497510Y-144099115D01*
X208492999Y-144100019D01*
X208488488Y-144099115D01*
X208399406Y-144061894D01*
X208225645Y-143989293D01*
X208219558Y-143983453D01*
X208218979Y-143975039D01*
X208363449Y-143508239D01*
X208367683Y-143502283D01*
X208374626Y-143500000D01*
X208611374Y-143500000D01*
X208618317Y-143502283D01*
G37*
%TD.AperFunction*%
%TD*%
%TA.AperFunction,Conductor*%
%TO.N,VCC*%
G36*
X219027156Y-136747090D02*
G01*
X219030894Y-136754728D01*
X219078947Y-137331370D01*
X219077734Y-137337610D01*
X219073438Y-137342295D01*
X219067326Y-137344042D01*
X218780039Y-137344999D01*
X218779961Y-137344999D01*
X218492673Y-137344042D01*
X218486561Y-137342295D01*
X218482265Y-137337610D01*
X218481052Y-137331370D01*
X218529106Y-136754728D01*
X218532844Y-136747090D01*
X218540766Y-136744000D01*
X219019234Y-136744000D01*
X219027156Y-136747090D01*
G37*
%TD.AperFunction*%
%TD*%
%TA.AperFunction,Conductor*%
%TO.N,VPP*%
G36*
X197386231Y-106630092D02*
G01*
X197390358Y-106635194D01*
X197499797Y-106897116D01*
X197500701Y-106901655D01*
X197500030Y-107186835D01*
X197498211Y-107193073D01*
X197493343Y-107197379D01*
X197486929Y-107198423D01*
X197068658Y-107147971D01*
X197061786Y-107144628D01*
X196863217Y-106946059D01*
X196859973Y-106939844D01*
X196860863Y-106932891D01*
X196865569Y-106927695D01*
X196913980Y-106899293D01*
X197373642Y-106629613D01*
X197380006Y-106628013D01*
X197386231Y-106630092D01*
G37*
%TD.AperFunction*%
%TD*%
%TA.AperFunction,Conductor*%
%TO.N,/AUDIO*%
G36*
X203677453Y-133133558D02*
G01*
X203683293Y-133139645D01*
X203793115Y-133402489D01*
X203794019Y-133407000D01*
X203793115Y-133411511D01*
X203683293Y-133674354D01*
X203677453Y-133680441D01*
X203669038Y-133681020D01*
X203432443Y-133607796D01*
X203202239Y-133536550D01*
X203196283Y-133532317D01*
X203194000Y-133525374D01*
X203194000Y-133288626D01*
X203196283Y-133281683D01*
X203202239Y-133277449D01*
X203669039Y-133132979D01*
X203677453Y-133133558D01*
G37*
%TD.AperFunction*%
%TD*%
%TA.AperFunction,Conductor*%
%TO.N,VCC*%
G36*
X227337003Y-116999956D02*
G01*
X227343196Y-117001755D01*
X227347496Y-117006565D01*
X227348593Y-117012922D01*
X227286136Y-117586582D01*
X227282318Y-117594025D01*
X227274505Y-117597016D01*
X226796034Y-117597016D01*
X226788007Y-117593828D01*
X226784354Y-117586001D01*
X226750723Y-117012340D01*
X226752044Y-117006219D01*
X226756334Y-117001655D01*
X226762361Y-116999958D01*
X227050000Y-116999000D01*
X227337003Y-116999956D01*
G37*
%TD.AperFunction*%
%TD*%
%TA.AperFunction,Conductor*%
%TO.N,/P2*%
G36*
X181440317Y-123828783D02*
G01*
X181444551Y-123834741D01*
X181589020Y-124301538D01*
X181588441Y-124309953D01*
X181582354Y-124315793D01*
X181319511Y-124425615D01*
X181315000Y-124426519D01*
X181310489Y-124425615D01*
X181047645Y-124315793D01*
X181041558Y-124309953D01*
X181040979Y-124301539D01*
X181185449Y-123834739D01*
X181189683Y-123828783D01*
X181196626Y-123826500D01*
X181433374Y-123826500D01*
X181440317Y-123828783D01*
G37*
%TD.AperFunction*%
%TD*%
%TA.AperFunction,Conductor*%
%TO.N,/MC_1*%
G36*
X171534317Y-126459283D02*
G01*
X171538551Y-126465241D01*
X171683020Y-126932038D01*
X171682441Y-126940453D01*
X171676354Y-126946293D01*
X171413511Y-127056115D01*
X171409000Y-127057019D01*
X171404489Y-127056115D01*
X171141645Y-126946293D01*
X171135558Y-126940453D01*
X171134979Y-126932039D01*
X171279449Y-126465239D01*
X171283683Y-126459283D01*
X171290626Y-126457000D01*
X171527374Y-126457000D01*
X171534317Y-126459283D01*
G37*
%TD.AperFunction*%
%TD*%
%TA.AperFunction,Conductor*%
%TO.N,/S_SD*%
G36*
X217509160Y-133093481D02*
G01*
X217513421Y-133097590D01*
X217780063Y-133534559D01*
X217781772Y-133540962D01*
X217779728Y-133547266D01*
X217774587Y-133551449D01*
X217512182Y-133661088D01*
X217507632Y-133661992D01*
X217222641Y-133661042D01*
X217216538Y-133659300D01*
X217212242Y-133654627D01*
X217211018Y-133648401D01*
X217255130Y-133102740D01*
X217258859Y-133095084D01*
X217266792Y-133091984D01*
X217503434Y-133091984D01*
X217509160Y-133093481D01*
G37*
%TD.AperFunction*%
%TD*%
%TA.AperFunction,Conductor*%
%TO.N,/P2*%
G36*
X208497508Y-141800883D02*
G01*
X208760354Y-141910706D01*
X208766441Y-141916546D01*
X208767020Y-141924961D01*
X208622551Y-142391759D01*
X208618317Y-142397717D01*
X208611374Y-142400000D01*
X208374626Y-142400000D01*
X208367683Y-142397717D01*
X208363449Y-142391759D01*
X208218979Y-141924961D01*
X208219558Y-141916546D01*
X208225643Y-141910707D01*
X208488493Y-141800882D01*
X208492999Y-141799980D01*
X208497508Y-141800883D01*
G37*
%TD.AperFunction*%
%TD*%
%TA.AperFunction,Conductor*%
%TO.N,VCC*%
G36*
X219443458Y-130302470D02*
G01*
X219448251Y-130306770D01*
X219450043Y-130312954D01*
X219451000Y-130600000D01*
X219451000Y-130600078D01*
X219450041Y-130887594D01*
X219448337Y-130893635D01*
X219443757Y-130897926D01*
X219437618Y-130899233D01*
X219166957Y-130882470D01*
X218863562Y-130863679D01*
X218855761Y-130860015D01*
X218852586Y-130852002D01*
X218852586Y-130373531D01*
X218855590Y-130365704D01*
X218863059Y-130361896D01*
X219084696Y-130338522D01*
X219437118Y-130301358D01*
X219443458Y-130302470D01*
G37*
%TD.AperFunction*%
%TD*%
%TA.AperFunction,Conductor*%
%TO.N,/P2*%
G36*
X181319507Y-112960883D02*
G01*
X181582354Y-113070706D01*
X181588441Y-113076546D01*
X181589020Y-113084961D01*
X181444551Y-113551759D01*
X181440317Y-113557717D01*
X181433374Y-113560000D01*
X181196626Y-113560000D01*
X181189683Y-113557717D01*
X181185449Y-113551759D01*
X181040979Y-113084961D01*
X181041558Y-113076546D01*
X181047643Y-113070707D01*
X181310492Y-112960883D01*
X181315000Y-112959980D01*
X181319507Y-112960883D01*
G37*
%TD.AperFunction*%
%TD*%
%TA.AperFunction,Conductor*%
%TO.N,Net-(D1-RK)*%
G36*
X201902266Y-131994271D02*
G01*
X201906449Y-131999412D01*
X202016088Y-132261817D01*
X202016992Y-132266367D01*
X202016042Y-132551358D01*
X202014300Y-132557461D01*
X202009627Y-132561757D01*
X202003399Y-132562981D01*
X201758051Y-132543147D01*
X201457740Y-132518869D01*
X201450084Y-132515141D01*
X201446984Y-132507208D01*
X201446984Y-132270566D01*
X201448481Y-132264840D01*
X201452590Y-132260579D01*
X201889560Y-131993935D01*
X201895962Y-131992227D01*
X201902266Y-131994271D01*
G37*
%TD.AperFunction*%
%TD*%
%TA.AperFunction,Conductor*%
%TO.N,VPP*%
G36*
X192333882Y-123392251D02*
G01*
X192593127Y-123499248D01*
X192598571Y-123503840D01*
X192600342Y-123510740D01*
X192597784Y-123517388D01*
X192370806Y-123800000D01*
X192370806Y-124053245D01*
X192368329Y-124060444D01*
X192361946Y-124064595D01*
X192354361Y-124063940D01*
X192348785Y-124058756D01*
X192059742Y-123517388D01*
X192059307Y-123516574D01*
X192057954Y-123510301D01*
X192060114Y-123504257D01*
X192065136Y-123500261D01*
X192324929Y-123392262D01*
X192329404Y-123391367D01*
X192333882Y-123392251D01*
G37*
%TD.AperFunction*%
%TD*%
%TA.AperFunction,Conductor*%
%TO.N,Net-(D5-K)*%
G36*
X215422328Y-121614957D02*
G01*
X215428438Y-121616704D01*
X215432734Y-121621389D01*
X215433947Y-121627629D01*
X215385894Y-122204272D01*
X215382156Y-122211910D01*
X215374234Y-122215000D01*
X214895766Y-122215000D01*
X214887844Y-122211910D01*
X214884106Y-122204272D01*
X214836052Y-121627629D01*
X214837265Y-121621389D01*
X214841561Y-121616704D01*
X214847670Y-121614957D01*
X215135000Y-121614000D01*
X215422328Y-121614957D01*
G37*
%TD.AperFunction*%
%TD*%
%TA.AperFunction,Conductor*%
%TO.N,VCC*%
G36*
X219027156Y-131993090D02*
G01*
X219030894Y-132000728D01*
X219078947Y-132577370D01*
X219077734Y-132583610D01*
X219073438Y-132588295D01*
X219067326Y-132590042D01*
X218780039Y-132590999D01*
X218779961Y-132590999D01*
X218492673Y-132590042D01*
X218486561Y-132588295D01*
X218482265Y-132583610D01*
X218481052Y-132577370D01*
X218529106Y-132000728D01*
X218532844Y-131993090D01*
X218540766Y-131990000D01*
X219019234Y-131990000D01*
X219027156Y-131993090D01*
G37*
%TD.AperFunction*%
%TD*%
%TA.AperFunction,Conductor*%
%TO.N,VCC*%
G36*
X227322328Y-116261957D02*
G01*
X227328438Y-116263704D01*
X227332734Y-116268389D01*
X227333947Y-116274629D01*
X227285894Y-116851272D01*
X227282156Y-116858910D01*
X227274234Y-116862000D01*
X226795766Y-116862000D01*
X226787844Y-116858910D01*
X226784106Y-116851272D01*
X226736052Y-116274629D01*
X226737265Y-116268389D01*
X226741561Y-116263704D01*
X226747670Y-116261957D01*
X227035000Y-116261000D01*
X227322328Y-116261957D01*
G37*
%TD.AperFunction*%
%TD*%
%TA.AperFunction,Conductor*%
%TO.N,Net-(D1-BK)*%
G36*
X200883453Y-131482558D02*
G01*
X200889293Y-131488645D01*
X200999115Y-131751488D01*
X201000019Y-131755999D01*
X200999115Y-131760510D01*
X200889293Y-132023354D01*
X200883453Y-132029441D01*
X200875038Y-132030020D01*
X200638443Y-131956796D01*
X200408239Y-131885550D01*
X200402283Y-131881317D01*
X200400000Y-131874374D01*
X200400000Y-131637626D01*
X200402283Y-131630683D01*
X200408239Y-131626449D01*
X200875039Y-131481979D01*
X200883453Y-131482558D01*
G37*
%TD.AperFunction*%
%TD*%
%TA.AperFunction,Conductor*%
%TO.N,Net-(D1-GK)*%
G36*
X185002507Y-116897883D02*
G01*
X185265354Y-117007706D01*
X185271441Y-117013546D01*
X185272020Y-117021961D01*
X185127551Y-117488759D01*
X185123317Y-117494717D01*
X185116374Y-117497000D01*
X184879626Y-117497000D01*
X184872683Y-117494717D01*
X184868449Y-117488759D01*
X184723979Y-117021961D01*
X184724558Y-117013546D01*
X184730643Y-117007707D01*
X184993492Y-116897883D01*
X184998000Y-116896980D01*
X185002507Y-116897883D01*
G37*
%TD.AperFunction*%
%TD*%
%TA.AperFunction,Conductor*%
%TO.N,VCC*%
G36*
X219067328Y-137343957D02*
G01*
X219073438Y-137345704D01*
X219077734Y-137350389D01*
X219078947Y-137356629D01*
X219030894Y-137933272D01*
X219027156Y-137940910D01*
X219019234Y-137944000D01*
X218540766Y-137944000D01*
X218532844Y-137940910D01*
X218529106Y-137933272D01*
X218481052Y-137356629D01*
X218482265Y-137350389D01*
X218486561Y-137345704D01*
X218492670Y-137343957D01*
X218780000Y-137343000D01*
X219067328Y-137343957D01*
G37*
%TD.AperFunction*%
%TD*%
%TA.AperFunction,Conductor*%
%TO.N,Net-(D2-BK)*%
G36*
X174257167Y-119561956D02*
G01*
X174481380Y-119680186D01*
X174689400Y-119789877D01*
X174694942Y-119796237D01*
X174694766Y-119804670D01*
X174586563Y-120068184D01*
X174584013Y-120072013D01*
X174580184Y-120074563D01*
X174316670Y-120182766D01*
X174308237Y-120182942D01*
X174301877Y-120177400D01*
X174073957Y-119745169D01*
X174072738Y-119737963D01*
X174076031Y-119731441D01*
X174243441Y-119564031D01*
X174249963Y-119560738D01*
X174257167Y-119561956D01*
G37*
%TD.AperFunction*%
%TD*%
%TA.AperFunction,Conductor*%
%TO.N,Net-(D1-BK)*%
G36*
X186653507Y-115881883D02*
G01*
X186916354Y-115991706D01*
X186922441Y-115997546D01*
X186923020Y-116005961D01*
X186778551Y-116472759D01*
X186774317Y-116478717D01*
X186767374Y-116481000D01*
X186530626Y-116481000D01*
X186523683Y-116478717D01*
X186519449Y-116472759D01*
X186374979Y-116005961D01*
X186375558Y-115997546D01*
X186381643Y-115991707D01*
X186644492Y-115881883D01*
X186649000Y-115880980D01*
X186653507Y-115881883D01*
G37*
%TD.AperFunction*%
%TD*%
%TA.AperFunction,Conductor*%
%TO.N,/BOOT*%
G36*
X189602003Y-119366444D02*
G01*
X189622747Y-119374303D01*
X190003539Y-119518567D01*
X190008525Y-119522194D01*
X190010975Y-119527853D01*
X190010208Y-119533972D01*
X189901860Y-119796493D01*
X189899311Y-119800310D01*
X189895489Y-119802852D01*
X189633703Y-119910342D01*
X189627680Y-119911112D01*
X189622083Y-119908760D01*
X189618418Y-119903918D01*
X189406533Y-119381784D01*
X189406087Y-119374303D01*
X189410274Y-119368086D01*
X189417374Y-119365685D01*
X189597858Y-119365685D01*
X189602003Y-119366444D01*
G37*
%TD.AperFunction*%
%TD*%
%TA.AperFunction,Conductor*%
%TO.N,VCC*%
G36*
X227282318Y-116405975D02*
G01*
X227286136Y-116413418D01*
X227348593Y-116987077D01*
X227347496Y-116993434D01*
X227343196Y-116998244D01*
X227337001Y-117000043D01*
X227050039Y-117000999D01*
X227049961Y-117000999D01*
X226762364Y-117000041D01*
X226756334Y-116998344D01*
X226752044Y-116993780D01*
X226750723Y-116987658D01*
X226784354Y-116413998D01*
X226788007Y-116406172D01*
X226796034Y-116402984D01*
X227274505Y-116402984D01*
X227282318Y-116405975D01*
G37*
%TD.AperFunction*%
%TD*%
%TA.AperFunction,Conductor*%
%TO.N,VPP*%
G36*
X203218123Y-120712533D02*
G01*
X203222295Y-120718821D01*
X203345072Y-121185346D01*
X203344247Y-121193506D01*
X203338268Y-121199120D01*
X203075011Y-121309115D01*
X203070500Y-121310019D01*
X203065989Y-121309115D01*
X202802712Y-121199112D01*
X202796738Y-121193508D01*
X202795903Y-121185362D01*
X202917716Y-120718843D01*
X202921885Y-120712540D01*
X202929037Y-120710099D01*
X203210980Y-120710099D01*
X203218123Y-120712533D01*
G37*
%TD.AperFunction*%
%TD*%
%TA.AperFunction,Conductor*%
%TO.N,/S_SD*%
G36*
X217387507Y-130486883D02*
G01*
X217650354Y-130596706D01*
X217656441Y-130602546D01*
X217657020Y-130610961D01*
X217512551Y-131077759D01*
X217508317Y-131083717D01*
X217501374Y-131086000D01*
X217264626Y-131086000D01*
X217257683Y-131083717D01*
X217253449Y-131077759D01*
X217108979Y-130610961D01*
X217109558Y-130602546D01*
X217115643Y-130596707D01*
X217378492Y-130486883D01*
X217383000Y-130485980D01*
X217387507Y-130486883D01*
G37*
%TD.AperFunction*%
%TD*%
%TA.AperFunction,Conductor*%
%TO.N,/VCC_LED*%
G36*
X205232243Y-136989057D02*
G01*
X205415011Y-137064105D01*
X205496184Y-137097436D01*
X205500013Y-137099986D01*
X205502563Y-137103815D01*
X205610941Y-137367754D01*
X205611202Y-137375946D01*
X205606023Y-137382298D01*
X205189596Y-137625773D01*
X205182196Y-137627277D01*
X205175418Y-137623946D01*
X204976053Y-137424581D01*
X204972722Y-137417803D01*
X204974225Y-137410407D01*
X205217702Y-136993974D01*
X205224053Y-136988797D01*
X205232243Y-136989057D01*
G37*
%TD.AperFunction*%
%TD*%
%TA.AperFunction,Conductor*%
%TO.N,Net-(D1-RK)*%
G36*
X185891507Y-114992883D02*
G01*
X186154354Y-115102706D01*
X186160441Y-115108546D01*
X186161020Y-115116961D01*
X186016551Y-115583759D01*
X186012317Y-115589717D01*
X186005374Y-115592000D01*
X185768626Y-115592000D01*
X185761683Y-115589717D01*
X185757449Y-115583759D01*
X185612979Y-115116961D01*
X185613558Y-115108546D01*
X185619643Y-115102707D01*
X185882492Y-114992883D01*
X185887000Y-114991980D01*
X185891507Y-114992883D01*
G37*
%TD.AperFunction*%
%TD*%
%TA.AperFunction,Conductor*%
%TO.N,VPP*%
G36*
X189004508Y-109500883D02*
G01*
X189217703Y-109589960D01*
X189267777Y-109610883D01*
X189273753Y-109616492D01*
X189274584Y-109624645D01*
X189267862Y-109650292D01*
X189265190Y-109655208D01*
X189232791Y-109690747D01*
X189232419Y-109691138D01*
X189217822Y-109705736D01*
X189214335Y-109710824D01*
X189213332Y-109712091D01*
X189190083Y-109737596D01*
X189182874Y-109756204D01*
X189181617Y-109758588D01*
X189170344Y-109775047D01*
X189162444Y-109808629D01*
X189161965Y-109810176D01*
X189149500Y-109842356D01*
X189149500Y-109862310D01*
X189149189Y-109864989D01*
X189144621Y-109884409D01*
X189149388Y-109918582D01*
X189149500Y-109920198D01*
X189149500Y-110088300D01*
X189146073Y-110096573D01*
X189137800Y-110100000D01*
X188862200Y-110100000D01*
X188853927Y-110096573D01*
X188850500Y-110088300D01*
X188850500Y-109961772D01*
X188850679Y-109959735D01*
X188850825Y-109958908D01*
X188850826Y-109958904D01*
X188850969Y-109951764D01*
X188850794Y-109950472D01*
X188851294Y-109945178D01*
X188852773Y-109940765D01*
X188850512Y-109891855D01*
X188850500Y-109891315D01*
X188850500Y-109870687D01*
X188850500Y-109870685D01*
X188849363Y-109864607D01*
X188849177Y-109863003D01*
X188849145Y-109862310D01*
X188847585Y-109828538D01*
X188839523Y-109810279D01*
X188838726Y-109807706D01*
X188835061Y-109788096D01*
X188816897Y-109758760D01*
X188816142Y-109757327D01*
X188802206Y-109725763D01*
X188788098Y-109711656D01*
X188786423Y-109709542D01*
X188775919Y-109692577D01*
X188774013Y-109691138D01*
X188770617Y-109688573D01*
X188768067Y-109685922D01*
X188757076Y-109670128D01*
X188757073Y-109670123D01*
X188750379Y-109662399D01*
X188748578Y-109659597D01*
X188732296Y-109623945D01*
X188731305Y-109617846D01*
X188733558Y-109612093D01*
X188738424Y-109608291D01*
X188995493Y-109500882D01*
X188999999Y-109499980D01*
X189004508Y-109500883D01*
G37*
%TD.AperFunction*%
%TD*%
%TA.AperFunction,Conductor*%
%TO.N,VCC*%
G36*
X225673328Y-121099957D02*
G01*
X225679438Y-121101704D01*
X225683734Y-121106389D01*
X225684947Y-121112629D01*
X225636894Y-121689272D01*
X225633156Y-121696910D01*
X225625234Y-121700000D01*
X225146766Y-121700000D01*
X225138844Y-121696910D01*
X225135106Y-121689272D01*
X225087052Y-121112629D01*
X225088265Y-121106389D01*
X225092561Y-121101704D01*
X225098670Y-121099957D01*
X225386000Y-121099000D01*
X225673328Y-121099957D01*
G37*
%TD.AperFunction*%
%TD*%
%TA.AperFunction,Conductor*%
%TO.N,VCC*%
G36*
X219067328Y-132589957D02*
G01*
X219073438Y-132591704D01*
X219077734Y-132596389D01*
X219078947Y-132602629D01*
X219030894Y-133179272D01*
X219027156Y-133186910D01*
X219019234Y-133190000D01*
X218540766Y-133190000D01*
X218532844Y-133186910D01*
X218529106Y-133179272D01*
X218481052Y-132602629D01*
X218482265Y-132596389D01*
X218486561Y-132591704D01*
X218492670Y-132589957D01*
X218780000Y-132589000D01*
X219067328Y-132589957D01*
G37*
%TD.AperFunction*%
%TD*%
%TA.AperFunction,Conductor*%
%TO.N,/P1*%
G36*
X190590507Y-140519883D02*
G01*
X190853354Y-140629706D01*
X190859441Y-140635546D01*
X190860020Y-140643961D01*
X190715551Y-141110759D01*
X190711317Y-141116717D01*
X190704374Y-141119000D01*
X190467626Y-141119000D01*
X190460683Y-141116717D01*
X190456449Y-141110759D01*
X190311979Y-140643961D01*
X190312558Y-140635546D01*
X190318643Y-140629707D01*
X190581492Y-140519883D01*
X190586000Y-140518980D01*
X190590507Y-140519883D01*
G37*
%TD.AperFunction*%
%TD*%
%TA.AperFunction,Conductor*%
%TO.N,VCC*%
G36*
X219067328Y-130612957D02*
G01*
X219073438Y-130614704D01*
X219077734Y-130619389D01*
X219078947Y-130625629D01*
X219030894Y-131202272D01*
X219027156Y-131209910D01*
X219019234Y-131213000D01*
X218540766Y-131213000D01*
X218532844Y-131209910D01*
X218529106Y-131202272D01*
X218481052Y-130625629D01*
X218482265Y-130619389D01*
X218486561Y-130614704D01*
X218492670Y-130612957D01*
X218780000Y-130612000D01*
X219067328Y-130612957D01*
G37*
%TD.AperFunction*%
%TD*%
%TA.AperFunction,Conductor*%
%TO.N,Net-(D1-GK)*%
G36*
X202791266Y-132502271D02*
G01*
X202795449Y-132507412D01*
X202879436Y-132708423D01*
X202901289Y-132760726D01*
X202905088Y-132769817D01*
X202905992Y-132774367D01*
X202905042Y-133059358D01*
X202903300Y-133065461D01*
X202898627Y-133069757D01*
X202892399Y-133070981D01*
X202647051Y-133051147D01*
X202346740Y-133026869D01*
X202339084Y-133023141D01*
X202335984Y-133015208D01*
X202335984Y-132784940D01*
X202339222Y-132776860D01*
X202347144Y-132773252D01*
X202363146Y-132772512D01*
X202363686Y-132772500D01*
X202384314Y-132772500D01*
X202384315Y-132772500D01*
X202390394Y-132771362D01*
X202391977Y-132771178D01*
X202426463Y-132769585D01*
X202444725Y-132761520D01*
X202447287Y-132760727D01*
X202466904Y-132757061D01*
X202466906Y-132757060D01*
X202496237Y-132738899D01*
X202497664Y-132738146D01*
X202529236Y-132724206D01*
X202543346Y-132710094D01*
X202545451Y-132708426D01*
X202562423Y-132697919D01*
X202583217Y-132670381D01*
X202584273Y-132669167D01*
X202624346Y-132629094D01*
X202626451Y-132627426D01*
X202643423Y-132616919D01*
X202664217Y-132589381D01*
X202665273Y-132588167D01*
X202669645Y-132583797D01*
X202681303Y-132566777D01*
X202681606Y-132566354D01*
X202687630Y-132558378D01*
X202690869Y-132555445D01*
X202778560Y-132501935D01*
X202784962Y-132500227D01*
X202791266Y-132502271D01*
G37*
%TD.AperFunction*%
%TD*%
%TA.AperFunction,Conductor*%
%TO.N,/VCC_LED*%
G36*
X200048119Y-143402437D02*
G01*
X200052289Y-143408734D01*
X200174584Y-143875354D01*
X200173753Y-143883507D01*
X200167777Y-143889116D01*
X199904511Y-143999115D01*
X199900000Y-144000019D01*
X199895489Y-143999115D01*
X199632222Y-143889116D01*
X199626246Y-143883507D01*
X199625415Y-143875354D01*
X199747711Y-143408734D01*
X199751881Y-143402437D01*
X199759029Y-143400000D01*
X200040971Y-143400000D01*
X200048119Y-143402437D01*
G37*
%TD.AperFunction*%
%TD*%
%TA.AperFunction,Conductor*%
%TO.N,VCC*%
G36*
X219369272Y-130362106D02*
G01*
X219376910Y-130365844D01*
X219380000Y-130373766D01*
X219380000Y-130852234D01*
X219376910Y-130860156D01*
X219369272Y-130863894D01*
X218792629Y-130911947D01*
X218786389Y-130910734D01*
X218781704Y-130906438D01*
X218779957Y-130900328D01*
X218779000Y-130613000D01*
X218779957Y-130325670D01*
X218781704Y-130319561D01*
X218786389Y-130315265D01*
X218792627Y-130314052D01*
X219369272Y-130362106D01*
G37*
%TD.AperFunction*%
%TD*%
%TA.AperFunction,Conductor*%
%TO.N,/RESET*%
G36*
X205177043Y-116151383D02*
G01*
X205437865Y-116260360D01*
X205442870Y-116264349D01*
X205445027Y-116270377D01*
X205443689Y-116276637D01*
X205203298Y-116729854D01*
X205198993Y-116734398D01*
X205192962Y-116736072D01*
X205009385Y-116736072D01*
X205002064Y-116733499D01*
X204997964Y-116726910D01*
X204963488Y-116571792D01*
X204897496Y-116274862D01*
X204898529Y-116266942D01*
X204904405Y-116261530D01*
X205168028Y-116151383D01*
X205172536Y-116150480D01*
X205177043Y-116151383D01*
G37*
%TD.AperFunction*%
%TD*%
%TA.AperFunction,Conductor*%
%TO.N,/MOTOR2A*%
G36*
X196565453Y-126783558D02*
G01*
X196571293Y-126789645D01*
X196681115Y-127052489D01*
X196682019Y-127057000D01*
X196681115Y-127061511D01*
X196571293Y-127324354D01*
X196565453Y-127330441D01*
X196557038Y-127331020D01*
X196320443Y-127257796D01*
X196090239Y-127186550D01*
X196084283Y-127182317D01*
X196082000Y-127175374D01*
X196082000Y-126938626D01*
X196084283Y-126931683D01*
X196090239Y-126927449D01*
X196557039Y-126782979D01*
X196565453Y-126783558D01*
G37*
%TD.AperFunction*%
%TD*%
%TA.AperFunction,Conductor*%
%TO.N,VPP*%
G36*
X203079507Y-121990883D02*
G01*
X203316497Y-122089902D01*
X203342777Y-122100883D01*
X203348753Y-122106492D01*
X203349584Y-122114645D01*
X203227289Y-122581266D01*
X203223119Y-122587563D01*
X203215971Y-122590000D01*
X202934029Y-122590000D01*
X202926881Y-122587563D01*
X202922711Y-122581266D01*
X202800415Y-122114645D01*
X202801246Y-122106492D01*
X202807221Y-122100883D01*
X203070492Y-121990883D01*
X203075000Y-121989980D01*
X203079507Y-121990883D01*
G37*
%TD.AperFunction*%
%TD*%
%TA.AperFunction,Conductor*%
%TO.N,VPP*%
G36*
X189004507Y-120200883D02*
G01*
X189241497Y-120299902D01*
X189267777Y-120310883D01*
X189273753Y-120316492D01*
X189274584Y-120324645D01*
X189152289Y-120791266D01*
X189148119Y-120797563D01*
X189140971Y-120800000D01*
X188862200Y-120800000D01*
X188853927Y-120796573D01*
X188850500Y-120788300D01*
X188850500Y-120649456D01*
X188851106Y-120645738D01*
X188852773Y-120640763D01*
X188850512Y-120591854D01*
X188850500Y-120591314D01*
X188850500Y-120570687D01*
X188849364Y-120564614D01*
X188849177Y-120563003D01*
X188847585Y-120528537D01*
X188839523Y-120510278D01*
X188838727Y-120507711D01*
X188835061Y-120488096D01*
X188816898Y-120458761D01*
X188816143Y-120457328D01*
X188802206Y-120425763D01*
X188788098Y-120411656D01*
X188786423Y-120409542D01*
X188775918Y-120392576D01*
X188748382Y-120371782D01*
X188747160Y-120370718D01*
X188736296Y-120359854D01*
X188733252Y-120354549D01*
X188725414Y-120324642D01*
X188726245Y-120316492D01*
X188732219Y-120310884D01*
X188995492Y-120200883D01*
X189000000Y-120199980D01*
X189004507Y-120200883D01*
G37*
%TD.AperFunction*%
%TD*%
%TA.AperFunction,Conductor*%
%TO.N,VCC*%
G36*
X225641099Y-120506572D02*
G01*
X225979427Y-120844900D01*
X225982844Y-120852687D01*
X225980086Y-120860731D01*
X225606318Y-121302457D01*
X225601048Y-121306011D01*
X225594697Y-121306286D01*
X225589140Y-121303200D01*
X225385293Y-121100707D01*
X225385238Y-121100652D01*
X225182799Y-120896859D01*
X225179713Y-120891302D01*
X225179988Y-120884951D01*
X225183539Y-120879684D01*
X225625271Y-120505911D01*
X225633312Y-120503155D01*
X225641099Y-120506572D01*
G37*
%TD.AperFunction*%
%TD*%
%TA.AperFunction,Conductor*%
%TO.N,/DCDC_OUT*%
G36*
X206903417Y-114083135D02*
G01*
X207203771Y-114379615D01*
X207206837Y-114384854D01*
X207206864Y-114390926D01*
X207203844Y-114396194D01*
X207003446Y-114597537D01*
X206999625Y-114600095D01*
X206995114Y-114600983D01*
X206755355Y-114600184D01*
X206711660Y-114600038D01*
X206703413Y-114596598D01*
X206700000Y-114588339D01*
X206700000Y-114340113D01*
X206700119Y-114338448D01*
X206705647Y-114300000D01*
X206700118Y-114261550D01*
X206700000Y-114259887D01*
X206700000Y-114091462D01*
X206703427Y-114083189D01*
X206711700Y-114079762D01*
X206895198Y-114079762D01*
X206903417Y-114083135D01*
G37*
%TD.AperFunction*%
%TD*%
%TA.AperFunction,Conductor*%
%TO.N,Net-(U2-VO1)*%
G36*
X222972099Y-126082572D02*
G01*
X223310427Y-126420900D01*
X223313844Y-126428687D01*
X223311086Y-126436731D01*
X222937318Y-126878457D01*
X222932048Y-126882011D01*
X222925697Y-126882286D01*
X222920140Y-126879200D01*
X222716293Y-126676707D01*
X222716238Y-126676652D01*
X222513799Y-126472859D01*
X222510713Y-126467302D01*
X222510988Y-126460951D01*
X222514539Y-126455684D01*
X222956271Y-126081911D01*
X222964312Y-126079155D01*
X222972099Y-126082572D01*
G37*
%TD.AperFunction*%
%TD*%
%TA.AperFunction,Conductor*%
%TO.N,/MOTOR2A*%
G36*
X195876760Y-126927449D02*
G01*
X195882717Y-126931683D01*
X195885000Y-126938626D01*
X195885000Y-127175374D01*
X195882717Y-127182317D01*
X195876760Y-127186550D01*
X195702453Y-127240496D01*
X195409961Y-127331020D01*
X195401546Y-127330441D01*
X195395706Y-127324354D01*
X195333459Y-127175374D01*
X195285883Y-127061507D01*
X195284980Y-127057000D01*
X195285883Y-127052492D01*
X195395707Y-126789643D01*
X195401546Y-126783558D01*
X195409960Y-126782979D01*
X195876760Y-126927449D01*
G37*
%TD.AperFunction*%
%TD*%
%TA.AperFunction,Conductor*%
%TO.N,VPP*%
G36*
X194678669Y-107705378D02*
G01*
X194879338Y-107906047D01*
X194882620Y-107912481D01*
X194996437Y-108627546D01*
X194995575Y-108634133D01*
X194991266Y-108639190D01*
X194984899Y-108641085D01*
X194502752Y-108641766D01*
X194498254Y-108640874D01*
X194494447Y-108638324D01*
X194152801Y-108295309D01*
X194149397Y-108287388D01*
X194152343Y-108279286D01*
X194661651Y-107705878D01*
X194666925Y-107702478D01*
X194673201Y-107702292D01*
X194678669Y-107705378D01*
G37*
%TD.AperFunction*%
%TD*%
%TA.AperFunction,Conductor*%
%TO.N,VPP*%
G36*
X189148119Y-119602437D02*
G01*
X189152289Y-119608734D01*
X189274584Y-120075354D01*
X189273753Y-120083507D01*
X189267777Y-120089116D01*
X189004511Y-120199115D01*
X189000000Y-120200019D01*
X188995489Y-120199115D01*
X188732221Y-120089116D01*
X188726245Y-120083507D01*
X188725414Y-120075357D01*
X188732137Y-120049705D01*
X188734804Y-120044796D01*
X188767249Y-120009205D01*
X188767538Y-120008902D01*
X188782174Y-119994268D01*
X188785669Y-119989164D01*
X188786663Y-119987910D01*
X188809916Y-119962404D01*
X188817127Y-119943787D01*
X188818376Y-119941417D01*
X188829656Y-119924952D01*
X188829656Y-119924951D01*
X188829657Y-119924950D01*
X188837553Y-119891372D01*
X188838028Y-119889834D01*
X188850500Y-119857644D01*
X188850500Y-119837690D01*
X188850811Y-119835011D01*
X188852462Y-119827990D01*
X188855379Y-119815590D01*
X188850611Y-119781417D01*
X188850500Y-119779802D01*
X188850500Y-119611700D01*
X188853927Y-119603427D01*
X188862200Y-119600000D01*
X189140971Y-119600000D01*
X189148119Y-119602437D01*
G37*
%TD.AperFunction*%
%TD*%
%TA.AperFunction,Conductor*%
%TO.N,VCC*%
G36*
X219027103Y-137479118D02*
G01*
X219030813Y-137486819D01*
X219074058Y-138062465D01*
X219072809Y-138068666D01*
X219068515Y-138073311D01*
X219062430Y-138075041D01*
X218775039Y-138075999D01*
X218774961Y-138075999D01*
X218487780Y-138075042D01*
X218481640Y-138073278D01*
X218477343Y-138068551D01*
X218476168Y-138062274D01*
X218529023Y-137486625D01*
X218532789Y-137479052D01*
X218540675Y-137475995D01*
X219019146Y-137475995D01*
X219027103Y-137479118D01*
G37*
%TD.AperFunction*%
%TD*%
%TA.AperFunction,Conductor*%
%TO.N,Net-(D2-GK)*%
G36*
X174257167Y-120577956D02*
G01*
X174481380Y-120696186D01*
X174689400Y-120805877D01*
X174694942Y-120812237D01*
X174694766Y-120820670D01*
X174586563Y-121084184D01*
X174584013Y-121088013D01*
X174580184Y-121090563D01*
X174316670Y-121198766D01*
X174308237Y-121198942D01*
X174301877Y-121193400D01*
X174073957Y-120761169D01*
X174072738Y-120753963D01*
X174076031Y-120747441D01*
X174243441Y-120580031D01*
X174249963Y-120576738D01*
X174257167Y-120577956D01*
G37*
%TD.AperFunction*%
%TD*%
%TA.AperFunction,Conductor*%
%TO.N,Net-(D2-GK)*%
G36*
X164452122Y-110568599D02*
G01*
X164680042Y-111000830D01*
X164681261Y-111008036D01*
X164677966Y-111014560D01*
X164510560Y-111181966D01*
X164504036Y-111185261D01*
X164496830Y-111184042D01*
X164064599Y-110956122D01*
X164059057Y-110949762D01*
X164059233Y-110941329D01*
X164167436Y-110677815D01*
X164169986Y-110673986D01*
X164173815Y-110671436D01*
X164437330Y-110563232D01*
X164445762Y-110563057D01*
X164452122Y-110568599D01*
G37*
%TD.AperFunction*%
%TD*%
%TA.AperFunction,Conductor*%
%TO.N,VPP*%
G36*
X204174957Y-116689275D02*
G01*
X204361445Y-116765850D01*
X204438367Y-116797436D01*
X204442196Y-116799986D01*
X204444746Y-116803815D01*
X204553316Y-117068223D01*
X204553668Y-117076134D01*
X204548900Y-117082456D01*
X204154807Y-117340401D01*
X204147198Y-117342250D01*
X204140127Y-117338885D01*
X203940751Y-117139509D01*
X203937465Y-117133047D01*
X203938616Y-117125893D01*
X204004093Y-116998441D01*
X204005644Y-116996145D01*
X204025377Y-116973373D01*
X204085165Y-116842457D01*
X204085251Y-116841858D01*
X204086421Y-116838187D01*
X204160109Y-116694751D01*
X204166467Y-116689122D01*
X204174957Y-116689275D01*
G37*
%TD.AperFunction*%
%TD*%
%TA.AperFunction,Conductor*%
%TO.N,Net-(D2-RK)*%
G36*
X163309122Y-107393599D02*
G01*
X163537042Y-107825830D01*
X163538261Y-107833036D01*
X163534966Y-107839560D01*
X163367560Y-108006966D01*
X163361036Y-108010261D01*
X163353830Y-108009042D01*
X162921599Y-107781122D01*
X162916057Y-107774762D01*
X162916233Y-107766329D01*
X163024436Y-107502815D01*
X163026986Y-107498986D01*
X163030815Y-107496436D01*
X163294330Y-107388232D01*
X163302762Y-107388057D01*
X163309122Y-107393599D01*
G37*
%TD.AperFunction*%
%TD*%
%TA.AperFunction,Conductor*%
%TO.N,VPP*%
G36*
X203075007Y-121310883D02*
G01*
X203338268Y-121420879D01*
X203344247Y-121426493D01*
X203345072Y-121434653D01*
X203222295Y-121901179D01*
X203218123Y-121907467D01*
X203210980Y-121909901D01*
X202929037Y-121909901D01*
X202921885Y-121907460D01*
X202917717Y-121901157D01*
X202795907Y-121434653D01*
X202795903Y-121434636D01*
X202796738Y-121426491D01*
X202802711Y-121420887D01*
X203065992Y-121310883D01*
X203070500Y-121309980D01*
X203075007Y-121310883D01*
G37*
%TD.AperFunction*%
%TD*%
%TA.AperFunction,Conductor*%
%TO.N,/RESET*%
G36*
X188477896Y-109392163D02*
G01*
X188481357Y-109397582D01*
X188499329Y-109457804D01*
X188499699Y-109462815D01*
X188494353Y-109499999D01*
X188514834Y-109642456D01*
X188574623Y-109773374D01*
X188601770Y-109804703D01*
X188604139Y-109809019D01*
X188645510Y-109947649D01*
X188645367Y-109954789D01*
X188641100Y-109960516D01*
X188634299Y-109962695D01*
X188452808Y-109962695D01*
X188447498Y-109961421D01*
X188434475Y-109954789D01*
X188286776Y-109879570D01*
X188095318Y-109782066D01*
X188089654Y-109775698D01*
X188089812Y-109767179D01*
X188198639Y-109503501D01*
X188201185Y-109499689D01*
X188205002Y-109497150D01*
X188465703Y-109390104D01*
X188472093Y-109389391D01*
X188477896Y-109392163D01*
G37*
%TD.AperFunction*%
%TD*%
%TA.AperFunction,Conductor*%
%TO.N,/P1*%
G36*
X190711317Y-142602283D02*
G01*
X190715551Y-142608241D01*
X190860020Y-143075038D01*
X190859441Y-143083453D01*
X190853354Y-143089293D01*
X190590511Y-143199115D01*
X190586000Y-143200019D01*
X190581489Y-143199115D01*
X190318645Y-143089293D01*
X190312558Y-143083453D01*
X190311979Y-143075039D01*
X190456449Y-142608239D01*
X190460683Y-142602283D01*
X190467626Y-142600000D01*
X190704374Y-142600000D01*
X190711317Y-142602283D01*
G37*
%TD.AperFunction*%
%TD*%
%TA.AperFunction,Conductor*%
%TO.N,/P1*%
G36*
X180557507Y-112579883D02*
G01*
X180820354Y-112689706D01*
X180826441Y-112695546D01*
X180827020Y-112703961D01*
X180682551Y-113170759D01*
X180678317Y-113176717D01*
X180671374Y-113179000D01*
X180434626Y-113179000D01*
X180427683Y-113176717D01*
X180423449Y-113170759D01*
X180278979Y-112703961D01*
X180279558Y-112695546D01*
X180285643Y-112689707D01*
X180548492Y-112579883D01*
X180553000Y-112578980D01*
X180557507Y-112579883D01*
G37*
%TD.AperFunction*%
%TD*%
%TA.AperFunction,Conductor*%
%TO.N,/P1*%
G36*
X180677173Y-123858563D02*
G01*
X180680918Y-123866183D01*
X180727908Y-124413842D01*
X180726706Y-124420093D01*
X180722410Y-124424790D01*
X180716290Y-124426542D01*
X180431362Y-124427492D01*
X180426812Y-124426588D01*
X180426601Y-124426500D01*
X180387396Y-124410119D01*
X180164321Y-124316913D01*
X180159195Y-124312752D01*
X180157138Y-124306479D01*
X180158803Y-124300093D01*
X180422590Y-123861156D01*
X180426858Y-123857000D01*
X180432619Y-123855483D01*
X180669261Y-123855483D01*
X180677173Y-123858563D01*
G37*
%TD.AperFunction*%
%TD*%
%TA.AperFunction,Conductor*%
%TO.N,Net-(U2-VO1)*%
G36*
X228552610Y-124757265D02*
G01*
X228557295Y-124761561D01*
X228559042Y-124767673D01*
X228560000Y-125055000D01*
X228560000Y-125055078D01*
X228559042Y-125342326D01*
X228557295Y-125348438D01*
X228552610Y-125352734D01*
X228546370Y-125353947D01*
X227969728Y-125305894D01*
X227962090Y-125302156D01*
X227959000Y-125294234D01*
X227959000Y-124815766D01*
X227962090Y-124807844D01*
X227969728Y-124804106D01*
X227969727Y-124804106D01*
X228546371Y-124756052D01*
X228552610Y-124757265D01*
G37*
%TD.AperFunction*%
%TD*%
M02*
