M48
; DRILL file {KiCad 7.0.1} date Tue Aug  8 22:15:55 2023
; FORMAT={-:-/ absolute / metric / decimal}
; #@! TF.CreationDate,2023-08-08T22:15:55+07:00
; #@! TF.GenerationSoftware,Kicad,Pcbnew,7.0.1
; #@! TF.FileFunction,MixedPlating,1,2
FMAT,2
METRIC
; #@! TA.AperFunction,Plated,PTH,ViaDrill
T1C0.300
; #@! TA.AperFunction,Plated,PTH,ComponentDrill
T2C0.650
; #@! TA.AperFunction,Plated,PTH,ComponentDrill
T3C0.750
; #@! TA.AperFunction,Plated,PTH,ComponentDrill
T4C0.800
; #@! TA.AperFunction,Plated,PTH,ComponentDrill
T5C0.900
; #@! TA.AperFunction,Plated,PTH,ComponentDrill
T6C1.000
; #@! TA.AperFunction,NonPlated,NPTH,ComponentDrill
T7C3.000
%
G90
G05
T1
X163.027Y-107.499
X163.535Y-109.023
X164.17Y-110.674
X166.075Y-120.88
X166.19Y-132.9
X166.202Y-127.565
X166.202Y-131.121
X166.23Y-129.05
X167.37Y-130.0
X167.4Y-132.31
X167.599Y-120.86
X167.98Y-129.06
X171.06Y-119.33
X171.409Y-127.057
X173.314Y-113.341
X174.584Y-120.072
X174.584Y-121.088
X175.6Y-120.072
X175.727Y-142.678
X176.997Y-145.091
X177.886Y-127.438
X177.886Y-133.661
X178.902Y-110.928
X180.429Y-124.426
X180.553Y-112.579
X181.315Y-112.96
X181.315Y-124.426
X181.569Y-129.089
X181.569Y-135.312
X184.363Y-110.928
X184.998Y-116.897
X185.887Y-114.992
X186.649Y-115.881
X187.919Y-138.36
X188.2Y-109.5
X188.6Y-108.8
X189.0Y-109.5
X189.0Y-113.1
X189.0Y-120.2
X189.9Y-119.8
X190.5Y-121.3
X190.586Y-140.519
X190.586Y-143.2
X191.3Y-112.1
X192.33Y-123.39
X193.0Y-113.3
X193.5Y-117.7
X193.6Y-118.6
X193.9Y-111.7
X194.777Y-133.153
X194.9Y-106.5
X195.285Y-127.057
X195.3Y-145.5
X196.047Y-138.36
X196.682Y-127.057
X196.902Y-145.5
X197.2Y-113.6
X197.2Y-115.4
X197.2Y-117.2
X197.5Y-106.9
X198.5Y-145.5
X198.714Y-122.3
X198.841Y-107.88
X199.0Y-113.6
X199.0Y-115.4
X199.0Y-117.2
X199.7Y-106.5
X199.9Y-123.2
X199.9Y-144.0
X200.1Y-121.3
X200.256Y-111.006
X200.4Y-145.5
X200.5Y-108.3
X200.8Y-113.6
X200.8Y-115.4
X200.8Y-117.2
X200.9Y-120.8
X201.0Y-131.756
X201.4Y-121.6
X201.9Y-120.8
X202.016Y-132.264
X202.08Y-107.92
X202.308Y-145.5
X202.5Y-110.42
X202.9Y-109.8
X202.905Y-132.772
X203.07Y-121.31
X203.075Y-121.99
X203.6Y-108.3
X203.6Y-116.7
X203.794Y-133.407
X204.0Y-145.5
X204.3Y-109.9
X204.4Y-115.7
X204.442Y-116.8
X204.5Y-140.4
X204.6Y-122.9
X205.1Y-112.6
X205.15Y-117.8
X205.173Y-116.15
X205.2Y-109.9
X205.2Y-114.7
X205.5Y-137.1
X205.7Y-109.3
X205.8Y-122.8
X205.953Y-130.867
X205.953Y-136.074
X206.0Y-107.9
X206.199Y-112.802
X206.2Y-114.3
X206.2Y-123.5
X207.0Y-114.6
X207.3Y-111.25
X207.604Y-116.77
X208.1Y-150.6
X208.158Y-112.244
X208.19Y-115.754
X208.2Y-114.9
X208.3Y-107.5
X208.493Y-141.8
X208.493Y-144.1
X208.62Y-116.77
X209.418Y-123.41
X210.06Y-118.05
X210.906Y-118.548
X210.906Y-123.374
X211.033Y-141.027
X211.4Y-117.9
X211.541Y-145.599
X211.9Y-118.5
X211.9Y-123.5
X213.71Y-120.5
X214.22Y-118.46
X215.135Y-121.615
X215.18Y-119.64
X216.0Y-119.1
X216.24Y-128.708
X216.7Y-115.9
X216.875Y-124.898
X217.383Y-130.486
X217.51Y-133.661
X217.8Y-139.82
X218.399Y-122.866
X218.775Y-138.075
X218.78Y-130.613
X218.78Y-132.59
X218.78Y-137.344
X219.45Y-130.6
X222.3Y-144.8
X222.6Y-138.15
X222.6Y-139.55
X222.717Y-126.676
X223.225Y-118.167
X223.225Y-135.058
X223.225Y-136.455
X224.411Y-114.311
X224.9Y-111.6
X225.1Y-143.7
X225.386Y-121.1
X225.4Y-121.85
X227.035Y-116.262
X227.05Y-117.0
X227.68Y-130.58
X227.924Y-112.96
X227.924Y-114.23
X228.48Y-129.44
X228.54Y-128.48
X228.559Y-125.055
X229.03Y-123.36
X229.11Y-121.62
X229.448Y-126.676
X229.5Y-127.5
X229.61Y-130.59
X229.745Y-131.545
X230.4Y-127.5
X231.5Y-127.5
X232.5Y-127.5
X233.5Y-127.5
T2
X190.746Y-109.303
X191.997Y-109.082
X193.248Y-108.862
X194.499Y-108.641
X195.749Y-108.421
X197.0Y-108.2
T3
X220.171Y-111.466
X222.05Y-112.15
T4
X190.1Y-147.9
X193.1Y-147.9
X206.55Y-147.9
X209.55Y-147.9
T5
X180.654Y-144.614
X182.886Y-143.402
X216.549Y-143.321
X218.782Y-144.533
T6
X170.132Y-139.132
X171.9Y-140.9
X227.427Y-140.965
X229.195Y-139.197
X231.3Y-119.8
X231.3Y-122.3
T7
X199.8Y-128.9
X199.8Y-137.9
T0
M30
