%TF.GenerationSoftware,KiCad,Pcbnew,7.0.1*%
%TF.CreationDate,2023-08-08T22:15:58+07:00*%
%TF.ProjectId,BL706 Robot,424c3730-3620-4526-9f62-6f742e6b6963,rev?*%
%TF.SameCoordinates,Original*%
%TF.FileFunction,Legend,Bot*%
%TF.FilePolarity,Positive*%
%FSLAX46Y46*%
G04 Gerber Fmt 4.6, Leading zero omitted, Abs format (unit mm)*
G04 Created by KiCad (PCBNEW 7.0.1) date 2023-08-08 22:15:58*
%MOMM*%
%LPD*%
G01*
G04 APERTURE LIST*
%ADD10C,0.150000*%
%ADD11C,0.200000*%
%ADD12C,0.120000*%
G04 APERTURE END LIST*
D10*
X226938094Y-135276904D02*
X226461904Y-135276904D01*
X227033332Y-135562619D02*
X226699999Y-134562619D01*
X226699999Y-134562619D02*
X226366666Y-135562619D01*
X221424505Y-116592722D02*
X221276978Y-116562532D01*
X221276978Y-116562532D02*
X221211929Y-116579962D01*
X221211929Y-116579962D02*
X221123071Y-116638631D01*
X221123071Y-116638631D02*
X221051642Y-116762349D01*
X221051642Y-116762349D02*
X221045262Y-116868637D01*
X221045262Y-116868637D02*
X221062692Y-116933686D01*
X221062692Y-116933686D02*
X221121361Y-117022545D01*
X221121361Y-117022545D02*
X221451276Y-117213021D01*
X221451276Y-117213021D02*
X221951276Y-116346995D01*
X221951276Y-116346995D02*
X221662600Y-116180329D01*
X221662600Y-116180329D02*
X221556312Y-116173949D01*
X221556312Y-116173949D02*
X221491264Y-116191379D01*
X221491264Y-116191379D02*
X221402405Y-116250048D01*
X221402405Y-116250048D02*
X221354786Y-116332526D01*
X221354786Y-116332526D02*
X221348406Y-116438815D01*
X221348406Y-116438815D02*
X221365836Y-116503863D01*
X221365836Y-116503863D02*
X221424505Y-116592722D01*
X221424505Y-116592722D02*
X221713180Y-116759388D01*
X220214096Y-116498735D02*
X220476001Y-116045103D01*
X220476001Y-116045103D02*
X220564860Y-115986434D01*
X220564860Y-115986434D02*
X220671148Y-115992813D01*
X220671148Y-115992813D02*
X220836105Y-116088051D01*
X220836105Y-116088051D02*
X220894774Y-116176910D01*
X220237906Y-116457496D02*
X220296575Y-116546354D01*
X220296575Y-116546354D02*
X220502772Y-116665402D01*
X220502772Y-116665402D02*
X220609060Y-116671781D01*
X220609060Y-116671781D02*
X220697918Y-116613112D01*
X220697918Y-116613112D02*
X220745537Y-116530634D01*
X220745537Y-116530634D02*
X220751917Y-116424346D01*
X220751917Y-116424346D02*
X220693248Y-116335487D01*
X220693248Y-116335487D02*
X220487051Y-116216440D01*
X220487051Y-116216440D02*
X220428382Y-116127581D01*
X220258755Y-115754718D02*
X219928840Y-115564242D01*
X220301703Y-115394614D02*
X219873132Y-116136922D01*
X219873132Y-116136922D02*
X219784274Y-116195591D01*
X219784274Y-116195591D02*
X219677985Y-116189211D01*
X219677985Y-116189211D02*
X219595507Y-116141592D01*
X219763883Y-115469004D02*
X219433968Y-115278527D01*
X219806831Y-115108900D02*
X219378260Y-115851207D01*
X219378260Y-115851207D02*
X219289402Y-115909876D01*
X219289402Y-115909876D02*
X219183113Y-115903497D01*
X219183113Y-115903497D02*
X219100635Y-115855878D01*
X218505854Y-115457495D02*
X218564523Y-115546354D01*
X218564523Y-115546354D02*
X218729481Y-115641592D01*
X218729481Y-115641592D02*
X218835769Y-115647971D01*
X218835769Y-115647971D02*
X218924627Y-115589302D01*
X218924627Y-115589302D02*
X219115103Y-115259388D01*
X219115103Y-115259388D02*
X219121483Y-115153100D01*
X219121483Y-115153100D02*
X219062814Y-115064241D01*
X219062814Y-115064241D02*
X218897857Y-114969003D01*
X218897857Y-114969003D02*
X218791569Y-114962624D01*
X218791569Y-114962624D02*
X218702710Y-115021293D01*
X218702710Y-115021293D02*
X218655091Y-115103771D01*
X218655091Y-115103771D02*
X219019865Y-115424345D01*
X218069652Y-115260639D02*
X218402985Y-114683289D01*
X218307747Y-114848246D02*
X218314127Y-114741958D01*
X218314127Y-114741958D02*
X218296697Y-114676909D01*
X218296697Y-114676909D02*
X218238028Y-114588051D01*
X218238028Y-114588051D02*
X218155549Y-114540432D01*
X217949352Y-114421384D02*
X217409822Y-114879687D01*
X217536959Y-114183289D02*
X217409822Y-114879687D01*
X217409822Y-114879687D02*
X217373253Y-115133502D01*
X217373253Y-115133502D02*
X217390683Y-115198551D01*
X217390683Y-115198551D02*
X217449352Y-115287409D01*
D11*
X211999999Y-113093928D02*
X212714285Y-113093928D01*
X212714285Y-113093928D02*
X212714285Y-111593928D01*
X211499999Y-113093928D02*
X211499999Y-112093928D01*
X211499999Y-111593928D02*
X211571427Y-111665357D01*
X211571427Y-111665357D02*
X211499999Y-111736785D01*
X211499999Y-111736785D02*
X211428570Y-111665357D01*
X211428570Y-111665357D02*
X211499999Y-111593928D01*
X211499999Y-111593928D02*
X211499999Y-111736785D01*
X210785713Y-112093928D02*
X210785713Y-113093928D01*
X210785713Y-112236785D02*
X210714284Y-112165357D01*
X210714284Y-112165357D02*
X210571427Y-112093928D01*
X210571427Y-112093928D02*
X210357141Y-112093928D01*
X210357141Y-112093928D02*
X210214284Y-112165357D01*
X210214284Y-112165357D02*
X210142856Y-112308214D01*
X210142856Y-112308214D02*
X210142856Y-113093928D01*
X208857141Y-113022500D02*
X208999998Y-113093928D01*
X208999998Y-113093928D02*
X209285713Y-113093928D01*
X209285713Y-113093928D02*
X209428570Y-113022500D01*
X209428570Y-113022500D02*
X209499998Y-112879642D01*
X209499998Y-112879642D02*
X209499998Y-112308214D01*
X209499998Y-112308214D02*
X209428570Y-112165357D01*
X209428570Y-112165357D02*
X209285713Y-112093928D01*
X209285713Y-112093928D02*
X208999998Y-112093928D01*
X208999998Y-112093928D02*
X208857141Y-112165357D01*
X208857141Y-112165357D02*
X208785713Y-112308214D01*
X208785713Y-112308214D02*
X208785713Y-112451071D01*
X208785713Y-112451071D02*
X209499998Y-112593928D01*
X206499999Y-112308214D02*
X206999999Y-112308214D01*
X206999999Y-113093928D02*
X206999999Y-111593928D01*
X206999999Y-111593928D02*
X206285713Y-111593928D01*
X205499999Y-113093928D02*
X205642856Y-113022500D01*
X205642856Y-113022500D02*
X205714285Y-112951071D01*
X205714285Y-112951071D02*
X205785713Y-112808214D01*
X205785713Y-112808214D02*
X205785713Y-112379642D01*
X205785713Y-112379642D02*
X205714285Y-112236785D01*
X205714285Y-112236785D02*
X205642856Y-112165357D01*
X205642856Y-112165357D02*
X205499999Y-112093928D01*
X205499999Y-112093928D02*
X205285713Y-112093928D01*
X205285713Y-112093928D02*
X205142856Y-112165357D01*
X205142856Y-112165357D02*
X205071428Y-112236785D01*
X205071428Y-112236785D02*
X204999999Y-112379642D01*
X204999999Y-112379642D02*
X204999999Y-112808214D01*
X204999999Y-112808214D02*
X205071428Y-112951071D01*
X205071428Y-112951071D02*
X205142856Y-113022500D01*
X205142856Y-113022500D02*
X205285713Y-113093928D01*
X205285713Y-113093928D02*
X205499999Y-113093928D01*
X204142856Y-113093928D02*
X204285713Y-113022500D01*
X204285713Y-113022500D02*
X204357142Y-112879642D01*
X204357142Y-112879642D02*
X204357142Y-111593928D01*
X203357142Y-113093928D02*
X203499999Y-113022500D01*
X203499999Y-113022500D02*
X203571428Y-112879642D01*
X203571428Y-112879642D02*
X203571428Y-111593928D01*
X202571428Y-113093928D02*
X202714285Y-113022500D01*
X202714285Y-113022500D02*
X202785714Y-112951071D01*
X202785714Y-112951071D02*
X202857142Y-112808214D01*
X202857142Y-112808214D02*
X202857142Y-112379642D01*
X202857142Y-112379642D02*
X202785714Y-112236785D01*
X202785714Y-112236785D02*
X202714285Y-112165357D01*
X202714285Y-112165357D02*
X202571428Y-112093928D01*
X202571428Y-112093928D02*
X202357142Y-112093928D01*
X202357142Y-112093928D02*
X202214285Y-112165357D01*
X202214285Y-112165357D02*
X202142857Y-112236785D01*
X202142857Y-112236785D02*
X202071428Y-112379642D01*
X202071428Y-112379642D02*
X202071428Y-112808214D01*
X202071428Y-112808214D02*
X202142857Y-112951071D01*
X202142857Y-112951071D02*
X202214285Y-113022500D01*
X202214285Y-113022500D02*
X202357142Y-113093928D01*
X202357142Y-113093928D02*
X202571428Y-113093928D01*
X201571428Y-112093928D02*
X201285714Y-113093928D01*
X201285714Y-113093928D02*
X200999999Y-112379642D01*
X200999999Y-112379642D02*
X200714285Y-113093928D01*
X200714285Y-113093928D02*
X200428571Y-112093928D01*
X199857142Y-113093928D02*
X199857142Y-112093928D01*
X199857142Y-111593928D02*
X199928570Y-111665357D01*
X199928570Y-111665357D02*
X199857142Y-111736785D01*
X199857142Y-111736785D02*
X199785713Y-111665357D01*
X199785713Y-111665357D02*
X199857142Y-111593928D01*
X199857142Y-111593928D02*
X199857142Y-111736785D01*
X199142856Y-112093928D02*
X199142856Y-113093928D01*
X199142856Y-112236785D02*
X199071427Y-112165357D01*
X199071427Y-112165357D02*
X198928570Y-112093928D01*
X198928570Y-112093928D02*
X198714284Y-112093928D01*
X198714284Y-112093928D02*
X198571427Y-112165357D01*
X198571427Y-112165357D02*
X198499999Y-112308214D01*
X198499999Y-112308214D02*
X198499999Y-113093928D01*
X197142856Y-112093928D02*
X197142856Y-113308214D01*
X197142856Y-113308214D02*
X197214284Y-113451071D01*
X197214284Y-113451071D02*
X197285713Y-113522500D01*
X197285713Y-113522500D02*
X197428570Y-113593928D01*
X197428570Y-113593928D02*
X197642856Y-113593928D01*
X197642856Y-113593928D02*
X197785713Y-113522500D01*
X197142856Y-113022500D02*
X197285713Y-113093928D01*
X197285713Y-113093928D02*
X197571427Y-113093928D01*
X197571427Y-113093928D02*
X197714284Y-113022500D01*
X197714284Y-113022500D02*
X197785713Y-112951071D01*
X197785713Y-112951071D02*
X197857141Y-112808214D01*
X197857141Y-112808214D02*
X197857141Y-112379642D01*
X197857141Y-112379642D02*
X197785713Y-112236785D01*
X197785713Y-112236785D02*
X197714284Y-112165357D01*
X197714284Y-112165357D02*
X197571427Y-112093928D01*
X197571427Y-112093928D02*
X197285713Y-112093928D01*
X197285713Y-112093928D02*
X197142856Y-112165357D01*
X194428570Y-113093928D02*
X194928570Y-112379642D01*
X195285713Y-113093928D02*
X195285713Y-111593928D01*
X195285713Y-111593928D02*
X194714284Y-111593928D01*
X194714284Y-111593928D02*
X194571427Y-111665357D01*
X194571427Y-111665357D02*
X194499998Y-111736785D01*
X194499998Y-111736785D02*
X194428570Y-111879642D01*
X194428570Y-111879642D02*
X194428570Y-112093928D01*
X194428570Y-112093928D02*
X194499998Y-112236785D01*
X194499998Y-112236785D02*
X194571427Y-112308214D01*
X194571427Y-112308214D02*
X194714284Y-112379642D01*
X194714284Y-112379642D02*
X195285713Y-112379642D01*
X193571427Y-113093928D02*
X193714284Y-113022500D01*
X193714284Y-113022500D02*
X193785713Y-112951071D01*
X193785713Y-112951071D02*
X193857141Y-112808214D01*
X193857141Y-112808214D02*
X193857141Y-112379642D01*
X193857141Y-112379642D02*
X193785713Y-112236785D01*
X193785713Y-112236785D02*
X193714284Y-112165357D01*
X193714284Y-112165357D02*
X193571427Y-112093928D01*
X193571427Y-112093928D02*
X193357141Y-112093928D01*
X193357141Y-112093928D02*
X193214284Y-112165357D01*
X193214284Y-112165357D02*
X193142856Y-112236785D01*
X193142856Y-112236785D02*
X193071427Y-112379642D01*
X193071427Y-112379642D02*
X193071427Y-112808214D01*
X193071427Y-112808214D02*
X193142856Y-112951071D01*
X193142856Y-112951071D02*
X193214284Y-113022500D01*
X193214284Y-113022500D02*
X193357141Y-113093928D01*
X193357141Y-113093928D02*
X193571427Y-113093928D01*
X192428570Y-113093928D02*
X192428570Y-111593928D01*
X192428570Y-112165357D02*
X192285713Y-112093928D01*
X192285713Y-112093928D02*
X191999998Y-112093928D01*
X191999998Y-112093928D02*
X191857141Y-112165357D01*
X191857141Y-112165357D02*
X191785713Y-112236785D01*
X191785713Y-112236785D02*
X191714284Y-112379642D01*
X191714284Y-112379642D02*
X191714284Y-112808214D01*
X191714284Y-112808214D02*
X191785713Y-112951071D01*
X191785713Y-112951071D02*
X191857141Y-113022500D01*
X191857141Y-113022500D02*
X191999998Y-113093928D01*
X191999998Y-113093928D02*
X192285713Y-113093928D01*
X192285713Y-113093928D02*
X192428570Y-113022500D01*
X190857141Y-113093928D02*
X190999998Y-113022500D01*
X190999998Y-113022500D02*
X191071427Y-112951071D01*
X191071427Y-112951071D02*
X191142855Y-112808214D01*
X191142855Y-112808214D02*
X191142855Y-112379642D01*
X191142855Y-112379642D02*
X191071427Y-112236785D01*
X191071427Y-112236785D02*
X190999998Y-112165357D01*
X190999998Y-112165357D02*
X190857141Y-112093928D01*
X190857141Y-112093928D02*
X190642855Y-112093928D01*
X190642855Y-112093928D02*
X190499998Y-112165357D01*
X190499998Y-112165357D02*
X190428570Y-112236785D01*
X190428570Y-112236785D02*
X190357141Y-112379642D01*
X190357141Y-112379642D02*
X190357141Y-112808214D01*
X190357141Y-112808214D02*
X190428570Y-112951071D01*
X190428570Y-112951071D02*
X190499998Y-113022500D01*
X190499998Y-113022500D02*
X190642855Y-113093928D01*
X190642855Y-113093928D02*
X190857141Y-113093928D01*
X189928569Y-112093928D02*
X189357141Y-112093928D01*
X189714284Y-111593928D02*
X189714284Y-112879642D01*
X189714284Y-112879642D02*
X189642855Y-113022500D01*
X189642855Y-113022500D02*
X189499998Y-113093928D01*
X189499998Y-113093928D02*
X189357141Y-113093928D01*
X187928569Y-111593928D02*
X187428569Y-113093928D01*
X187428569Y-113093928D02*
X186928569Y-111593928D01*
X185642855Y-113093928D02*
X186499998Y-113093928D01*
X186071427Y-113093928D02*
X186071427Y-111593928D01*
X186071427Y-111593928D02*
X186214284Y-111808214D01*
X186214284Y-111808214D02*
X186357141Y-111951071D01*
X186357141Y-111951071D02*
X186499998Y-112022500D01*
X185071427Y-111736785D02*
X184999999Y-111665357D01*
X184999999Y-111665357D02*
X184857142Y-111593928D01*
X184857142Y-111593928D02*
X184499999Y-111593928D01*
X184499999Y-111593928D02*
X184357142Y-111665357D01*
X184357142Y-111665357D02*
X184285713Y-111736785D01*
X184285713Y-111736785D02*
X184214284Y-111879642D01*
X184214284Y-111879642D02*
X184214284Y-112022500D01*
X184214284Y-112022500D02*
X184285713Y-112236785D01*
X184285713Y-112236785D02*
X185142856Y-113093928D01*
X185142856Y-113093928D02*
X184214284Y-113093928D01*
X206294283Y-114633928D02*
X206294283Y-115705357D01*
X206294283Y-115705357D02*
X206365712Y-115919642D01*
X206365712Y-115919642D02*
X206508569Y-116062500D01*
X206508569Y-116062500D02*
X206722855Y-116133928D01*
X206722855Y-116133928D02*
X206865712Y-116133928D01*
X204937141Y-115133928D02*
X204937141Y-116133928D01*
X205579998Y-115133928D02*
X205579998Y-115919642D01*
X205579998Y-115919642D02*
X205508569Y-116062500D01*
X205508569Y-116062500D02*
X205365712Y-116133928D01*
X205365712Y-116133928D02*
X205151426Y-116133928D01*
X205151426Y-116133928D02*
X205008569Y-116062500D01*
X205008569Y-116062500D02*
X204937141Y-115991071D01*
X204008569Y-116133928D02*
X204151426Y-116062500D01*
X204151426Y-116062500D02*
X204222855Y-115919642D01*
X204222855Y-115919642D02*
X204222855Y-114633928D01*
X203579998Y-115133928D02*
X203222855Y-116133928D01*
X202865712Y-115133928D02*
X203222855Y-116133928D01*
X203222855Y-116133928D02*
X203365712Y-116491071D01*
X203365712Y-116491071D02*
X203437141Y-116562500D01*
X203437141Y-116562500D02*
X203579998Y-116633928D01*
X201222855Y-114776785D02*
X201151427Y-114705357D01*
X201151427Y-114705357D02*
X201008570Y-114633928D01*
X201008570Y-114633928D02*
X200651427Y-114633928D01*
X200651427Y-114633928D02*
X200508570Y-114705357D01*
X200508570Y-114705357D02*
X200437141Y-114776785D01*
X200437141Y-114776785D02*
X200365712Y-114919642D01*
X200365712Y-114919642D02*
X200365712Y-115062500D01*
X200365712Y-115062500D02*
X200437141Y-115276785D01*
X200437141Y-115276785D02*
X201294284Y-116133928D01*
X201294284Y-116133928D02*
X200365712Y-116133928D01*
X199079999Y-115133928D02*
X199079999Y-116133928D01*
X199437141Y-114562500D02*
X199794284Y-115633928D01*
X199794284Y-115633928D02*
X198865713Y-115633928D01*
X198222856Y-116062500D02*
X198222856Y-116133928D01*
X198222856Y-116133928D02*
X198294285Y-116276785D01*
X198294285Y-116276785D02*
X198365713Y-116348214D01*
X196508570Y-114776785D02*
X196437142Y-114705357D01*
X196437142Y-114705357D02*
X196294285Y-114633928D01*
X196294285Y-114633928D02*
X195937142Y-114633928D01*
X195937142Y-114633928D02*
X195794285Y-114705357D01*
X195794285Y-114705357D02*
X195722856Y-114776785D01*
X195722856Y-114776785D02*
X195651427Y-114919642D01*
X195651427Y-114919642D02*
X195651427Y-115062500D01*
X195651427Y-115062500D02*
X195722856Y-115276785D01*
X195722856Y-115276785D02*
X196579999Y-116133928D01*
X196579999Y-116133928D02*
X195651427Y-116133928D01*
X194722856Y-114633928D02*
X194579999Y-114633928D01*
X194579999Y-114633928D02*
X194437142Y-114705357D01*
X194437142Y-114705357D02*
X194365714Y-114776785D01*
X194365714Y-114776785D02*
X194294285Y-114919642D01*
X194294285Y-114919642D02*
X194222856Y-115205357D01*
X194222856Y-115205357D02*
X194222856Y-115562500D01*
X194222856Y-115562500D02*
X194294285Y-115848214D01*
X194294285Y-115848214D02*
X194365714Y-115991071D01*
X194365714Y-115991071D02*
X194437142Y-116062500D01*
X194437142Y-116062500D02*
X194579999Y-116133928D01*
X194579999Y-116133928D02*
X194722856Y-116133928D01*
X194722856Y-116133928D02*
X194865714Y-116062500D01*
X194865714Y-116062500D02*
X194937142Y-115991071D01*
X194937142Y-115991071D02*
X195008571Y-115848214D01*
X195008571Y-115848214D02*
X195079999Y-115562500D01*
X195079999Y-115562500D02*
X195079999Y-115205357D01*
X195079999Y-115205357D02*
X195008571Y-114919642D01*
X195008571Y-114919642D02*
X194937142Y-114776785D01*
X194937142Y-114776785D02*
X194865714Y-114705357D01*
X194865714Y-114705357D02*
X194722856Y-114633928D01*
X193651428Y-114776785D02*
X193580000Y-114705357D01*
X193580000Y-114705357D02*
X193437143Y-114633928D01*
X193437143Y-114633928D02*
X193080000Y-114633928D01*
X193080000Y-114633928D02*
X192937143Y-114705357D01*
X192937143Y-114705357D02*
X192865714Y-114776785D01*
X192865714Y-114776785D02*
X192794285Y-114919642D01*
X192794285Y-114919642D02*
X192794285Y-115062500D01*
X192794285Y-115062500D02*
X192865714Y-115276785D01*
X192865714Y-115276785D02*
X193722857Y-116133928D01*
X193722857Y-116133928D02*
X192794285Y-116133928D01*
X192294286Y-114633928D02*
X191365714Y-114633928D01*
X191365714Y-114633928D02*
X191865714Y-115205357D01*
X191865714Y-115205357D02*
X191651429Y-115205357D01*
X191651429Y-115205357D02*
X191508572Y-115276785D01*
X191508572Y-115276785D02*
X191437143Y-115348214D01*
X191437143Y-115348214D02*
X191365714Y-115491071D01*
X191365714Y-115491071D02*
X191365714Y-115848214D01*
X191365714Y-115848214D02*
X191437143Y-115991071D01*
X191437143Y-115991071D02*
X191508572Y-116062500D01*
X191508572Y-116062500D02*
X191651429Y-116133928D01*
X191651429Y-116133928D02*
X192080000Y-116133928D01*
X192080000Y-116133928D02*
X192222857Y-116062500D01*
X192222857Y-116062500D02*
X192294286Y-115991071D01*
D10*
X224328571Y-137238809D02*
X224185714Y-137286428D01*
X224185714Y-137286428D02*
X224138095Y-137334047D01*
X224138095Y-137334047D02*
X224090476Y-137429285D01*
X224090476Y-137429285D02*
X224090476Y-137572142D01*
X224090476Y-137572142D02*
X224138095Y-137667380D01*
X224138095Y-137667380D02*
X224185714Y-137715000D01*
X224185714Y-137715000D02*
X224280952Y-137762619D01*
X224280952Y-137762619D02*
X224661904Y-137762619D01*
X224661904Y-137762619D02*
X224661904Y-136762619D01*
X224661904Y-136762619D02*
X224328571Y-136762619D01*
X224328571Y-136762619D02*
X224233333Y-136810238D01*
X224233333Y-136810238D02*
X224185714Y-136857857D01*
X224185714Y-136857857D02*
X224138095Y-136953095D01*
X224138095Y-136953095D02*
X224138095Y-137048333D01*
X224138095Y-137048333D02*
X224185714Y-137143571D01*
X224185714Y-137143571D02*
X224233333Y-137191190D01*
X224233333Y-137191190D02*
X224328571Y-137238809D01*
X224328571Y-137238809D02*
X224661904Y-137238809D01*
X233961904Y-116515000D02*
X233819047Y-116562619D01*
X233819047Y-116562619D02*
X233580952Y-116562619D01*
X233580952Y-116562619D02*
X233485714Y-116515000D01*
X233485714Y-116515000D02*
X233438095Y-116467380D01*
X233438095Y-116467380D02*
X233390476Y-116372142D01*
X233390476Y-116372142D02*
X233390476Y-116276904D01*
X233390476Y-116276904D02*
X233438095Y-116181666D01*
X233438095Y-116181666D02*
X233485714Y-116134047D01*
X233485714Y-116134047D02*
X233580952Y-116086428D01*
X233580952Y-116086428D02*
X233771428Y-116038809D01*
X233771428Y-116038809D02*
X233866666Y-115991190D01*
X233866666Y-115991190D02*
X233914285Y-115943571D01*
X233914285Y-115943571D02*
X233961904Y-115848333D01*
X233961904Y-115848333D02*
X233961904Y-115753095D01*
X233961904Y-115753095D02*
X233914285Y-115657857D01*
X233914285Y-115657857D02*
X233866666Y-115610238D01*
X233866666Y-115610238D02*
X233771428Y-115562619D01*
X233771428Y-115562619D02*
X233533333Y-115562619D01*
X233533333Y-115562619D02*
X233390476Y-115610238D01*
X232961904Y-115895952D02*
X232961904Y-116895952D01*
X232961904Y-115943571D02*
X232866666Y-115895952D01*
X232866666Y-115895952D02*
X232676190Y-115895952D01*
X232676190Y-115895952D02*
X232580952Y-115943571D01*
X232580952Y-115943571D02*
X232533333Y-115991190D01*
X232533333Y-115991190D02*
X232485714Y-116086428D01*
X232485714Y-116086428D02*
X232485714Y-116372142D01*
X232485714Y-116372142D02*
X232533333Y-116467380D01*
X232533333Y-116467380D02*
X232580952Y-116515000D01*
X232580952Y-116515000D02*
X232676190Y-116562619D01*
X232676190Y-116562619D02*
X232866666Y-116562619D01*
X232866666Y-116562619D02*
X232961904Y-116515000D01*
X231676190Y-116515000D02*
X231771428Y-116562619D01*
X231771428Y-116562619D02*
X231961904Y-116562619D01*
X231961904Y-116562619D02*
X232057142Y-116515000D01*
X232057142Y-116515000D02*
X232104761Y-116419761D01*
X232104761Y-116419761D02*
X232104761Y-116038809D01*
X232104761Y-116038809D02*
X232057142Y-115943571D01*
X232057142Y-115943571D02*
X231961904Y-115895952D01*
X231961904Y-115895952D02*
X231771428Y-115895952D01*
X231771428Y-115895952D02*
X231676190Y-115943571D01*
X231676190Y-115943571D02*
X231628571Y-116038809D01*
X231628571Y-116038809D02*
X231628571Y-116134047D01*
X231628571Y-116134047D02*
X232104761Y-116229285D01*
X230771428Y-116562619D02*
X230771428Y-116038809D01*
X230771428Y-116038809D02*
X230819047Y-115943571D01*
X230819047Y-115943571D02*
X230914285Y-115895952D01*
X230914285Y-115895952D02*
X231104761Y-115895952D01*
X231104761Y-115895952D02*
X231199999Y-115943571D01*
X230771428Y-116515000D02*
X230866666Y-116562619D01*
X230866666Y-116562619D02*
X231104761Y-116562619D01*
X231104761Y-116562619D02*
X231199999Y-116515000D01*
X231199999Y-116515000D02*
X231247618Y-116419761D01*
X231247618Y-116419761D02*
X231247618Y-116324523D01*
X231247618Y-116324523D02*
X231199999Y-116229285D01*
X231199999Y-116229285D02*
X231104761Y-116181666D01*
X231104761Y-116181666D02*
X230866666Y-116181666D01*
X230866666Y-116181666D02*
X230771428Y-116134047D01*
X230295237Y-116562619D02*
X230295237Y-115562619D01*
X230199999Y-116181666D02*
X229914285Y-116562619D01*
X229914285Y-115895952D02*
X230295237Y-116276904D01*
X229104761Y-116515000D02*
X229199999Y-116562619D01*
X229199999Y-116562619D02*
X229390475Y-116562619D01*
X229390475Y-116562619D02*
X229485713Y-116515000D01*
X229485713Y-116515000D02*
X229533332Y-116419761D01*
X229533332Y-116419761D02*
X229533332Y-116038809D01*
X229533332Y-116038809D02*
X229485713Y-115943571D01*
X229485713Y-115943571D02*
X229390475Y-115895952D01*
X229390475Y-115895952D02*
X229199999Y-115895952D01*
X229199999Y-115895952D02*
X229104761Y-115943571D01*
X229104761Y-115943571D02*
X229057142Y-116038809D01*
X229057142Y-116038809D02*
X229057142Y-116134047D01*
X229057142Y-116134047D02*
X229533332Y-116229285D01*
X228628570Y-116562619D02*
X228628570Y-115895952D01*
X228628570Y-116086428D02*
X228580951Y-115991190D01*
X228580951Y-115991190D02*
X228533332Y-115943571D01*
X228533332Y-115943571D02*
X228438094Y-115895952D01*
X228438094Y-115895952D02*
X228342856Y-115895952D01*
X217161904Y-110410238D02*
X217257142Y-110362619D01*
X217257142Y-110362619D02*
X217399999Y-110362619D01*
X217399999Y-110362619D02*
X217542856Y-110410238D01*
X217542856Y-110410238D02*
X217638094Y-110505476D01*
X217638094Y-110505476D02*
X217685713Y-110600714D01*
X217685713Y-110600714D02*
X217733332Y-110791190D01*
X217733332Y-110791190D02*
X217733332Y-110934047D01*
X217733332Y-110934047D02*
X217685713Y-111124523D01*
X217685713Y-111124523D02*
X217638094Y-111219761D01*
X217638094Y-111219761D02*
X217542856Y-111315000D01*
X217542856Y-111315000D02*
X217399999Y-111362619D01*
X217399999Y-111362619D02*
X217304761Y-111362619D01*
X217304761Y-111362619D02*
X217161904Y-111315000D01*
X217161904Y-111315000D02*
X217114285Y-111267380D01*
X217114285Y-111267380D02*
X217114285Y-110934047D01*
X217114285Y-110934047D02*
X217304761Y-110934047D01*
X216685713Y-111362619D02*
X216685713Y-110362619D01*
X216685713Y-110362619D02*
X216114285Y-111362619D01*
X216114285Y-111362619D02*
X216114285Y-110362619D01*
X215638094Y-111362619D02*
X215638094Y-110362619D01*
X215638094Y-110362619D02*
X215399999Y-110362619D01*
X215399999Y-110362619D02*
X215257142Y-110410238D01*
X215257142Y-110410238D02*
X215161904Y-110505476D01*
X215161904Y-110505476D02*
X215114285Y-110600714D01*
X215114285Y-110600714D02*
X215066666Y-110791190D01*
X215066666Y-110791190D02*
X215066666Y-110934047D01*
X215066666Y-110934047D02*
X215114285Y-111124523D01*
X215114285Y-111124523D02*
X215161904Y-111219761D01*
X215161904Y-111219761D02*
X215257142Y-111315000D01*
X215257142Y-111315000D02*
X215399999Y-111362619D01*
X215399999Y-111362619D02*
X215638094Y-111362619D01*
X173328571Y-136238809D02*
X173185714Y-136286428D01*
X173185714Y-136286428D02*
X173138095Y-136334047D01*
X173138095Y-136334047D02*
X173090476Y-136429285D01*
X173090476Y-136429285D02*
X173090476Y-136572142D01*
X173090476Y-136572142D02*
X173138095Y-136667380D01*
X173138095Y-136667380D02*
X173185714Y-136715000D01*
X173185714Y-136715000D02*
X173280952Y-136762619D01*
X173280952Y-136762619D02*
X173661904Y-136762619D01*
X173661904Y-136762619D02*
X173661904Y-135762619D01*
X173661904Y-135762619D02*
X173328571Y-135762619D01*
X173328571Y-135762619D02*
X173233333Y-135810238D01*
X173233333Y-135810238D02*
X173185714Y-135857857D01*
X173185714Y-135857857D02*
X173138095Y-135953095D01*
X173138095Y-135953095D02*
X173138095Y-136048333D01*
X173138095Y-136048333D02*
X173185714Y-136143571D01*
X173185714Y-136143571D02*
X173233333Y-136191190D01*
X173233333Y-136191190D02*
X173328571Y-136238809D01*
X173328571Y-136238809D02*
X173661904Y-136238809D01*
X175538094Y-138176904D02*
X175061904Y-138176904D01*
X175633332Y-138462619D02*
X175299999Y-137462619D01*
X175299999Y-137462619D02*
X174966666Y-138462619D01*
X224762619Y-112366667D02*
X225762619Y-112700000D01*
X225762619Y-112700000D02*
X224762619Y-113033333D01*
X225667380Y-113938095D02*
X225715000Y-113890476D01*
X225715000Y-113890476D02*
X225762619Y-113747619D01*
X225762619Y-113747619D02*
X225762619Y-113652381D01*
X225762619Y-113652381D02*
X225715000Y-113509524D01*
X225715000Y-113509524D02*
X225619761Y-113414286D01*
X225619761Y-113414286D02*
X225524523Y-113366667D01*
X225524523Y-113366667D02*
X225334047Y-113319048D01*
X225334047Y-113319048D02*
X225191190Y-113319048D01*
X225191190Y-113319048D02*
X225000714Y-113366667D01*
X225000714Y-113366667D02*
X224905476Y-113414286D01*
X224905476Y-113414286D02*
X224810238Y-113509524D01*
X224810238Y-113509524D02*
X224762619Y-113652381D01*
X224762619Y-113652381D02*
X224762619Y-113747619D01*
X224762619Y-113747619D02*
X224810238Y-113890476D01*
X224810238Y-113890476D02*
X224857857Y-113938095D01*
X225667380Y-114938095D02*
X225715000Y-114890476D01*
X225715000Y-114890476D02*
X225762619Y-114747619D01*
X225762619Y-114747619D02*
X225762619Y-114652381D01*
X225762619Y-114652381D02*
X225715000Y-114509524D01*
X225715000Y-114509524D02*
X225619761Y-114414286D01*
X225619761Y-114414286D02*
X225524523Y-114366667D01*
X225524523Y-114366667D02*
X225334047Y-114319048D01*
X225334047Y-114319048D02*
X225191190Y-114319048D01*
X225191190Y-114319048D02*
X225000714Y-114366667D01*
X225000714Y-114366667D02*
X224905476Y-114414286D01*
X224905476Y-114414286D02*
X224810238Y-114509524D01*
X224810238Y-114509524D02*
X224762619Y-114652381D01*
X224762619Y-114652381D02*
X224762619Y-114747619D01*
X224762619Y-114747619D02*
X224810238Y-114890476D01*
X224810238Y-114890476D02*
X224857857Y-114938095D01*
%TO.C,C35*%
X225642857Y-124847380D02*
X225690476Y-124895000D01*
X225690476Y-124895000D02*
X225833333Y-124942619D01*
X225833333Y-124942619D02*
X225928571Y-124942619D01*
X225928571Y-124942619D02*
X226071428Y-124895000D01*
X226071428Y-124895000D02*
X226166666Y-124799761D01*
X226166666Y-124799761D02*
X226214285Y-124704523D01*
X226214285Y-124704523D02*
X226261904Y-124514047D01*
X226261904Y-124514047D02*
X226261904Y-124371190D01*
X226261904Y-124371190D02*
X226214285Y-124180714D01*
X226214285Y-124180714D02*
X226166666Y-124085476D01*
X226166666Y-124085476D02*
X226071428Y-123990238D01*
X226071428Y-123990238D02*
X225928571Y-123942619D01*
X225928571Y-123942619D02*
X225833333Y-123942619D01*
X225833333Y-123942619D02*
X225690476Y-123990238D01*
X225690476Y-123990238D02*
X225642857Y-124037857D01*
X225309523Y-123942619D02*
X224690476Y-123942619D01*
X224690476Y-123942619D02*
X225023809Y-124323571D01*
X225023809Y-124323571D02*
X224880952Y-124323571D01*
X224880952Y-124323571D02*
X224785714Y-124371190D01*
X224785714Y-124371190D02*
X224738095Y-124418809D01*
X224738095Y-124418809D02*
X224690476Y-124514047D01*
X224690476Y-124514047D02*
X224690476Y-124752142D01*
X224690476Y-124752142D02*
X224738095Y-124847380D01*
X224738095Y-124847380D02*
X224785714Y-124895000D01*
X224785714Y-124895000D02*
X224880952Y-124942619D01*
X224880952Y-124942619D02*
X225166666Y-124942619D01*
X225166666Y-124942619D02*
X225261904Y-124895000D01*
X225261904Y-124895000D02*
X225309523Y-124847380D01*
X223785714Y-123942619D02*
X224261904Y-123942619D01*
X224261904Y-123942619D02*
X224309523Y-124418809D01*
X224309523Y-124418809D02*
X224261904Y-124371190D01*
X224261904Y-124371190D02*
X224166666Y-124323571D01*
X224166666Y-124323571D02*
X223928571Y-124323571D01*
X223928571Y-124323571D02*
X223833333Y-124371190D01*
X223833333Y-124371190D02*
X223785714Y-124418809D01*
X223785714Y-124418809D02*
X223738095Y-124514047D01*
X223738095Y-124514047D02*
X223738095Y-124752142D01*
X223738095Y-124752142D02*
X223785714Y-124847380D01*
X223785714Y-124847380D02*
X223833333Y-124895000D01*
X223833333Y-124895000D02*
X223928571Y-124942619D01*
X223928571Y-124942619D02*
X224166666Y-124942619D01*
X224166666Y-124942619D02*
X224261904Y-124895000D01*
X224261904Y-124895000D02*
X224309523Y-124847380D01*
%TO.C,LS1*%
X227462619Y-120757142D02*
X227462619Y-120280952D01*
X227462619Y-120280952D02*
X226462619Y-120280952D01*
X227415000Y-121042857D02*
X227462619Y-121185714D01*
X227462619Y-121185714D02*
X227462619Y-121423809D01*
X227462619Y-121423809D02*
X227415000Y-121519047D01*
X227415000Y-121519047D02*
X227367380Y-121566666D01*
X227367380Y-121566666D02*
X227272142Y-121614285D01*
X227272142Y-121614285D02*
X227176904Y-121614285D01*
X227176904Y-121614285D02*
X227081666Y-121566666D01*
X227081666Y-121566666D02*
X227034047Y-121519047D01*
X227034047Y-121519047D02*
X226986428Y-121423809D01*
X226986428Y-121423809D02*
X226938809Y-121233333D01*
X226938809Y-121233333D02*
X226891190Y-121138095D01*
X226891190Y-121138095D02*
X226843571Y-121090476D01*
X226843571Y-121090476D02*
X226748333Y-121042857D01*
X226748333Y-121042857D02*
X226653095Y-121042857D01*
X226653095Y-121042857D02*
X226557857Y-121090476D01*
X226557857Y-121090476D02*
X226510238Y-121138095D01*
X226510238Y-121138095D02*
X226462619Y-121233333D01*
X226462619Y-121233333D02*
X226462619Y-121471428D01*
X226462619Y-121471428D02*
X226510238Y-121614285D01*
X227462619Y-122566666D02*
X227462619Y-121995238D01*
X227462619Y-122280952D02*
X226462619Y-122280952D01*
X226462619Y-122280952D02*
X226605476Y-122185714D01*
X226605476Y-122185714D02*
X226700714Y-122090476D01*
X226700714Y-122090476D02*
X226748333Y-121995238D01*
%TO.C,BT1*%
X216311229Y-113040741D02*
X216307117Y-113191270D01*
X216307117Y-113191270D02*
X216335577Y-113252303D01*
X216335577Y-113252303D02*
X216408785Y-113329624D01*
X216408785Y-113329624D02*
X216543027Y-113378484D01*
X216543027Y-113378484D02*
X216648808Y-113366310D01*
X216648808Y-113366310D02*
X216709842Y-113337850D01*
X216709842Y-113337850D02*
X216787163Y-113264642D01*
X216787163Y-113264642D02*
X216917456Y-112906664D01*
X216917456Y-112906664D02*
X215977763Y-112564643D01*
X215977763Y-112564643D02*
X215863757Y-112877874D01*
X215863757Y-112877874D02*
X215875931Y-112983656D01*
X215875931Y-112983656D02*
X215904391Y-113044689D01*
X215904391Y-113044689D02*
X215977599Y-113122010D01*
X215977599Y-113122010D02*
X216067094Y-113154583D01*
X216067094Y-113154583D02*
X216172875Y-113142410D01*
X216172875Y-113142410D02*
X216233909Y-113113949D01*
X216233909Y-113113949D02*
X216311229Y-113040741D01*
X216311229Y-113040741D02*
X216425236Y-112727510D01*
X215684603Y-113370094D02*
X215489163Y-113907061D01*
X216526576Y-113980598D02*
X215586883Y-113638578D01*
X216135696Y-115054533D02*
X216331136Y-114517565D01*
X216233416Y-114786049D02*
X215293723Y-114444029D01*
X215293723Y-114444029D02*
X215460538Y-114403394D01*
X215460538Y-114403394D02*
X215582606Y-114346473D01*
X215582606Y-114346473D02*
X215659927Y-114273265D01*
%TO.C,M1*%
X168397800Y-136288317D02*
X167690694Y-135581210D01*
X167690694Y-135581210D02*
X167960068Y-136321989D01*
X167960068Y-136321989D02*
X167219289Y-136052615D01*
X167219289Y-136052615D02*
X167926396Y-136759721D01*
X167219289Y-137466828D02*
X167623350Y-137062767D01*
X167421320Y-137264798D02*
X166714213Y-136557691D01*
X166714213Y-136557691D02*
X166882572Y-136591362D01*
X166882572Y-136591362D02*
X167017259Y-136591362D01*
X167017259Y-136591362D02*
X167118274Y-136557691D01*
%TO.C,M2*%
X232145096Y-137710403D02*
X232852203Y-137003297D01*
X232852203Y-137003297D02*
X232111424Y-137272671D01*
X232111424Y-137272671D02*
X232380798Y-136531892D01*
X232380798Y-136531892D02*
X231673692Y-137238999D01*
X232010409Y-136296190D02*
X232010409Y-136228846D01*
X232010409Y-136228846D02*
X231976738Y-136127831D01*
X231976738Y-136127831D02*
X231808379Y-135959472D01*
X231808379Y-135959472D02*
X231707364Y-135925801D01*
X231707364Y-135925801D02*
X231640020Y-135925801D01*
X231640020Y-135925801D02*
X231539005Y-135959472D01*
X231539005Y-135959472D02*
X231471661Y-136026816D01*
X231471661Y-136026816D02*
X231404318Y-136161503D01*
X231404318Y-136161503D02*
X231404318Y-136969625D01*
X231404318Y-136969625D02*
X230966585Y-136531892D01*
D12*
%TO.C,C35*%
X222800000Y-132290000D02*
X223800000Y-132290000D01*
X223300000Y-132790000D02*
X223300000Y-131790000D01*
X224040000Y-126484437D02*
X224040000Y-128270000D01*
X224040000Y-126484437D02*
X225104437Y-125420000D01*
X224040000Y-133075563D02*
X224040000Y-131290000D01*
X224040000Y-133075563D02*
X225104437Y-134140000D01*
X225104437Y-125420000D02*
X232760000Y-125420000D01*
X225104437Y-134140000D02*
X232760000Y-134140000D01*
X232760000Y-125420000D02*
X232760000Y-128270000D01*
X232760000Y-134140000D02*
X232760000Y-131290000D01*
%TO.C,LS1*%
X234050000Y-125150000D02*
X232800000Y-125150000D01*
X227790000Y-124860000D02*
X227790000Y-117240000D01*
X233760000Y-124860000D02*
X227790000Y-124860000D01*
X231500000Y-124850000D02*
X231500000Y-124100000D01*
X233000000Y-124850000D02*
X233000000Y-123050000D01*
X233750000Y-124850000D02*
X233000000Y-124850000D01*
X228550000Y-124100000D02*
X228550000Y-121050000D01*
X231500000Y-124100000D02*
X228550000Y-124100000D01*
X234050000Y-123900000D02*
X234050000Y-125150000D01*
X233000000Y-123050000D02*
X233750000Y-123050000D01*
X233750000Y-123050000D02*
X233750000Y-124850000D01*
X233000000Y-121550000D02*
X233000000Y-120550000D01*
X233750000Y-121550000D02*
X233000000Y-121550000D01*
X233000000Y-120550000D02*
X233750000Y-120550000D01*
X233750000Y-120550000D02*
X233750000Y-121550000D01*
X233000000Y-119050000D02*
X233000000Y-117250000D01*
X233750000Y-119050000D02*
X233000000Y-119050000D01*
X228550000Y-118000000D02*
X228550000Y-121050000D01*
X231500000Y-118000000D02*
X228550000Y-118000000D01*
X231500000Y-117250000D02*
X231500000Y-118000000D01*
X233000000Y-117250000D02*
X233750000Y-117250000D01*
X233750000Y-117250000D02*
X233750000Y-119050000D01*
X227790000Y-117240000D02*
X233760000Y-117240000D01*
X233760000Y-117240000D02*
X233760000Y-124860000D01*
%TO.C,BT1*%
X224989337Y-110974416D02*
X224561812Y-112149032D01*
X222990488Y-115589067D02*
X217239569Y-113495904D01*
X223712151Y-113606316D02*
X223138938Y-113397683D01*
X224156777Y-112384715D02*
X223583564Y-112176083D01*
X224604823Y-111153718D02*
X222990488Y-115589067D01*
X222625908Y-114807222D02*
X218021414Y-113131324D01*
X223822978Y-111518298D02*
X222625908Y-114807222D01*
X223814721Y-110546891D02*
X224989337Y-110974416D01*
X223301276Y-110466430D02*
X223232872Y-110654368D01*
X222950964Y-110551762D02*
X223019368Y-110363824D01*
X222985166Y-110457793D02*
X223267074Y-110560399D01*
X223019368Y-110363824D02*
X223301276Y-110466430D01*
X221990578Y-110851359D02*
X223822978Y-111518298D01*
X222199210Y-110278146D02*
X221990578Y-110851359D01*
X220417630Y-114003475D02*
X220588640Y-113533629D01*
X220588640Y-113533629D02*
X220400702Y-113465225D01*
X220323661Y-113969273D02*
X220494671Y-113499427D01*
X220400702Y-113465225D02*
X220229692Y-113935071D01*
X221050885Y-110509339D02*
X221259518Y-109936126D01*
X218021414Y-113131324D02*
X219218485Y-109842399D01*
X219218485Y-109842399D02*
X221050885Y-110509339D01*
X217239569Y-113495904D02*
X218853904Y-109060555D01*
X217961232Y-111513152D02*
X218534444Y-111721785D01*
X218405858Y-110291552D02*
X218979071Y-110500184D01*
X218853904Y-109060555D02*
X224604823Y-111153718D01*
%TO.C,M1*%
X166172435Y-139061522D02*
X167056319Y-138177639D01*
X170803984Y-134840095D02*
X176192138Y-140228249D01*
X166582557Y-139061522D02*
X170803984Y-134840095D01*
X168187689Y-137470532D02*
X168718019Y-138000862D01*
X167127029Y-138531192D02*
X168399821Y-139803984D01*
X166596699Y-139061522D02*
X167127029Y-138531192D01*
X170803984Y-135914897D02*
X172960660Y-138071573D01*
X168718019Y-138000862D02*
X170803984Y-135914897D01*
X167056319Y-139945406D02*
X166172435Y-139061522D01*
X168399821Y-139803984D02*
X167869491Y-140334315D01*
X167869491Y-140334315D02*
X166596699Y-139061522D01*
X169460482Y-140864645D02*
X170167588Y-141571751D01*
X168930151Y-141394975D02*
X169460482Y-140864645D01*
X170167588Y-141571751D02*
X169637258Y-142102081D01*
X169637258Y-142102081D02*
X168930151Y-141394975D01*
X171228249Y-142632412D02*
X172501041Y-143905204D01*
X170697918Y-143162742D02*
X171228249Y-142632412D01*
X175117336Y-140228249D02*
X172960660Y-138071573D01*
X173031371Y-142314214D02*
X175117336Y-140228249D01*
X173561701Y-142844544D02*
X173031371Y-142314214D01*
X172501041Y-143905204D02*
X171970711Y-144435534D01*
X171970711Y-144435534D02*
X170697918Y-143162742D01*
X176192138Y-140228249D02*
X171970711Y-144449676D01*
X171970711Y-144449676D02*
X166582557Y-139061522D01*
%TO.C,G\u002A\u002A\u002A*%
G36*
X161683148Y-105500821D02*
G01*
X161767447Y-105536517D01*
X161817675Y-105609432D01*
X161825092Y-105698075D01*
X161780953Y-105780952D01*
X161740017Y-105810789D01*
X161666667Y-105833333D01*
X161598515Y-105814022D01*
X161528919Y-105750317D01*
X161500000Y-105666666D01*
X161519311Y-105598514D01*
X161583017Y-105528918D01*
X161666667Y-105500000D01*
X161683148Y-105500821D01*
G37*
G36*
X161683148Y-101834155D02*
G01*
X161767447Y-101869850D01*
X161817675Y-101942765D01*
X161825092Y-102031408D01*
X161780953Y-102114285D01*
X161740017Y-102144122D01*
X161666667Y-102166666D01*
X161598515Y-102147355D01*
X161528919Y-102083650D01*
X161500000Y-102000000D01*
X161519311Y-101931848D01*
X161583017Y-101862251D01*
X161666667Y-101833333D01*
X161683148Y-101834155D01*
G37*
G36*
X161349815Y-105834155D02*
G01*
X161434113Y-105869850D01*
X161484342Y-105942765D01*
X161491758Y-106031408D01*
X161447620Y-106114285D01*
X161406684Y-106144122D01*
X161333334Y-106166666D01*
X161265182Y-106147355D01*
X161195585Y-106083650D01*
X161166667Y-106000000D01*
X161185978Y-105931848D01*
X161249683Y-105862251D01*
X161333334Y-105833333D01*
X161349815Y-105834155D01*
G37*
G36*
X161349815Y-102167488D02*
G01*
X161434113Y-102203184D01*
X161484342Y-102276099D01*
X161491758Y-102364741D01*
X161447620Y-102447619D01*
X161406684Y-102477455D01*
X161333334Y-102500000D01*
X161265182Y-102480689D01*
X161195585Y-102416983D01*
X161166667Y-102333333D01*
X161185978Y-102265181D01*
X161249683Y-102195584D01*
X161333334Y-102166666D01*
X161349815Y-102167488D01*
G37*
G36*
X161016482Y-105500821D02*
G01*
X161100780Y-105536517D01*
X161151009Y-105609432D01*
X161158425Y-105698075D01*
X161114286Y-105780952D01*
X161073350Y-105810789D01*
X161000000Y-105833333D01*
X160931849Y-105814022D01*
X160862252Y-105750317D01*
X160833334Y-105666666D01*
X160852645Y-105598514D01*
X160916350Y-105528918D01*
X161000000Y-105500000D01*
X161016482Y-105500821D01*
G37*
G36*
X159683148Y-105167488D02*
G01*
X159767447Y-105203184D01*
X159817675Y-105276099D01*
X159825092Y-105364741D01*
X159780953Y-105447619D01*
X159740017Y-105477455D01*
X159666667Y-105500000D01*
X159598515Y-105480689D01*
X159528919Y-105416983D01*
X159500000Y-105333333D01*
X159519311Y-105265181D01*
X159583017Y-105195584D01*
X159666667Y-105166666D01*
X159683148Y-105167488D01*
G37*
G36*
X159683148Y-104500821D02*
G01*
X159767447Y-104536517D01*
X159817675Y-104609432D01*
X159825092Y-104698075D01*
X159780953Y-104780952D01*
X159740017Y-104810789D01*
X159666667Y-104833333D01*
X159598515Y-104814022D01*
X159528919Y-104750317D01*
X159500000Y-104666666D01*
X159519311Y-104598514D01*
X159583017Y-104528918D01*
X159666667Y-104500000D01*
X159683148Y-104500821D01*
G37*
G36*
X159683148Y-103834155D02*
G01*
X159767447Y-103869850D01*
X159817675Y-103942765D01*
X159825092Y-104031408D01*
X159780953Y-104114285D01*
X159740017Y-104144122D01*
X159666667Y-104166666D01*
X159598515Y-104147355D01*
X159528919Y-104083650D01*
X159500000Y-104000000D01*
X159519311Y-103931848D01*
X159583017Y-103862251D01*
X159666667Y-103833333D01*
X159683148Y-103834155D01*
G37*
G36*
X158016482Y-108500821D02*
G01*
X158100780Y-108536517D01*
X158151009Y-108609432D01*
X158158425Y-108698075D01*
X158114286Y-108780952D01*
X158073350Y-108810789D01*
X158000000Y-108833333D01*
X157931849Y-108814022D01*
X157862252Y-108750317D01*
X157833334Y-108666666D01*
X157852645Y-108598514D01*
X157916350Y-108528918D01*
X158000000Y-108500000D01*
X158016482Y-108500821D01*
G37*
G36*
X157683148Y-99834155D02*
G01*
X157767447Y-99869850D01*
X157817675Y-99942765D01*
X157825092Y-100031408D01*
X157780953Y-100114285D01*
X157740017Y-100144122D01*
X157666667Y-100166666D01*
X157598515Y-100147355D01*
X157528919Y-100083650D01*
X157500000Y-100000000D01*
X157519311Y-99931848D01*
X157583017Y-99862251D01*
X157666667Y-99833333D01*
X157683148Y-99834155D01*
G37*
G36*
X156016482Y-99500821D02*
G01*
X156100780Y-99536517D01*
X156151009Y-99609432D01*
X156158425Y-99698075D01*
X156114286Y-99780952D01*
X156073350Y-99810789D01*
X156000000Y-99833333D01*
X155931849Y-99814022D01*
X155862252Y-99750317D01*
X155833334Y-99666666D01*
X155852645Y-99598514D01*
X155916350Y-99528918D01*
X156000000Y-99499999D01*
X156016482Y-99500821D01*
G37*
G36*
X155683148Y-99167488D02*
G01*
X155767447Y-99203184D01*
X155817675Y-99276099D01*
X155825092Y-99364741D01*
X155780953Y-99447619D01*
X155740017Y-99477455D01*
X155666667Y-99500000D01*
X155598515Y-99480689D01*
X155528919Y-99416983D01*
X155500000Y-99333333D01*
X155519311Y-99265181D01*
X155583017Y-99195584D01*
X155666667Y-99166666D01*
X155683148Y-99167488D01*
G37*
G36*
X155349815Y-100834155D02*
G01*
X155434113Y-100869850D01*
X155484342Y-100942765D01*
X155491758Y-101031408D01*
X155447620Y-101114285D01*
X155406684Y-101144122D01*
X155333334Y-101166666D01*
X155265182Y-101147355D01*
X155195585Y-101083650D01*
X155166667Y-101000000D01*
X155185978Y-100931848D01*
X155249683Y-100862251D01*
X155333334Y-100833333D01*
X155349815Y-100834155D01*
G37*
G36*
X155016482Y-99500821D02*
G01*
X155100780Y-99536517D01*
X155151009Y-99609432D01*
X155158425Y-99698075D01*
X155114286Y-99780952D01*
X155073350Y-99810789D01*
X155000000Y-99833333D01*
X154931849Y-99814022D01*
X154862252Y-99750317D01*
X154833334Y-99666666D01*
X154852645Y-99598514D01*
X154916350Y-99528918D01*
X155000000Y-99499999D01*
X155016482Y-99500821D01*
G37*
G36*
X153016482Y-104500821D02*
G01*
X153100780Y-104536517D01*
X153151009Y-104609432D01*
X153158425Y-104698075D01*
X153114286Y-104780952D01*
X153073350Y-104810789D01*
X153000000Y-104833333D01*
X152931849Y-104814022D01*
X152862252Y-104750317D01*
X152833334Y-104666666D01*
X152852645Y-104598514D01*
X152916350Y-104528918D01*
X153000000Y-104500000D01*
X153016482Y-104500821D01*
G37*
G36*
X153016482Y-102500821D02*
G01*
X153100780Y-102536517D01*
X153151009Y-102609432D01*
X153158425Y-102698075D01*
X153114286Y-102780952D01*
X153073350Y-102810789D01*
X153000000Y-102833333D01*
X152931849Y-102814022D01*
X152862252Y-102750317D01*
X152833334Y-102666666D01*
X152852645Y-102598514D01*
X152916350Y-102528918D01*
X153000000Y-102500000D01*
X153016482Y-102500821D01*
G37*
G36*
X152349815Y-107167488D02*
G01*
X152434113Y-107203184D01*
X152484342Y-107276099D01*
X152491758Y-107364741D01*
X152447620Y-107447619D01*
X152406684Y-107477455D01*
X152333334Y-107500000D01*
X152265182Y-107480689D01*
X152195585Y-107416983D01*
X152166667Y-107333333D01*
X152185978Y-107265181D01*
X152249683Y-107195584D01*
X152333334Y-107166666D01*
X152349815Y-107167488D01*
G37*
G36*
X152349815Y-104500821D02*
G01*
X152434113Y-104536517D01*
X152484342Y-104609432D01*
X152491758Y-104698075D01*
X152447620Y-104780952D01*
X152406684Y-104810789D01*
X152333334Y-104833333D01*
X152265182Y-104814022D01*
X152195585Y-104750317D01*
X152166667Y-104666666D01*
X152185978Y-104598514D01*
X152249683Y-104528918D01*
X152333334Y-104500000D01*
X152349815Y-104500821D01*
G37*
G36*
X152349815Y-103500821D02*
G01*
X152434113Y-103536517D01*
X152484342Y-103609432D01*
X152491758Y-103698075D01*
X152447620Y-103780952D01*
X152406684Y-103810789D01*
X152333334Y-103833333D01*
X152265182Y-103814022D01*
X152195585Y-103750317D01*
X152166667Y-103666666D01*
X152185978Y-103598514D01*
X152249683Y-103528918D01*
X152333334Y-103500000D01*
X152349815Y-103500821D01*
G37*
G36*
X157377987Y-106176058D02*
G01*
X157447620Y-106219047D01*
X157477456Y-106259983D01*
X157500000Y-106333333D01*
X157490609Y-106377986D01*
X157447620Y-106447619D01*
X157406684Y-106477455D01*
X157333334Y-106500000D01*
X157288681Y-106490608D01*
X157219048Y-106447619D01*
X157207904Y-106435319D01*
X157172823Y-106350022D01*
X157187863Y-106262486D01*
X157244281Y-106194203D01*
X157333334Y-106166666D01*
X157377987Y-106176058D01*
G37*
G36*
X156711320Y-103842724D02*
G01*
X156780953Y-103885714D01*
X156810790Y-103926650D01*
X156833334Y-104000000D01*
X156823942Y-104044653D01*
X156780953Y-104114285D01*
X156740017Y-104144122D01*
X156666667Y-104166666D01*
X156622014Y-104157275D01*
X156552381Y-104114285D01*
X156541238Y-104101985D01*
X156506157Y-104016689D01*
X156521196Y-103929153D01*
X156577614Y-103860870D01*
X156666667Y-103833333D01*
X156711320Y-103842724D01*
G37*
G36*
X156377987Y-103509391D02*
G01*
X156447620Y-103552380D01*
X156477456Y-103593316D01*
X156500000Y-103666666D01*
X156490609Y-103711319D01*
X156447620Y-103780952D01*
X156406684Y-103810789D01*
X156333334Y-103833333D01*
X156288681Y-103823941D01*
X156219048Y-103780952D01*
X156207904Y-103768652D01*
X156172823Y-103683355D01*
X156187863Y-103595819D01*
X156244281Y-103527536D01*
X156333334Y-103500000D01*
X156377987Y-103509391D01*
G37*
G36*
X155711320Y-103509391D02*
G01*
X155780953Y-103552380D01*
X155810790Y-103593316D01*
X155833334Y-103666666D01*
X155823942Y-103711319D01*
X155780953Y-103780952D01*
X155740017Y-103810789D01*
X155666667Y-103833333D01*
X155622014Y-103823941D01*
X155552381Y-103780952D01*
X155541238Y-103768652D01*
X155506157Y-103683355D01*
X155521196Y-103595819D01*
X155577614Y-103527536D01*
X155666667Y-103500000D01*
X155711320Y-103509391D01*
G37*
G36*
X154377987Y-106509391D02*
G01*
X154447620Y-106552380D01*
X154477456Y-106593316D01*
X154500000Y-106666666D01*
X154490609Y-106711319D01*
X154447620Y-106780952D01*
X154406684Y-106810789D01*
X154333334Y-106833333D01*
X154288681Y-106823941D01*
X154219048Y-106780952D01*
X154207904Y-106768652D01*
X154172823Y-106683355D01*
X154187863Y-106595819D01*
X154244281Y-106527536D01*
X154333334Y-106500000D01*
X154377987Y-106509391D01*
G37*
G36*
X154377987Y-104842724D02*
G01*
X154447620Y-104885714D01*
X154477456Y-104926650D01*
X154500000Y-105000000D01*
X154490609Y-105044653D01*
X154447620Y-105114285D01*
X154406684Y-105144122D01*
X154333334Y-105166666D01*
X154288681Y-105157275D01*
X154219048Y-105114285D01*
X154207904Y-105101985D01*
X154172823Y-105016689D01*
X154187863Y-104929153D01*
X154244281Y-104860870D01*
X154333334Y-104833333D01*
X154377987Y-104842724D01*
G37*
G36*
X152737514Y-107521195D02*
G01*
X152805797Y-107577613D01*
X152833334Y-107666666D01*
X152823942Y-107711319D01*
X152780953Y-107780952D01*
X152740017Y-107810789D01*
X152666667Y-107833333D01*
X152622014Y-107823941D01*
X152552381Y-107780952D01*
X152522545Y-107740016D01*
X152500000Y-107666666D01*
X152509392Y-107622013D01*
X152552381Y-107552380D01*
X152564681Y-107541237D01*
X152649978Y-107506156D01*
X152737514Y-107521195D01*
G37*
G36*
X159711320Y-101842724D02*
G01*
X159780953Y-101885714D01*
X159810790Y-101926650D01*
X159833334Y-102000000D01*
X159823942Y-102044653D01*
X159780953Y-102114285D01*
X159740017Y-102144122D01*
X159666667Y-102166666D01*
X159622014Y-102157275D01*
X159552381Y-102114285D01*
X159522545Y-102073349D01*
X159500000Y-102000000D01*
X159509392Y-101955346D01*
X159552381Y-101885714D01*
X159593317Y-101855877D01*
X159666667Y-101833333D01*
X159711320Y-101842724D01*
G37*
G36*
X159044654Y-101176058D02*
G01*
X159114286Y-101219047D01*
X159144123Y-101259983D01*
X159166667Y-101333333D01*
X159157276Y-101377986D01*
X159114286Y-101447619D01*
X159073350Y-101477455D01*
X159000000Y-101500000D01*
X158955347Y-101490608D01*
X158885715Y-101447619D01*
X158855878Y-101406683D01*
X158833334Y-101333333D01*
X158842725Y-101288680D01*
X158885715Y-101219047D01*
X158926651Y-101189210D01*
X159000000Y-101166666D01*
X159044654Y-101176058D01*
G37*
G36*
X160883471Y-107221732D02*
G01*
X161012950Y-107313090D01*
X161103499Y-107436823D01*
X161152845Y-107580704D01*
X161158714Y-107732503D01*
X161118833Y-107879991D01*
X161030929Y-108010939D01*
X160892728Y-108113119D01*
X160778804Y-108152792D01*
X160612992Y-108157850D01*
X160453020Y-108110121D01*
X160315483Y-108015347D01*
X160216974Y-107879270D01*
X160191905Y-107815821D01*
X160169305Y-107650523D01*
X160201631Y-107493474D01*
X160280790Y-107356041D01*
X160398689Y-107249589D01*
X160547237Y-107185484D01*
X160718342Y-107175092D01*
X160883471Y-107221732D01*
G37*
G36*
X160883471Y-99888399D02*
G01*
X161012950Y-99979756D01*
X161103499Y-100103490D01*
X161152845Y-100247371D01*
X161158714Y-100399170D01*
X161118833Y-100546658D01*
X161030929Y-100677606D01*
X160892728Y-100779786D01*
X160778804Y-100819459D01*
X160612992Y-100824517D01*
X160453020Y-100776788D01*
X160315483Y-100682014D01*
X160216974Y-100545937D01*
X160191905Y-100482488D01*
X160169305Y-100317190D01*
X160201631Y-100160141D01*
X160280790Y-100022708D01*
X160398689Y-99916256D01*
X160547237Y-99852151D01*
X160718342Y-99841759D01*
X160883471Y-99888399D01*
G37*
G36*
X153550138Y-99888399D02*
G01*
X153679616Y-99979756D01*
X153770165Y-100103490D01*
X153819511Y-100247371D01*
X153825380Y-100399170D01*
X153785500Y-100546658D01*
X153697596Y-100677606D01*
X153559394Y-100779786D01*
X153445470Y-100819459D01*
X153279658Y-100824517D01*
X153119687Y-100776788D01*
X152982149Y-100682014D01*
X152883640Y-100545937D01*
X152858571Y-100482488D01*
X152835972Y-100317190D01*
X152868297Y-100160141D01*
X152947456Y-100022708D01*
X153065356Y-99916256D01*
X153213904Y-99852151D01*
X153385008Y-99841759D01*
X153550138Y-99888399D01*
G37*
G36*
X159349815Y-105500821D02*
G01*
X159434113Y-105536517D01*
X159484342Y-105609432D01*
X159491758Y-105698075D01*
X159447620Y-105780952D01*
X159406684Y-105810789D01*
X159333334Y-105833333D01*
X159288681Y-105823941D01*
X159219048Y-105780952D01*
X159200356Y-105763110D01*
X159160368Y-105746002D01*
X159114286Y-105780952D01*
X159073350Y-105810789D01*
X159000000Y-105833333D01*
X158931849Y-105814022D01*
X158862252Y-105750317D01*
X158833334Y-105666666D01*
X158834156Y-105650185D01*
X158869851Y-105565887D01*
X158942766Y-105515658D01*
X159031409Y-105508242D01*
X159114286Y-105552380D01*
X159132978Y-105570222D01*
X159172967Y-105587330D01*
X159219048Y-105552380D01*
X159259984Y-105522544D01*
X159333334Y-105500000D01*
X159349815Y-105500821D01*
G37*
G36*
X159016482Y-108500821D02*
G01*
X159100780Y-108536517D01*
X159151009Y-108609432D01*
X159158425Y-108698075D01*
X159114286Y-108780952D01*
X159073350Y-108810789D01*
X159000000Y-108833333D01*
X158955347Y-108823941D01*
X158885715Y-108780952D01*
X158867023Y-108763110D01*
X158827034Y-108746002D01*
X158780953Y-108780952D01*
X158740017Y-108810789D01*
X158666667Y-108833333D01*
X158598515Y-108814022D01*
X158528919Y-108750317D01*
X158500000Y-108666666D01*
X158500822Y-108650185D01*
X158536518Y-108565887D01*
X158609433Y-108515658D01*
X158698076Y-108508242D01*
X158780953Y-108552380D01*
X158799645Y-108570222D01*
X158839633Y-108587330D01*
X158885715Y-108552380D01*
X158926651Y-108522544D01*
X159000000Y-108500000D01*
X159016482Y-108500821D01*
G37*
G36*
X158349815Y-107834155D02*
G01*
X158434113Y-107869850D01*
X158484342Y-107942765D01*
X158491758Y-108031408D01*
X158447620Y-108114285D01*
X158429778Y-108132977D01*
X158412670Y-108172966D01*
X158447620Y-108219047D01*
X158477456Y-108259983D01*
X158500000Y-108333333D01*
X158490609Y-108377986D01*
X158447620Y-108447619D01*
X158406684Y-108477455D01*
X158333334Y-108500000D01*
X158316853Y-108499178D01*
X158232554Y-108463482D01*
X158182326Y-108390567D01*
X158174909Y-108301924D01*
X158219048Y-108219047D01*
X158236890Y-108200355D01*
X158253998Y-108160367D01*
X158219048Y-108114285D01*
X158207904Y-108101985D01*
X158172823Y-108016689D01*
X158187863Y-107929153D01*
X158244281Y-107860870D01*
X158333334Y-107833333D01*
X158349815Y-107834155D01*
G37*
G36*
X152683148Y-103834155D02*
G01*
X152767447Y-103869850D01*
X152817675Y-103942765D01*
X152825092Y-104031408D01*
X152780953Y-104114285D01*
X152763111Y-104132977D01*
X152746003Y-104172966D01*
X152780953Y-104219047D01*
X152810790Y-104259983D01*
X152833334Y-104333333D01*
X152823942Y-104377986D01*
X152780953Y-104447619D01*
X152740017Y-104477455D01*
X152666667Y-104500000D01*
X152650186Y-104499178D01*
X152565888Y-104463482D01*
X152515659Y-104390567D01*
X152508243Y-104301924D01*
X152552381Y-104219047D01*
X152570223Y-104200355D01*
X152587331Y-104160367D01*
X152552381Y-104114285D01*
X152522545Y-104073349D01*
X152500000Y-104000000D01*
X152519311Y-103931848D01*
X152583017Y-103862251D01*
X152666667Y-103833333D01*
X152683148Y-103834155D01*
G37*
G36*
X156016482Y-102834155D02*
G01*
X156100780Y-102869850D01*
X156151009Y-102942765D01*
X156158425Y-103031408D01*
X156114286Y-103114285D01*
X156096444Y-103132977D01*
X156079336Y-103172966D01*
X156114286Y-103219047D01*
X156144123Y-103259983D01*
X156166667Y-103333333D01*
X156157276Y-103377986D01*
X156114286Y-103447619D01*
X156073350Y-103477455D01*
X156000000Y-103500000D01*
X155955347Y-103490608D01*
X155885715Y-103447619D01*
X155855878Y-103406683D01*
X155833334Y-103333333D01*
X155842725Y-103288680D01*
X155885715Y-103219047D01*
X155903557Y-103200355D01*
X155920665Y-103160367D01*
X155885715Y-103114285D01*
X155855878Y-103073349D01*
X155833334Y-103000000D01*
X155852645Y-102931848D01*
X155916350Y-102862251D01*
X156000000Y-102833333D01*
X156016482Y-102834155D01*
G37*
G36*
X152711320Y-108176058D02*
G01*
X152780953Y-108219047D01*
X152810790Y-108259983D01*
X152833334Y-108333333D01*
X152823942Y-108377986D01*
X152780953Y-108447619D01*
X152740017Y-108477455D01*
X152666667Y-108500000D01*
X152622014Y-108490608D01*
X152552381Y-108447619D01*
X152533689Y-108429777D01*
X152493701Y-108412669D01*
X152447620Y-108447619D01*
X152406684Y-108477455D01*
X152333334Y-108500000D01*
X152265182Y-108480689D01*
X152195585Y-108416983D01*
X152166667Y-108333333D01*
X152167489Y-108316852D01*
X152203185Y-108232553D01*
X152276100Y-108182325D01*
X152364742Y-108174908D01*
X152447620Y-108219047D01*
X152466312Y-108236889D01*
X152506300Y-108253997D01*
X152552381Y-108219047D01*
X152593317Y-108189210D01*
X152666667Y-108166666D01*
X152711320Y-108176058D01*
G37*
G36*
X157044654Y-105509391D02*
G01*
X157114286Y-105552380D01*
X157144123Y-105593316D01*
X157166667Y-105666666D01*
X157157276Y-105711319D01*
X157114286Y-105780952D01*
X157073350Y-105810789D01*
X157000000Y-105833333D01*
X156955347Y-105823941D01*
X156885715Y-105780952D01*
X156867023Y-105763110D01*
X156827034Y-105746002D01*
X156780953Y-105780952D01*
X156740017Y-105810789D01*
X156666667Y-105833333D01*
X156622014Y-105823941D01*
X156552381Y-105780952D01*
X156522545Y-105740016D01*
X156500000Y-105666666D01*
X156509392Y-105622013D01*
X156552381Y-105552380D01*
X156593317Y-105522544D01*
X156666667Y-105500000D01*
X156711320Y-105509391D01*
X156780953Y-105552380D01*
X156799645Y-105570222D01*
X156839633Y-105587330D01*
X156885715Y-105552380D01*
X156926651Y-105522544D01*
X157000000Y-105500000D01*
X157044654Y-105509391D01*
G37*
G36*
X156044654Y-105176058D02*
G01*
X156114286Y-105219047D01*
X156144123Y-105259983D01*
X156166667Y-105333333D01*
X156157276Y-105377986D01*
X156114286Y-105447619D01*
X156073350Y-105477455D01*
X156000000Y-105500000D01*
X155955347Y-105490608D01*
X155885715Y-105447619D01*
X155867023Y-105429777D01*
X155827034Y-105412669D01*
X155780953Y-105447619D01*
X155740017Y-105477455D01*
X155666667Y-105500000D01*
X155622014Y-105490608D01*
X155552381Y-105447619D01*
X155522545Y-105406683D01*
X155500000Y-105333333D01*
X155509392Y-105288680D01*
X155552381Y-105219047D01*
X155593317Y-105189210D01*
X155666667Y-105166666D01*
X155711320Y-105176058D01*
X155780953Y-105219047D01*
X155799645Y-105236889D01*
X155839633Y-105253997D01*
X155885715Y-105219047D01*
X155926651Y-105189210D01*
X156000000Y-105166666D01*
X156044654Y-105176058D01*
G37*
G36*
X158068152Y-107519310D02*
G01*
X158137749Y-107583016D01*
X158166667Y-107666666D01*
X158165845Y-107683147D01*
X158130150Y-107767446D01*
X158057235Y-107817674D01*
X157968592Y-107825091D01*
X157885715Y-107780952D01*
X157867023Y-107763110D01*
X157827034Y-107746002D01*
X157780953Y-107780952D01*
X157763111Y-107799644D01*
X157746003Y-107839632D01*
X157780953Y-107885714D01*
X157810790Y-107926650D01*
X157833334Y-108000000D01*
X157823942Y-108044653D01*
X157780953Y-108114285D01*
X157740017Y-108144122D01*
X157666667Y-108166666D01*
X157650186Y-108165844D01*
X157565888Y-108130149D01*
X157515659Y-108057234D01*
X157508243Y-107968591D01*
X157552381Y-107885714D01*
X157570223Y-107867022D01*
X157587331Y-107827033D01*
X157552381Y-107780952D01*
X157541238Y-107768652D01*
X157506157Y-107683355D01*
X157521196Y-107595819D01*
X157577614Y-107527536D01*
X157666667Y-107500000D01*
X157711320Y-107509391D01*
X157780953Y-107552380D01*
X157799645Y-107570222D01*
X157839633Y-107587330D01*
X157885715Y-107552380D01*
X157926651Y-107522544D01*
X158000000Y-107500000D01*
X158068152Y-107519310D01*
G37*
G36*
X156016482Y-100167488D02*
G01*
X156100780Y-100203184D01*
X156151009Y-100276099D01*
X156158425Y-100364741D01*
X156114286Y-100447619D01*
X156073350Y-100477455D01*
X156000000Y-100500000D01*
X155955347Y-100490608D01*
X155885715Y-100447619D01*
X155867023Y-100429777D01*
X155827034Y-100412669D01*
X155780953Y-100447619D01*
X155740017Y-100477455D01*
X155666667Y-100500000D01*
X155622014Y-100490608D01*
X155552381Y-100447619D01*
X155533689Y-100429777D01*
X155493701Y-100412669D01*
X155447620Y-100447619D01*
X155435320Y-100458762D01*
X155350023Y-100493843D01*
X155262487Y-100478804D01*
X155194204Y-100422386D01*
X155166667Y-100333333D01*
X155167489Y-100316852D01*
X155203185Y-100232553D01*
X155276100Y-100182325D01*
X155364742Y-100174908D01*
X155447620Y-100219047D01*
X155466312Y-100236889D01*
X155506300Y-100253997D01*
X155552381Y-100219047D01*
X155599278Y-100184957D01*
X155692895Y-100171232D01*
X155780953Y-100219047D01*
X155799645Y-100236889D01*
X155839633Y-100253997D01*
X155885715Y-100219047D01*
X155926651Y-100189210D01*
X156000000Y-100166666D01*
X156016482Y-100167488D01*
G37*
G36*
X153349815Y-108167488D02*
G01*
X153434113Y-108203184D01*
X153484342Y-108276099D01*
X153491758Y-108364741D01*
X153447620Y-108447619D01*
X153429778Y-108466311D01*
X153412670Y-108506299D01*
X153447620Y-108552380D01*
X153477456Y-108593316D01*
X153500000Y-108666666D01*
X153490609Y-108711319D01*
X153447620Y-108780952D01*
X153406684Y-108810789D01*
X153333334Y-108833333D01*
X153288681Y-108823941D01*
X153219048Y-108780952D01*
X153200356Y-108763110D01*
X153160368Y-108746002D01*
X153114286Y-108780952D01*
X153073350Y-108810789D01*
X153000000Y-108833333D01*
X152931849Y-108814022D01*
X152862252Y-108750317D01*
X152833334Y-108666666D01*
X152834156Y-108650185D01*
X152869851Y-108565887D01*
X152942766Y-108515658D01*
X153031409Y-108508242D01*
X153114286Y-108552380D01*
X153132978Y-108570222D01*
X153172967Y-108587330D01*
X153219048Y-108552380D01*
X153236890Y-108533688D01*
X153253998Y-108493700D01*
X153219048Y-108447619D01*
X153189211Y-108406683D01*
X153166667Y-108333333D01*
X153185978Y-108265181D01*
X153249683Y-108195584D01*
X153333334Y-108166666D01*
X153349815Y-108167488D01*
G37*
G36*
X158349815Y-100834155D02*
G01*
X158434113Y-100869850D01*
X158484342Y-100942765D01*
X158491758Y-101031408D01*
X158447620Y-101114285D01*
X158429778Y-101132977D01*
X158412670Y-101172966D01*
X158447620Y-101219047D01*
X158477456Y-101259983D01*
X158500000Y-101333333D01*
X158490609Y-101377986D01*
X158447620Y-101447619D01*
X158406684Y-101477455D01*
X158333334Y-101500000D01*
X158288681Y-101490608D01*
X158219048Y-101447619D01*
X158184958Y-101400722D01*
X158171233Y-101307105D01*
X158219048Y-101219047D01*
X158236890Y-101200355D01*
X158253998Y-101160367D01*
X158219048Y-101114285D01*
X158200356Y-101096443D01*
X158160368Y-101079335D01*
X158114286Y-101114285D01*
X158073350Y-101144122D01*
X158000000Y-101166666D01*
X157983519Y-101165844D01*
X157899221Y-101130149D01*
X157848992Y-101057234D01*
X157841576Y-100968591D01*
X157885715Y-100885714D01*
X157926651Y-100855877D01*
X158000000Y-100833333D01*
X158044654Y-100842724D01*
X158114286Y-100885714D01*
X158132978Y-100903556D01*
X158172967Y-100920664D01*
X158219048Y-100885714D01*
X158259984Y-100855877D01*
X158333334Y-100833333D01*
X158349815Y-100834155D01*
G37*
G36*
X159016482Y-107167488D02*
G01*
X159100780Y-107203184D01*
X159151009Y-107276099D01*
X159158425Y-107364741D01*
X159114286Y-107447619D01*
X159096444Y-107466311D01*
X159079336Y-107506299D01*
X159114286Y-107552380D01*
X159144123Y-107593316D01*
X159166667Y-107666666D01*
X159157276Y-107711319D01*
X159114286Y-107780952D01*
X159096444Y-107799644D01*
X159079336Y-107839632D01*
X159114286Y-107885714D01*
X159144123Y-107926650D01*
X159166667Y-108000000D01*
X159157276Y-108044653D01*
X159114286Y-108114285D01*
X159073350Y-108144122D01*
X159000000Y-108166666D01*
X158983519Y-108165844D01*
X158899221Y-108130149D01*
X158848992Y-108057234D01*
X158841576Y-107968591D01*
X158885715Y-107885714D01*
X158903557Y-107867022D01*
X158920665Y-107827033D01*
X158885715Y-107780952D01*
X158851625Y-107734056D01*
X158837900Y-107640438D01*
X158885715Y-107552380D01*
X158903557Y-107533688D01*
X158920665Y-107493700D01*
X158885715Y-107447619D01*
X158867023Y-107429777D01*
X158827034Y-107412669D01*
X158780953Y-107447619D01*
X158768653Y-107458762D01*
X158683356Y-107493843D01*
X158595820Y-107478804D01*
X158527537Y-107422386D01*
X158500000Y-107333333D01*
X158500822Y-107316852D01*
X158536518Y-107232553D01*
X158609433Y-107182325D01*
X158698076Y-107174908D01*
X158780953Y-107219047D01*
X158799645Y-107236889D01*
X158839633Y-107253997D01*
X158885715Y-107219047D01*
X158926651Y-107189210D01*
X159000000Y-107166666D01*
X159016482Y-107167488D01*
G37*
G36*
X156683148Y-106167488D02*
G01*
X156767447Y-106203184D01*
X156817675Y-106276099D01*
X156825092Y-106364741D01*
X156780953Y-106447619D01*
X156763111Y-106466311D01*
X156746003Y-106506299D01*
X156780953Y-106552380D01*
X156799645Y-106570222D01*
X156839633Y-106587330D01*
X156885715Y-106552380D01*
X156926651Y-106522544D01*
X157000000Y-106500000D01*
X157016482Y-106500821D01*
X157100780Y-106536517D01*
X157151009Y-106609432D01*
X157158425Y-106698075D01*
X157114286Y-106780952D01*
X157096444Y-106799644D01*
X157079336Y-106839632D01*
X157114286Y-106885714D01*
X157144123Y-106926650D01*
X157166667Y-107000000D01*
X157157276Y-107044653D01*
X157114286Y-107114285D01*
X157073350Y-107144122D01*
X157000000Y-107166666D01*
X156955347Y-107157275D01*
X156885715Y-107114285D01*
X156855878Y-107073349D01*
X156833334Y-107000000D01*
X156842725Y-106955346D01*
X156885715Y-106885714D01*
X156903557Y-106867022D01*
X156920665Y-106827033D01*
X156885715Y-106780952D01*
X156867023Y-106763110D01*
X156827034Y-106746002D01*
X156780953Y-106780952D01*
X156740017Y-106810789D01*
X156666667Y-106833333D01*
X156650186Y-106832511D01*
X156565888Y-106796815D01*
X156515659Y-106723900D01*
X156508243Y-106635258D01*
X156552381Y-106552380D01*
X156570223Y-106533688D01*
X156587331Y-106493700D01*
X156552381Y-106447619D01*
X156541238Y-106435319D01*
X156506157Y-106350022D01*
X156521196Y-106262486D01*
X156577614Y-106194203D01*
X156666667Y-106166666D01*
X156683148Y-106167488D01*
G37*
G36*
X156349815Y-106834155D02*
G01*
X156434113Y-106869850D01*
X156484342Y-106942765D01*
X156491758Y-107031408D01*
X156447620Y-107114285D01*
X156429778Y-107132977D01*
X156412670Y-107172966D01*
X156447620Y-107219047D01*
X156466312Y-107236889D01*
X156506300Y-107253997D01*
X156552381Y-107219047D01*
X156593317Y-107189210D01*
X156666667Y-107166666D01*
X156711320Y-107176058D01*
X156780953Y-107219047D01*
X156810790Y-107259983D01*
X156833334Y-107333333D01*
X156823942Y-107377986D01*
X156780953Y-107447619D01*
X156740017Y-107477455D01*
X156666667Y-107500000D01*
X156622014Y-107490608D01*
X156552381Y-107447619D01*
X156533689Y-107429777D01*
X156493701Y-107412669D01*
X156447620Y-107447619D01*
X156406684Y-107477455D01*
X156333334Y-107500000D01*
X156288681Y-107490608D01*
X156219048Y-107447619D01*
X156184958Y-107400722D01*
X156171233Y-107307105D01*
X156219048Y-107219047D01*
X156236890Y-107200355D01*
X156253998Y-107160367D01*
X156219048Y-107114285D01*
X156200356Y-107096443D01*
X156160368Y-107079335D01*
X156114286Y-107114285D01*
X156101986Y-107125429D01*
X156016690Y-107160510D01*
X155929154Y-107145470D01*
X155860871Y-107089053D01*
X155833334Y-107000000D01*
X155834156Y-106983518D01*
X155869851Y-106899220D01*
X155942766Y-106848991D01*
X156031409Y-106841575D01*
X156114286Y-106885714D01*
X156132978Y-106903556D01*
X156172967Y-106920664D01*
X156219048Y-106885714D01*
X156259984Y-106855877D01*
X156333334Y-106833333D01*
X156349815Y-106834155D01*
G37*
G36*
X152750217Y-102163115D02*
G01*
X152746003Y-102172966D01*
X152780953Y-102219047D01*
X152810790Y-102259983D01*
X152833334Y-102333333D01*
X152832512Y-102349814D01*
X152796816Y-102434112D01*
X152723901Y-102484341D01*
X152635259Y-102491757D01*
X152552381Y-102447619D01*
X152533689Y-102429777D01*
X152493701Y-102412669D01*
X152447620Y-102447619D01*
X152429778Y-102466311D01*
X152412670Y-102506299D01*
X152447620Y-102552380D01*
X152477456Y-102593316D01*
X152500000Y-102666666D01*
X152490609Y-102711319D01*
X152447620Y-102780952D01*
X152406684Y-102810789D01*
X152333334Y-102833333D01*
X152316853Y-102832511D01*
X152232554Y-102796815D01*
X152182326Y-102723900D01*
X152174909Y-102635258D01*
X152219048Y-102552380D01*
X152236890Y-102533688D01*
X152253998Y-102493700D01*
X152219048Y-102447619D01*
X152189211Y-102406683D01*
X152166667Y-102333333D01*
X152176059Y-102288680D01*
X152219048Y-102219047D01*
X152236890Y-102200355D01*
X152249176Y-102171638D01*
X152412717Y-102171638D01*
X152445239Y-102216666D01*
X152483821Y-102252755D01*
X152516837Y-102257843D01*
X152560163Y-102214847D01*
X152564713Y-102209575D01*
X152585360Y-102163115D01*
X152551830Y-102113734D01*
X152533900Y-102096620D01*
X152493811Y-102079403D01*
X152447620Y-102114285D01*
X152432248Y-102130317D01*
X152412717Y-102171638D01*
X152249176Y-102171638D01*
X152253998Y-102160367D01*
X152219048Y-102114285D01*
X152189211Y-102073349D01*
X152166667Y-101999999D01*
X152167489Y-101983518D01*
X152203185Y-101899220D01*
X152276100Y-101848991D01*
X152364742Y-101841575D01*
X152447620Y-101885714D01*
X152466312Y-101903556D01*
X152506300Y-101920664D01*
X152552381Y-101885714D01*
X152593317Y-101855877D01*
X152666667Y-101833333D01*
X152711320Y-101842724D01*
X152780953Y-101885714D01*
X152799645Y-101903556D01*
X152839633Y-101920664D01*
X152885715Y-101885714D01*
X152926651Y-101855877D01*
X153000000Y-101833333D01*
X153044654Y-101842724D01*
X153114286Y-101885714D01*
X153132978Y-101903556D01*
X153172967Y-101920664D01*
X153219048Y-101885714D01*
X153231348Y-101874570D01*
X153316645Y-101839489D01*
X153404181Y-101854529D01*
X153472464Y-101910946D01*
X153500000Y-101999999D01*
X153499179Y-102016481D01*
X153463483Y-102100779D01*
X153390568Y-102151008D01*
X153301925Y-102158424D01*
X153219048Y-102114285D01*
X153200356Y-102096443D01*
X153160368Y-102079335D01*
X153114286Y-102114285D01*
X153073350Y-102144122D01*
X153000000Y-102166666D01*
X152955347Y-102157275D01*
X152885715Y-102114285D01*
X152867023Y-102096443D01*
X152827034Y-102079335D01*
X152780953Y-102114285D01*
X152763111Y-102132977D01*
X152750217Y-102163115D01*
G37*
G36*
X160711320Y-101842724D02*
G01*
X160780953Y-101885714D01*
X160799645Y-101903556D01*
X160839633Y-101920664D01*
X160885715Y-101885714D01*
X160898015Y-101874570D01*
X160983311Y-101839489D01*
X161070847Y-101854529D01*
X161139130Y-101910946D01*
X161166667Y-101999999D01*
X161165845Y-102016481D01*
X161130150Y-102100779D01*
X161057235Y-102151008D01*
X160968592Y-102158424D01*
X160885715Y-102114285D01*
X160867023Y-102096443D01*
X160827034Y-102079335D01*
X160780953Y-102114285D01*
X160740017Y-102144122D01*
X160666667Y-102166666D01*
X160622014Y-102157275D01*
X160552381Y-102114285D01*
X160533689Y-102096443D01*
X160493701Y-102079335D01*
X160447620Y-102114285D01*
X160429778Y-102132977D01*
X160412670Y-102172966D01*
X160447620Y-102219047D01*
X160458763Y-102231347D01*
X160493844Y-102316644D01*
X160478805Y-102404180D01*
X160422387Y-102472463D01*
X160333334Y-102500000D01*
X160288681Y-102490608D01*
X160219048Y-102447619D01*
X160200356Y-102429777D01*
X160160368Y-102412669D01*
X160114286Y-102447619D01*
X160096444Y-102466311D01*
X160079336Y-102506299D01*
X160114286Y-102552380D01*
X160144123Y-102593316D01*
X160166667Y-102666666D01*
X160157276Y-102711319D01*
X160114286Y-102780952D01*
X160073350Y-102810789D01*
X160000000Y-102833333D01*
X159955347Y-102823941D01*
X159885715Y-102780952D01*
X159867023Y-102763110D01*
X159827034Y-102746002D01*
X159780953Y-102780952D01*
X159740017Y-102810789D01*
X159666667Y-102833333D01*
X159622014Y-102823941D01*
X159552381Y-102780952D01*
X159533689Y-102763110D01*
X159493701Y-102746002D01*
X159447620Y-102780952D01*
X159435320Y-102792096D01*
X159350023Y-102827177D01*
X159262487Y-102812137D01*
X159194204Y-102755719D01*
X159166667Y-102666666D01*
X159167489Y-102650185D01*
X159203185Y-102565887D01*
X159276100Y-102515658D01*
X159364742Y-102508242D01*
X159447620Y-102552380D01*
X159466312Y-102570222D01*
X159506300Y-102587330D01*
X159552381Y-102552380D01*
X159593317Y-102522544D01*
X159666667Y-102500000D01*
X159711320Y-102509391D01*
X159780953Y-102552380D01*
X159799645Y-102570222D01*
X159839633Y-102587330D01*
X159885715Y-102552380D01*
X159903557Y-102533688D01*
X159920665Y-102493700D01*
X159885715Y-102447619D01*
X159855878Y-102406683D01*
X159833334Y-102333333D01*
X159834156Y-102316852D01*
X159869851Y-102232553D01*
X159942766Y-102182325D01*
X160031409Y-102174908D01*
X160114286Y-102219047D01*
X160132978Y-102236889D01*
X160172967Y-102253997D01*
X160219048Y-102219047D01*
X160236890Y-102200355D01*
X160253998Y-102160367D01*
X160219048Y-102114285D01*
X160184958Y-102067389D01*
X160171233Y-101973771D01*
X160219048Y-101885714D01*
X160265944Y-101851624D01*
X160359562Y-101837899D01*
X160447620Y-101885714D01*
X160466312Y-101903556D01*
X160506300Y-101920664D01*
X160552381Y-101885714D01*
X160593317Y-101855877D01*
X160666667Y-101833333D01*
X160711320Y-101842724D01*
G37*
G36*
X161832297Y-107666666D02*
G01*
X161832012Y-107720893D01*
X161823403Y-107917868D01*
X161807648Y-108096985D01*
X161785162Y-108242063D01*
X161756364Y-108336919D01*
X161678423Y-108462705D01*
X161517396Y-108629068D01*
X161316667Y-108756251D01*
X161292688Y-108767528D01*
X161227782Y-108794652D01*
X161162569Y-108813028D01*
X161083785Y-108824012D01*
X160978162Y-108828963D01*
X160832434Y-108829239D01*
X160633334Y-108826198D01*
X160516580Y-108823927D01*
X160350074Y-108819328D01*
X160229569Y-108812348D01*
X160141763Y-108800936D01*
X160073355Y-108783044D01*
X160011042Y-108756623D01*
X159941523Y-108719623D01*
X159802323Y-108627012D01*
X159650873Y-108465657D01*
X159548709Y-108263006D01*
X159542614Y-108243519D01*
X159520348Y-108121764D01*
X159505865Y-107955538D01*
X159499149Y-107762578D01*
X159499642Y-107666666D01*
X159834431Y-107666666D01*
X159834736Y-107782682D01*
X159837425Y-107936668D01*
X159844393Y-108046096D01*
X159857431Y-108124915D01*
X159878330Y-108187076D01*
X159908882Y-108246529D01*
X159924582Y-108271504D01*
X160007528Y-108368117D01*
X160099480Y-108438196D01*
X160100674Y-108438829D01*
X160160613Y-108464724D01*
X160233851Y-108482336D01*
X160333719Y-108493117D01*
X160473548Y-108498521D01*
X160666667Y-108500000D01*
X160688848Y-108499976D01*
X160909513Y-108495611D01*
X161075989Y-108481101D01*
X161199499Y-108452692D01*
X161291264Y-108406629D01*
X161362508Y-108339160D01*
X161424452Y-108246529D01*
X161443559Y-108211359D01*
X161468259Y-108152020D01*
X161484353Y-108081832D01*
X161493631Y-107986844D01*
X161497884Y-107853105D01*
X161498904Y-107666666D01*
X161498599Y-107550651D01*
X161495910Y-107396664D01*
X161488941Y-107287237D01*
X161475903Y-107208418D01*
X161455004Y-107146256D01*
X161424452Y-107086803D01*
X161419411Y-107078099D01*
X161357080Y-106987644D01*
X161284504Y-106922066D01*
X161190456Y-106877609D01*
X161063706Y-106850515D01*
X160893026Y-106837026D01*
X160667187Y-106833385D01*
X160636290Y-106833433D01*
X160417009Y-106837978D01*
X160251727Y-106852501D01*
X160129385Y-106880650D01*
X160038921Y-106926073D01*
X159969274Y-106992418D01*
X159909385Y-107083333D01*
X159890154Y-107119379D01*
X159865278Y-107179861D01*
X159849073Y-107250776D01*
X159839734Y-107346179D01*
X159835456Y-107480124D01*
X159834431Y-107666666D01*
X159499642Y-107666666D01*
X159500187Y-107560622D01*
X159508963Y-107367410D01*
X159525463Y-107200678D01*
X159549673Y-107078166D01*
X159563476Y-107036951D01*
X159665283Y-106854703D01*
X159821667Y-106697888D01*
X160023931Y-106575720D01*
X160048581Y-106564560D01*
X160117625Y-106536386D01*
X160184861Y-106517408D01*
X160263977Y-106506222D01*
X160368661Y-106501422D01*
X160512601Y-106501604D01*
X160709483Y-106505363D01*
X160803778Y-106507542D01*
X160974504Y-106512736D01*
X161098100Y-106520066D01*
X161188097Y-106531679D01*
X161258028Y-106549725D01*
X161321422Y-106576352D01*
X161391811Y-106613709D01*
X161542226Y-106715459D01*
X161689106Y-106878119D01*
X161788683Y-107083896D01*
X161810779Y-107184660D01*
X161826117Y-107338107D01*
X161833055Y-107522245D01*
X161832297Y-107666666D01*
G37*
G36*
X161832297Y-100333333D02*
G01*
X161832012Y-100387560D01*
X161823403Y-100584534D01*
X161807648Y-100763652D01*
X161785162Y-100908730D01*
X161756364Y-101003585D01*
X161678423Y-101129372D01*
X161517396Y-101295735D01*
X161316667Y-101422918D01*
X161292688Y-101434195D01*
X161227782Y-101461319D01*
X161162569Y-101479694D01*
X161083785Y-101490679D01*
X160978162Y-101495630D01*
X160832434Y-101495906D01*
X160633334Y-101492865D01*
X160516580Y-101490594D01*
X160350074Y-101485995D01*
X160229569Y-101479014D01*
X160141763Y-101467602D01*
X160073355Y-101449711D01*
X160011042Y-101423289D01*
X159941523Y-101386290D01*
X159802323Y-101293679D01*
X159650873Y-101132324D01*
X159548709Y-100929673D01*
X159542614Y-100910186D01*
X159520348Y-100788431D01*
X159505865Y-100622205D01*
X159499149Y-100429244D01*
X159499642Y-100333333D01*
X159834431Y-100333333D01*
X159834736Y-100449348D01*
X159837425Y-100603335D01*
X159844393Y-100712762D01*
X159857431Y-100791581D01*
X159878330Y-100853743D01*
X159908882Y-100913196D01*
X159924582Y-100938171D01*
X160007528Y-101034784D01*
X160099480Y-101104863D01*
X160100674Y-101105496D01*
X160160613Y-101131391D01*
X160233851Y-101149002D01*
X160333719Y-101159784D01*
X160473548Y-101165188D01*
X160666667Y-101166666D01*
X160688848Y-101166643D01*
X160909513Y-101162278D01*
X161075989Y-101147768D01*
X161199499Y-101119358D01*
X161291264Y-101073296D01*
X161362508Y-101005826D01*
X161424452Y-100913196D01*
X161443559Y-100878026D01*
X161468259Y-100818687D01*
X161484353Y-100748499D01*
X161493631Y-100653511D01*
X161497884Y-100519772D01*
X161498904Y-100333333D01*
X161498599Y-100217317D01*
X161495910Y-100063331D01*
X161488941Y-99953903D01*
X161475903Y-99875084D01*
X161455004Y-99812923D01*
X161424452Y-99753470D01*
X161419411Y-99744766D01*
X161357080Y-99654310D01*
X161284504Y-99588733D01*
X161190456Y-99544276D01*
X161063706Y-99517182D01*
X160893026Y-99503693D01*
X160667187Y-99500051D01*
X160636290Y-99500100D01*
X160417009Y-99504645D01*
X160251727Y-99519168D01*
X160129385Y-99547317D01*
X160038921Y-99592739D01*
X159969274Y-99659084D01*
X159909385Y-99750000D01*
X159890154Y-99786046D01*
X159865278Y-99846527D01*
X159849073Y-99917442D01*
X159839734Y-100012845D01*
X159835456Y-100146791D01*
X159834431Y-100333333D01*
X159499642Y-100333333D01*
X159500187Y-100227289D01*
X159508963Y-100034076D01*
X159525463Y-99867345D01*
X159549673Y-99744833D01*
X159563476Y-99703617D01*
X159665283Y-99521370D01*
X159821667Y-99364555D01*
X160023931Y-99242386D01*
X160048581Y-99231227D01*
X160117625Y-99203053D01*
X160184861Y-99184075D01*
X160263977Y-99172888D01*
X160368661Y-99168089D01*
X160512601Y-99168271D01*
X160709483Y-99172030D01*
X160803778Y-99174209D01*
X160974504Y-99179403D01*
X161098100Y-99186732D01*
X161188097Y-99198346D01*
X161258028Y-99216392D01*
X161321422Y-99243019D01*
X161391811Y-99280376D01*
X161542226Y-99382126D01*
X161689106Y-99544785D01*
X161788683Y-99750563D01*
X161810779Y-99851327D01*
X161826117Y-100004773D01*
X161833055Y-100188912D01*
X161832297Y-100333333D01*
G37*
G36*
X154498963Y-100333333D02*
G01*
X154498678Y-100387560D01*
X154490070Y-100584534D01*
X154474314Y-100763652D01*
X154451829Y-100908730D01*
X154423031Y-101003585D01*
X154345089Y-101129372D01*
X154184062Y-101295735D01*
X153983334Y-101422918D01*
X153959355Y-101434195D01*
X153894448Y-101461319D01*
X153829236Y-101479694D01*
X153750452Y-101490679D01*
X153644828Y-101495630D01*
X153499100Y-101495906D01*
X153300000Y-101492865D01*
X153183246Y-101490594D01*
X153016741Y-101485995D01*
X152896236Y-101479014D01*
X152808430Y-101467602D01*
X152740022Y-101449711D01*
X152677709Y-101423289D01*
X152608190Y-101386290D01*
X152468990Y-101293679D01*
X152317539Y-101132324D01*
X152215376Y-100929673D01*
X152209280Y-100910186D01*
X152187015Y-100788431D01*
X152172532Y-100622205D01*
X152165816Y-100429244D01*
X152166308Y-100333333D01*
X152501097Y-100333333D01*
X152501402Y-100449348D01*
X152504091Y-100603335D01*
X152511060Y-100712762D01*
X152524098Y-100791581D01*
X152544997Y-100853743D01*
X152575549Y-100913196D01*
X152591249Y-100938171D01*
X152674195Y-101034784D01*
X152766147Y-101104863D01*
X152767341Y-101105496D01*
X152827279Y-101131391D01*
X152900517Y-101149002D01*
X153000386Y-101159784D01*
X153140215Y-101165188D01*
X153333334Y-101166666D01*
X153355514Y-101166643D01*
X153576180Y-101162278D01*
X153742656Y-101147768D01*
X153866166Y-101119358D01*
X153957931Y-101073296D01*
X154029175Y-101005826D01*
X154091119Y-100913196D01*
X154110225Y-100878026D01*
X154134926Y-100818687D01*
X154151020Y-100748499D01*
X154160298Y-100653511D01*
X154164551Y-100519772D01*
X154165570Y-100333333D01*
X154165265Y-100217317D01*
X154162576Y-100063331D01*
X154155608Y-99953903D01*
X154142570Y-99875084D01*
X154121671Y-99812923D01*
X154091119Y-99753470D01*
X154086078Y-99744766D01*
X154023746Y-99654310D01*
X153951171Y-99588733D01*
X153857123Y-99544276D01*
X153730373Y-99517182D01*
X153559693Y-99503693D01*
X153333854Y-99500051D01*
X153302957Y-99500100D01*
X153083675Y-99504645D01*
X152918394Y-99519168D01*
X152796051Y-99547317D01*
X152705587Y-99592739D01*
X152635941Y-99659084D01*
X152576051Y-99750000D01*
X152556820Y-99786046D01*
X152531944Y-99846527D01*
X152515740Y-99917442D01*
X152506401Y-100012845D01*
X152502122Y-100146791D01*
X152501097Y-100333333D01*
X152166308Y-100333333D01*
X152166853Y-100227289D01*
X152175629Y-100034076D01*
X152192130Y-99867345D01*
X152216340Y-99744833D01*
X152230143Y-99703617D01*
X152331950Y-99521370D01*
X152488334Y-99364555D01*
X152690597Y-99242386D01*
X152715248Y-99231227D01*
X152784292Y-99203053D01*
X152851528Y-99184075D01*
X152930644Y-99172888D01*
X153035328Y-99168089D01*
X153179267Y-99168271D01*
X153376150Y-99172030D01*
X153470445Y-99174209D01*
X153641170Y-99179403D01*
X153764766Y-99186732D01*
X153854764Y-99198346D01*
X153924694Y-99216392D01*
X153988089Y-99243019D01*
X154058478Y-99280376D01*
X154208892Y-99382126D01*
X154355773Y-99544785D01*
X154455349Y-99750563D01*
X154477445Y-99851327D01*
X154492783Y-100004773D01*
X154499722Y-100188912D01*
X154498963Y-100333333D01*
G37*
G36*
X158083550Y-101829782D02*
G01*
X158079336Y-101839632D01*
X158114286Y-101885714D01*
X158132978Y-101903556D01*
X158172967Y-101920664D01*
X158219048Y-101885714D01*
X158265944Y-101851624D01*
X158359562Y-101837899D01*
X158447620Y-101885714D01*
X158466312Y-101903556D01*
X158506300Y-101920664D01*
X158552381Y-101885714D01*
X158599278Y-101851624D01*
X158692895Y-101837899D01*
X158780953Y-101885714D01*
X158799645Y-101903556D01*
X158839633Y-101920664D01*
X158885715Y-101885714D01*
X158926651Y-101855877D01*
X159000000Y-101833333D01*
X159016482Y-101834155D01*
X159100780Y-101869850D01*
X159151009Y-101942765D01*
X159158425Y-102031408D01*
X159114286Y-102114285D01*
X159096444Y-102132977D01*
X159079336Y-102172966D01*
X159114286Y-102219047D01*
X159144123Y-102259983D01*
X159166667Y-102333333D01*
X159157276Y-102377986D01*
X159114286Y-102447619D01*
X159073350Y-102477455D01*
X159000000Y-102500000D01*
X158955347Y-102490608D01*
X158885715Y-102447619D01*
X158851625Y-102400722D01*
X158837900Y-102307105D01*
X158885715Y-102219047D01*
X158903557Y-102200355D01*
X158920665Y-102160367D01*
X158885715Y-102114285D01*
X158867023Y-102096443D01*
X158827034Y-102079335D01*
X158780953Y-102114285D01*
X158734057Y-102148375D01*
X158640439Y-102162100D01*
X158552381Y-102114285D01*
X158533689Y-102096443D01*
X158493701Y-102079335D01*
X158447620Y-102114285D01*
X158429778Y-102132977D01*
X158412670Y-102172966D01*
X158447620Y-102219047D01*
X158477456Y-102259983D01*
X158500000Y-102333333D01*
X158480690Y-102401485D01*
X158416984Y-102471081D01*
X158333334Y-102500000D01*
X158316853Y-102499178D01*
X158232554Y-102463482D01*
X158182326Y-102390567D01*
X158174909Y-102301924D01*
X158219048Y-102219047D01*
X158236890Y-102200355D01*
X158253998Y-102160367D01*
X158219048Y-102114285D01*
X158200356Y-102096443D01*
X158160368Y-102079335D01*
X158114286Y-102114285D01*
X158067390Y-102148375D01*
X157973772Y-102162100D01*
X157885715Y-102114285D01*
X157867023Y-102096443D01*
X157827034Y-102079335D01*
X157780953Y-102114285D01*
X157763111Y-102132977D01*
X157746003Y-102172966D01*
X157780953Y-102219047D01*
X157792097Y-102231347D01*
X157827178Y-102316644D01*
X157812138Y-102404180D01*
X157755720Y-102472463D01*
X157666667Y-102500000D01*
X157650186Y-102499178D01*
X157565888Y-102463482D01*
X157515659Y-102390567D01*
X157508243Y-102301924D01*
X157552381Y-102219047D01*
X157570223Y-102200355D01*
X157587331Y-102160367D01*
X157552381Y-102114285D01*
X157533689Y-102096443D01*
X157493701Y-102079335D01*
X157447620Y-102114285D01*
X157435320Y-102125429D01*
X157350023Y-102160510D01*
X157262487Y-102145470D01*
X157194204Y-102089053D01*
X157166667Y-102000000D01*
X157167489Y-101983518D01*
X157203185Y-101899220D01*
X157276100Y-101848991D01*
X157364742Y-101841575D01*
X157447620Y-101885714D01*
X157466312Y-101903556D01*
X157506300Y-101920664D01*
X157552381Y-101885714D01*
X157570223Y-101867022D01*
X157582509Y-101838305D01*
X157746050Y-101838305D01*
X157778572Y-101883333D01*
X157817154Y-101919421D01*
X157850171Y-101924510D01*
X157893497Y-101881513D01*
X157898046Y-101876242D01*
X157918693Y-101829782D01*
X157885163Y-101780400D01*
X157867233Y-101763287D01*
X157827144Y-101746069D01*
X157780953Y-101780952D01*
X157765581Y-101796983D01*
X157746050Y-101838305D01*
X157582509Y-101838305D01*
X157587331Y-101827033D01*
X157552381Y-101780952D01*
X157522545Y-101740016D01*
X157500000Y-101666666D01*
X157509392Y-101622013D01*
X157552381Y-101552380D01*
X157570223Y-101533688D01*
X157587331Y-101493700D01*
X157552381Y-101447619D01*
X157541238Y-101435319D01*
X157506157Y-101350022D01*
X157521196Y-101262486D01*
X157577614Y-101194203D01*
X157666667Y-101166666D01*
X157683148Y-101167488D01*
X157767447Y-101203184D01*
X157817675Y-101276099D01*
X157825092Y-101364741D01*
X157780953Y-101447619D01*
X157763111Y-101466311D01*
X157746003Y-101506299D01*
X157780953Y-101552380D01*
X157799645Y-101570222D01*
X157839633Y-101587330D01*
X157885715Y-101552380D01*
X157926651Y-101522544D01*
X158000001Y-101500000D01*
X158016482Y-101500821D01*
X158100780Y-101536517D01*
X158151009Y-101609432D01*
X158158425Y-101698075D01*
X158114286Y-101780952D01*
X158096444Y-101799644D01*
X158083550Y-101829782D01*
G37*
G36*
X155750218Y-104496448D02*
G01*
X155746003Y-104506299D01*
X155780953Y-104552380D01*
X155810790Y-104593316D01*
X155833334Y-104666666D01*
X155823942Y-104711319D01*
X155780953Y-104780952D01*
X155740017Y-104810789D01*
X155666667Y-104833333D01*
X155622014Y-104823941D01*
X155552381Y-104780952D01*
X155533689Y-104763110D01*
X155493701Y-104746002D01*
X155447620Y-104780952D01*
X155429778Y-104799644D01*
X155412670Y-104839632D01*
X155447620Y-104885714D01*
X155477456Y-104926650D01*
X155500000Y-105000000D01*
X155490609Y-105044653D01*
X155447620Y-105114285D01*
X155406684Y-105144122D01*
X155333334Y-105166666D01*
X155288681Y-105157275D01*
X155219048Y-105114285D01*
X155200356Y-105096443D01*
X155160368Y-105079335D01*
X155114286Y-105114285D01*
X155073350Y-105144122D01*
X155000000Y-105166666D01*
X154955347Y-105157275D01*
X154885715Y-105114285D01*
X154855878Y-105073349D01*
X154833334Y-105000000D01*
X154842725Y-104955346D01*
X154885715Y-104885714D01*
X154926651Y-104855877D01*
X155000000Y-104833333D01*
X155044654Y-104842724D01*
X155114286Y-104885714D01*
X155132978Y-104903556D01*
X155172967Y-104920664D01*
X155219048Y-104885714D01*
X155236890Y-104867022D01*
X155253998Y-104827033D01*
X155219048Y-104780952D01*
X155189211Y-104740016D01*
X155166667Y-104666666D01*
X155176059Y-104622013D01*
X155219048Y-104552380D01*
X155236890Y-104533688D01*
X155249176Y-104504971D01*
X155412717Y-104504971D01*
X155445239Y-104550000D01*
X155483821Y-104586088D01*
X155516837Y-104591177D01*
X155560163Y-104548180D01*
X155564713Y-104542909D01*
X155585360Y-104496448D01*
X155551830Y-104447067D01*
X155533900Y-104429954D01*
X155493811Y-104412736D01*
X155447620Y-104447619D01*
X155432248Y-104463650D01*
X155412717Y-104504971D01*
X155249176Y-104504971D01*
X155253998Y-104493700D01*
X155219048Y-104447619D01*
X155200356Y-104429777D01*
X155160368Y-104412669D01*
X155114286Y-104447619D01*
X155067390Y-104481708D01*
X154973772Y-104495434D01*
X154885715Y-104447619D01*
X154867023Y-104429777D01*
X154827034Y-104412669D01*
X154780953Y-104447619D01*
X154763111Y-104466311D01*
X154746003Y-104506299D01*
X154780953Y-104552380D01*
X154792097Y-104564680D01*
X154827178Y-104649977D01*
X154812138Y-104737513D01*
X154755720Y-104805796D01*
X154666667Y-104833333D01*
X154650186Y-104832511D01*
X154565888Y-104796815D01*
X154515659Y-104723900D01*
X154508243Y-104635258D01*
X154552381Y-104552380D01*
X154570223Y-104533688D01*
X154587331Y-104493700D01*
X154552381Y-104447619D01*
X154522545Y-104406683D01*
X154500000Y-104333333D01*
X154500822Y-104316852D01*
X154536518Y-104232553D01*
X154609433Y-104182325D01*
X154698076Y-104174908D01*
X154780953Y-104219047D01*
X154799645Y-104236889D01*
X154839633Y-104253997D01*
X154885715Y-104219047D01*
X154903557Y-104200355D01*
X154920665Y-104160367D01*
X154885715Y-104114285D01*
X154874571Y-104101985D01*
X154839490Y-104016689D01*
X154854530Y-103929153D01*
X154910947Y-103860870D01*
X155000000Y-103833333D01*
X155016482Y-103834155D01*
X155100780Y-103869850D01*
X155151009Y-103942765D01*
X155158425Y-104031408D01*
X155114286Y-104114285D01*
X155096444Y-104132977D01*
X155079336Y-104172966D01*
X155114286Y-104219047D01*
X155132978Y-104236889D01*
X155172967Y-104253997D01*
X155219048Y-104219047D01*
X155259984Y-104189210D01*
X155333334Y-104166666D01*
X155377987Y-104176058D01*
X155447620Y-104219047D01*
X155466312Y-104236889D01*
X155506300Y-104253997D01*
X155552381Y-104219047D01*
X155593317Y-104189210D01*
X155666667Y-104166666D01*
X155711320Y-104176058D01*
X155780953Y-104219047D01*
X155799645Y-104236889D01*
X155839633Y-104253997D01*
X155885715Y-104219047D01*
X155926651Y-104189210D01*
X156000000Y-104166666D01*
X156044654Y-104176058D01*
X156114286Y-104219047D01*
X156132978Y-104236889D01*
X156172967Y-104253997D01*
X156219048Y-104219047D01*
X156231348Y-104207903D01*
X156316645Y-104172822D01*
X156404181Y-104187862D01*
X156472464Y-104244280D01*
X156500000Y-104333333D01*
X156499179Y-104349814D01*
X156463483Y-104434112D01*
X156390568Y-104484341D01*
X156301925Y-104491757D01*
X156219048Y-104447619D01*
X156200356Y-104429777D01*
X156160368Y-104412669D01*
X156114286Y-104447619D01*
X156073350Y-104477455D01*
X156000000Y-104500000D01*
X155955347Y-104490608D01*
X155885715Y-104447619D01*
X155867023Y-104429777D01*
X155827034Y-104412669D01*
X155780953Y-104447619D01*
X155763111Y-104466311D01*
X155750218Y-104496448D01*
G37*
G36*
X158416885Y-99496448D02*
G01*
X158412670Y-99506299D01*
X158447620Y-99552380D01*
X158466312Y-99570222D01*
X158506300Y-99587330D01*
X158552381Y-99552380D01*
X158599278Y-99518291D01*
X158692895Y-99504565D01*
X158780953Y-99552380D01*
X158799645Y-99570222D01*
X158839633Y-99587330D01*
X158885715Y-99552380D01*
X158903557Y-99533688D01*
X158920665Y-99493700D01*
X158885715Y-99447619D01*
X158855878Y-99406683D01*
X158833334Y-99333333D01*
X158852645Y-99265181D01*
X158916350Y-99195584D01*
X159000000Y-99166666D01*
X159016482Y-99167488D01*
X159100780Y-99203184D01*
X159151009Y-99276099D01*
X159158425Y-99364741D01*
X159114286Y-99447619D01*
X159096444Y-99466311D01*
X159079336Y-99506299D01*
X159114286Y-99552380D01*
X159148376Y-99599277D01*
X159162101Y-99692894D01*
X159114286Y-99780952D01*
X159096444Y-99799644D01*
X159079336Y-99839632D01*
X159114286Y-99885714D01*
X159148376Y-99932610D01*
X159162101Y-100026228D01*
X159114286Y-100114285D01*
X159096444Y-100132977D01*
X159079336Y-100172966D01*
X159114286Y-100219047D01*
X159125430Y-100231347D01*
X159160511Y-100316644D01*
X159145471Y-100404180D01*
X159089054Y-100472463D01*
X159000000Y-100500000D01*
X158955347Y-100490608D01*
X158885715Y-100447619D01*
X158867023Y-100429777D01*
X158827034Y-100412669D01*
X158780953Y-100447619D01*
X158763111Y-100466311D01*
X158746003Y-100506299D01*
X158780953Y-100552380D01*
X158810790Y-100593316D01*
X158833334Y-100666666D01*
X158823942Y-100711319D01*
X158780953Y-100780952D01*
X158740017Y-100810789D01*
X158666667Y-100833333D01*
X158622014Y-100823941D01*
X158552381Y-100780952D01*
X158518292Y-100734056D01*
X158504566Y-100640438D01*
X158552381Y-100552380D01*
X158570223Y-100533688D01*
X158587331Y-100493700D01*
X158552381Y-100447619D01*
X158533689Y-100429777D01*
X158493701Y-100412669D01*
X158447620Y-100447619D01*
X158406684Y-100477455D01*
X158333334Y-100500000D01*
X158316853Y-100499178D01*
X158232554Y-100463482D01*
X158182326Y-100390567D01*
X158174909Y-100301924D01*
X158219048Y-100219047D01*
X158265944Y-100184957D01*
X158359562Y-100171232D01*
X158447620Y-100219047D01*
X158466312Y-100236889D01*
X158506300Y-100253997D01*
X158552381Y-100219047D01*
X158593317Y-100189210D01*
X158666667Y-100166666D01*
X158711320Y-100176058D01*
X158780953Y-100219047D01*
X158799645Y-100236889D01*
X158839633Y-100253997D01*
X158885715Y-100219047D01*
X158903557Y-100200355D01*
X158920665Y-100160367D01*
X158885715Y-100114285D01*
X158851625Y-100067389D01*
X158837900Y-99973771D01*
X158885715Y-99885714D01*
X158903557Y-99867022D01*
X158920665Y-99827033D01*
X158885715Y-99780952D01*
X158867023Y-99763110D01*
X158827034Y-99746002D01*
X158780953Y-99780952D01*
X158734057Y-99815042D01*
X158640439Y-99828767D01*
X158552381Y-99780952D01*
X158533689Y-99763110D01*
X158493701Y-99746002D01*
X158447620Y-99780952D01*
X158400723Y-99815042D01*
X158307106Y-99828767D01*
X158219048Y-99780952D01*
X158200356Y-99763110D01*
X158160368Y-99746002D01*
X158114286Y-99780952D01*
X158073350Y-99810789D01*
X158000000Y-99833333D01*
X157983519Y-99832511D01*
X157899221Y-99796815D01*
X157848992Y-99723900D01*
X157841576Y-99635258D01*
X157885715Y-99552380D01*
X157903557Y-99533688D01*
X157915843Y-99504971D01*
X158079383Y-99504971D01*
X158111905Y-99550000D01*
X158150487Y-99586088D01*
X158183504Y-99591177D01*
X158226830Y-99548180D01*
X158231380Y-99542909D01*
X158252026Y-99496448D01*
X158218497Y-99447067D01*
X158200567Y-99429954D01*
X158160477Y-99412736D01*
X158114286Y-99447619D01*
X158098914Y-99463650D01*
X158079383Y-99504971D01*
X157915843Y-99504971D01*
X157920665Y-99493700D01*
X157885715Y-99447619D01*
X157867023Y-99429777D01*
X157827034Y-99412669D01*
X157780953Y-99447619D01*
X157768653Y-99458762D01*
X157683356Y-99493843D01*
X157595820Y-99478804D01*
X157527537Y-99422386D01*
X157500000Y-99333333D01*
X157500822Y-99316852D01*
X157536518Y-99232553D01*
X157609433Y-99182325D01*
X157698076Y-99174908D01*
X157780953Y-99219047D01*
X157799645Y-99236889D01*
X157839633Y-99253997D01*
X157885715Y-99219047D01*
X157932611Y-99184957D01*
X158026229Y-99171232D01*
X158114286Y-99219047D01*
X158132978Y-99236889D01*
X158172967Y-99253997D01*
X158219048Y-99219047D01*
X158265944Y-99184957D01*
X158359562Y-99171232D01*
X158447620Y-99219047D01*
X158481709Y-99265943D01*
X158495435Y-99359561D01*
X158447620Y-99447619D01*
X158429778Y-99466311D01*
X158416885Y-99496448D01*
G37*
G36*
X158750218Y-106496448D02*
G01*
X158746003Y-106506299D01*
X158780953Y-106552380D01*
X158792097Y-106564680D01*
X158827178Y-106649977D01*
X158812138Y-106737513D01*
X158755720Y-106805796D01*
X158666667Y-106833333D01*
X158622014Y-106823941D01*
X158552381Y-106780952D01*
X158533689Y-106763110D01*
X158493701Y-106746002D01*
X158447620Y-106780952D01*
X158429778Y-106799644D01*
X158412670Y-106839632D01*
X158447620Y-106885714D01*
X158477456Y-106926650D01*
X158500000Y-107000000D01*
X158490609Y-107044653D01*
X158447620Y-107114285D01*
X158406684Y-107144122D01*
X158333334Y-107166666D01*
X158288681Y-107157275D01*
X158219048Y-107114285D01*
X158200356Y-107096443D01*
X158160368Y-107079335D01*
X158114286Y-107114285D01*
X158073350Y-107144122D01*
X158000000Y-107166666D01*
X157955347Y-107157275D01*
X157885715Y-107114285D01*
X157867023Y-107096443D01*
X157827034Y-107079335D01*
X157780953Y-107114285D01*
X157768653Y-107125429D01*
X157683356Y-107160510D01*
X157595820Y-107145470D01*
X157527537Y-107089053D01*
X157500000Y-107000000D01*
X157500822Y-106983518D01*
X157536518Y-106899220D01*
X157609433Y-106848991D01*
X157698076Y-106841575D01*
X157780953Y-106885714D01*
X157799645Y-106903556D01*
X157839633Y-106920664D01*
X157885715Y-106885714D01*
X157926651Y-106855877D01*
X158000000Y-106833333D01*
X158044654Y-106842724D01*
X158114286Y-106885714D01*
X158132978Y-106903556D01*
X158172967Y-106920664D01*
X158219048Y-106885714D01*
X158236890Y-106867022D01*
X158253998Y-106827033D01*
X158219048Y-106780952D01*
X158184958Y-106734056D01*
X158171233Y-106640438D01*
X158219048Y-106552380D01*
X158236890Y-106533688D01*
X158249176Y-106504971D01*
X158412717Y-106504971D01*
X158445239Y-106550000D01*
X158483821Y-106586088D01*
X158516837Y-106591177D01*
X158560163Y-106548180D01*
X158564713Y-106542909D01*
X158585360Y-106496448D01*
X158551830Y-106447067D01*
X158533900Y-106429954D01*
X158493811Y-106412736D01*
X158447620Y-106447619D01*
X158432248Y-106463650D01*
X158412717Y-106504971D01*
X158249176Y-106504971D01*
X158253998Y-106493700D01*
X158219048Y-106447619D01*
X158200356Y-106429777D01*
X158160368Y-106412669D01*
X158114286Y-106447619D01*
X158073350Y-106477455D01*
X158000000Y-106500000D01*
X157983519Y-106499178D01*
X157899221Y-106463482D01*
X157848992Y-106390567D01*
X157841576Y-106301924D01*
X157885715Y-106219047D01*
X157903557Y-106200355D01*
X157920665Y-106160367D01*
X157885715Y-106114285D01*
X157867023Y-106096443D01*
X157827034Y-106079335D01*
X157780953Y-106114285D01*
X157740017Y-106144122D01*
X157666667Y-106166666D01*
X157650186Y-106165844D01*
X157565888Y-106130149D01*
X157515659Y-106057234D01*
X157508243Y-105968591D01*
X157552381Y-105885714D01*
X157570223Y-105867022D01*
X157587331Y-105827033D01*
X157552381Y-105780952D01*
X157522545Y-105740016D01*
X157500000Y-105666666D01*
X157519311Y-105598514D01*
X157583017Y-105528918D01*
X157666667Y-105500000D01*
X157683148Y-105500821D01*
X157767447Y-105536517D01*
X157817675Y-105609432D01*
X157825092Y-105698075D01*
X157780953Y-105780952D01*
X157763111Y-105799644D01*
X157746003Y-105839632D01*
X157780953Y-105885714D01*
X157799645Y-105903556D01*
X157839633Y-105920664D01*
X157885715Y-105885714D01*
X157926651Y-105855877D01*
X158000000Y-105833333D01*
X158016482Y-105834155D01*
X158100780Y-105869850D01*
X158151009Y-105942765D01*
X158158425Y-106031408D01*
X158114286Y-106114285D01*
X158096444Y-106132977D01*
X158079336Y-106172966D01*
X158114286Y-106219047D01*
X158132978Y-106236889D01*
X158172967Y-106253997D01*
X158219048Y-106219047D01*
X158259984Y-106189210D01*
X158333334Y-106166666D01*
X158377987Y-106176058D01*
X158447620Y-106219047D01*
X158466312Y-106236889D01*
X158506300Y-106253997D01*
X158552381Y-106219047D01*
X158570223Y-106200355D01*
X158587331Y-106160367D01*
X158552381Y-106114285D01*
X158541238Y-106101985D01*
X158506157Y-106016689D01*
X158521196Y-105929153D01*
X158577614Y-105860870D01*
X158666667Y-105833333D01*
X158683148Y-105834155D01*
X158767447Y-105869850D01*
X158817675Y-105942765D01*
X158825092Y-106031408D01*
X158780953Y-106114285D01*
X158763111Y-106132977D01*
X158746003Y-106172966D01*
X158780953Y-106219047D01*
X158799645Y-106236889D01*
X158839633Y-106253997D01*
X158885715Y-106219047D01*
X158926651Y-106189210D01*
X159000000Y-106166666D01*
X159068152Y-106185977D01*
X159137749Y-106249682D01*
X159166667Y-106333333D01*
X159165845Y-106349814D01*
X159130150Y-106434112D01*
X159057235Y-106484341D01*
X158968592Y-106491757D01*
X158885715Y-106447619D01*
X158867023Y-106429777D01*
X158827034Y-106412669D01*
X158780953Y-106447619D01*
X158763111Y-106466311D01*
X158750218Y-106496448D01*
G37*
G36*
X158418060Y-103160367D02*
G01*
X158412670Y-103172966D01*
X158447620Y-103219047D01*
X158477456Y-103259983D01*
X158500000Y-103333333D01*
X158490609Y-103377986D01*
X158447620Y-103447619D01*
X158429778Y-103466311D01*
X158412670Y-103506299D01*
X158447620Y-103552380D01*
X158466312Y-103570222D01*
X158506300Y-103587330D01*
X158552381Y-103552380D01*
X158593317Y-103522544D01*
X158666667Y-103500000D01*
X158734819Y-103519310D01*
X158804416Y-103583016D01*
X158833334Y-103666666D01*
X158832512Y-103683147D01*
X158796816Y-103767446D01*
X158723901Y-103817674D01*
X158635259Y-103825091D01*
X158552381Y-103780952D01*
X158533689Y-103763110D01*
X158493701Y-103746002D01*
X158447620Y-103780952D01*
X158429778Y-103799644D01*
X158416884Y-103829782D01*
X158412670Y-103839632D01*
X158447620Y-103885714D01*
X158481709Y-103932610D01*
X158495435Y-104026228D01*
X158447620Y-104114285D01*
X158400723Y-104148375D01*
X158307106Y-104162100D01*
X158219048Y-104114285D01*
X158200356Y-104096443D01*
X158160368Y-104079335D01*
X158114286Y-104114285D01*
X158096444Y-104132977D01*
X158079336Y-104172966D01*
X158114286Y-104219047D01*
X158148376Y-104265943D01*
X158162101Y-104359561D01*
X158114286Y-104447619D01*
X158096444Y-104466311D01*
X158079336Y-104506299D01*
X158114286Y-104552380D01*
X158132978Y-104570222D01*
X158172967Y-104587330D01*
X158219048Y-104552380D01*
X158265944Y-104518291D01*
X158359562Y-104504565D01*
X158447620Y-104552380D01*
X158466312Y-104570222D01*
X158506300Y-104587330D01*
X158552381Y-104552380D01*
X158599278Y-104518291D01*
X158692895Y-104504565D01*
X158780953Y-104552380D01*
X158799645Y-104570222D01*
X158839633Y-104587330D01*
X158885715Y-104552380D01*
X158903557Y-104533688D01*
X158920665Y-104493700D01*
X158885715Y-104447619D01*
X158855878Y-104406683D01*
X158833334Y-104333333D01*
X158842725Y-104288680D01*
X158885715Y-104219047D01*
X158903557Y-104200355D01*
X158920665Y-104160367D01*
X158885715Y-104114285D01*
X158855878Y-104073349D01*
X158833334Y-104000000D01*
X158852645Y-103931848D01*
X158916350Y-103862251D01*
X159000000Y-103833333D01*
X159016482Y-103834155D01*
X159100780Y-103869850D01*
X159151009Y-103942765D01*
X159158425Y-104031408D01*
X159114286Y-104114285D01*
X159096444Y-104132977D01*
X159079336Y-104172966D01*
X159114286Y-104219047D01*
X159132978Y-104236889D01*
X159172967Y-104253997D01*
X159219048Y-104219047D01*
X159259984Y-104189210D01*
X159333334Y-104166666D01*
X159401486Y-104185977D01*
X159471082Y-104249682D01*
X159500000Y-104333333D01*
X159499179Y-104349814D01*
X159463483Y-104434112D01*
X159390568Y-104484341D01*
X159301925Y-104491757D01*
X159219048Y-104447619D01*
X159200356Y-104429777D01*
X159160368Y-104412669D01*
X159114286Y-104447619D01*
X159096444Y-104466311D01*
X159079336Y-104506299D01*
X159114286Y-104552380D01*
X159148376Y-104599277D01*
X159162101Y-104692894D01*
X159114286Y-104780952D01*
X159096444Y-104799644D01*
X159079336Y-104839632D01*
X159114286Y-104885714D01*
X159132978Y-104903556D01*
X159172967Y-104920664D01*
X159219048Y-104885714D01*
X159259984Y-104855877D01*
X159333334Y-104833333D01*
X159349815Y-104834155D01*
X159434113Y-104869850D01*
X159484342Y-104942765D01*
X159491758Y-105031408D01*
X159447620Y-105114285D01*
X159406684Y-105144122D01*
X159333334Y-105166666D01*
X159288681Y-105157275D01*
X159219048Y-105114285D01*
X159200356Y-105096443D01*
X159160368Y-105079335D01*
X159114286Y-105114285D01*
X159073350Y-105144122D01*
X159000000Y-105166666D01*
X158983519Y-105165844D01*
X158899221Y-105130149D01*
X158848992Y-105057234D01*
X158841576Y-104968591D01*
X158885715Y-104885714D01*
X158903557Y-104867022D01*
X158920665Y-104827033D01*
X158885715Y-104780952D01*
X158867023Y-104763110D01*
X158827034Y-104746002D01*
X158780953Y-104780952D01*
X158734057Y-104815042D01*
X158640439Y-104828767D01*
X158552381Y-104780952D01*
X158533689Y-104763110D01*
X158493701Y-104746002D01*
X158447620Y-104780952D01*
X158429778Y-104799644D01*
X158412670Y-104839632D01*
X158447620Y-104885714D01*
X158477456Y-104926650D01*
X158500000Y-105000000D01*
X158480690Y-105068151D01*
X158416984Y-105137748D01*
X158333334Y-105166666D01*
X158316853Y-105165844D01*
X158232554Y-105130149D01*
X158182326Y-105057234D01*
X158174909Y-104968591D01*
X158219048Y-104885714D01*
X158236890Y-104867022D01*
X158253998Y-104827033D01*
X158219048Y-104780952D01*
X158200356Y-104763110D01*
X158160368Y-104746002D01*
X158114286Y-104780952D01*
X158073350Y-104810789D01*
X158000000Y-104833333D01*
X157983519Y-104832511D01*
X157899221Y-104796815D01*
X157848992Y-104723900D01*
X157841576Y-104635258D01*
X157885715Y-104552380D01*
X157903557Y-104533688D01*
X157920665Y-104493700D01*
X157885715Y-104447619D01*
X157851625Y-104400722D01*
X157837900Y-104307105D01*
X157885715Y-104219047D01*
X157903557Y-104200355D01*
X157920665Y-104160367D01*
X157885715Y-104114285D01*
X157867023Y-104096443D01*
X157827034Y-104079335D01*
X157780953Y-104114285D01*
X157740017Y-104144122D01*
X157666667Y-104166666D01*
X157622014Y-104157275D01*
X157552381Y-104114285D01*
X157533689Y-104096443D01*
X157493701Y-104079335D01*
X157447620Y-104114285D01*
X157429778Y-104132977D01*
X157412670Y-104172966D01*
X157447620Y-104219047D01*
X157481709Y-104265943D01*
X157495435Y-104359561D01*
X157447620Y-104447619D01*
X157429778Y-104466311D01*
X157412670Y-104506299D01*
X157447620Y-104552380D01*
X157477456Y-104593316D01*
X157500000Y-104666666D01*
X157490609Y-104711319D01*
X157447620Y-104780952D01*
X157429778Y-104799644D01*
X157412670Y-104839632D01*
X157447620Y-104885714D01*
X157477456Y-104926650D01*
X157500000Y-105000000D01*
X157480690Y-105068151D01*
X157416984Y-105137748D01*
X157333334Y-105166666D01*
X157316853Y-105165844D01*
X157232554Y-105130149D01*
X157182326Y-105057234D01*
X157174909Y-104968591D01*
X157219048Y-104885714D01*
X157236890Y-104867022D01*
X157253998Y-104827033D01*
X157219048Y-104780952D01*
X157189211Y-104740016D01*
X157166667Y-104666666D01*
X157176059Y-104622013D01*
X157219048Y-104552380D01*
X157236890Y-104533688D01*
X157253998Y-104493700D01*
X157219048Y-104447619D01*
X157189211Y-104406683D01*
X157166667Y-104333333D01*
X157176059Y-104288680D01*
X157219048Y-104219047D01*
X157236890Y-104200355D01*
X157253998Y-104160367D01*
X157219048Y-104114285D01*
X157184958Y-104067389D01*
X157171233Y-103973771D01*
X157219048Y-103885714D01*
X157236890Y-103867022D01*
X157249176Y-103838305D01*
X157412717Y-103838305D01*
X157445239Y-103883333D01*
X157483821Y-103919421D01*
X157516837Y-103924510D01*
X157560163Y-103881513D01*
X157564713Y-103876242D01*
X157581572Y-103838305D01*
X157746050Y-103838305D01*
X157778572Y-103883333D01*
X157817154Y-103919421D01*
X157850171Y-103924510D01*
X157893497Y-103881513D01*
X157898046Y-103876242D01*
X157914905Y-103838305D01*
X158079383Y-103838305D01*
X158111905Y-103883333D01*
X158150487Y-103919421D01*
X158183504Y-103924510D01*
X158226830Y-103881513D01*
X158231380Y-103876242D01*
X158252026Y-103829782D01*
X158218497Y-103780400D01*
X158200567Y-103763287D01*
X158160477Y-103746069D01*
X158114286Y-103780952D01*
X158098914Y-103796983D01*
X158083411Y-103829782D01*
X158079383Y-103838305D01*
X157914905Y-103838305D01*
X157918693Y-103829782D01*
X157885163Y-103780400D01*
X157867233Y-103763287D01*
X157827144Y-103746069D01*
X157780953Y-103780952D01*
X157765581Y-103796983D01*
X157750078Y-103829782D01*
X157746050Y-103838305D01*
X157581572Y-103838305D01*
X157585360Y-103829782D01*
X157551830Y-103780400D01*
X157533900Y-103763287D01*
X157493811Y-103746069D01*
X157447620Y-103780952D01*
X157432248Y-103796983D01*
X157412717Y-103838305D01*
X157249176Y-103838305D01*
X157253998Y-103827033D01*
X157219048Y-103780952D01*
X157189211Y-103740016D01*
X157166667Y-103666666D01*
X157176059Y-103622013D01*
X157219048Y-103552380D01*
X157236890Y-103533688D01*
X157249176Y-103504971D01*
X157412717Y-103504971D01*
X157445239Y-103550000D01*
X157483821Y-103586088D01*
X157516837Y-103591177D01*
X157560163Y-103548180D01*
X157564713Y-103542909D01*
X157580982Y-103506299D01*
X157746003Y-103506299D01*
X157780953Y-103552380D01*
X157799645Y-103570222D01*
X157839633Y-103587330D01*
X157885715Y-103552380D01*
X157932303Y-103518538D01*
X158025414Y-103504177D01*
X158111905Y-103550000D01*
X158150487Y-103586088D01*
X158183504Y-103591177D01*
X158226830Y-103548180D01*
X158231380Y-103542909D01*
X158252026Y-103496448D01*
X158218497Y-103447067D01*
X158184698Y-103400424D01*
X158171267Y-103306981D01*
X158219048Y-103219047D01*
X158236890Y-103200355D01*
X158253998Y-103160367D01*
X158219048Y-103114285D01*
X158200356Y-103096443D01*
X158160368Y-103079335D01*
X158114286Y-103114285D01*
X158073350Y-103144122D01*
X158000000Y-103166666D01*
X157955347Y-103157275D01*
X157885715Y-103114285D01*
X157867023Y-103096443D01*
X157827034Y-103079335D01*
X157780953Y-103114285D01*
X157763111Y-103132977D01*
X157746003Y-103172966D01*
X157780953Y-103219047D01*
X157810790Y-103259983D01*
X157833334Y-103333333D01*
X157823942Y-103377986D01*
X157780953Y-103447619D01*
X157763111Y-103466311D01*
X157750218Y-103496448D01*
X157746003Y-103506299D01*
X157580982Y-103506299D01*
X157585360Y-103496448D01*
X157551830Y-103447067D01*
X157533900Y-103429954D01*
X157493811Y-103412736D01*
X157447620Y-103447619D01*
X157432248Y-103463650D01*
X157412717Y-103504971D01*
X157249176Y-103504971D01*
X157253998Y-103493700D01*
X157219048Y-103447619D01*
X157200356Y-103429777D01*
X157160368Y-103412669D01*
X157114286Y-103447619D01*
X157067390Y-103481708D01*
X156973772Y-103495434D01*
X156885715Y-103447619D01*
X156867023Y-103429777D01*
X156827034Y-103412669D01*
X156780953Y-103447619D01*
X156734057Y-103481708D01*
X156640439Y-103495434D01*
X156552381Y-103447619D01*
X156518292Y-103400722D01*
X156504566Y-103307105D01*
X156552381Y-103219047D01*
X156570223Y-103200355D01*
X156587331Y-103160367D01*
X156552381Y-103114285D01*
X156541238Y-103101985D01*
X156506157Y-103016689D01*
X156521196Y-102929153D01*
X156577614Y-102860870D01*
X156666667Y-102833333D01*
X156683148Y-102834155D01*
X156767447Y-102869850D01*
X156817675Y-102942765D01*
X156825092Y-103031408D01*
X156780953Y-103114285D01*
X156763111Y-103132977D01*
X156746003Y-103172966D01*
X156780953Y-103219047D01*
X156799645Y-103236889D01*
X156839633Y-103253997D01*
X156885715Y-103219047D01*
X156932611Y-103184957D01*
X157026229Y-103171232D01*
X157114286Y-103219047D01*
X157132978Y-103236889D01*
X157172967Y-103253997D01*
X157219048Y-103219047D01*
X157265944Y-103184957D01*
X157359562Y-103171232D01*
X157447620Y-103219047D01*
X157466312Y-103236889D01*
X157506300Y-103253997D01*
X157552381Y-103219047D01*
X157570223Y-103200355D01*
X157587331Y-103160367D01*
X157552381Y-103114285D01*
X157541238Y-103101985D01*
X157506157Y-103016689D01*
X157521196Y-102929153D01*
X157577614Y-102860870D01*
X157666667Y-102833333D01*
X157711320Y-102842724D01*
X157780953Y-102885714D01*
X157799645Y-102903556D01*
X157839633Y-102920664D01*
X157885715Y-102885714D01*
X157926651Y-102855877D01*
X158000000Y-102833333D01*
X158044654Y-102842724D01*
X158114286Y-102885714D01*
X158132978Y-102903556D01*
X158172967Y-102920664D01*
X158219048Y-102885714D01*
X158265944Y-102851624D01*
X158359562Y-102837899D01*
X158447620Y-102885714D01*
X158466312Y-102903556D01*
X158506300Y-102920664D01*
X158552381Y-102885714D01*
X158599278Y-102851624D01*
X158692895Y-102837899D01*
X158780953Y-102885714D01*
X158799645Y-102903556D01*
X158839633Y-102920664D01*
X158885715Y-102885714D01*
X158898015Y-102874570D01*
X158983311Y-102839489D01*
X159070847Y-102854529D01*
X159139130Y-102910946D01*
X159166667Y-102999999D01*
X159165845Y-103016481D01*
X159130150Y-103100779D01*
X159057235Y-103151008D01*
X158968592Y-103158424D01*
X158885715Y-103114285D01*
X158867023Y-103096443D01*
X158827034Y-103079335D01*
X158780953Y-103114285D01*
X158734057Y-103148375D01*
X158640439Y-103162100D01*
X158552381Y-103114285D01*
X158533689Y-103096443D01*
X158493701Y-103079335D01*
X158447620Y-103114285D01*
X158429778Y-103132977D01*
X158418060Y-103160367D01*
G37*
G36*
X161418060Y-103160367D02*
G01*
X161412670Y-103172966D01*
X161447620Y-103219047D01*
X161481709Y-103265943D01*
X161495435Y-103359561D01*
X161447620Y-103447619D01*
X161429778Y-103466311D01*
X161412670Y-103506299D01*
X161447620Y-103552380D01*
X161466312Y-103570222D01*
X161506300Y-103587330D01*
X161552381Y-103552380D01*
X161564681Y-103541237D01*
X161649978Y-103506156D01*
X161737514Y-103521195D01*
X161805797Y-103577613D01*
X161833334Y-103666666D01*
X161832512Y-103683147D01*
X161796816Y-103767446D01*
X161723901Y-103817674D01*
X161635259Y-103825091D01*
X161552381Y-103780952D01*
X161533689Y-103763110D01*
X161493701Y-103746002D01*
X161447620Y-103780952D01*
X161429778Y-103799644D01*
X161416884Y-103829782D01*
X161412670Y-103839632D01*
X161447620Y-103885714D01*
X161477456Y-103926650D01*
X161500000Y-103999999D01*
X161499179Y-104016481D01*
X161463483Y-104100779D01*
X161390568Y-104151008D01*
X161301925Y-104158424D01*
X161219048Y-104114285D01*
X161200356Y-104096443D01*
X161160368Y-104079335D01*
X161114286Y-104114285D01*
X161096444Y-104132977D01*
X161079336Y-104172966D01*
X161114286Y-104219047D01*
X161144123Y-104259983D01*
X161166667Y-104333333D01*
X161157276Y-104377986D01*
X161114286Y-104447619D01*
X161096444Y-104466311D01*
X161079336Y-104506299D01*
X161114286Y-104552380D01*
X161132978Y-104570222D01*
X161172967Y-104587330D01*
X161219048Y-104552380D01*
X161259984Y-104522544D01*
X161333334Y-104500000D01*
X161377987Y-104509391D01*
X161447620Y-104552380D01*
X161466312Y-104570222D01*
X161506300Y-104587330D01*
X161552381Y-104552380D01*
X161564681Y-104541237D01*
X161649978Y-104506156D01*
X161737514Y-104521195D01*
X161805797Y-104577613D01*
X161833334Y-104666666D01*
X161832512Y-104683147D01*
X161796816Y-104767446D01*
X161723901Y-104817674D01*
X161635259Y-104825091D01*
X161552381Y-104780952D01*
X161533689Y-104763110D01*
X161493701Y-104746002D01*
X161447620Y-104780952D01*
X161429778Y-104799644D01*
X161412670Y-104839632D01*
X161447620Y-104885714D01*
X161458763Y-104898014D01*
X161493844Y-104983310D01*
X161478805Y-105070846D01*
X161422387Y-105139129D01*
X161333334Y-105166666D01*
X161316853Y-105165844D01*
X161232554Y-105130149D01*
X161182326Y-105057234D01*
X161174909Y-104968591D01*
X161219048Y-104885714D01*
X161236890Y-104867022D01*
X161253998Y-104827033D01*
X161219048Y-104780952D01*
X161200356Y-104763110D01*
X161160368Y-104746002D01*
X161114286Y-104780952D01*
X161073350Y-104810789D01*
X161000000Y-104833333D01*
X160983519Y-104832511D01*
X160899221Y-104796815D01*
X160848992Y-104723900D01*
X160841576Y-104635258D01*
X160885715Y-104552380D01*
X160903557Y-104533688D01*
X160920665Y-104493700D01*
X160885715Y-104447619D01*
X160851625Y-104400722D01*
X160837900Y-104307105D01*
X160885715Y-104219047D01*
X160903557Y-104200355D01*
X160920665Y-104160367D01*
X160885715Y-104114285D01*
X160867023Y-104096443D01*
X160827034Y-104079335D01*
X160780953Y-104114285D01*
X160740017Y-104144122D01*
X160666667Y-104166666D01*
X160622014Y-104157275D01*
X160552381Y-104114285D01*
X160533689Y-104096443D01*
X160493701Y-104079335D01*
X160447620Y-104114285D01*
X160429778Y-104132977D01*
X160412670Y-104172966D01*
X160447620Y-104219047D01*
X160477456Y-104259983D01*
X160500000Y-104333333D01*
X160490609Y-104377986D01*
X160447620Y-104447619D01*
X160429778Y-104466311D01*
X160412670Y-104506299D01*
X160447620Y-104552380D01*
X160481709Y-104599277D01*
X160495435Y-104692894D01*
X160447620Y-104780952D01*
X160429778Y-104799644D01*
X160412670Y-104839632D01*
X160447620Y-104885714D01*
X160466312Y-104903556D01*
X160506300Y-104920664D01*
X160552381Y-104885714D01*
X160593317Y-104855877D01*
X160666667Y-104833333D01*
X160683148Y-104834155D01*
X160767447Y-104869850D01*
X160817675Y-104942765D01*
X160825092Y-105031408D01*
X160780953Y-105114285D01*
X160763111Y-105132977D01*
X160750217Y-105163115D01*
X160746003Y-105172966D01*
X160780953Y-105219047D01*
X160810790Y-105259983D01*
X160833334Y-105333333D01*
X160832512Y-105349814D01*
X160796816Y-105434112D01*
X160723901Y-105484341D01*
X160635259Y-105491757D01*
X160552381Y-105447619D01*
X160533689Y-105429777D01*
X160493701Y-105412669D01*
X160447620Y-105447619D01*
X160429778Y-105466311D01*
X160412670Y-105506299D01*
X160447620Y-105552380D01*
X160481709Y-105599277D01*
X160495435Y-105692894D01*
X160447620Y-105780952D01*
X160429778Y-105799644D01*
X160416884Y-105829782D01*
X160412670Y-105839632D01*
X160447620Y-105885714D01*
X160466312Y-105903556D01*
X160506300Y-105920664D01*
X160552381Y-105885714D01*
X160593317Y-105855877D01*
X160666667Y-105833333D01*
X160683148Y-105834155D01*
X160767447Y-105869850D01*
X160817675Y-105942765D01*
X160825092Y-106031408D01*
X160780953Y-106114285D01*
X160740017Y-106144122D01*
X160666667Y-106166666D01*
X160622014Y-106157275D01*
X160552381Y-106114285D01*
X160533689Y-106096443D01*
X160493701Y-106079335D01*
X160447620Y-106114285D01*
X160406684Y-106144122D01*
X160333334Y-106166666D01*
X160288681Y-106157275D01*
X160219048Y-106114285D01*
X160200356Y-106096443D01*
X160160368Y-106079335D01*
X160114286Y-106114285D01*
X160067390Y-106148375D01*
X159973772Y-106162100D01*
X159885715Y-106114285D01*
X159867023Y-106096443D01*
X159827034Y-106079335D01*
X159780953Y-106114285D01*
X159768653Y-106125429D01*
X159683356Y-106160510D01*
X159595820Y-106145470D01*
X159527537Y-106089053D01*
X159500000Y-106000000D01*
X159500822Y-105983518D01*
X159536518Y-105899220D01*
X159609433Y-105848991D01*
X159698076Y-105841575D01*
X159780953Y-105885714D01*
X159799645Y-105903556D01*
X159839633Y-105920664D01*
X159885715Y-105885714D01*
X159903557Y-105867022D01*
X159915843Y-105838305D01*
X160079383Y-105838305D01*
X160111905Y-105883333D01*
X160150487Y-105919421D01*
X160183504Y-105924510D01*
X160226830Y-105881513D01*
X160231380Y-105876242D01*
X160252026Y-105829782D01*
X160218497Y-105780400D01*
X160200567Y-105763287D01*
X160160477Y-105746069D01*
X160114286Y-105780952D01*
X160098914Y-105796983D01*
X160079383Y-105838305D01*
X159915843Y-105838305D01*
X159920665Y-105827033D01*
X159885715Y-105780952D01*
X159851625Y-105734056D01*
X159837900Y-105640438D01*
X159885715Y-105552380D01*
X159932611Y-105518291D01*
X160026229Y-105504565D01*
X160114286Y-105552380D01*
X160132978Y-105570222D01*
X160172967Y-105587330D01*
X160219048Y-105552380D01*
X160236890Y-105533688D01*
X160253998Y-105493700D01*
X160219048Y-105447619D01*
X160184958Y-105400722D01*
X160171233Y-105307105D01*
X160219048Y-105219047D01*
X160236890Y-105200355D01*
X160249176Y-105171638D01*
X160412717Y-105171638D01*
X160445239Y-105216666D01*
X160483821Y-105252755D01*
X160516837Y-105257843D01*
X160560163Y-105214847D01*
X160564713Y-105209575D01*
X160585360Y-105163115D01*
X160551830Y-105113734D01*
X160533900Y-105096620D01*
X160493811Y-105079403D01*
X160447620Y-105114285D01*
X160432248Y-105130317D01*
X160412717Y-105171638D01*
X160249176Y-105171638D01*
X160253998Y-105160367D01*
X160219048Y-105114285D01*
X160184958Y-105067389D01*
X160171233Y-104973771D01*
X160219048Y-104885714D01*
X160236890Y-104867022D01*
X160253998Y-104827033D01*
X160219048Y-104780952D01*
X160184958Y-104734056D01*
X160171233Y-104640438D01*
X160219048Y-104552380D01*
X160236890Y-104533688D01*
X160253998Y-104493700D01*
X160219048Y-104447619D01*
X160184958Y-104400722D01*
X160171233Y-104307105D01*
X160219048Y-104219047D01*
X160236890Y-104200355D01*
X160253998Y-104160367D01*
X160219048Y-104114285D01*
X160184958Y-104067389D01*
X160171233Y-103973771D01*
X160219048Y-103885714D01*
X160236890Y-103867022D01*
X160249176Y-103838305D01*
X160412717Y-103838305D01*
X160445239Y-103883333D01*
X160483821Y-103919421D01*
X160516837Y-103924510D01*
X160560163Y-103881513D01*
X160564713Y-103876242D01*
X160581572Y-103838305D01*
X160746050Y-103838305D01*
X160778572Y-103883333D01*
X160817154Y-103919421D01*
X160850171Y-103924510D01*
X160893497Y-103881513D01*
X160898046Y-103876242D01*
X160914905Y-103838305D01*
X161079383Y-103838305D01*
X161111905Y-103883333D01*
X161150487Y-103919421D01*
X161183504Y-103924510D01*
X161226830Y-103881513D01*
X161231380Y-103876242D01*
X161252026Y-103829782D01*
X161218497Y-103780400D01*
X161200567Y-103763287D01*
X161160477Y-103746069D01*
X161114286Y-103780952D01*
X161098914Y-103796983D01*
X161083411Y-103829782D01*
X161079383Y-103838305D01*
X160914905Y-103838305D01*
X160918693Y-103829782D01*
X160885163Y-103780400D01*
X160867233Y-103763287D01*
X160827144Y-103746069D01*
X160780953Y-103780952D01*
X160765581Y-103796983D01*
X160750078Y-103829782D01*
X160746050Y-103838305D01*
X160581572Y-103838305D01*
X160585360Y-103829782D01*
X160551830Y-103780400D01*
X160533900Y-103763287D01*
X160493811Y-103746069D01*
X160447620Y-103780952D01*
X160432248Y-103796983D01*
X160412717Y-103838305D01*
X160249176Y-103838305D01*
X160253998Y-103827033D01*
X160219048Y-103780952D01*
X160184958Y-103734056D01*
X160171233Y-103640438D01*
X160219048Y-103552380D01*
X160236890Y-103533688D01*
X160249176Y-103504971D01*
X160412717Y-103504971D01*
X160445239Y-103550000D01*
X160483821Y-103586088D01*
X160516837Y-103591177D01*
X160560163Y-103548180D01*
X160564713Y-103542909D01*
X160580982Y-103506299D01*
X160746003Y-103506299D01*
X160780953Y-103552380D01*
X160799645Y-103570222D01*
X160839633Y-103587330D01*
X160885715Y-103552380D01*
X160932303Y-103518538D01*
X161025414Y-103504177D01*
X161111905Y-103550000D01*
X161150487Y-103586088D01*
X161183504Y-103591177D01*
X161226830Y-103548180D01*
X161231380Y-103542909D01*
X161252026Y-103496448D01*
X161218497Y-103447067D01*
X161184698Y-103400424D01*
X161171267Y-103306981D01*
X161219048Y-103219047D01*
X161236890Y-103200355D01*
X161253998Y-103160367D01*
X161219048Y-103114285D01*
X161200356Y-103096443D01*
X161160368Y-103079335D01*
X161114286Y-103114285D01*
X161073350Y-103144122D01*
X161000000Y-103166666D01*
X160955347Y-103157275D01*
X160885715Y-103114285D01*
X160867023Y-103096443D01*
X160827034Y-103079335D01*
X160780953Y-103114285D01*
X160763111Y-103132977D01*
X160746003Y-103172966D01*
X160780953Y-103219047D01*
X160810790Y-103259983D01*
X160833334Y-103333333D01*
X160823942Y-103377986D01*
X160780953Y-103447619D01*
X160763111Y-103466311D01*
X160750218Y-103496448D01*
X160746003Y-103506299D01*
X160580982Y-103506299D01*
X160585360Y-103496448D01*
X160551830Y-103447067D01*
X160533900Y-103429954D01*
X160493811Y-103412736D01*
X160447620Y-103447619D01*
X160432248Y-103463650D01*
X160412717Y-103504971D01*
X160249176Y-103504971D01*
X160253998Y-103493700D01*
X160219048Y-103447619D01*
X160200356Y-103429777D01*
X160160368Y-103412669D01*
X160114286Y-103447619D01*
X160067390Y-103481708D01*
X159973772Y-103495434D01*
X159885715Y-103447619D01*
X159867023Y-103429777D01*
X159827034Y-103412669D01*
X159780953Y-103447619D01*
X159768653Y-103458762D01*
X159683356Y-103493843D01*
X159595820Y-103478804D01*
X159527537Y-103422386D01*
X159500000Y-103333333D01*
X159500822Y-103316852D01*
X159536518Y-103232553D01*
X159609433Y-103182325D01*
X159698076Y-103174908D01*
X159780953Y-103219047D01*
X159799645Y-103236889D01*
X159839633Y-103253997D01*
X159885715Y-103219047D01*
X159932611Y-103184957D01*
X160026229Y-103171232D01*
X160114286Y-103219047D01*
X160132978Y-103236889D01*
X160172967Y-103253997D01*
X160219048Y-103219047D01*
X160265944Y-103184957D01*
X160359562Y-103171232D01*
X160447620Y-103219047D01*
X160466312Y-103236889D01*
X160506300Y-103253997D01*
X160552381Y-103219047D01*
X160570223Y-103200355D01*
X160587331Y-103160367D01*
X160552381Y-103114285D01*
X160518292Y-103067389D01*
X160504566Y-102973771D01*
X160552381Y-102885714D01*
X160570223Y-102867022D01*
X160587331Y-102827033D01*
X160552381Y-102780952D01*
X160541238Y-102768652D01*
X160506157Y-102683355D01*
X160521196Y-102595819D01*
X160577614Y-102527536D01*
X160666667Y-102500000D01*
X160683148Y-102500821D01*
X160767447Y-102536517D01*
X160817675Y-102609432D01*
X160825092Y-102698075D01*
X160780953Y-102780952D01*
X160763111Y-102799644D01*
X160746003Y-102839632D01*
X160780953Y-102885714D01*
X160799645Y-102903556D01*
X160839633Y-102920664D01*
X160885715Y-102885714D01*
X160932611Y-102851624D01*
X161026229Y-102837899D01*
X161114286Y-102885714D01*
X161132978Y-102903556D01*
X161172967Y-102920664D01*
X161219048Y-102885714D01*
X161265944Y-102851624D01*
X161359562Y-102837899D01*
X161447620Y-102885714D01*
X161466312Y-102903556D01*
X161506300Y-102920664D01*
X161552381Y-102885714D01*
X161564681Y-102874570D01*
X161649978Y-102839489D01*
X161737514Y-102854529D01*
X161805797Y-102910946D01*
X161833334Y-103000000D01*
X161832512Y-103016481D01*
X161796816Y-103100779D01*
X161723901Y-103151008D01*
X161635259Y-103158424D01*
X161552381Y-103114285D01*
X161533689Y-103096443D01*
X161493701Y-103079335D01*
X161447620Y-103114285D01*
X161429778Y-103132977D01*
X161418060Y-103160367D01*
G37*
G36*
X155083550Y-105829782D02*
G01*
X155079336Y-105839632D01*
X155114286Y-105885714D01*
X155132978Y-105903556D01*
X155172967Y-105920664D01*
X155219048Y-105885714D01*
X155265944Y-105851624D01*
X155359562Y-105837899D01*
X155447620Y-105885714D01*
X155466312Y-105903556D01*
X155506300Y-105920664D01*
X155552381Y-105885714D01*
X155593317Y-105855877D01*
X155666667Y-105833333D01*
X155683148Y-105834155D01*
X155767447Y-105869850D01*
X155817675Y-105942765D01*
X155825092Y-106031408D01*
X155780953Y-106114285D01*
X155763111Y-106132977D01*
X155750217Y-106163115D01*
X155746003Y-106172966D01*
X155780953Y-106219047D01*
X155799645Y-106236889D01*
X155839633Y-106253997D01*
X155885715Y-106219047D01*
X155926651Y-106189210D01*
X156000000Y-106166666D01*
X156068152Y-106185977D01*
X156137749Y-106249682D01*
X156166667Y-106333333D01*
X156165845Y-106349814D01*
X156130150Y-106434112D01*
X156057235Y-106484341D01*
X155968592Y-106491757D01*
X155885715Y-106447619D01*
X155867023Y-106429777D01*
X155827034Y-106412669D01*
X155780953Y-106447619D01*
X155740017Y-106477455D01*
X155666667Y-106500000D01*
X155622014Y-106490608D01*
X155552381Y-106447619D01*
X155533689Y-106429777D01*
X155493701Y-106412669D01*
X155447620Y-106447619D01*
X155400723Y-106481708D01*
X155307106Y-106495434D01*
X155219048Y-106447619D01*
X155200356Y-106429777D01*
X155160368Y-106412669D01*
X155114286Y-106447619D01*
X155096444Y-106466311D01*
X155079336Y-106506299D01*
X155114286Y-106552380D01*
X155148376Y-106599277D01*
X155162101Y-106692894D01*
X155114286Y-106780952D01*
X155096444Y-106799644D01*
X155084726Y-106827033D01*
X155079336Y-106839632D01*
X155114286Y-106885714D01*
X155144123Y-106926650D01*
X155166667Y-107000000D01*
X155157276Y-107044653D01*
X155114286Y-107114285D01*
X155096444Y-107132977D01*
X155079336Y-107172966D01*
X155114286Y-107219047D01*
X155132978Y-107236889D01*
X155172967Y-107253997D01*
X155219048Y-107219047D01*
X155231348Y-107207903D01*
X155316645Y-107172822D01*
X155404181Y-107187862D01*
X155472464Y-107244280D01*
X155500000Y-107333333D01*
X155490609Y-107377986D01*
X155447620Y-107447619D01*
X155400723Y-107481708D01*
X155307106Y-107495434D01*
X155219048Y-107447619D01*
X155200356Y-107429777D01*
X155160368Y-107412669D01*
X155114286Y-107447619D01*
X155096444Y-107466311D01*
X155083551Y-107496448D01*
X155079336Y-107506299D01*
X155114286Y-107552380D01*
X155144123Y-107593316D01*
X155166667Y-107666666D01*
X155157276Y-107711319D01*
X155114286Y-107780952D01*
X155096444Y-107799644D01*
X155083550Y-107829782D01*
X155079336Y-107839632D01*
X155114286Y-107885714D01*
X155132978Y-107903556D01*
X155172967Y-107920664D01*
X155219048Y-107885714D01*
X155265944Y-107851624D01*
X155359562Y-107837899D01*
X155447620Y-107885714D01*
X155466312Y-107903556D01*
X155506300Y-107920664D01*
X155552381Y-107885714D01*
X155570223Y-107867022D01*
X155587331Y-107827033D01*
X155552381Y-107780952D01*
X155541238Y-107768652D01*
X155506157Y-107683355D01*
X155521196Y-107595819D01*
X155577614Y-107527536D01*
X155666667Y-107500000D01*
X155683148Y-107500821D01*
X155767447Y-107536517D01*
X155817675Y-107609432D01*
X155825092Y-107698075D01*
X155780953Y-107780952D01*
X155763111Y-107799644D01*
X155746003Y-107839632D01*
X155780953Y-107885714D01*
X155799645Y-107903556D01*
X155839633Y-107920664D01*
X155885715Y-107885714D01*
X155898015Y-107874570D01*
X155983311Y-107839489D01*
X156070847Y-107854529D01*
X156139130Y-107910946D01*
X156166667Y-107999999D01*
X156157276Y-108044653D01*
X156114286Y-108114285D01*
X156096444Y-108132977D01*
X156079336Y-108172966D01*
X156114286Y-108219047D01*
X156132978Y-108236889D01*
X156172967Y-108253997D01*
X156219048Y-108219047D01*
X156265944Y-108184957D01*
X156359562Y-108171232D01*
X156447620Y-108219047D01*
X156466312Y-108236889D01*
X156506300Y-108253997D01*
X156552381Y-108219047D01*
X156599278Y-108184957D01*
X156692895Y-108171232D01*
X156780953Y-108219047D01*
X156799645Y-108236889D01*
X156839633Y-108253997D01*
X156885715Y-108219047D01*
X156903557Y-108200355D01*
X156920665Y-108160367D01*
X156885715Y-108114285D01*
X156851625Y-108067389D01*
X156837900Y-107973771D01*
X156885715Y-107885714D01*
X156903557Y-107867022D01*
X156920665Y-107827033D01*
X156885715Y-107780952D01*
X156874571Y-107768652D01*
X156839490Y-107683355D01*
X156854530Y-107595819D01*
X156910947Y-107527536D01*
X157000000Y-107500000D01*
X157016482Y-107500821D01*
X157100780Y-107536517D01*
X157151009Y-107609432D01*
X157158425Y-107698075D01*
X157114286Y-107780952D01*
X157096444Y-107799644D01*
X157079336Y-107839632D01*
X157114286Y-107885714D01*
X157148376Y-107932610D01*
X157162101Y-108026228D01*
X157114286Y-108114285D01*
X157096444Y-108132977D01*
X157079336Y-108172966D01*
X157114286Y-108219047D01*
X157132978Y-108236889D01*
X157172967Y-108253997D01*
X157219048Y-108219047D01*
X157259984Y-108189210D01*
X157333334Y-108166666D01*
X157349815Y-108167488D01*
X157434113Y-108203184D01*
X157484342Y-108276099D01*
X157491758Y-108364741D01*
X157447620Y-108447619D01*
X157429778Y-108466311D01*
X157416885Y-108496448D01*
X157412670Y-108506299D01*
X157447620Y-108552380D01*
X157481709Y-108599277D01*
X157495435Y-108692894D01*
X157447620Y-108780952D01*
X157406684Y-108810789D01*
X157333334Y-108833333D01*
X157288681Y-108823941D01*
X157219048Y-108780952D01*
X157200356Y-108763110D01*
X157160368Y-108746002D01*
X157114286Y-108780952D01*
X157073350Y-108810789D01*
X157000000Y-108833333D01*
X156983519Y-108832511D01*
X156899221Y-108796815D01*
X156848992Y-108723900D01*
X156841576Y-108635258D01*
X156885715Y-108552380D01*
X156903557Y-108533688D01*
X156915843Y-108504971D01*
X157079383Y-108504971D01*
X157111905Y-108550000D01*
X157150487Y-108586088D01*
X157183504Y-108591177D01*
X157226830Y-108548180D01*
X157231380Y-108542909D01*
X157252026Y-108496448D01*
X157218497Y-108447067D01*
X157200567Y-108429954D01*
X157160477Y-108412736D01*
X157114286Y-108447619D01*
X157098914Y-108463650D01*
X157079383Y-108504971D01*
X156915843Y-108504971D01*
X156920665Y-108493700D01*
X156885715Y-108447619D01*
X156867023Y-108429777D01*
X156827034Y-108412669D01*
X156780953Y-108447619D01*
X156740017Y-108477455D01*
X156666667Y-108500000D01*
X156622014Y-108490608D01*
X156552381Y-108447619D01*
X156533689Y-108429777D01*
X156493701Y-108412669D01*
X156447620Y-108447619D01*
X156406684Y-108477455D01*
X156333334Y-108500000D01*
X156288681Y-108490608D01*
X156219048Y-108447619D01*
X156200356Y-108429777D01*
X156160368Y-108412669D01*
X156114286Y-108447619D01*
X156073350Y-108477455D01*
X156000000Y-108500000D01*
X155983519Y-108499178D01*
X155899221Y-108463482D01*
X155848992Y-108390567D01*
X155841576Y-108301924D01*
X155885715Y-108219047D01*
X155903557Y-108200355D01*
X155920665Y-108160367D01*
X155885715Y-108114285D01*
X155867023Y-108096443D01*
X155827034Y-108079335D01*
X155780953Y-108114285D01*
X155740017Y-108144122D01*
X155666667Y-108166666D01*
X155622014Y-108157275D01*
X155552381Y-108114285D01*
X155533689Y-108096443D01*
X155493701Y-108079335D01*
X155447620Y-108114285D01*
X155400723Y-108148375D01*
X155307106Y-108162100D01*
X155219048Y-108114285D01*
X155200356Y-108096443D01*
X155160368Y-108079335D01*
X155114286Y-108114285D01*
X155067390Y-108148375D01*
X154973772Y-108162100D01*
X154885715Y-108114285D01*
X154867023Y-108096443D01*
X154827034Y-108079335D01*
X154780953Y-108114285D01*
X154763111Y-108132977D01*
X154746003Y-108172966D01*
X154780953Y-108219047D01*
X154810790Y-108259983D01*
X154833334Y-108333333D01*
X154823942Y-108377986D01*
X154780953Y-108447619D01*
X154763111Y-108466311D01*
X154746003Y-108506299D01*
X154780953Y-108552380D01*
X154810790Y-108593316D01*
X154833334Y-108666666D01*
X154814023Y-108734818D01*
X154750318Y-108804415D01*
X154666667Y-108833333D01*
X154650186Y-108832511D01*
X154565888Y-108796815D01*
X154515659Y-108723900D01*
X154508243Y-108635258D01*
X154552381Y-108552380D01*
X154570223Y-108533688D01*
X154587331Y-108493700D01*
X154552381Y-108447619D01*
X154533689Y-108429777D01*
X154493701Y-108412669D01*
X154447620Y-108447619D01*
X154400723Y-108481708D01*
X154307106Y-108495434D01*
X154219048Y-108447619D01*
X154200356Y-108429777D01*
X154160368Y-108412669D01*
X154114286Y-108447619D01*
X154096444Y-108466311D01*
X154079336Y-108506299D01*
X154114286Y-108552380D01*
X154144123Y-108593316D01*
X154166667Y-108666666D01*
X154147356Y-108734818D01*
X154083651Y-108804415D01*
X154000000Y-108833333D01*
X153983519Y-108832511D01*
X153899221Y-108796815D01*
X153848992Y-108723900D01*
X153841576Y-108635258D01*
X153885715Y-108552380D01*
X153903557Y-108533688D01*
X153920665Y-108493700D01*
X153885715Y-108447619D01*
X153851625Y-108400722D01*
X153837900Y-108307105D01*
X153885715Y-108219047D01*
X153932611Y-108184957D01*
X154026229Y-108171232D01*
X154114286Y-108219047D01*
X154132978Y-108236889D01*
X154172967Y-108253997D01*
X154219048Y-108219047D01*
X154265944Y-108184957D01*
X154359562Y-108171232D01*
X154447620Y-108219047D01*
X154466312Y-108236889D01*
X154506300Y-108253997D01*
X154552381Y-108219047D01*
X154570223Y-108200355D01*
X154587331Y-108160367D01*
X154552381Y-108114285D01*
X154518292Y-108067389D01*
X154504566Y-107973771D01*
X154552381Y-107885714D01*
X154570223Y-107867022D01*
X154582509Y-107838305D01*
X154746050Y-107838305D01*
X154778572Y-107883333D01*
X154817154Y-107919421D01*
X154850171Y-107924510D01*
X154893497Y-107881513D01*
X154898046Y-107876242D01*
X154918693Y-107829782D01*
X154885163Y-107780400D01*
X154867233Y-107763287D01*
X154827144Y-107746069D01*
X154780953Y-107780952D01*
X154765581Y-107796983D01*
X154746050Y-107838305D01*
X154582509Y-107838305D01*
X154587331Y-107827033D01*
X154552381Y-107780952D01*
X154533689Y-107763110D01*
X154493701Y-107746002D01*
X154447620Y-107780952D01*
X154400723Y-107815042D01*
X154307106Y-107828767D01*
X154219048Y-107780952D01*
X154200356Y-107763110D01*
X154160368Y-107746002D01*
X154114286Y-107780952D01*
X154067390Y-107815042D01*
X153973772Y-107828767D01*
X153885715Y-107780952D01*
X153867023Y-107763110D01*
X153827034Y-107746002D01*
X153780953Y-107780952D01*
X153763111Y-107799644D01*
X153746003Y-107839632D01*
X153780953Y-107885714D01*
X153810790Y-107926650D01*
X153833334Y-107999999D01*
X153814023Y-108068151D01*
X153750318Y-108137748D01*
X153666667Y-108166666D01*
X153650186Y-108165844D01*
X153565888Y-108130149D01*
X153515659Y-108057234D01*
X153508243Y-107968591D01*
X153552381Y-107885714D01*
X153570223Y-107867022D01*
X153587331Y-107827033D01*
X153552381Y-107780952D01*
X153518292Y-107734056D01*
X153504566Y-107640438D01*
X153552381Y-107552380D01*
X153570223Y-107533688D01*
X153582509Y-107504971D01*
X153746050Y-107504971D01*
X153778572Y-107550000D01*
X153817154Y-107586088D01*
X153850171Y-107591177D01*
X153893497Y-107548180D01*
X153898046Y-107542909D01*
X153914905Y-107504971D01*
X154079383Y-107504971D01*
X154111905Y-107550000D01*
X154150487Y-107586088D01*
X154183504Y-107591177D01*
X154226830Y-107548180D01*
X154231380Y-107542909D01*
X154248239Y-107504971D01*
X154412717Y-107504971D01*
X154445239Y-107550000D01*
X154483821Y-107586088D01*
X154516837Y-107591177D01*
X154560163Y-107548180D01*
X154564713Y-107542909D01*
X154581572Y-107504971D01*
X154746050Y-107504971D01*
X154778572Y-107550000D01*
X154817154Y-107586088D01*
X154850171Y-107591177D01*
X154893497Y-107548180D01*
X154898046Y-107542909D01*
X154918693Y-107496448D01*
X154885163Y-107447067D01*
X154867233Y-107429954D01*
X154827144Y-107412736D01*
X154780953Y-107447619D01*
X154765581Y-107463650D01*
X154750079Y-107496448D01*
X154746050Y-107504971D01*
X154581572Y-107504971D01*
X154585360Y-107496448D01*
X154551830Y-107447067D01*
X154533900Y-107429954D01*
X154493811Y-107412736D01*
X154447620Y-107447619D01*
X154432248Y-107463650D01*
X154416746Y-107496448D01*
X154412717Y-107504971D01*
X154248239Y-107504971D01*
X154252026Y-107496448D01*
X154218497Y-107447067D01*
X154200567Y-107429954D01*
X154160477Y-107412736D01*
X154114286Y-107447619D01*
X154098914Y-107463650D01*
X154083412Y-107496448D01*
X154079383Y-107504971D01*
X153914905Y-107504971D01*
X153918693Y-107496448D01*
X153885163Y-107447067D01*
X153867233Y-107429954D01*
X153827144Y-107412736D01*
X153780953Y-107447619D01*
X153765581Y-107463650D01*
X153746050Y-107504971D01*
X153582509Y-107504971D01*
X153587331Y-107493700D01*
X153552381Y-107447619D01*
X153533689Y-107429777D01*
X153493701Y-107412669D01*
X153447620Y-107447619D01*
X153400723Y-107481708D01*
X153307106Y-107495434D01*
X153219048Y-107447619D01*
X153184958Y-107400722D01*
X153171233Y-107307105D01*
X153219048Y-107219047D01*
X153236890Y-107200355D01*
X153249176Y-107171638D01*
X153412717Y-107171638D01*
X153445239Y-107216666D01*
X153483821Y-107252755D01*
X153516837Y-107257843D01*
X153560163Y-107214847D01*
X153564713Y-107209575D01*
X153580982Y-107172966D01*
X153746003Y-107172966D01*
X153780953Y-107219047D01*
X153799645Y-107236889D01*
X153839633Y-107253997D01*
X153885715Y-107219047D01*
X153932611Y-107184957D01*
X154026229Y-107171232D01*
X154114286Y-107219047D01*
X154132978Y-107236889D01*
X154172967Y-107253997D01*
X154219048Y-107219047D01*
X154259984Y-107189210D01*
X154333334Y-107166666D01*
X154377987Y-107176058D01*
X154447620Y-107219047D01*
X154466312Y-107236889D01*
X154506300Y-107253997D01*
X154552381Y-107219047D01*
X154598970Y-107185205D01*
X154692080Y-107170844D01*
X154778572Y-107216666D01*
X154817154Y-107252755D01*
X154850171Y-107257843D01*
X154893497Y-107214847D01*
X154898046Y-107209575D01*
X154918693Y-107163115D01*
X154885163Y-107113734D01*
X154851365Y-107067091D01*
X154837934Y-106973648D01*
X154885715Y-106885714D01*
X154903557Y-106867022D01*
X154920665Y-106827033D01*
X154885715Y-106780952D01*
X154851625Y-106734056D01*
X154837900Y-106640438D01*
X154885715Y-106552380D01*
X154903557Y-106533688D01*
X154920665Y-106493700D01*
X154885715Y-106447619D01*
X154851625Y-106400722D01*
X154837900Y-106307105D01*
X154885715Y-106219047D01*
X154903557Y-106200355D01*
X154915843Y-106171638D01*
X155079383Y-106171638D01*
X155111905Y-106216666D01*
X155150487Y-106252755D01*
X155183504Y-106257843D01*
X155226830Y-106214847D01*
X155231380Y-106209575D01*
X155248239Y-106171638D01*
X155412717Y-106171638D01*
X155445239Y-106216666D01*
X155483821Y-106252755D01*
X155516837Y-106257843D01*
X155560163Y-106214847D01*
X155564713Y-106209575D01*
X155585360Y-106163115D01*
X155551830Y-106113734D01*
X155533900Y-106096620D01*
X155493811Y-106079403D01*
X155447620Y-106114285D01*
X155432248Y-106130317D01*
X155416746Y-106163115D01*
X155412717Y-106171638D01*
X155248239Y-106171638D01*
X155252026Y-106163115D01*
X155218497Y-106113734D01*
X155200567Y-106096620D01*
X155160477Y-106079403D01*
X155114286Y-106114285D01*
X155098914Y-106130317D01*
X155079383Y-106171638D01*
X154915843Y-106171638D01*
X154920665Y-106160367D01*
X154885715Y-106114285D01*
X154867023Y-106096443D01*
X154827034Y-106079335D01*
X154780953Y-106114285D01*
X154740017Y-106144122D01*
X154666667Y-106166666D01*
X154622014Y-106157275D01*
X154552381Y-106114285D01*
X154533689Y-106096443D01*
X154493701Y-106079335D01*
X154447620Y-106114285D01*
X154406684Y-106144122D01*
X154333334Y-106166666D01*
X154288681Y-106157275D01*
X154219048Y-106114285D01*
X154200356Y-106096443D01*
X154160368Y-106079335D01*
X154114286Y-106114285D01*
X154073350Y-106144122D01*
X154000000Y-106166666D01*
X153955347Y-106157275D01*
X153885715Y-106114285D01*
X153867023Y-106096443D01*
X153827034Y-106079335D01*
X153780953Y-106114285D01*
X153763111Y-106132977D01*
X153746003Y-106172966D01*
X153780953Y-106219047D01*
X153810790Y-106259983D01*
X153833334Y-106333333D01*
X153823942Y-106377986D01*
X153780953Y-106447619D01*
X153763111Y-106466311D01*
X153746003Y-106506299D01*
X153780953Y-106552380D01*
X153810790Y-106593316D01*
X153833334Y-106666666D01*
X153823942Y-106711319D01*
X153780953Y-106780952D01*
X153763111Y-106799644D01*
X153746003Y-106839632D01*
X153780953Y-106885714D01*
X153810790Y-106926650D01*
X153833334Y-107000000D01*
X153823942Y-107044653D01*
X153780953Y-107114285D01*
X153763111Y-107132977D01*
X153750217Y-107163115D01*
X153746003Y-107172966D01*
X153580982Y-107172966D01*
X153585360Y-107163115D01*
X153551830Y-107113734D01*
X153533900Y-107096620D01*
X153493811Y-107079403D01*
X153447620Y-107114285D01*
X153432248Y-107130317D01*
X153412717Y-107171638D01*
X153249176Y-107171638D01*
X153253998Y-107160367D01*
X153219048Y-107114285D01*
X153184958Y-107067389D01*
X153171233Y-106973771D01*
X153219048Y-106885714D01*
X153265944Y-106851624D01*
X153359562Y-106837899D01*
X153447620Y-106885714D01*
X153466312Y-106903556D01*
X153506300Y-106920664D01*
X153552381Y-106885714D01*
X153570223Y-106867022D01*
X153587331Y-106827033D01*
X153552381Y-106780952D01*
X153518292Y-106734056D01*
X153504566Y-106640438D01*
X153552381Y-106552380D01*
X153570223Y-106533688D01*
X153587331Y-106493700D01*
X153552381Y-106447619D01*
X153533689Y-106429777D01*
X153493701Y-106412669D01*
X153447620Y-106447619D01*
X153400723Y-106481708D01*
X153307106Y-106495434D01*
X153219048Y-106447619D01*
X153200356Y-106429777D01*
X153160368Y-106412669D01*
X153114286Y-106447619D01*
X153096444Y-106466311D01*
X153079336Y-106506299D01*
X153114286Y-106552380D01*
X153144123Y-106593316D01*
X153166667Y-106666666D01*
X153165845Y-106683147D01*
X153130150Y-106767446D01*
X153057235Y-106817674D01*
X152968592Y-106825091D01*
X152885715Y-106780952D01*
X152867023Y-106763110D01*
X152827034Y-106746002D01*
X152780953Y-106780952D01*
X152763111Y-106799644D01*
X152746003Y-106839632D01*
X152780953Y-106885714D01*
X152810790Y-106926650D01*
X152833334Y-107000000D01*
X152814023Y-107068151D01*
X152750318Y-107137748D01*
X152666667Y-107166666D01*
X152650186Y-107165844D01*
X152565888Y-107130149D01*
X152515659Y-107057234D01*
X152508243Y-106968591D01*
X152552381Y-106885714D01*
X152570223Y-106867022D01*
X152587331Y-106827033D01*
X152552381Y-106780952D01*
X152533689Y-106763110D01*
X152493701Y-106746002D01*
X152447620Y-106780952D01*
X152400723Y-106815042D01*
X152307106Y-106828767D01*
X152219048Y-106780952D01*
X152184958Y-106734056D01*
X152171233Y-106640438D01*
X152219048Y-106552380D01*
X152236890Y-106533688D01*
X152253998Y-106493700D01*
X152219048Y-106447619D01*
X152189211Y-106406683D01*
X152166667Y-106333333D01*
X152176059Y-106288680D01*
X152219048Y-106219047D01*
X152236890Y-106200355D01*
X152253998Y-106160367D01*
X152219048Y-106114285D01*
X152184958Y-106067389D01*
X152171233Y-105973771D01*
X152219048Y-105885714D01*
X152236890Y-105867022D01*
X152253998Y-105827033D01*
X152219048Y-105780952D01*
X152207904Y-105768652D01*
X152172823Y-105683355D01*
X152187863Y-105595819D01*
X152244281Y-105527536D01*
X152333334Y-105500000D01*
X152377987Y-105509391D01*
X152447620Y-105552380D01*
X152466312Y-105570222D01*
X152506300Y-105587330D01*
X152552381Y-105552380D01*
X152570223Y-105533688D01*
X152587331Y-105493700D01*
X152552381Y-105447619D01*
X152541238Y-105435319D01*
X152506157Y-105350022D01*
X152521196Y-105262486D01*
X152577614Y-105194203D01*
X152666667Y-105166666D01*
X152683148Y-105167488D01*
X152767447Y-105203184D01*
X152817675Y-105276099D01*
X152825092Y-105364741D01*
X152780953Y-105447619D01*
X152763111Y-105466311D01*
X152746003Y-105506299D01*
X152780953Y-105552380D01*
X152792097Y-105564680D01*
X152827178Y-105649977D01*
X152812138Y-105737513D01*
X152755720Y-105805796D01*
X152666667Y-105833333D01*
X152622014Y-105823941D01*
X152552381Y-105780952D01*
X152533689Y-105763110D01*
X152493701Y-105746002D01*
X152447620Y-105780952D01*
X152429778Y-105799644D01*
X152412670Y-105839632D01*
X152447620Y-105885714D01*
X152477456Y-105926650D01*
X152500000Y-106000000D01*
X152490609Y-106044653D01*
X152447620Y-106114285D01*
X152429778Y-106132977D01*
X152412670Y-106172966D01*
X152447620Y-106219047D01*
X152477456Y-106259983D01*
X152500000Y-106333333D01*
X152490609Y-106377986D01*
X152447620Y-106447619D01*
X152429778Y-106466311D01*
X152412670Y-106506299D01*
X152447620Y-106552380D01*
X152466312Y-106570222D01*
X152506300Y-106587330D01*
X152552381Y-106552380D01*
X152599278Y-106518291D01*
X152692895Y-106504565D01*
X152780953Y-106552380D01*
X152799645Y-106570222D01*
X152839633Y-106587330D01*
X152885715Y-106552380D01*
X152903557Y-106533688D01*
X152920665Y-106493700D01*
X152885715Y-106447619D01*
X152855878Y-106406683D01*
X152833334Y-106333333D01*
X152834156Y-106316852D01*
X152869851Y-106232553D01*
X152942766Y-106182325D01*
X153031409Y-106174908D01*
X153114286Y-106219047D01*
X153132978Y-106236889D01*
X153172967Y-106253997D01*
X153219048Y-106219047D01*
X153265944Y-106184957D01*
X153359562Y-106171232D01*
X153447620Y-106219047D01*
X153466312Y-106236889D01*
X153506300Y-106253997D01*
X153552381Y-106219047D01*
X153570223Y-106200355D01*
X153587331Y-106160367D01*
X153552381Y-106114285D01*
X153541238Y-106101985D01*
X153506157Y-106016689D01*
X153521196Y-105929153D01*
X153577614Y-105860870D01*
X153666667Y-105833333D01*
X153711320Y-105842724D01*
X153780953Y-105885714D01*
X153799645Y-105903556D01*
X153839633Y-105920664D01*
X153885715Y-105885714D01*
X153903557Y-105867022D01*
X153915843Y-105838305D01*
X154079383Y-105838305D01*
X154111905Y-105883333D01*
X154150487Y-105919421D01*
X154183504Y-105924510D01*
X154226830Y-105881513D01*
X154231380Y-105876242D01*
X154248239Y-105838305D01*
X154412717Y-105838305D01*
X154445239Y-105883333D01*
X154483821Y-105919421D01*
X154516837Y-105924510D01*
X154560163Y-105881513D01*
X154564713Y-105876242D01*
X154581572Y-105838305D01*
X154746050Y-105838305D01*
X154778572Y-105883333D01*
X154817154Y-105919421D01*
X154850171Y-105924510D01*
X154893497Y-105881513D01*
X154898046Y-105876242D01*
X154918693Y-105829782D01*
X154885163Y-105780400D01*
X154867233Y-105763287D01*
X154827144Y-105746069D01*
X154780953Y-105780952D01*
X154765581Y-105796983D01*
X154750078Y-105829782D01*
X154746050Y-105838305D01*
X154581572Y-105838305D01*
X154585360Y-105829782D01*
X154551830Y-105780400D01*
X154533900Y-105763287D01*
X154493811Y-105746069D01*
X154447620Y-105780952D01*
X154432248Y-105796983D01*
X154416745Y-105829782D01*
X154412717Y-105838305D01*
X154248239Y-105838305D01*
X154252026Y-105829782D01*
X154218497Y-105780400D01*
X154200567Y-105763287D01*
X154160477Y-105746069D01*
X154114286Y-105780952D01*
X154098914Y-105796983D01*
X154079383Y-105838305D01*
X153915843Y-105838305D01*
X153920665Y-105827033D01*
X153885715Y-105780952D01*
X153851625Y-105734056D01*
X153837900Y-105640438D01*
X153885715Y-105552380D01*
X153932611Y-105518291D01*
X154026229Y-105504565D01*
X154114286Y-105552380D01*
X154132978Y-105570222D01*
X154172967Y-105587330D01*
X154219048Y-105552380D01*
X154265944Y-105518291D01*
X154359562Y-105504565D01*
X154447620Y-105552380D01*
X154466312Y-105570222D01*
X154506300Y-105587330D01*
X154552381Y-105552380D01*
X154599278Y-105518291D01*
X154692895Y-105504565D01*
X154780953Y-105552380D01*
X154799645Y-105570222D01*
X154839633Y-105587330D01*
X154885715Y-105552380D01*
X154926651Y-105522544D01*
X155000000Y-105500000D01*
X155016482Y-105500821D01*
X155100780Y-105536517D01*
X155151009Y-105609432D01*
X155158425Y-105698075D01*
X155114286Y-105780952D01*
X155096444Y-105799644D01*
X155083550Y-105829782D01*
G37*
G36*
X157083550Y-100829782D02*
G01*
X157079336Y-100839632D01*
X157114286Y-100885714D01*
X157148376Y-100932610D01*
X157162101Y-101026228D01*
X157114286Y-101114285D01*
X157096444Y-101132977D01*
X157079336Y-101172966D01*
X157114286Y-101219047D01*
X157125430Y-101231347D01*
X157160511Y-101316644D01*
X157145471Y-101404180D01*
X157089054Y-101472463D01*
X157000000Y-101500000D01*
X156983519Y-101499178D01*
X156899221Y-101463482D01*
X156848992Y-101390567D01*
X156841576Y-101301924D01*
X156885715Y-101219047D01*
X156903557Y-101200355D01*
X156920665Y-101160367D01*
X156885715Y-101114285D01*
X156867023Y-101096443D01*
X156827034Y-101079335D01*
X156780953Y-101114285D01*
X156734057Y-101148375D01*
X156640439Y-101162100D01*
X156552381Y-101114285D01*
X156533689Y-101096443D01*
X156493701Y-101079335D01*
X156447620Y-101114285D01*
X156429778Y-101132977D01*
X156412670Y-101172966D01*
X156447620Y-101219047D01*
X156477456Y-101259983D01*
X156500000Y-101333333D01*
X156490609Y-101377986D01*
X156447620Y-101447619D01*
X156429778Y-101466311D01*
X156412670Y-101506299D01*
X156447620Y-101552380D01*
X156466312Y-101570222D01*
X156506300Y-101587330D01*
X156552381Y-101552380D01*
X156564681Y-101541237D01*
X156649978Y-101506156D01*
X156737514Y-101521195D01*
X156805797Y-101577613D01*
X156833334Y-101666666D01*
X156832512Y-101683147D01*
X156796816Y-101767446D01*
X156723901Y-101817674D01*
X156635259Y-101825091D01*
X156552381Y-101780952D01*
X156533689Y-101763110D01*
X156493701Y-101746002D01*
X156447620Y-101780952D01*
X156429778Y-101799644D01*
X156412670Y-101839632D01*
X156447620Y-101885714D01*
X156481709Y-101932610D01*
X156495435Y-102026228D01*
X156447620Y-102114285D01*
X156429778Y-102132977D01*
X156412670Y-102172966D01*
X156447620Y-102219047D01*
X156466312Y-102236889D01*
X156506300Y-102253997D01*
X156552381Y-102219047D01*
X156599278Y-102184957D01*
X156692895Y-102171232D01*
X156780953Y-102219047D01*
X156799645Y-102236889D01*
X156839633Y-102253997D01*
X156885715Y-102219047D01*
X156898015Y-102207903D01*
X156983311Y-102172822D01*
X157070847Y-102187862D01*
X157139130Y-102244280D01*
X157166667Y-102333333D01*
X157165845Y-102349814D01*
X157130150Y-102434112D01*
X157057235Y-102484341D01*
X156968592Y-102491757D01*
X156885715Y-102447619D01*
X156867023Y-102429777D01*
X156827034Y-102412669D01*
X156780953Y-102447619D01*
X156740017Y-102477455D01*
X156666667Y-102500000D01*
X156622014Y-102490608D01*
X156552381Y-102447619D01*
X156533689Y-102429777D01*
X156493701Y-102412669D01*
X156447620Y-102447619D01*
X156429778Y-102466311D01*
X156412670Y-102506299D01*
X156447620Y-102552380D01*
X156458763Y-102564680D01*
X156493844Y-102649977D01*
X156478805Y-102737513D01*
X156422387Y-102805796D01*
X156333334Y-102833333D01*
X156316853Y-102832511D01*
X156232554Y-102796815D01*
X156182326Y-102723900D01*
X156174909Y-102635258D01*
X156219048Y-102552380D01*
X156236890Y-102533688D01*
X156253998Y-102493700D01*
X156219048Y-102447619D01*
X156184958Y-102400722D01*
X156171233Y-102307105D01*
X156219048Y-102219047D01*
X156236890Y-102200355D01*
X156253998Y-102160367D01*
X156219048Y-102114285D01*
X156200356Y-102096443D01*
X156160368Y-102079335D01*
X156114286Y-102114285D01*
X156067390Y-102148375D01*
X155973772Y-102162100D01*
X155885715Y-102114285D01*
X155867023Y-102096443D01*
X155827034Y-102079335D01*
X155780953Y-102114285D01*
X155768653Y-102125429D01*
X155683356Y-102160510D01*
X155595820Y-102145470D01*
X155527537Y-102089053D01*
X155500000Y-102000000D01*
X155509392Y-101955346D01*
X155552381Y-101885714D01*
X155570223Y-101867022D01*
X155587331Y-101827033D01*
X155552381Y-101780952D01*
X155533689Y-101763110D01*
X155493701Y-101746002D01*
X155447620Y-101780952D01*
X155406684Y-101810789D01*
X155333334Y-101833333D01*
X155288681Y-101823941D01*
X155219048Y-101780952D01*
X155200356Y-101763110D01*
X155160368Y-101746002D01*
X155114286Y-101780952D01*
X155096444Y-101799644D01*
X155079336Y-101839632D01*
X155114286Y-101885714D01*
X155148376Y-101932610D01*
X155162101Y-102026228D01*
X155114286Y-102114285D01*
X155096444Y-102132977D01*
X155079336Y-102172966D01*
X155114286Y-102219047D01*
X155132978Y-102236889D01*
X155172967Y-102253997D01*
X155219048Y-102219047D01*
X155265944Y-102184957D01*
X155359562Y-102171232D01*
X155447620Y-102219047D01*
X155481709Y-102265943D01*
X155495435Y-102359561D01*
X155447620Y-102447619D01*
X155429778Y-102466311D01*
X155416885Y-102496448D01*
X155412670Y-102506299D01*
X155447620Y-102552380D01*
X155477456Y-102593316D01*
X155500000Y-102666666D01*
X155499179Y-102683147D01*
X155463483Y-102767446D01*
X155390568Y-102817674D01*
X155301925Y-102825091D01*
X155219048Y-102780952D01*
X155200356Y-102763110D01*
X155160368Y-102746002D01*
X155114286Y-102780952D01*
X155096444Y-102799644D01*
X155083550Y-102829782D01*
X155079336Y-102839632D01*
X155114286Y-102885714D01*
X155144123Y-102926650D01*
X155166667Y-103000000D01*
X155165845Y-103016481D01*
X155130150Y-103100779D01*
X155057235Y-103151008D01*
X154968592Y-103158424D01*
X154885715Y-103114285D01*
X154867023Y-103096443D01*
X154827034Y-103079335D01*
X154780953Y-103114285D01*
X154734057Y-103148375D01*
X154640439Y-103162100D01*
X154552381Y-103114285D01*
X154533689Y-103096443D01*
X154493701Y-103079335D01*
X154447620Y-103114285D01*
X154429778Y-103132977D01*
X154418060Y-103160367D01*
X154412670Y-103172966D01*
X154447620Y-103219047D01*
X154481709Y-103265943D01*
X154495435Y-103359561D01*
X154447620Y-103447619D01*
X154429778Y-103466311D01*
X154412670Y-103506299D01*
X154447620Y-103552380D01*
X154466312Y-103570222D01*
X154506300Y-103587330D01*
X154552381Y-103552380D01*
X154564681Y-103541237D01*
X154649978Y-103506156D01*
X154737514Y-103521195D01*
X154805797Y-103577613D01*
X154833334Y-103666666D01*
X154832512Y-103683147D01*
X154796816Y-103767446D01*
X154723901Y-103817674D01*
X154635259Y-103825091D01*
X154552381Y-103780952D01*
X154533689Y-103763110D01*
X154493701Y-103746002D01*
X154447620Y-103780952D01*
X154429778Y-103799644D01*
X154416884Y-103829782D01*
X154412670Y-103839632D01*
X154447620Y-103885714D01*
X154477456Y-103926650D01*
X154500000Y-104000000D01*
X154499179Y-104016481D01*
X154463483Y-104100779D01*
X154390568Y-104151008D01*
X154301925Y-104158424D01*
X154219048Y-104114285D01*
X154200356Y-104096443D01*
X154160368Y-104079335D01*
X154114286Y-104114285D01*
X154073350Y-104144122D01*
X154000000Y-104166666D01*
X153955347Y-104157275D01*
X153885715Y-104114285D01*
X153867023Y-104096443D01*
X153827034Y-104079335D01*
X153780953Y-104114285D01*
X153763111Y-104132977D01*
X153750217Y-104163115D01*
X153746003Y-104172966D01*
X153780953Y-104219047D01*
X153815043Y-104265943D01*
X153828768Y-104359561D01*
X153780953Y-104447619D01*
X153763111Y-104466311D01*
X153746003Y-104506299D01*
X153780953Y-104552380D01*
X153799645Y-104570222D01*
X153839633Y-104587330D01*
X153885715Y-104552380D01*
X153926651Y-104522544D01*
X154000000Y-104500000D01*
X154068152Y-104519310D01*
X154137749Y-104583016D01*
X154166667Y-104666666D01*
X154165845Y-104683147D01*
X154130150Y-104767446D01*
X154057235Y-104817674D01*
X153968592Y-104825091D01*
X153885715Y-104780952D01*
X153867023Y-104763110D01*
X153827034Y-104746002D01*
X153780953Y-104780952D01*
X153763111Y-104799644D01*
X153746003Y-104839632D01*
X153780953Y-104885714D01*
X153810790Y-104926650D01*
X153833334Y-105000000D01*
X153823942Y-105044653D01*
X153780953Y-105114285D01*
X153763111Y-105132977D01*
X153750217Y-105163115D01*
X153746003Y-105172966D01*
X153780953Y-105219047D01*
X153810790Y-105259983D01*
X153833334Y-105333333D01*
X153823942Y-105377986D01*
X153780953Y-105447619D01*
X153740017Y-105477455D01*
X153666667Y-105500000D01*
X153622014Y-105490608D01*
X153552381Y-105447619D01*
X153533689Y-105429777D01*
X153493701Y-105412669D01*
X153447620Y-105447619D01*
X153406684Y-105477455D01*
X153333334Y-105500000D01*
X153316853Y-105499178D01*
X153232554Y-105463482D01*
X153182326Y-105390567D01*
X153174909Y-105301924D01*
X153219048Y-105219047D01*
X153236890Y-105200355D01*
X153249176Y-105171638D01*
X153412717Y-105171638D01*
X153445239Y-105216666D01*
X153483821Y-105252755D01*
X153516837Y-105257843D01*
X153560163Y-105214847D01*
X153564713Y-105209575D01*
X153585360Y-105163115D01*
X153551830Y-105113734D01*
X153533900Y-105096620D01*
X153493811Y-105079403D01*
X153447620Y-105114285D01*
X153432248Y-105130317D01*
X153412717Y-105171638D01*
X153249176Y-105171638D01*
X153253998Y-105160367D01*
X153219048Y-105114285D01*
X153189211Y-105073349D01*
X153166667Y-105000000D01*
X153167489Y-104983518D01*
X153203185Y-104899220D01*
X153276100Y-104848991D01*
X153364742Y-104841575D01*
X153447620Y-104885714D01*
X153466312Y-104903556D01*
X153506300Y-104920664D01*
X153552381Y-104885714D01*
X153570223Y-104867022D01*
X153587331Y-104827033D01*
X153552381Y-104780952D01*
X153518292Y-104734056D01*
X153504566Y-104640438D01*
X153552381Y-104552380D01*
X153570223Y-104533688D01*
X153587331Y-104493700D01*
X153552381Y-104447619D01*
X153533689Y-104429777D01*
X153493701Y-104412669D01*
X153447620Y-104447619D01*
X153406684Y-104477455D01*
X153333334Y-104500000D01*
X153316853Y-104499178D01*
X153232554Y-104463482D01*
X153182326Y-104390567D01*
X153174909Y-104301924D01*
X153219048Y-104219047D01*
X153236890Y-104200355D01*
X153249176Y-104171638D01*
X153412717Y-104171638D01*
X153445239Y-104216666D01*
X153483821Y-104252755D01*
X153516837Y-104257843D01*
X153560163Y-104214847D01*
X153564713Y-104209575D01*
X153585360Y-104163115D01*
X153551830Y-104113734D01*
X153533900Y-104096620D01*
X153493811Y-104079403D01*
X153447620Y-104114285D01*
X153432248Y-104130317D01*
X153412717Y-104171638D01*
X153249176Y-104171638D01*
X153253998Y-104160367D01*
X153219048Y-104114285D01*
X153189211Y-104073349D01*
X153166667Y-104000000D01*
X153176059Y-103955346D01*
X153219048Y-103885714D01*
X153236890Y-103867022D01*
X153249176Y-103838305D01*
X153412717Y-103838305D01*
X153445239Y-103883333D01*
X153483821Y-103919421D01*
X153516837Y-103924510D01*
X153560163Y-103881513D01*
X153564713Y-103876242D01*
X153581572Y-103838305D01*
X153746050Y-103838305D01*
X153778572Y-103883333D01*
X153817154Y-103919421D01*
X153850171Y-103924510D01*
X153893497Y-103881513D01*
X153898046Y-103876242D01*
X153914905Y-103838305D01*
X154079383Y-103838305D01*
X154111905Y-103883333D01*
X154150487Y-103919421D01*
X154183504Y-103924510D01*
X154226830Y-103881513D01*
X154231380Y-103876242D01*
X154252026Y-103829782D01*
X154218497Y-103780400D01*
X154200567Y-103763287D01*
X154160477Y-103746069D01*
X154114286Y-103780952D01*
X154098914Y-103796983D01*
X154083411Y-103829782D01*
X154079383Y-103838305D01*
X153914905Y-103838305D01*
X153918693Y-103829782D01*
X153885163Y-103780400D01*
X153867233Y-103763287D01*
X153827144Y-103746069D01*
X153780953Y-103780952D01*
X153765581Y-103796983D01*
X153750078Y-103829782D01*
X153746050Y-103838305D01*
X153581572Y-103838305D01*
X153585360Y-103829782D01*
X153551830Y-103780400D01*
X153533900Y-103763287D01*
X153493811Y-103746069D01*
X153447620Y-103780952D01*
X153432248Y-103796983D01*
X153412717Y-103838305D01*
X153249176Y-103838305D01*
X153253998Y-103827033D01*
X153219048Y-103780952D01*
X153189211Y-103740016D01*
X153166667Y-103666666D01*
X153176059Y-103622013D01*
X153219048Y-103552380D01*
X153236890Y-103533688D01*
X153249176Y-103504971D01*
X153412717Y-103504971D01*
X153445239Y-103550000D01*
X153483821Y-103586088D01*
X153516837Y-103591177D01*
X153560163Y-103548180D01*
X153564713Y-103542909D01*
X153580982Y-103506299D01*
X153746003Y-103506299D01*
X153780953Y-103552380D01*
X153799645Y-103570222D01*
X153839633Y-103587330D01*
X153885715Y-103552380D01*
X153932303Y-103518538D01*
X154025414Y-103504177D01*
X154111905Y-103550000D01*
X154150487Y-103586088D01*
X154183504Y-103591177D01*
X154226830Y-103548180D01*
X154231380Y-103542909D01*
X154252026Y-103496448D01*
X154218497Y-103447067D01*
X154184698Y-103400424D01*
X154171267Y-103306981D01*
X154219048Y-103219047D01*
X154236890Y-103200355D01*
X154253998Y-103160367D01*
X154219048Y-103114285D01*
X154200356Y-103096443D01*
X154160368Y-103079335D01*
X154114286Y-103114285D01*
X154073350Y-103144122D01*
X154000000Y-103166666D01*
X153955347Y-103157275D01*
X153885715Y-103114285D01*
X153867023Y-103096443D01*
X153827034Y-103079335D01*
X153780953Y-103114285D01*
X153763111Y-103132977D01*
X153746003Y-103172966D01*
X153780953Y-103219047D01*
X153810790Y-103259983D01*
X153833334Y-103333333D01*
X153823942Y-103377986D01*
X153780953Y-103447619D01*
X153763111Y-103466311D01*
X153750218Y-103496448D01*
X153746003Y-103506299D01*
X153580982Y-103506299D01*
X153585360Y-103496448D01*
X153551830Y-103447067D01*
X153533900Y-103429954D01*
X153493811Y-103412736D01*
X153447620Y-103447619D01*
X153432248Y-103463650D01*
X153412717Y-103504971D01*
X153249176Y-103504971D01*
X153253998Y-103493700D01*
X153219048Y-103447619D01*
X153200356Y-103429777D01*
X153160368Y-103412669D01*
X153114286Y-103447619D01*
X153073350Y-103477455D01*
X153000000Y-103500000D01*
X152955347Y-103490608D01*
X152885715Y-103447619D01*
X152867023Y-103429777D01*
X152827034Y-103412669D01*
X152780953Y-103447619D01*
X152734057Y-103481708D01*
X152640439Y-103495434D01*
X152552381Y-103447619D01*
X152518292Y-103400722D01*
X152504566Y-103307105D01*
X152552381Y-103219047D01*
X152570223Y-103200355D01*
X152587331Y-103160367D01*
X152552381Y-103114285D01*
X152522545Y-103073349D01*
X152500000Y-103000000D01*
X152519311Y-102931848D01*
X152583017Y-102862251D01*
X152666667Y-102833333D01*
X152683148Y-102834155D01*
X152767447Y-102869850D01*
X152817675Y-102942765D01*
X152825092Y-103031408D01*
X152780953Y-103114285D01*
X152763111Y-103132977D01*
X152746003Y-103172966D01*
X152780953Y-103219047D01*
X152799645Y-103236889D01*
X152839633Y-103253997D01*
X152885715Y-103219047D01*
X152926651Y-103189210D01*
X153000000Y-103166666D01*
X153044654Y-103176058D01*
X153114286Y-103219047D01*
X153132978Y-103236889D01*
X153172967Y-103253997D01*
X153219048Y-103219047D01*
X153265944Y-103184957D01*
X153359562Y-103171232D01*
X153447620Y-103219047D01*
X153466312Y-103236889D01*
X153506300Y-103253997D01*
X153552381Y-103219047D01*
X153570223Y-103200355D01*
X153587331Y-103160367D01*
X153552381Y-103114285D01*
X153522545Y-103073349D01*
X153500000Y-103000000D01*
X153500822Y-102983518D01*
X153536518Y-102899220D01*
X153609433Y-102848991D01*
X153698076Y-102841575D01*
X153780953Y-102885714D01*
X153799645Y-102903556D01*
X153839633Y-102920664D01*
X153885715Y-102885714D01*
X153932611Y-102851624D01*
X154026229Y-102837899D01*
X154114286Y-102885714D01*
X154132978Y-102903556D01*
X154172967Y-102920664D01*
X154219048Y-102885714D01*
X154265944Y-102851624D01*
X154359562Y-102837899D01*
X154447620Y-102885714D01*
X154466312Y-102903556D01*
X154506300Y-102920664D01*
X154552381Y-102885714D01*
X154570223Y-102867022D01*
X154582509Y-102838305D01*
X154746050Y-102838305D01*
X154778572Y-102883333D01*
X154817154Y-102919421D01*
X154850171Y-102924510D01*
X154893497Y-102881513D01*
X154898046Y-102876242D01*
X154918693Y-102829782D01*
X154885163Y-102780400D01*
X154867233Y-102763287D01*
X154827144Y-102746069D01*
X154780953Y-102780952D01*
X154765581Y-102796983D01*
X154746050Y-102838305D01*
X154582509Y-102838305D01*
X154587331Y-102827033D01*
X154552381Y-102780952D01*
X154518292Y-102734056D01*
X154504566Y-102640438D01*
X154552381Y-102552380D01*
X154599278Y-102518291D01*
X154692895Y-102504565D01*
X154780953Y-102552380D01*
X154799645Y-102570222D01*
X154839633Y-102587330D01*
X154885715Y-102552380D01*
X154903557Y-102533688D01*
X154915843Y-102504971D01*
X155079383Y-102504971D01*
X155111905Y-102550000D01*
X155150487Y-102586088D01*
X155183504Y-102591177D01*
X155226830Y-102548180D01*
X155231380Y-102542909D01*
X155252026Y-102496448D01*
X155218497Y-102447067D01*
X155200567Y-102429954D01*
X155160477Y-102412736D01*
X155114286Y-102447619D01*
X155098914Y-102463650D01*
X155079383Y-102504971D01*
X154915843Y-102504971D01*
X154920665Y-102493700D01*
X154885715Y-102447619D01*
X154851625Y-102400722D01*
X154837900Y-102307105D01*
X154885715Y-102219047D01*
X154903557Y-102200355D01*
X154920665Y-102160367D01*
X154885715Y-102114285D01*
X154867023Y-102096443D01*
X154827034Y-102079335D01*
X154780953Y-102114285D01*
X154768653Y-102125429D01*
X154683356Y-102160510D01*
X154595820Y-102145470D01*
X154527537Y-102089053D01*
X154500000Y-102000000D01*
X154500822Y-101983518D01*
X154536518Y-101899220D01*
X154609433Y-101848991D01*
X154698076Y-101841575D01*
X154780953Y-101885714D01*
X154799645Y-101903556D01*
X154839633Y-101920664D01*
X154885715Y-101885714D01*
X154903557Y-101867022D01*
X154920665Y-101827033D01*
X154885715Y-101780952D01*
X154855878Y-101740016D01*
X154833334Y-101666666D01*
X154842725Y-101622013D01*
X154885715Y-101552380D01*
X154903557Y-101533688D01*
X154920665Y-101493700D01*
X154885715Y-101447619D01*
X154855878Y-101406683D01*
X154833334Y-101333333D01*
X154852645Y-101265181D01*
X154916350Y-101195584D01*
X155000000Y-101166666D01*
X155016482Y-101167488D01*
X155100780Y-101203184D01*
X155151009Y-101276099D01*
X155158425Y-101364741D01*
X155114286Y-101447619D01*
X155096444Y-101466311D01*
X155079336Y-101506299D01*
X155114286Y-101552380D01*
X155132978Y-101570222D01*
X155172967Y-101587330D01*
X155219048Y-101552380D01*
X155265944Y-101518291D01*
X155359562Y-101504565D01*
X155447620Y-101552380D01*
X155466312Y-101570222D01*
X155506300Y-101587330D01*
X155552381Y-101552380D01*
X155570223Y-101533688D01*
X155587331Y-101493700D01*
X155552381Y-101447619D01*
X155541238Y-101435319D01*
X155506157Y-101350022D01*
X155521196Y-101262486D01*
X155577614Y-101194203D01*
X155666667Y-101166666D01*
X155683148Y-101167488D01*
X155767447Y-101203184D01*
X155817675Y-101276099D01*
X155825092Y-101364741D01*
X155780953Y-101447619D01*
X155763111Y-101466311D01*
X155746003Y-101506299D01*
X155780953Y-101552380D01*
X155815043Y-101599277D01*
X155828768Y-101692894D01*
X155780953Y-101780952D01*
X155763111Y-101799644D01*
X155746003Y-101839632D01*
X155780953Y-101885714D01*
X155799645Y-101903556D01*
X155839633Y-101920664D01*
X155885715Y-101885714D01*
X155932611Y-101851624D01*
X156026229Y-101837899D01*
X156114286Y-101885714D01*
X156132978Y-101903556D01*
X156172967Y-101920664D01*
X156219048Y-101885714D01*
X156236890Y-101867022D01*
X156253998Y-101827033D01*
X156219048Y-101780952D01*
X156189211Y-101740016D01*
X156166667Y-101666666D01*
X156176059Y-101622013D01*
X156219048Y-101552380D01*
X156236890Y-101533688D01*
X156253998Y-101493700D01*
X156219048Y-101447619D01*
X156184958Y-101400722D01*
X156171233Y-101307105D01*
X156219048Y-101219047D01*
X156236890Y-101200355D01*
X156253998Y-101160367D01*
X156219048Y-101114285D01*
X156200356Y-101096443D01*
X156160368Y-101079335D01*
X156114286Y-101114285D01*
X156101986Y-101125429D01*
X156016690Y-101160510D01*
X155929154Y-101145470D01*
X155860871Y-101089053D01*
X155833334Y-100999999D01*
X155834156Y-100983518D01*
X155869851Y-100899220D01*
X155942766Y-100848991D01*
X156031409Y-100841575D01*
X156114286Y-100885714D01*
X156132978Y-100903556D01*
X156172967Y-100920664D01*
X156219048Y-100885714D01*
X156259984Y-100855877D01*
X156333334Y-100833333D01*
X156377987Y-100842724D01*
X156447620Y-100885714D01*
X156466312Y-100903556D01*
X156506300Y-100920664D01*
X156552381Y-100885714D01*
X156570223Y-100867022D01*
X156582509Y-100838305D01*
X156746050Y-100838305D01*
X156778572Y-100883333D01*
X156817154Y-100919421D01*
X156850171Y-100924510D01*
X156893497Y-100881513D01*
X156898046Y-100876242D01*
X156918693Y-100829782D01*
X156885163Y-100780400D01*
X156867233Y-100763287D01*
X156827144Y-100746069D01*
X156780953Y-100780952D01*
X156765581Y-100796983D01*
X156746050Y-100838305D01*
X156582509Y-100838305D01*
X156587331Y-100827033D01*
X156552381Y-100780952D01*
X156522545Y-100740016D01*
X156500000Y-100666666D01*
X156500822Y-100650185D01*
X156536518Y-100565887D01*
X156609433Y-100515658D01*
X156698076Y-100508242D01*
X156780953Y-100552380D01*
X156799645Y-100570222D01*
X156839633Y-100587330D01*
X156885715Y-100552380D01*
X156903557Y-100533688D01*
X156920665Y-100493700D01*
X156885715Y-100447619D01*
X156855878Y-100406683D01*
X156833334Y-100333333D01*
X156842725Y-100288680D01*
X156885715Y-100219047D01*
X156903557Y-100200355D01*
X156920665Y-100160367D01*
X156885715Y-100114285D01*
X156867023Y-100096443D01*
X156827034Y-100079335D01*
X156780953Y-100114285D01*
X156740017Y-100144122D01*
X156666667Y-100166666D01*
X156622014Y-100157275D01*
X156552381Y-100114285D01*
X156533689Y-100096443D01*
X156493701Y-100079335D01*
X156447620Y-100114285D01*
X156435320Y-100125429D01*
X156350023Y-100160510D01*
X156262487Y-100145470D01*
X156194204Y-100089053D01*
X156166667Y-100000000D01*
X156167489Y-99983518D01*
X156203185Y-99899220D01*
X156276100Y-99848991D01*
X156364742Y-99841575D01*
X156447620Y-99885714D01*
X156466312Y-99903556D01*
X156506300Y-99920664D01*
X156552381Y-99885714D01*
X156599278Y-99851624D01*
X156692895Y-99837899D01*
X156780953Y-99885714D01*
X156799645Y-99903556D01*
X156839633Y-99920664D01*
X156885715Y-99885714D01*
X156903557Y-99867022D01*
X156920665Y-99827033D01*
X156885715Y-99780952D01*
X156855878Y-99740016D01*
X156833334Y-99666666D01*
X156842725Y-99622013D01*
X156885715Y-99552380D01*
X156903557Y-99533688D01*
X156920665Y-99493700D01*
X156885715Y-99447619D01*
X156867023Y-99429777D01*
X156827034Y-99412669D01*
X156780953Y-99447619D01*
X156734057Y-99481708D01*
X156640439Y-99495434D01*
X156552381Y-99447619D01*
X156533689Y-99429777D01*
X156493701Y-99412669D01*
X156447620Y-99447619D01*
X156435320Y-99458762D01*
X156350023Y-99493843D01*
X156262487Y-99478804D01*
X156194204Y-99422386D01*
X156166667Y-99333333D01*
X156167489Y-99316852D01*
X156203185Y-99232553D01*
X156276100Y-99182325D01*
X156364742Y-99174908D01*
X156447620Y-99219047D01*
X156466312Y-99236889D01*
X156506300Y-99253997D01*
X156552381Y-99219047D01*
X156599278Y-99184957D01*
X156692895Y-99171232D01*
X156780953Y-99219047D01*
X156799645Y-99236889D01*
X156839633Y-99253997D01*
X156885715Y-99219047D01*
X156898015Y-99207903D01*
X156983311Y-99172822D01*
X157070847Y-99187862D01*
X157139130Y-99244280D01*
X157166667Y-99333333D01*
X157157276Y-99377986D01*
X157114286Y-99447619D01*
X157096444Y-99466311D01*
X157079336Y-99506299D01*
X157114286Y-99552380D01*
X157148376Y-99599277D01*
X157162101Y-99692894D01*
X157114286Y-99780952D01*
X157096444Y-99799644D01*
X157079336Y-99839632D01*
X157114286Y-99885714D01*
X157148376Y-99932610D01*
X157162101Y-100026228D01*
X157114286Y-100114285D01*
X157096444Y-100132977D01*
X157079336Y-100172966D01*
X157114286Y-100219047D01*
X157148376Y-100265943D01*
X157162101Y-100359561D01*
X157114286Y-100447619D01*
X157096444Y-100466311D01*
X157079336Y-100506299D01*
X157114286Y-100552380D01*
X157132978Y-100570222D01*
X157172967Y-100587330D01*
X157219048Y-100552380D01*
X157265944Y-100518291D01*
X157359562Y-100504565D01*
X157447620Y-100552380D01*
X157466312Y-100570222D01*
X157506300Y-100587330D01*
X157552381Y-100552380D01*
X157564681Y-100541237D01*
X157649978Y-100506156D01*
X157737514Y-100521195D01*
X157805797Y-100577613D01*
X157833334Y-100666666D01*
X157832512Y-100683147D01*
X157796816Y-100767446D01*
X157723901Y-100817674D01*
X157635259Y-100825091D01*
X157552381Y-100780952D01*
X157533689Y-100763110D01*
X157493701Y-100746002D01*
X157447620Y-100780952D01*
X157406684Y-100810789D01*
X157333334Y-100833333D01*
X157288681Y-100823941D01*
X157219048Y-100780952D01*
X157200356Y-100763110D01*
X157160368Y-100746002D01*
X157114286Y-100780952D01*
X157096444Y-100799644D01*
X157083550Y-100829782D01*
G37*
%TO.C,M2*%
X227356637Y-144924913D02*
X226472754Y-144041029D01*
X223135210Y-140293364D02*
X228523364Y-134905210D01*
X227356637Y-144514791D02*
X223135210Y-140293364D01*
X225765647Y-142909659D02*
X226295977Y-142379329D01*
X226826307Y-143970319D02*
X228099099Y-142697527D01*
X227356637Y-144500649D02*
X226826307Y-143970319D01*
X224210012Y-140293364D02*
X226366688Y-138136688D01*
X226295977Y-142379329D02*
X224210012Y-140293364D01*
X228240521Y-144041029D02*
X227356637Y-144924913D01*
X228099099Y-142697527D02*
X228629430Y-143227857D01*
X228629430Y-143227857D02*
X227356637Y-144500649D01*
X229159760Y-141636866D02*
X229866866Y-140929760D01*
X229690090Y-142167197D02*
X229159760Y-141636866D01*
X229866866Y-140929760D02*
X230397196Y-141460090D01*
X230397196Y-141460090D02*
X229690090Y-142167197D01*
X230927527Y-139869099D02*
X232200319Y-138596307D01*
X231457857Y-140399430D02*
X230927527Y-139869099D01*
X228523364Y-135980012D02*
X226366688Y-138136688D01*
X230609329Y-138065977D02*
X228523364Y-135980012D01*
X231139659Y-137535647D02*
X230609329Y-138065977D01*
X232200319Y-138596307D02*
X232730649Y-139126637D01*
X232730649Y-139126637D02*
X231457857Y-140399430D01*
X228523364Y-134905210D02*
X232744791Y-139126637D01*
X232744791Y-139126637D02*
X227356637Y-144514791D01*
%TD*%
M02*
