%TF.GenerationSoftware,KiCad,Pcbnew,7.0.1*%
%TF.CreationDate,2023-08-08T22:15:58+07:00*%
%TF.ProjectId,BL706 Robot,424c3730-3620-4526-9f62-6f742e6b6963,rev?*%
%TF.SameCoordinates,Original*%
%TF.FileFunction,Soldermask,Top*%
%TF.FilePolarity,Negative*%
%FSLAX46Y46*%
G04 Gerber Fmt 4.6, Leading zero omitted, Abs format (unit mm)*
G04 Created by KiCad (PCBNEW 7.0.1) date 2023-08-08 22:15:58*
%MOMM*%
%LPD*%
G01*
G04 APERTURE LIST*
G04 Aperture macros list*
%AMRoundRect*
0 Rectangle with rounded corners*
0 $1 Rounding radius*
0 $2 $3 $4 $5 $6 $7 $8 $9 X,Y pos of 4 corners*
0 Add a 4 corners polygon primitive as box body*
4,1,4,$2,$3,$4,$5,$6,$7,$8,$9,$2,$3,0*
0 Add four circle primitives for the rounded corners*
1,1,$1+$1,$2,$3*
1,1,$1+$1,$4,$5*
1,1,$1+$1,$6,$7*
1,1,$1+$1,$8,$9*
0 Add four rect primitives between the rounded corners*
20,1,$1+$1,$2,$3,$4,$5,0*
20,1,$1+$1,$4,$5,$6,$7,0*
20,1,$1+$1,$6,$7,$8,$9,0*
20,1,$1+$1,$8,$9,$2,$3,0*%
%AMHorizOval*
0 Thick line with rounded ends*
0 $1 width*
0 $2 $3 position (X,Y) of the first rounded end (center of the circle)*
0 $4 $5 position (X,Y) of the second rounded end (center of the circle)*
0 Add line between two ends*
20,1,$1,$2,$3,$4,$5,0*
0 Add two circle primitives to create the rounded ends*
1,1,$1,$2,$3*
1,1,$1,$4,$5*%
%AMRotRect*
0 Rectangle, with rotation*
0 The origin of the aperture is its center*
0 $1 length*
0 $2 width*
0 $3 Rotation angle, in degrees counterclockwise*
0 Add horizontal line*
21,1,$1,$2,0,0,$3*%
G04 Aperture macros list end*
%ADD10RoundRect,0.135000X0.185000X-0.135000X0.185000X0.135000X-0.185000X0.135000X-0.185000X-0.135000X0*%
%ADD11RoundRect,0.135000X-0.135000X-0.185000X0.135000X-0.185000X0.135000X0.185000X-0.135000X0.185000X0*%
%ADD12RoundRect,0.140000X0.170000X-0.140000X0.170000X0.140000X-0.170000X0.140000X-0.170000X-0.140000X0*%
%ADD13RoundRect,0.250000X-0.300000X-0.300000X0.300000X-0.300000X0.300000X0.300000X-0.300000X0.300000X0*%
%ADD14RoundRect,0.225000X0.225000X0.250000X-0.225000X0.250000X-0.225000X-0.250000X0.225000X-0.250000X0*%
%ADD15RoundRect,0.135000X0.135000X0.185000X-0.135000X0.185000X-0.135000X-0.185000X0.135000X-0.185000X0*%
%ADD16RotRect,1.800000X1.800000X331.500000*%
%ADD17C,1.800000*%
%ADD18RoundRect,0.250000X0.312500X0.625000X-0.312500X0.625000X-0.312500X-0.625000X0.312500X-0.625000X0*%
%ADD19R,2.000000X1.000000*%
%ADD20R,0.800000X2.800000*%
%ADD21RoundRect,0.150000X-0.675000X-0.150000X0.675000X-0.150000X0.675000X0.150000X-0.675000X0.150000X0*%
%ADD22RoundRect,0.225000X-0.225000X-0.250000X0.225000X-0.250000X0.225000X0.250000X-0.225000X0.250000X0*%
%ADD23RoundRect,0.140000X-0.170000X0.140000X-0.170000X-0.140000X0.170000X-0.140000X0.170000X0.140000X0*%
%ADD24RoundRect,0.140000X0.140000X0.170000X-0.140000X0.170000X-0.140000X-0.170000X0.140000X-0.170000X0*%
%ADD25R,0.800000X0.800000*%
%ADD26RoundRect,0.150000X-0.150000X0.675000X-0.150000X-0.675000X0.150000X-0.675000X0.150000X0.675000X0*%
%ADD27RoundRect,0.250000X-0.450000X0.262500X-0.450000X-0.262500X0.450000X-0.262500X0.450000X0.262500X0*%
%ADD28RoundRect,0.050000X0.050000X-0.350000X0.050000X0.350000X-0.050000X0.350000X-0.050000X-0.350000X0*%
%ADD29RoundRect,0.050000X0.350000X-0.050000X0.350000X0.050000X-0.350000X0.050000X-0.350000X-0.050000X0*%
%ADD30R,4.300000X4.300000*%
%ADD31RoundRect,0.140000X-0.140000X-0.170000X0.140000X-0.170000X0.140000X0.170000X-0.140000X0.170000X0*%
%ADD32RoundRect,0.250000X-0.312500X-0.625000X0.312500X-0.625000X0.312500X0.625000X-0.312500X0.625000X0*%
%ADD33RoundRect,0.150000X-0.512500X-0.150000X0.512500X-0.150000X0.512500X0.150000X-0.512500X0.150000X0*%
%ADD34RotRect,1.800000X1.800000X28.500000*%
%ADD35RoundRect,0.225000X0.250000X-0.225000X0.250000X0.225000X-0.250000X0.225000X-0.250000X-0.225000X0*%
%ADD36RoundRect,0.218750X0.218750X0.381250X-0.218750X0.381250X-0.218750X-0.381250X0.218750X-0.381250X0*%
%ADD37RoundRect,0.175000X0.225000X0.175000X-0.225000X0.175000X-0.225000X-0.175000X0.225000X-0.175000X0*%
%ADD38RotRect,0.900000X0.800000X135.000000*%
%ADD39R,1.500000X2.700000*%
%ADD40RotRect,1.000000X1.000000X100.000000*%
%ADD41HorizOval,1.000000X0.000000X0.000000X0.000000X0.000000X0*%
%ADD42C,1.600000*%
%ADD43RoundRect,0.225000X-0.250000X0.225000X-0.250000X-0.225000X0.250000X-0.225000X0.250000X0.225000X0*%
%ADD44C,3.000000*%
%ADD45RoundRect,0.150000X0.150000X-0.512500X0.150000X0.512500X-0.150000X0.512500X-0.150000X-0.512500X0*%
%ADD46RoundRect,0.135000X-0.185000X0.135000X-0.185000X-0.135000X0.185000X-0.135000X0.185000X0.135000X0*%
%ADD47RoundRect,0.250000X-0.650000X0.325000X-0.650000X-0.325000X0.650000X-0.325000X0.650000X0.325000X0*%
%ADD48RoundRect,0.250000X0.750000X-0.600000X0.750000X0.600000X-0.750000X0.600000X-0.750000X-0.600000X0*%
%ADD49O,2.000000X1.700000*%
%ADD50RoundRect,0.250000X0.542655X0.467601X-0.115130X0.707015X-0.542655X-0.467601X0.115130X-0.707015X0*%
%ADD51HorizOval,1.200000X0.094056X0.258415X-0.094056X-0.258415X0*%
%ADD52RoundRect,0.250000X-0.954594X-0.106066X-0.106066X-0.954594X0.954594X0.106066X0.106066X0.954594X0*%
%ADD53HorizOval,1.700000X-0.106066X-0.106066X0.106066X0.106066X0*%
%ADD54RoundRect,0.250000X0.106066X-0.954594X0.954594X-0.106066X-0.106066X0.954594X-0.954594X0.106066X0*%
%ADD55HorizOval,1.700000X-0.106066X0.106066X0.106066X-0.106066X0*%
G04 APERTURE END LIST*
D10*
%TO.C,R43*%
X197000000Y-124210000D03*
X197000000Y-123190000D03*
%TD*%
D11*
%TO.C,R7*%
X194090000Y-119500000D03*
X195110000Y-119500000D03*
%TD*%
D12*
%TO.C,C16*%
X204200000Y-111380000D03*
X204200000Y-110420000D03*
%TD*%
D13*
%TO.C,D7*%
X229060000Y-133940000D03*
X231860000Y-133940000D03*
%TD*%
D14*
%TO.C,C21*%
X219936000Y-123882000D03*
X218386000Y-123882000D03*
%TD*%
D15*
%TO.C,R8*%
X189510000Y-113900000D03*
X188490000Y-113900000D03*
%TD*%
D16*
%TO.C,D3*%
X216549452Y-143320894D03*
D17*
X218781647Y-144532877D03*
%TD*%
D18*
%TO.C,R41*%
X170331500Y-131121000D03*
X167406500Y-131121000D03*
%TD*%
D12*
%TO.C,C6*%
X208700000Y-113780000D03*
X208700000Y-112820000D03*
%TD*%
%TO.C,C14*%
X205200000Y-111380000D03*
X205200000Y-110420000D03*
%TD*%
D19*
%TO.C,ANT1*%
X211200000Y-114900000D03*
X211200000Y-107900000D03*
D20*
X212015000Y-111400000D03*
X210385000Y-111400000D03*
%TD*%
D21*
%TO.C,U2*%
X221975000Y-121245000D03*
X221975000Y-122515000D03*
X221975000Y-123785000D03*
X221975000Y-125055000D03*
X227225000Y-125055000D03*
X227225000Y-123785000D03*
X227225000Y-122515000D03*
X227225000Y-121245000D03*
%TD*%
D22*
%TO.C,C17*%
X226895000Y-126676000D03*
X228445000Y-126676000D03*
%TD*%
D23*
%TO.C,C3*%
X201900000Y-119320000D03*
X201900000Y-120280000D03*
%TD*%
D10*
%TO.C,R34*%
X195000000Y-124210000D03*
X195000000Y-123190000D03*
%TD*%
D11*
%TO.C,R40*%
X188490000Y-112400000D03*
X189510000Y-112400000D03*
%TD*%
D23*
%TO.C,C2*%
X200900000Y-119320000D03*
X200900000Y-120280000D03*
%TD*%
D18*
%TO.C,R23*%
X214362500Y-119600000D03*
X211437500Y-119600000D03*
%TD*%
D24*
%TO.C,C30*%
X171635000Y-136709000D03*
X170675000Y-136709000D03*
%TD*%
D11*
%TO.C,R30*%
X190890000Y-123500000D03*
X191910000Y-123500000D03*
%TD*%
D25*
%TO.C,Q2*%
X207350000Y-122300000D03*
X208850000Y-122300000D03*
%TD*%
D24*
%TO.C,C29*%
X230340000Y-136760000D03*
X229380000Y-136760000D03*
%TD*%
D15*
%TO.C,R29*%
X172681000Y-121596000D03*
X171661000Y-121596000D03*
%TD*%
D26*
%TO.C,U3*%
X172806000Y-123289000D03*
X171536000Y-123289000D03*
X170266000Y-123289000D03*
X168996000Y-123289000D03*
X168996000Y-128539000D03*
X170266000Y-128539000D03*
X171536000Y-128539000D03*
X172806000Y-128539000D03*
%TD*%
D27*
%TO.C,R27*%
X202200000Y-122687500D03*
X202200000Y-124512500D03*
%TD*%
D28*
%TO.C,U1*%
X196800000Y-118350000D03*
X197200000Y-118350000D03*
X197600000Y-118350000D03*
X198000000Y-118350000D03*
X198400000Y-118350000D03*
X198800000Y-118350000D03*
X199200000Y-118350000D03*
X199600000Y-118350000D03*
X200000000Y-118350000D03*
X200400000Y-118350000D03*
X200800000Y-118350000D03*
X201200000Y-118350000D03*
D29*
X201950000Y-117600000D03*
X201950000Y-117200000D03*
X201950000Y-116800000D03*
X201950000Y-116400000D03*
X201950000Y-116000000D03*
X201950000Y-115600000D03*
X201950000Y-115200000D03*
X201950000Y-114800000D03*
X201950000Y-114400000D03*
X201950000Y-114000000D03*
X201950000Y-113600000D03*
X201950000Y-113200000D03*
D28*
X201200000Y-112450000D03*
X200800000Y-112450000D03*
X200400000Y-112450000D03*
X200000000Y-112450000D03*
X199600000Y-112450000D03*
X199200000Y-112450000D03*
X198800000Y-112450000D03*
X198400000Y-112450000D03*
X198000000Y-112450000D03*
X197600000Y-112450000D03*
X197200000Y-112450000D03*
X196800000Y-112450000D03*
D29*
X196050000Y-113200000D03*
X196050000Y-113600000D03*
X196050000Y-114000000D03*
X196050000Y-114400000D03*
X196050000Y-114800000D03*
X196050000Y-115200000D03*
X196050000Y-115600000D03*
X196050000Y-116000000D03*
X196050000Y-116400000D03*
X196050000Y-116800000D03*
X196050000Y-117200000D03*
X196050000Y-117600000D03*
D30*
X199000000Y-115400000D03*
%TD*%
D15*
%TO.C,R16*%
X199310000Y-143500000D03*
X198290000Y-143500000D03*
%TD*%
D23*
%TO.C,C9*%
X203900000Y-114520000D03*
X203900000Y-115480000D03*
%TD*%
D31*
%TO.C,C23*%
X226020000Y-114200000D03*
X226980000Y-114200000D03*
%TD*%
%TO.C,C7*%
X203520000Y-117700000D03*
X204480000Y-117700000D03*
%TD*%
D32*
%TO.C,R32*%
X211447500Y-122030000D03*
X214372500Y-122030000D03*
%TD*%
D15*
%TO.C,R13*%
X189510000Y-110400000D03*
X188490000Y-110400000D03*
%TD*%
D32*
%TO.C,R42*%
X225572500Y-130613000D03*
X228497500Y-130613000D03*
%TD*%
D11*
%TO.C,R28*%
X169121000Y-121596000D03*
X170141000Y-121596000D03*
%TD*%
D33*
%TO.C,Q3*%
X191400000Y-119400000D03*
X191400000Y-121300000D03*
X193675000Y-120350000D03*
%TD*%
D22*
%TO.C,C28*%
X220375000Y-138150000D03*
X221925000Y-138150000D03*
%TD*%
D34*
%TO.C,D4*%
X180653505Y-144613790D03*
D17*
X182885700Y-143401807D03*
%TD*%
D35*
%TO.C,C26*%
X166075000Y-123260000D03*
X166075000Y-121710000D03*
%TD*%
D12*
%TO.C,C27*%
X202900000Y-111180000D03*
X202900000Y-110220000D03*
%TD*%
D10*
%TO.C,R17*%
X198000000Y-124210000D03*
X198000000Y-123190000D03*
%TD*%
D15*
%TO.C,R1*%
X206310000Y-115700000D03*
X205290000Y-115700000D03*
%TD*%
D22*
%TO.C,C25*%
X220325000Y-139550000D03*
X221875000Y-139550000D03*
%TD*%
D10*
%TO.C,R26*%
X207700000Y-113810000D03*
X207700000Y-112790000D03*
%TD*%
D36*
%TO.C,L1*%
X205142500Y-119000000D03*
X203017500Y-119000000D03*
%TD*%
D37*
%TO.C,D2*%
X158250000Y-104950000D03*
X156550000Y-104950000D03*
X156550000Y-103850000D03*
X158250000Y-103850000D03*
%TD*%
D31*
%TO.C,C5*%
X194120000Y-118500000D03*
X195080000Y-118500000D03*
%TD*%
D11*
%TO.C,R10*%
X187990000Y-122800000D03*
X189010000Y-122800000D03*
%TD*%
D15*
%TO.C,R9*%
X225386000Y-126676000D03*
X224366000Y-126676000D03*
%TD*%
%TO.C,R33*%
X208960000Y-123410000D03*
X207940000Y-123410000D03*
%TD*%
%TO.C,R20*%
X189491000Y-117900000D03*
X188471000Y-117900000D03*
%TD*%
D23*
%TO.C,C15*%
X198206000Y-108289000D03*
X198206000Y-109249000D03*
%TD*%
D15*
%TO.C,R3*%
X189491000Y-118900000D03*
X188471000Y-118900000D03*
%TD*%
D25*
%TO.C,D8*%
X192260000Y-122400000D03*
X190760000Y-122400000D03*
%TD*%
D13*
%TO.C,D6*%
X169755000Y-133534000D03*
X172555000Y-133534000D03*
%TD*%
D22*
%TO.C,C18*%
X218386000Y-125279000D03*
X219936000Y-125279000D03*
%TD*%
D18*
%TO.C,R24*%
X226062500Y-116200000D03*
X223137500Y-116200000D03*
%TD*%
D38*
%TO.C,Y1*%
X200983883Y-109606066D03*
X199993934Y-108616117D03*
X199216117Y-109393934D03*
X200206066Y-110383883D03*
%TD*%
D11*
%TO.C,R4*%
X188490000Y-115900000D03*
X189510000Y-115900000D03*
%TD*%
D24*
%TO.C,C31*%
X230310000Y-135680000D03*
X229350000Y-135680000D03*
%TD*%
D39*
%TO.C,D5*%
X221100000Y-117500000D03*
X216300000Y-117500000D03*
%TD*%
D40*
%TO.C,J2*%
X190746471Y-109302666D03*
D41*
X191997177Y-109082133D03*
X193247883Y-108861600D03*
X194498589Y-108641066D03*
X195749294Y-108420533D03*
X197000000Y-108200000D03*
%TD*%
D35*
%TO.C,C12*%
X206300000Y-111075000D03*
X206300000Y-109525000D03*
%TD*%
D11*
%TO.C,R11*%
X187990000Y-123800000D03*
X189010000Y-123800000D03*
%TD*%
D42*
%TO.C,R18*%
X193100000Y-147900000D03*
X190100000Y-147900000D03*
%TD*%
D15*
%TO.C,R19*%
X178920000Y-135800000D03*
X177900000Y-135800000D03*
%TD*%
D37*
%TO.C,D1*%
X243250000Y-105150000D03*
X241550000Y-105150000D03*
X241550000Y-104050000D03*
X243250000Y-104050000D03*
%TD*%
D24*
%TO.C,C33*%
X194380000Y-113000000D03*
X193420000Y-113000000D03*
%TD*%
D43*
%TO.C,C13*%
X210100000Y-121495000D03*
X210100000Y-123045000D03*
%TD*%
D11*
%TO.C,R15*%
X200390000Y-143500000D03*
X201410000Y-143500000D03*
%TD*%
%TO.C,R22*%
X179990000Y-134200000D03*
X181010000Y-134200000D03*
%TD*%
D44*
%TO.C,H2*%
X199800000Y-137900000D03*
%TD*%
D35*
%TO.C,C1*%
X167599000Y-123260000D03*
X167599000Y-121710000D03*
%TD*%
D11*
%TO.C,R6*%
X188490000Y-114900000D03*
X189510000Y-114900000D03*
%TD*%
D45*
%TO.C,U5*%
X206970000Y-120287500D03*
X207920000Y-120287500D03*
X208870000Y-120287500D03*
X208870000Y-118012500D03*
X206970000Y-118012500D03*
%TD*%
D11*
%TO.C,R25*%
X193990000Y-117500000D03*
X195010000Y-117500000D03*
%TD*%
D31*
%TO.C,C10*%
X203620000Y-112600000D03*
X204580000Y-112600000D03*
%TD*%
D15*
%TO.C,R14*%
X221830000Y-126676000D03*
X220810000Y-126676000D03*
%TD*%
D23*
%TO.C,C20*%
X202080000Y-108460000D03*
X202080000Y-109420000D03*
%TD*%
D46*
%TO.C,R31*%
X192100000Y-117290000D03*
X192100000Y-118310000D03*
%TD*%
%TO.C,R37*%
X218780000Y-133151000D03*
X218780000Y-134171000D03*
%TD*%
D10*
%TO.C,R35*%
X196000000Y-124210000D03*
X196000000Y-123190000D03*
%TD*%
D35*
%TO.C,C22*%
X210050000Y-120295000D03*
X210050000Y-118745000D03*
%TD*%
D12*
%TO.C,C19*%
X202000000Y-111580000D03*
X202000000Y-110620000D03*
%TD*%
D42*
%TO.C,R21*%
X206550000Y-147900000D03*
X209550000Y-147900000D03*
%TD*%
D23*
%TO.C,C34*%
X198700000Y-120820000D03*
X198700000Y-121780000D03*
%TD*%
%TO.C,C4*%
X204800000Y-113520000D03*
X204800000Y-114480000D03*
%TD*%
%TO.C,C8*%
X203100000Y-115720000D03*
X203100000Y-116680000D03*
%TD*%
D24*
%TO.C,C32*%
X171635000Y-135566000D03*
X170675000Y-135566000D03*
%TD*%
D31*
%TO.C,C11*%
X194420000Y-111700000D03*
X195380000Y-111700000D03*
%TD*%
D11*
%TO.C,R39*%
X188490000Y-111400000D03*
X189510000Y-111400000D03*
%TD*%
D47*
%TO.C,C37*%
X205100000Y-120625000D03*
X205100000Y-123575000D03*
%TD*%
D31*
%TO.C,C24*%
X226020000Y-113000000D03*
X226980000Y-113000000D03*
%TD*%
D11*
%TO.C,R2*%
X205690000Y-113600000D03*
X206710000Y-113600000D03*
%TD*%
%TO.C,R12*%
X187990000Y-121800000D03*
X189010000Y-121800000D03*
%TD*%
%TO.C,R5*%
X188471000Y-116900000D03*
X189491000Y-116900000D03*
%TD*%
D21*
%TO.C,U4*%
X220745000Y-132895000D03*
X220745000Y-134165000D03*
X220745000Y-135435000D03*
X220745000Y-136705000D03*
X225995000Y-136705000D03*
X225995000Y-135435000D03*
X225995000Y-134165000D03*
X225995000Y-132895000D03*
%TD*%
D44*
%TO.C,H1*%
X199800000Y-128900000D03*
%TD*%
D23*
%TO.C,C36*%
X200000000Y-119820000D03*
X200000000Y-120780000D03*
%TD*%
D10*
%TO.C,R36*%
X218780000Y-136584000D03*
X218780000Y-135564000D03*
%TD*%
D48*
%TO.C,LS1*%
X231300000Y-122300000D03*
D49*
X231300000Y-119800000D03*
%TD*%
D50*
%TO.C,BT1*%
X222050000Y-112150000D03*
D51*
X220170615Y-111465960D03*
%TD*%
D52*
%TO.C,M1*%
X170132233Y-139132233D03*
D53*
X171900000Y-140900000D03*
%TD*%
D54*
%TO.C,M2*%
X227427348Y-140965115D03*
D55*
X229195115Y-139197348D03*
%TD*%
M02*
