%TF.GenerationSoftware,KiCad,Pcbnew,7.0.1*%
%TF.CreationDate,2023-08-08T22:15:58+07:00*%
%TF.ProjectId,BL706 Robot,424c3730-3620-4526-9f62-6f742e6b6963,rev?*%
%TF.SameCoordinates,Original*%
%TF.FileFunction,Profile,NP*%
%FSLAX46Y46*%
G04 Gerber Fmt 4.6, Leading zero omitted, Abs format (unit mm)*
G04 Created by KiCad (PCBNEW 7.0.1) date 2023-08-08 22:15:58*
%MOMM*%
%LPD*%
G01*
G04 APERTURE LIST*
%TA.AperFunction,Profile*%
%ADD10C,0.350000*%
%TD*%
G04 APERTURE END LIST*
D10*
X186772778Y-146900000D02*
X185071026Y-143720923D01*
X202124997Y-148799033D02*
X202124997Y-149096960D01*
X164800001Y-131899999D02*
G75*
G03*
X179157823Y-146886246I14999999J-1D01*
G01*
X197475003Y-151621374D02*
X197475003Y-151547812D01*
X210570004Y-151900000D02*
X210570004Y-146900000D01*
X197475003Y-149972678D02*
X197772854Y-149764105D01*
X167032849Y-107061789D02*
X171871060Y-111900000D01*
X201628537Y-154763968D02*
X201560483Y-154716315D01*
X232567151Y-107061789D02*
X227728940Y-111900000D01*
X202124997Y-148368506D02*
X201906720Y-148521338D01*
X186772778Y-146900000D02*
X189029995Y-146900000D01*
X197475003Y-152351584D02*
X197475003Y-152335379D01*
X197977612Y-153558585D02*
X197977612Y-153433737D01*
X197475003Y-150891150D02*
X197475003Y-150760245D01*
X205570004Y-146900000D02*
X202124997Y-146900000D01*
X202124997Y-149588095D02*
X201863446Y-149404959D01*
X202034787Y-154259360D02*
X201603756Y-153957556D01*
X202124997Y-150377173D02*
X201820157Y-150163718D01*
X205570004Y-151900000D02*
X210570004Y-151900000D01*
X201603756Y-153832709D02*
X201603756Y-153957556D01*
X201863446Y-149280112D02*
X201863446Y-149404959D01*
X194029995Y-146900000D02*
X194029995Y-151900000D01*
X197475003Y-148397528D02*
X197690945Y-148246313D01*
X220442176Y-146886247D02*
G75*
G03*
X234800000Y-131900000I-642176J14986247D01*
G01*
X202124997Y-149588095D02*
X202124997Y-149825430D01*
X201690320Y-152315176D02*
X201690320Y-152440024D01*
X202124997Y-150553885D02*
X201776883Y-150797644D01*
X197475003Y-150760245D02*
X197813809Y-150523001D01*
X194029995Y-151900000D02*
X189029995Y-151900000D01*
X239638217Y-114132851D02*
G75*
G03*
X232567149Y-107061784I2588183J9659251D01*
G01*
X197475003Y-147240042D02*
X197650006Y-147362570D01*
X202124997Y-148009955D02*
X201949994Y-147887427D01*
X202124997Y-149825430D02*
X201820157Y-150038870D01*
X202078061Y-153500601D02*
X201647030Y-153198782D01*
X202124997Y-151282355D02*
X201733594Y-151556418D01*
X202124997Y-151166251D02*
X202124997Y-151282355D01*
X197545331Y-153861273D02*
X198018567Y-154192648D01*
X197475003Y-152351584D02*
X197936657Y-152674857D01*
X202124997Y-146900000D02*
X202124997Y-147640036D01*
X202034787Y-154259360D02*
X201560483Y-154591483D01*
X197650006Y-147487418D02*
X197650006Y-147362570D01*
X197475003Y-147970267D02*
X197475003Y-147609961D01*
X206899995Y-134900000D02*
G75*
G03*
X206899995Y-128900000I4002905J3000000D01*
G01*
X197936657Y-152799689D02*
X197936657Y-152674857D01*
X197475003Y-152335379D02*
X197895718Y-152040793D01*
X197475003Y-147240042D02*
X197475003Y-146900000D01*
X202124997Y-151166251D02*
X201776883Y-150922491D01*
X212827221Y-146900000D02*
X210570004Y-146900000D01*
X167032851Y-107061783D02*
G75*
G03*
X159961784Y-114132851I-9659251J2588183D01*
G01*
X197475003Y-147970267D02*
X197690945Y-148121481D01*
X201560483Y-154591483D02*
X201560483Y-154716315D01*
X202124997Y-149096960D02*
X201863446Y-149280112D01*
X197475003Y-147609961D02*
X197650006Y-147487418D01*
X202078061Y-153500601D02*
X201603756Y-153832709D01*
X197504376Y-153102377D02*
X197977612Y-153433737D01*
X197475003Y-150160925D02*
X197813809Y-150398154D01*
X202124997Y-148799033D02*
X201906720Y-148646185D01*
X197690945Y-148246313D02*
X197690945Y-148121481D01*
X164800000Y-131900000D02*
X164800000Y-118971060D01*
X214528973Y-143720923D02*
X220442181Y-146886252D01*
X201733594Y-151556418D02*
X201733594Y-151681250D01*
X197504376Y-153102377D02*
X197936657Y-152799689D01*
X202124997Y-150377173D02*
X202124997Y-150553885D01*
X201906720Y-148521338D02*
X201906720Y-148646185D01*
X239638211Y-114132849D02*
X234800000Y-118971060D01*
X198018567Y-154317480D02*
X198018567Y-154192648D01*
X185071026Y-143720923D02*
X179157818Y-146886252D01*
X197731900Y-149005209D02*
X197731900Y-148880362D01*
X234800000Y-131900000D02*
X234800000Y-118971060D01*
X192650005Y-128900000D02*
G75*
G03*
X192650005Y-134900000I-4000005J-3000000D01*
G01*
X197854764Y-151281897D02*
X197854764Y-151157065D01*
X202124997Y-148009955D02*
X202124997Y-148368506D01*
X197475003Y-151547812D02*
X197854764Y-151281897D01*
X197545331Y-153861273D02*
X197977612Y-153558585D01*
X197475003Y-150891150D02*
X197854764Y-151157065D01*
X197475003Y-148700491D02*
X197475003Y-148397528D01*
X197813809Y-150523001D02*
X197813809Y-150398154D01*
X202124997Y-147640036D02*
X201949994Y-147762579D01*
X201124997Y-154899998D02*
G75*
G03*
X201628530Y-154763975I3J999998D01*
G01*
X202121350Y-152741827D02*
X201647030Y-153073950D01*
X197895718Y-152040793D02*
X197895718Y-151915945D01*
X201820157Y-150038870D02*
X201820157Y-150163718D01*
X201949994Y-147762579D02*
X201949994Y-147887427D01*
X197475003Y-150160925D02*
X197475003Y-149972678D01*
X197475003Y-148700491D02*
X197731900Y-148880362D01*
X202124997Y-151955313D02*
X201733594Y-151681250D01*
X227728934Y-111899999D02*
G75*
G03*
X171871068Y-111899998I-27928934J-64187001D01*
G01*
X205570004Y-146900000D02*
X205570004Y-151900000D01*
X197475003Y-149185095D02*
X197731900Y-149005209D01*
X197475003Y-149430701D02*
X197475003Y-149185095D01*
X197704479Y-154537414D02*
G75*
G03*
X198475003Y-154900000I770521J637414D01*
G01*
X197772854Y-149764105D02*
X197772854Y-149639273D01*
X202121350Y-152741827D02*
X201690320Y-152440024D01*
X201124997Y-154900000D02*
X198475003Y-154900000D01*
X202124997Y-152010809D02*
X201690320Y-152315176D01*
X197475003Y-151621374D02*
X197895718Y-151915945D01*
X197704480Y-154537405D02*
X198018567Y-154317480D01*
X206899995Y-134900000D02*
X206899995Y-128900000D01*
X194029995Y-146900000D02*
X197475003Y-146900000D01*
X201647030Y-153073950D02*
X201647030Y-153198782D01*
X192650006Y-134900000D02*
X192650006Y-128900000D01*
X159961789Y-114132849D02*
X164800000Y-118971060D01*
X212827221Y-146900000D02*
X214528973Y-143720923D01*
X201776883Y-150797644D02*
X201776883Y-150922491D01*
X202124997Y-151955313D02*
X202124997Y-152010809D01*
X189029995Y-151900000D02*
X189029995Y-146900000D01*
X197475003Y-149430701D02*
X197772854Y-149639273D01*
M02*
