%TF.GenerationSoftware,KiCad,Pcbnew,7.0.1*%
%TF.CreationDate,2023-08-08T22:15:58+07:00*%
%TF.ProjectId,BL706 Robot,424c3730-3620-4526-9f62-6f742e6b6963,rev?*%
%TF.SameCoordinates,Original*%
%TF.FileFunction,AssemblyDrawing,Bot*%
%FSLAX46Y46*%
G04 Gerber Fmt 4.6, Leading zero omitted, Abs format (unit mm)*
G04 Created by KiCad (PCBNEW 7.0.1) date 2023-08-08 22:15:58*
%MOMM*%
%LPD*%
G01*
G04 APERTURE LIST*
%ADD10C,0.150000*%
%ADD11C,0.100000*%
G04 APERTURE END LIST*
D10*
%TO.C,C35*%
X230185713Y-130142619D02*
X230185713Y-129142619D01*
X230185713Y-129142619D02*
X229947618Y-129142619D01*
X229947618Y-129142619D02*
X229804761Y-129190238D01*
X229804761Y-129190238D02*
X229709523Y-129285476D01*
X229709523Y-129285476D02*
X229661904Y-129380714D01*
X229661904Y-129380714D02*
X229614285Y-129571190D01*
X229614285Y-129571190D02*
X229614285Y-129714047D01*
X229614285Y-129714047D02*
X229661904Y-129904523D01*
X229661904Y-129904523D02*
X229709523Y-129999761D01*
X229709523Y-129999761D02*
X229804761Y-130095000D01*
X229804761Y-130095000D02*
X229947618Y-130142619D01*
X229947618Y-130142619D02*
X230185713Y-130142619D01*
X229185713Y-130142619D02*
X229185713Y-129142619D01*
X229185713Y-129142619D02*
X228614285Y-130142619D01*
X228614285Y-130142619D02*
X228614285Y-129142619D01*
X228138094Y-130142619D02*
X228138094Y-129142619D01*
X228138094Y-129142619D02*
X227757142Y-129142619D01*
X227757142Y-129142619D02*
X227661904Y-129190238D01*
X227661904Y-129190238D02*
X227614285Y-129237857D01*
X227614285Y-129237857D02*
X227566666Y-129333095D01*
X227566666Y-129333095D02*
X227566666Y-129475952D01*
X227566666Y-129475952D02*
X227614285Y-129571190D01*
X227614285Y-129571190D02*
X227661904Y-129618809D01*
X227661904Y-129618809D02*
X227757142Y-129666428D01*
X227757142Y-129666428D02*
X228138094Y-129666428D01*
X229042857Y-130147380D02*
X229090476Y-130195000D01*
X229090476Y-130195000D02*
X229233333Y-130242619D01*
X229233333Y-130242619D02*
X229328571Y-130242619D01*
X229328571Y-130242619D02*
X229471428Y-130195000D01*
X229471428Y-130195000D02*
X229566666Y-130099761D01*
X229566666Y-130099761D02*
X229614285Y-130004523D01*
X229614285Y-130004523D02*
X229661904Y-129814047D01*
X229661904Y-129814047D02*
X229661904Y-129671190D01*
X229661904Y-129671190D02*
X229614285Y-129480714D01*
X229614285Y-129480714D02*
X229566666Y-129385476D01*
X229566666Y-129385476D02*
X229471428Y-129290238D01*
X229471428Y-129290238D02*
X229328571Y-129242619D01*
X229328571Y-129242619D02*
X229233333Y-129242619D01*
X229233333Y-129242619D02*
X229090476Y-129290238D01*
X229090476Y-129290238D02*
X229042857Y-129337857D01*
X228709523Y-129242619D02*
X228090476Y-129242619D01*
X228090476Y-129242619D02*
X228423809Y-129623571D01*
X228423809Y-129623571D02*
X228280952Y-129623571D01*
X228280952Y-129623571D02*
X228185714Y-129671190D01*
X228185714Y-129671190D02*
X228138095Y-129718809D01*
X228138095Y-129718809D02*
X228090476Y-129814047D01*
X228090476Y-129814047D02*
X228090476Y-130052142D01*
X228090476Y-130052142D02*
X228138095Y-130147380D01*
X228138095Y-130147380D02*
X228185714Y-130195000D01*
X228185714Y-130195000D02*
X228280952Y-130242619D01*
X228280952Y-130242619D02*
X228566666Y-130242619D01*
X228566666Y-130242619D02*
X228661904Y-130195000D01*
X228661904Y-130195000D02*
X228709523Y-130147380D01*
X227185714Y-129242619D02*
X227661904Y-129242619D01*
X227661904Y-129242619D02*
X227709523Y-129718809D01*
X227709523Y-129718809D02*
X227661904Y-129671190D01*
X227661904Y-129671190D02*
X227566666Y-129623571D01*
X227566666Y-129623571D02*
X227328571Y-129623571D01*
X227328571Y-129623571D02*
X227233333Y-129671190D01*
X227233333Y-129671190D02*
X227185714Y-129718809D01*
X227185714Y-129718809D02*
X227138095Y-129814047D01*
X227138095Y-129814047D02*
X227138095Y-130052142D01*
X227138095Y-130052142D02*
X227185714Y-130147380D01*
X227185714Y-130147380D02*
X227233333Y-130195000D01*
X227233333Y-130195000D02*
X227328571Y-130242619D01*
X227328571Y-130242619D02*
X227566666Y-130242619D01*
X227566666Y-130242619D02*
X227661904Y-130195000D01*
X227661904Y-130195000D02*
X227709523Y-130147380D01*
%TO.C,LS1*%
X227115000Y-119488095D02*
X227162619Y-119630952D01*
X227162619Y-119630952D02*
X227162619Y-119869047D01*
X227162619Y-119869047D02*
X227115000Y-119964285D01*
X227115000Y-119964285D02*
X227067380Y-120011904D01*
X227067380Y-120011904D02*
X226972142Y-120059523D01*
X226972142Y-120059523D02*
X226876904Y-120059523D01*
X226876904Y-120059523D02*
X226781666Y-120011904D01*
X226781666Y-120011904D02*
X226734047Y-119964285D01*
X226734047Y-119964285D02*
X226686428Y-119869047D01*
X226686428Y-119869047D02*
X226638809Y-119678571D01*
X226638809Y-119678571D02*
X226591190Y-119583333D01*
X226591190Y-119583333D02*
X226543571Y-119535714D01*
X226543571Y-119535714D02*
X226448333Y-119488095D01*
X226448333Y-119488095D02*
X226353095Y-119488095D01*
X226353095Y-119488095D02*
X226257857Y-119535714D01*
X226257857Y-119535714D02*
X226210238Y-119583333D01*
X226210238Y-119583333D02*
X226162619Y-119678571D01*
X226162619Y-119678571D02*
X226162619Y-119916666D01*
X226162619Y-119916666D02*
X226210238Y-120059523D01*
X226495952Y-120488095D02*
X227495952Y-120488095D01*
X226543571Y-120488095D02*
X226495952Y-120583333D01*
X226495952Y-120583333D02*
X226495952Y-120773809D01*
X226495952Y-120773809D02*
X226543571Y-120869047D01*
X226543571Y-120869047D02*
X226591190Y-120916666D01*
X226591190Y-120916666D02*
X226686428Y-120964285D01*
X226686428Y-120964285D02*
X226972142Y-120964285D01*
X226972142Y-120964285D02*
X227067380Y-120916666D01*
X227067380Y-120916666D02*
X227115000Y-120869047D01*
X227115000Y-120869047D02*
X227162619Y-120773809D01*
X227162619Y-120773809D02*
X227162619Y-120583333D01*
X227162619Y-120583333D02*
X227115000Y-120488095D01*
X227115000Y-121773809D02*
X227162619Y-121678571D01*
X227162619Y-121678571D02*
X227162619Y-121488095D01*
X227162619Y-121488095D02*
X227115000Y-121392857D01*
X227115000Y-121392857D02*
X227019761Y-121345238D01*
X227019761Y-121345238D02*
X226638809Y-121345238D01*
X226638809Y-121345238D02*
X226543571Y-121392857D01*
X226543571Y-121392857D02*
X226495952Y-121488095D01*
X226495952Y-121488095D02*
X226495952Y-121678571D01*
X226495952Y-121678571D02*
X226543571Y-121773809D01*
X226543571Y-121773809D02*
X226638809Y-121821428D01*
X226638809Y-121821428D02*
X226734047Y-121821428D01*
X226734047Y-121821428D02*
X226829285Y-121345238D01*
X227162619Y-122678571D02*
X226638809Y-122678571D01*
X226638809Y-122678571D02*
X226543571Y-122630952D01*
X226543571Y-122630952D02*
X226495952Y-122535714D01*
X226495952Y-122535714D02*
X226495952Y-122345238D01*
X226495952Y-122345238D02*
X226543571Y-122250000D01*
X227115000Y-122678571D02*
X227162619Y-122583333D01*
X227162619Y-122583333D02*
X227162619Y-122345238D01*
X227162619Y-122345238D02*
X227115000Y-122250000D01*
X227115000Y-122250000D02*
X227019761Y-122202381D01*
X227019761Y-122202381D02*
X226924523Y-122202381D01*
X226924523Y-122202381D02*
X226829285Y-122250000D01*
X226829285Y-122250000D02*
X226781666Y-122345238D01*
X226781666Y-122345238D02*
X226781666Y-122583333D01*
X226781666Y-122583333D02*
X226734047Y-122678571D01*
X227162619Y-123154762D02*
X226162619Y-123154762D01*
X226781666Y-123250000D02*
X227162619Y-123535714D01*
X226495952Y-123535714D02*
X226876904Y-123154762D01*
X227115000Y-124345238D02*
X227162619Y-124250000D01*
X227162619Y-124250000D02*
X227162619Y-124059524D01*
X227162619Y-124059524D02*
X227115000Y-123964286D01*
X227115000Y-123964286D02*
X227019761Y-123916667D01*
X227019761Y-123916667D02*
X226638809Y-123916667D01*
X226638809Y-123916667D02*
X226543571Y-123964286D01*
X226543571Y-123964286D02*
X226495952Y-124059524D01*
X226495952Y-124059524D02*
X226495952Y-124250000D01*
X226495952Y-124250000D02*
X226543571Y-124345238D01*
X226543571Y-124345238D02*
X226638809Y-124392857D01*
X226638809Y-124392857D02*
X226734047Y-124392857D01*
X226734047Y-124392857D02*
X226829285Y-123916667D01*
X227162619Y-124821429D02*
X226495952Y-124821429D01*
X226686428Y-124821429D02*
X226591190Y-124869048D01*
X226591190Y-124869048D02*
X226543571Y-124916667D01*
X226543571Y-124916667D02*
X226495952Y-125011905D01*
X226495952Y-125011905D02*
X226495952Y-125107143D01*
X229062619Y-121607142D02*
X229062619Y-121130952D01*
X229062619Y-121130952D02*
X228062619Y-121130952D01*
X229015000Y-121892857D02*
X229062619Y-122035714D01*
X229062619Y-122035714D02*
X229062619Y-122273809D01*
X229062619Y-122273809D02*
X229015000Y-122369047D01*
X229015000Y-122369047D02*
X228967380Y-122416666D01*
X228967380Y-122416666D02*
X228872142Y-122464285D01*
X228872142Y-122464285D02*
X228776904Y-122464285D01*
X228776904Y-122464285D02*
X228681666Y-122416666D01*
X228681666Y-122416666D02*
X228634047Y-122369047D01*
X228634047Y-122369047D02*
X228586428Y-122273809D01*
X228586428Y-122273809D02*
X228538809Y-122083333D01*
X228538809Y-122083333D02*
X228491190Y-121988095D01*
X228491190Y-121988095D02*
X228443571Y-121940476D01*
X228443571Y-121940476D02*
X228348333Y-121892857D01*
X228348333Y-121892857D02*
X228253095Y-121892857D01*
X228253095Y-121892857D02*
X228157857Y-121940476D01*
X228157857Y-121940476D02*
X228110238Y-121988095D01*
X228110238Y-121988095D02*
X228062619Y-122083333D01*
X228062619Y-122083333D02*
X228062619Y-122321428D01*
X228062619Y-122321428D02*
X228110238Y-122464285D01*
X229062619Y-123416666D02*
X229062619Y-122845238D01*
X229062619Y-123130952D02*
X228062619Y-123130952D01*
X228062619Y-123130952D02*
X228205476Y-123035714D01*
X228205476Y-123035714D02*
X228300714Y-122940476D01*
X228300714Y-122940476D02*
X228348333Y-122845238D01*
%TO.C,BT1*%
X221709662Y-116217720D02*
X221559133Y-116213607D01*
X221559133Y-116213607D02*
X221498099Y-116242068D01*
X221498099Y-116242068D02*
X221420779Y-116315276D01*
X221420779Y-116315276D02*
X221371919Y-116449517D01*
X221371919Y-116449517D02*
X221384093Y-116555299D01*
X221384093Y-116555299D02*
X221412553Y-116616333D01*
X221412553Y-116616333D02*
X221485761Y-116693653D01*
X221485761Y-116693653D02*
X221843739Y-116823947D01*
X221843739Y-116823947D02*
X222185759Y-115884254D01*
X222185759Y-115884254D02*
X221872529Y-115770247D01*
X221872529Y-115770247D02*
X221766747Y-115782421D01*
X221766747Y-115782421D02*
X221705713Y-115810882D01*
X221705713Y-115810882D02*
X221628393Y-115884090D01*
X221628393Y-115884090D02*
X221595819Y-115973584D01*
X221595819Y-115973584D02*
X221607993Y-116079365D01*
X221607993Y-116079365D02*
X221636454Y-116140399D01*
X221636454Y-116140399D02*
X221709662Y-116217720D01*
X221709662Y-116217720D02*
X222022893Y-116331727D01*
X220501321Y-116335346D02*
X220680475Y-115843126D01*
X220680475Y-115843126D02*
X220757795Y-115769918D01*
X220757795Y-115769918D02*
X220863576Y-115757745D01*
X220863576Y-115757745D02*
X221042566Y-115822891D01*
X221042566Y-115822891D02*
X221115773Y-115900212D01*
X220517608Y-116290599D02*
X220590816Y-116367920D01*
X220590816Y-116367920D02*
X220814552Y-116449353D01*
X220814552Y-116449353D02*
X220920333Y-116437179D01*
X220920333Y-116437179D02*
X220997654Y-116363971D01*
X220997654Y-116363971D02*
X221030227Y-116274477D01*
X221030227Y-116274477D02*
X221018053Y-116168695D01*
X221018053Y-116168695D02*
X220944846Y-116091375D01*
X220944846Y-116091375D02*
X220721109Y-116009942D01*
X220721109Y-116009942D02*
X220647901Y-115932621D01*
X220416104Y-115594878D02*
X220058126Y-115464584D01*
X220395869Y-115232787D02*
X220102709Y-116038238D01*
X220102709Y-116038238D02*
X220025388Y-116111446D01*
X220025388Y-116111446D02*
X219919607Y-116123620D01*
X219919607Y-116123620D02*
X219830112Y-116091046D01*
X219879136Y-115399438D02*
X219521158Y-115269144D01*
X219858901Y-115037347D02*
X219565741Y-115842798D01*
X219565741Y-115842798D02*
X219488420Y-115916005D01*
X219488420Y-115916005D02*
X219382639Y-115928179D01*
X219382639Y-115928179D02*
X219293145Y-115895606D01*
X218638222Y-115606558D02*
X218711430Y-115683879D01*
X218711430Y-115683879D02*
X218890419Y-115749026D01*
X218890419Y-115749026D02*
X218996200Y-115736852D01*
X218996200Y-115736852D02*
X219073521Y-115663644D01*
X219073521Y-115663644D02*
X219203814Y-115305666D01*
X219203814Y-115305666D02*
X219191640Y-115199885D01*
X219191640Y-115199885D02*
X219118432Y-115122564D01*
X219118432Y-115122564D02*
X218939443Y-115057417D01*
X218939443Y-115057417D02*
X218833662Y-115069591D01*
X218833662Y-115069591D02*
X218756341Y-115142799D01*
X218756341Y-115142799D02*
X218723768Y-115232294D01*
X218723768Y-115232294D02*
X219138667Y-115484655D01*
X218174462Y-115488439D02*
X218402476Y-114861977D01*
X218337329Y-115040966D02*
X218325155Y-114935185D01*
X218325155Y-114935185D02*
X218296695Y-114874151D01*
X218296695Y-114874151D02*
X218223487Y-114796830D01*
X218223487Y-114796830D02*
X218133992Y-114764257D01*
X217910255Y-114682824D02*
X217458506Y-115227852D01*
X217462783Y-114519957D02*
X217458506Y-115227852D01*
X217458506Y-115227852D02*
X217466567Y-115484162D01*
X217466567Y-115484162D02*
X217495027Y-115545196D01*
X217495027Y-115545196D02*
X217568235Y-115622516D01*
X221356535Y-113428748D02*
X221206006Y-113424636D01*
X221206006Y-113424636D02*
X221144973Y-113453096D01*
X221144973Y-113453096D02*
X221067652Y-113526304D01*
X221067652Y-113526304D02*
X221018792Y-113660546D01*
X221018792Y-113660546D02*
X221030966Y-113766327D01*
X221030966Y-113766327D02*
X221059426Y-113827361D01*
X221059426Y-113827361D02*
X221132634Y-113904682D01*
X221132634Y-113904682D02*
X221490612Y-114034975D01*
X221490612Y-114034975D02*
X221832633Y-113095282D01*
X221832633Y-113095282D02*
X221519402Y-112981276D01*
X221519402Y-112981276D02*
X221413620Y-112993450D01*
X221413620Y-112993450D02*
X221352587Y-113021910D01*
X221352587Y-113021910D02*
X221275266Y-113095118D01*
X221275266Y-113095118D02*
X221242693Y-113184613D01*
X221242693Y-113184613D02*
X221254866Y-113290394D01*
X221254866Y-113290394D02*
X221283327Y-113351428D01*
X221283327Y-113351428D02*
X221356535Y-113428748D01*
X221356535Y-113428748D02*
X221669766Y-113542755D01*
X221027182Y-112802122D02*
X220490215Y-112606682D01*
X220416678Y-113644095D02*
X220758698Y-112704402D01*
X219342743Y-113253215D02*
X219879711Y-113448655D01*
X219611227Y-113350935D02*
X219953247Y-112411242D01*
X219953247Y-112411242D02*
X219993882Y-112578057D01*
X219993882Y-112578057D02*
X220050803Y-112700125D01*
X220050803Y-112700125D02*
X220124011Y-112777446D01*
%TO.C,M1*%
X177568134Y-141713678D02*
X177568134Y-141781022D01*
X177568134Y-141781022D02*
X177635478Y-141915709D01*
X177635478Y-141915709D02*
X177702821Y-141983052D01*
X177702821Y-141983052D02*
X177837508Y-142050396D01*
X177837508Y-142050396D02*
X177972195Y-142050396D01*
X177972195Y-142050396D02*
X178073210Y-142016724D01*
X178073210Y-142016724D02*
X178241569Y-141915709D01*
X178241569Y-141915709D02*
X178342584Y-141814693D01*
X178342584Y-141814693D02*
X178443600Y-141646335D01*
X178443600Y-141646335D02*
X178477271Y-141545319D01*
X178477271Y-141545319D02*
X178477271Y-141410632D01*
X178477271Y-141410632D02*
X178409928Y-141275945D01*
X178409928Y-141275945D02*
X178342584Y-141208602D01*
X178342584Y-141208602D02*
X178207897Y-141141258D01*
X178207897Y-141141258D02*
X178140554Y-141141258D01*
X177096730Y-141376961D02*
X177197745Y-141410632D01*
X177197745Y-141410632D02*
X177265088Y-141410632D01*
X177265088Y-141410632D02*
X177366104Y-141376961D01*
X177366104Y-141376961D02*
X177568134Y-141174930D01*
X177568134Y-141174930D02*
X177601806Y-141073915D01*
X177601806Y-141073915D02*
X177601806Y-141006571D01*
X177601806Y-141006571D02*
X177568134Y-140905556D01*
X177568134Y-140905556D02*
X177467119Y-140804541D01*
X177467119Y-140804541D02*
X177366104Y-140770869D01*
X177366104Y-140770869D02*
X177298760Y-140770869D01*
X177298760Y-140770869D02*
X177197745Y-140804541D01*
X177197745Y-140804541D02*
X176995714Y-141006571D01*
X176995714Y-141006571D02*
X176962043Y-141107587D01*
X176962043Y-141107587D02*
X176962043Y-141174930D01*
X176962043Y-141174930D02*
X176995714Y-141275945D01*
X176995714Y-141275945D02*
X177096730Y-141376961D01*
X177029386Y-140366808D02*
X176557981Y-140838213D01*
X176962043Y-140434152D02*
X176962043Y-140366808D01*
X176962043Y-140366808D02*
X176928371Y-140265793D01*
X176928371Y-140265793D02*
X176827356Y-140164778D01*
X176827356Y-140164778D02*
X176726340Y-140131106D01*
X176726340Y-140131106D02*
X176625325Y-140164778D01*
X176625325Y-140164778D02*
X176254936Y-140535167D01*
X176389623Y-139727045D02*
X175918218Y-140198449D01*
X176322279Y-139794388D02*
X176322279Y-139727045D01*
X176322279Y-139727045D02*
X176288607Y-139626029D01*
X176288607Y-139626029D02*
X176187592Y-139525014D01*
X176187592Y-139525014D02*
X176086577Y-139491342D01*
X176086577Y-139491342D02*
X175985562Y-139525014D01*
X175985562Y-139525014D02*
X175615172Y-139895404D01*
X175379470Y-139794388D02*
X174840722Y-139255640D01*
X175312126Y-138178144D02*
X175244783Y-138110800D01*
X175244783Y-138110800D02*
X175143768Y-138077129D01*
X175143768Y-138077129D02*
X175076424Y-138077129D01*
X175076424Y-138077129D02*
X174975409Y-138110800D01*
X174975409Y-138110800D02*
X174807050Y-138211816D01*
X174807050Y-138211816D02*
X174638691Y-138380174D01*
X174638691Y-138380174D02*
X174537676Y-138548533D01*
X174537676Y-138548533D02*
X174504004Y-138649548D01*
X174504004Y-138649548D02*
X174504004Y-138716892D01*
X174504004Y-138716892D02*
X174537676Y-138817907D01*
X174537676Y-138817907D02*
X174605020Y-138885251D01*
X174605020Y-138885251D02*
X174706035Y-138918922D01*
X174706035Y-138918922D02*
X174773378Y-138918922D01*
X174773378Y-138918922D02*
X174874394Y-138885251D01*
X174874394Y-138885251D02*
X175042752Y-138784235D01*
X175042752Y-138784235D02*
X175211111Y-138615877D01*
X175211111Y-138615877D02*
X175312126Y-138447518D01*
X175312126Y-138447518D02*
X175345798Y-138346503D01*
X175345798Y-138346503D02*
X175345798Y-138279159D01*
X175345798Y-138279159D02*
X175312126Y-138178144D01*
X173695882Y-137976113D02*
X174099943Y-138380174D01*
X173897913Y-138178144D02*
X174605020Y-137471037D01*
X174605020Y-137471037D02*
X174571348Y-137639396D01*
X174571348Y-137639396D02*
X174571348Y-137774083D01*
X174571348Y-137774083D02*
X174605020Y-137875098D01*
X173460180Y-137740411D02*
X173561195Y-136898617D01*
X173931585Y-137269007D02*
X173089791Y-137370022D01*
X173392836Y-136258854D02*
X173325493Y-136191510D01*
X173325493Y-136191510D02*
X173224478Y-136157839D01*
X173224478Y-136157839D02*
X173157134Y-136157839D01*
X173157134Y-136157839D02*
X173056119Y-136191510D01*
X173056119Y-136191510D02*
X172887760Y-136292526D01*
X172887760Y-136292526D02*
X172719401Y-136460884D01*
X172719401Y-136460884D02*
X172618386Y-136629243D01*
X172618386Y-136629243D02*
X172584714Y-136730258D01*
X172584714Y-136730258D02*
X172584714Y-136797602D01*
X172584714Y-136797602D02*
X172618386Y-136898617D01*
X172618386Y-136898617D02*
X172685730Y-136965961D01*
X172685730Y-136965961D02*
X172786745Y-136999632D01*
X172786745Y-136999632D02*
X172854088Y-136999632D01*
X172854088Y-136999632D02*
X172955104Y-136965961D01*
X172955104Y-136965961D02*
X173123462Y-136864945D01*
X173123462Y-136864945D02*
X173291821Y-136696587D01*
X173291821Y-136696587D02*
X173392836Y-136528228D01*
X173392836Y-136528228D02*
X173426508Y-136427213D01*
X173426508Y-136427213D02*
X173426508Y-136359869D01*
X173426508Y-136359869D02*
X173392836Y-136258854D01*
X172820417Y-135821121D02*
X172820417Y-135753778D01*
X172820417Y-135753778D02*
X172786745Y-135652762D01*
X172786745Y-135652762D02*
X172618386Y-135484404D01*
X172618386Y-135484404D02*
X172517371Y-135450732D01*
X172517371Y-135450732D02*
X172450027Y-135450732D01*
X172450027Y-135450732D02*
X172349012Y-135484404D01*
X172349012Y-135484404D02*
X172281669Y-135551747D01*
X172281669Y-135551747D02*
X172214325Y-135686434D01*
X172214325Y-135686434D02*
X172214325Y-136494556D01*
X172214325Y-136494556D02*
X171776592Y-136056823D01*
X171574562Y-135989480D02*
X171035814Y-135450732D01*
X170934798Y-135215029D02*
X171641905Y-134507923D01*
X171641905Y-134507923D02*
X170901126Y-134777297D01*
X170901126Y-134777297D02*
X171170501Y-134036518D01*
X171170501Y-134036518D02*
X170463394Y-134743625D01*
X169823631Y-134103862D02*
X170194020Y-133733472D01*
X170194020Y-133733472D02*
X170295035Y-133699801D01*
X170295035Y-133699801D02*
X170396050Y-133733472D01*
X170396050Y-133733472D02*
X170530737Y-133868159D01*
X170530737Y-133868159D02*
X170564409Y-133969175D01*
X169857302Y-134070190D02*
X169890974Y-134171205D01*
X169890974Y-134171205D02*
X170059333Y-134339564D01*
X170059333Y-134339564D02*
X170160348Y-134373236D01*
X170160348Y-134373236D02*
X170261363Y-134339564D01*
X170261363Y-134339564D02*
X170328707Y-134272220D01*
X170328707Y-134272220D02*
X170362379Y-134171205D01*
X170362379Y-134171205D02*
X170328707Y-134070190D01*
X170328707Y-134070190D02*
X170160348Y-133901831D01*
X170160348Y-133901831D02*
X170126676Y-133800816D01*
X169385898Y-133666129D02*
X169486913Y-133699801D01*
X169486913Y-133699801D02*
X169587928Y-133666129D01*
X169587928Y-133666129D02*
X170194020Y-133060037D01*
X168880821Y-133093709D02*
X168914493Y-133194724D01*
X168914493Y-133194724D02*
X169049180Y-133329411D01*
X169049180Y-133329411D02*
X169150195Y-133363083D01*
X169150195Y-133363083D02*
X169251210Y-133329411D01*
X169251210Y-133329411D02*
X169520584Y-133060037D01*
X169520584Y-133060037D02*
X169554256Y-132959022D01*
X169554256Y-132959022D02*
X169520584Y-132858006D01*
X169520584Y-132858006D02*
X169385897Y-132723319D01*
X169385897Y-132723319D02*
X169284882Y-132689648D01*
X169284882Y-132689648D02*
X169183867Y-132723319D01*
X169183867Y-132723319D02*
X169116523Y-132790663D01*
X169116523Y-132790663D02*
X169385897Y-133194724D01*
X173170603Y-139006468D02*
X173877710Y-138299362D01*
X173877710Y-138299362D02*
X173136931Y-138568736D01*
X173136931Y-138568736D02*
X173406305Y-137827957D01*
X173406305Y-137827957D02*
X172699199Y-138535064D01*
X171992092Y-137827957D02*
X172396153Y-138232018D01*
X172194122Y-138029988D02*
X172901229Y-137322881D01*
X172901229Y-137322881D02*
X172867558Y-137491240D01*
X172867558Y-137491240D02*
X172867558Y-137625927D01*
X172867558Y-137625927D02*
X172901229Y-137726942D01*
%TO.C,M2*%
X229443107Y-132963527D02*
X229510451Y-132963527D01*
X229510451Y-132963527D02*
X229645138Y-132896183D01*
X229645138Y-132896183D02*
X229712481Y-132828840D01*
X229712481Y-132828840D02*
X229779825Y-132694153D01*
X229779825Y-132694153D02*
X229779825Y-132559466D01*
X229779825Y-132559466D02*
X229746153Y-132458451D01*
X229746153Y-132458451D02*
X229645138Y-132290092D01*
X229645138Y-132290092D02*
X229544122Y-132189077D01*
X229544122Y-132189077D02*
X229375764Y-132088061D01*
X229375764Y-132088061D02*
X229274748Y-132054390D01*
X229274748Y-132054390D02*
X229140061Y-132054390D01*
X229140061Y-132054390D02*
X229005374Y-132121733D01*
X229005374Y-132121733D02*
X228938031Y-132189077D01*
X228938031Y-132189077D02*
X228870687Y-132323764D01*
X228870687Y-132323764D02*
X228870687Y-132391107D01*
X229106390Y-133434931D02*
X229140061Y-133333916D01*
X229140061Y-133333916D02*
X229140061Y-133266573D01*
X229140061Y-133266573D02*
X229106390Y-133165557D01*
X229106390Y-133165557D02*
X228904359Y-132963527D01*
X228904359Y-132963527D02*
X228803344Y-132929855D01*
X228803344Y-132929855D02*
X228736000Y-132929855D01*
X228736000Y-132929855D02*
X228634985Y-132963527D01*
X228634985Y-132963527D02*
X228533970Y-133064542D01*
X228533970Y-133064542D02*
X228500298Y-133165557D01*
X228500298Y-133165557D02*
X228500298Y-133232901D01*
X228500298Y-133232901D02*
X228533970Y-133333916D01*
X228533970Y-133333916D02*
X228736000Y-133535947D01*
X228736000Y-133535947D02*
X228837016Y-133569618D01*
X228837016Y-133569618D02*
X228904359Y-133569618D01*
X228904359Y-133569618D02*
X229005374Y-133535947D01*
X229005374Y-133535947D02*
X229106390Y-133434931D01*
X228096237Y-133502275D02*
X228567642Y-133973680D01*
X228163581Y-133569618D02*
X228096237Y-133569618D01*
X228096237Y-133569618D02*
X227995222Y-133603290D01*
X227995222Y-133603290D02*
X227894207Y-133704305D01*
X227894207Y-133704305D02*
X227860535Y-133805321D01*
X227860535Y-133805321D02*
X227894207Y-133906336D01*
X227894207Y-133906336D02*
X228264596Y-134276725D01*
X227456474Y-134142038D02*
X227927878Y-134613443D01*
X227523817Y-134209382D02*
X227456474Y-134209382D01*
X227456474Y-134209382D02*
X227355458Y-134243054D01*
X227355458Y-134243054D02*
X227254443Y-134344069D01*
X227254443Y-134344069D02*
X227220771Y-134445084D01*
X227220771Y-134445084D02*
X227254443Y-134546099D01*
X227254443Y-134546099D02*
X227624833Y-134916489D01*
X227523817Y-135152191D02*
X226985069Y-135690939D01*
X225907573Y-135219535D02*
X225840229Y-135286878D01*
X225840229Y-135286878D02*
X225806558Y-135387893D01*
X225806558Y-135387893D02*
X225806558Y-135455237D01*
X225806558Y-135455237D02*
X225840229Y-135556252D01*
X225840229Y-135556252D02*
X225941245Y-135724611D01*
X225941245Y-135724611D02*
X226109603Y-135892970D01*
X226109603Y-135892970D02*
X226277962Y-135993985D01*
X226277962Y-135993985D02*
X226378977Y-136027657D01*
X226378977Y-136027657D02*
X226446321Y-136027657D01*
X226446321Y-136027657D02*
X226547336Y-135993985D01*
X226547336Y-135993985D02*
X226614680Y-135926641D01*
X226614680Y-135926641D02*
X226648351Y-135825626D01*
X226648351Y-135825626D02*
X226648351Y-135758283D01*
X226648351Y-135758283D02*
X226614680Y-135657267D01*
X226614680Y-135657267D02*
X226513664Y-135488909D01*
X226513664Y-135488909D02*
X226345306Y-135320550D01*
X226345306Y-135320550D02*
X226176947Y-135219535D01*
X226176947Y-135219535D02*
X226075932Y-135185863D01*
X226075932Y-135185863D02*
X226008588Y-135185863D01*
X226008588Y-135185863D02*
X225907573Y-135219535D01*
X225705542Y-136835779D02*
X226109603Y-136431718D01*
X225907573Y-136633748D02*
X225200466Y-135926641D01*
X225200466Y-135926641D02*
X225368825Y-135960313D01*
X225368825Y-135960313D02*
X225503512Y-135960313D01*
X225503512Y-135960313D02*
X225604527Y-135926641D01*
X225469840Y-137071481D02*
X224628046Y-136970466D01*
X224998436Y-136600076D02*
X225099451Y-137441870D01*
X223988283Y-137138825D02*
X223920939Y-137206168D01*
X223920939Y-137206168D02*
X223887268Y-137307183D01*
X223887268Y-137307183D02*
X223887268Y-137374527D01*
X223887268Y-137374527D02*
X223920939Y-137475542D01*
X223920939Y-137475542D02*
X224021955Y-137643901D01*
X224021955Y-137643901D02*
X224190313Y-137812260D01*
X224190313Y-137812260D02*
X224358672Y-137913275D01*
X224358672Y-137913275D02*
X224459687Y-137946947D01*
X224459687Y-137946947D02*
X224527031Y-137946947D01*
X224527031Y-137946947D02*
X224628046Y-137913275D01*
X224628046Y-137913275D02*
X224695390Y-137845931D01*
X224695390Y-137845931D02*
X224729061Y-137744916D01*
X224729061Y-137744916D02*
X224729061Y-137677573D01*
X224729061Y-137677573D02*
X224695390Y-137576557D01*
X224695390Y-137576557D02*
X224594374Y-137408199D01*
X224594374Y-137408199D02*
X224426016Y-137239840D01*
X224426016Y-137239840D02*
X224257657Y-137138825D01*
X224257657Y-137138825D02*
X224156642Y-137105153D01*
X224156642Y-137105153D02*
X224089298Y-137105153D01*
X224089298Y-137105153D02*
X223988283Y-137138825D01*
X223550550Y-137711244D02*
X223483207Y-137711244D01*
X223483207Y-137711244D02*
X223382191Y-137744916D01*
X223382191Y-137744916D02*
X223213833Y-137913275D01*
X223213833Y-137913275D02*
X223180161Y-138014290D01*
X223180161Y-138014290D02*
X223180161Y-138081634D01*
X223180161Y-138081634D02*
X223213833Y-138182649D01*
X223213833Y-138182649D02*
X223281176Y-138249992D01*
X223281176Y-138249992D02*
X223415863Y-138317336D01*
X223415863Y-138317336D02*
X224223985Y-138317336D01*
X224223985Y-138317336D02*
X223786252Y-138755069D01*
X223718909Y-138957099D02*
X223180161Y-139495847D01*
X222944458Y-139596863D02*
X222237352Y-138889756D01*
X222237352Y-138889756D02*
X222506726Y-139630535D01*
X222506726Y-139630535D02*
X221765947Y-139361160D01*
X221765947Y-139361160D02*
X222473054Y-140068267D01*
X221833291Y-140708030D02*
X221462901Y-140337641D01*
X221462901Y-140337641D02*
X221429230Y-140236626D01*
X221429230Y-140236626D02*
X221462901Y-140135611D01*
X221462901Y-140135611D02*
X221597588Y-140000924D01*
X221597588Y-140000924D02*
X221698604Y-139967252D01*
X221799619Y-140674359D02*
X221900634Y-140640687D01*
X221900634Y-140640687D02*
X222068993Y-140472328D01*
X222068993Y-140472328D02*
X222102665Y-140371313D01*
X222102665Y-140371313D02*
X222068993Y-140270298D01*
X222068993Y-140270298D02*
X222001649Y-140202954D01*
X222001649Y-140202954D02*
X221900634Y-140169282D01*
X221900634Y-140169282D02*
X221799619Y-140202954D01*
X221799619Y-140202954D02*
X221631260Y-140371313D01*
X221631260Y-140371313D02*
X221530245Y-140404985D01*
X221395558Y-141145763D02*
X221429230Y-141044748D01*
X221429230Y-141044748D02*
X221395558Y-140943733D01*
X221395558Y-140943733D02*
X220789466Y-140337641D01*
X220823138Y-141650840D02*
X220924153Y-141617168D01*
X220924153Y-141617168D02*
X221058840Y-141482481D01*
X221058840Y-141482481D02*
X221092512Y-141381466D01*
X221092512Y-141381466D02*
X221058840Y-141280451D01*
X221058840Y-141280451D02*
X220789466Y-141011077D01*
X220789466Y-141011077D02*
X220688451Y-140977405D01*
X220688451Y-140977405D02*
X220587435Y-141011077D01*
X220587435Y-141011077D02*
X220452748Y-141145764D01*
X220452748Y-141145764D02*
X220419077Y-141246779D01*
X220419077Y-141246779D02*
X220452748Y-141347794D01*
X220452748Y-141347794D02*
X220520092Y-141415138D01*
X220520092Y-141415138D02*
X220924153Y-141145764D01*
X232180452Y-137675047D02*
X232887559Y-136967941D01*
X232887559Y-136967941D02*
X232146780Y-137237315D01*
X232146780Y-137237315D02*
X232416154Y-136496536D01*
X232416154Y-136496536D02*
X231709048Y-137203643D01*
X232045765Y-136260834D02*
X232045765Y-136193490D01*
X232045765Y-136193490D02*
X232012094Y-136092475D01*
X232012094Y-136092475D02*
X231843735Y-135924116D01*
X231843735Y-135924116D02*
X231742720Y-135890445D01*
X231742720Y-135890445D02*
X231675376Y-135890445D01*
X231675376Y-135890445D02*
X231574361Y-135924116D01*
X231574361Y-135924116D02*
X231507017Y-135991460D01*
X231507017Y-135991460D02*
X231439674Y-136126147D01*
X231439674Y-136126147D02*
X231439674Y-136934269D01*
X231439674Y-136934269D02*
X231001941Y-136496536D01*
D11*
%TO.C,C35*%
X224150000Y-126530000D02*
X225150000Y-125530000D01*
X224150000Y-133030000D02*
X224150000Y-126530000D01*
X224150000Y-133030000D02*
X225150000Y-134030000D01*
X224837722Y-131280000D02*
X225637722Y-131280000D01*
X225150000Y-125530000D02*
X232650000Y-125530000D01*
X225150000Y-134030000D02*
X232650000Y-134030000D01*
X225237722Y-131680000D02*
X225237722Y-130880000D01*
X232650000Y-134030000D02*
X232650000Y-125530000D01*
X232400000Y-129780000D02*
G75*
G03*
X232400000Y-129780000I-4000000J0D01*
G01*
%TO.C,LS1*%
X227900000Y-124750000D02*
X227900000Y-117350000D01*
X233650000Y-124750000D02*
X227900000Y-124750000D01*
X233650000Y-122925000D02*
X232650000Y-122300000D01*
X232650000Y-122300000D02*
X233650000Y-121675000D01*
X227900000Y-117350000D02*
X233650000Y-117350000D01*
X233650000Y-117350000D02*
X233650000Y-124750000D01*
%TO.C,BT1*%
X224989337Y-110974416D02*
X224561812Y-112149032D01*
X222924744Y-115448079D02*
X217380558Y-113430160D01*
X224463835Y-111219462D02*
X222924744Y-115448079D01*
X223814721Y-110546891D02*
X224989337Y-110974416D01*
X217380558Y-113430160D02*
X218919648Y-109201543D01*
X218919648Y-109201543D02*
X224463835Y-111219462D01*
%TO.C,M1*%
X170803984Y-134995658D02*
X176036575Y-140228249D01*
X166738120Y-139061522D02*
X170803984Y-134995658D01*
X168028590Y-140351992D02*
X169177639Y-140086827D01*
X169177639Y-140086827D02*
X168912474Y-141235876D01*
X176036575Y-140228249D02*
X171970711Y-144294113D01*
X171970711Y-144294113D02*
X166738120Y-139061522D01*
%TO.C,M2*%
X223290773Y-140293364D02*
X228523364Y-135060773D01*
X227356637Y-144359228D02*
X223290773Y-140293364D01*
X228647107Y-143068758D02*
X228381942Y-141919709D01*
X228381942Y-141919709D02*
X229530991Y-142184874D01*
X228523364Y-135060773D02*
X232589228Y-139126637D01*
X232589228Y-139126637D02*
X227356637Y-144359228D01*
%TD*%
M02*
